# Blender 4.4.0
# www.blender.org
mtllib Ring.mtl
o 円柱
v 0.000000 -0.079416 1.196333
v 0.000000 0.079417 1.196333
v -0.233393 -0.079416 1.173345
v -0.233393 0.079417 1.173345
v -0.457817 -0.079416 1.105268
v -0.457817 0.079417 1.105268
v -0.664647 -0.079416 0.994714
v -0.664647 0.079417 0.994714
v -0.845935 -0.079416 0.845935
v -0.845935 0.079417 0.845935
v -0.994714 -0.079416 0.664647
v -0.994714 0.079417 0.664647
v -1.105268 -0.079416 0.457817
v -1.105268 0.079417 0.457817
v -1.173345 -0.079416 0.233393
v -1.173345 0.079417 0.233393
v -1.196333 -0.079416 0.000000
v -1.196333 0.079416 -0.000000
v -1.173345 -0.079417 -0.233393
v -1.173345 0.079416 -0.233393
v -1.105268 -0.079417 -0.457817
v -1.105268 0.079416 -0.457817
v -0.994714 -0.079417 -0.664647
v -0.994714 0.079416 -0.664647
v -0.845935 -0.079417 -0.845935
v -0.845935 0.079416 -0.845935
v -0.664647 -0.079417 -0.994714
v -0.664647 0.079416 -0.994714
v -0.457817 -0.079417 -1.105268
v -0.457817 0.079416 -1.105268
v -0.233393 -0.079417 -1.173345
v -0.233393 0.079416 -1.173345
v 0.000000 -0.079417 -1.196333
v 0.000000 0.079416 -1.196333
v 0.233393 -0.079417 -1.173345
v 0.233393 0.079416 -1.173345
v 0.457817 -0.079417 -1.105268
v 0.457817 0.079416 -1.105268
v 0.664647 -0.079417 -0.994714
v 0.664647 0.079416 -0.994714
v 0.845935 -0.079417 -0.845935
v 0.845935 0.079416 -0.845935
v 0.994714 -0.079417 -0.664647
v 0.994714 0.079416 -0.664647
v 1.105268 -0.079417 -0.457817
v 1.105268 0.079416 -0.457817
v 1.173345 -0.079417 -0.233393
v 1.173345 0.079416 -0.233393
v 1.196333 -0.079416 0.000000
v 1.196333 0.079416 -0.000000
v 1.173345 -0.079416 0.233393
v 1.173345 0.079417 0.233393
v 1.105268 -0.079416 0.457817
v 1.105268 0.079417 0.457817
v 0.994714 -0.079416 0.664647
v 0.994714 0.079417 0.664647
v 0.845935 -0.079416 0.845935
v 0.845935 0.079417 0.845935
v 0.664647 -0.079416 0.994714
v 0.664647 0.079417 0.994714
v 0.457817 -0.079416 1.105268
v 0.457817 0.079417 1.105268
v 0.233393 -0.079416 1.173345
v 0.233393 0.079417 1.173345
v 0.851189 0.079417 0.568746
v 0.568746 0.079417 0.851189
v 0.723876 0.079417 0.723876
v 0.199717 0.079417 1.004045
v -0.199717 0.079417 1.004045
v 0.000000 0.079417 1.023716
v 0.391759 0.079417 0.945790
v 1.023716 0.079416 -0.000000
v 1.004045 0.079417 0.199717
v 1.004045 0.079416 -0.199717
v 0.851189 0.079416 -0.568746
v 0.568746 0.079416 -0.851189
v 0.723876 0.079416 -0.723876
v 0.945790 0.079416 -0.391759
v 0.199717 0.079416 -1.004045
v -0.199717 0.079416 -1.004045
v 0.000000 0.079416 -1.023716
v -0.568746 0.079416 -0.851189
v -0.851189 0.079416 -0.568746
v -0.723876 0.079416 -0.723876
v -0.391759 0.079416 -0.945790
v -0.568746 0.079417 0.851189
v -0.851189 0.079417 0.568746
v -0.723876 0.079417 0.723876
v -1.023716 0.079416 -0.000000
v -1.004045 0.079416 -0.199717
v -1.004045 0.079417 0.199717
v -0.945790 0.079417 0.391759
v 0.945790 0.079417 0.391759
v -0.391759 0.079417 0.945790
v 0.391759 0.079416 -0.945790
v -0.945790 0.079416 -0.391759
v 0.000000 -0.079416 1.023716
v -0.391759 -0.079416 0.945790
v -0.199717 -0.079416 1.004045
v -0.723876 -0.079416 0.723876
v -0.945790 -0.079416 0.391759
v -0.851189 -0.079416 0.568746
v -0.568746 -0.079416 0.851189
v -0.391759 -0.079417 -0.945790
v -0.723876 -0.079417 -0.723876
v -0.568746 -0.079417 -0.851189
v -0.945790 -0.079417 -0.391759
v -1.023716 -0.079416 0.000000
v -1.004045 -0.079417 -0.199717
v -0.851189 -0.079417 -0.568746
v 0.945790 -0.079417 -0.391759
v 0.723876 -0.079417 -0.723876
v 0.851189 -0.079417 -0.568746
v 0.391759 -0.079417 -0.945790
v 0.000000 -0.079417 -1.023716
v 0.199717 -0.079417 -1.004045
v 0.568746 -0.079417 -0.851189
v 1.023716 -0.079416 0.000000
v 0.945790 -0.079416 0.391759
v 1.004045 -0.079416 0.199717
v 0.723876 -0.079416 0.723876
v 0.391759 -0.079416 0.945790
v 0.568746 -0.079416 0.851189
v 0.851189 -0.079416 0.568746
v -0.199717 -0.079417 -1.004045
v -1.004045 -0.079416 0.199717
v 1.004045 -0.079417 -0.199717
v 0.199717 -0.079416 1.004045
vn -0.0291 0.9977 0.0615
vn -0.0119 -0.9981 0.0599
vn 0.0001 -0.9981 0.0615
vn -0.0406 0.9977 0.0550
vn -0.0235 -0.9981 0.0568
vn -0.0506 0.9977 0.0460
vn -0.0344 -0.9981 0.0513
vn -0.0587 0.9976 0.0355
vn -0.0433 -0.9981 0.0433
vn -0.0644 0.9977 0.0232
vn -0.0511 -0.9981 0.0342
vn -0.0676 0.9977 0.0102
vn -0.0568 -0.9981 0.0234
vn -0.0680 0.9977 -0.0034
vn -0.0606 -0.9981 0.0119
vn -0.0666 0.9976 -0.0164
vn -0.0615 -0.9981 -0.0000
vn -0.0619 0.9977 -0.0291
vn -0.0599 -0.9981 -0.0119
vn -0.0547 0.9977 -0.0406
vn -0.0568 -0.9981 -0.0235
vn -0.0460 0.9977 -0.0506
vn -0.0513 -0.9981 -0.0344
vn -0.0355 0.9976 -0.0587
vn -0.0435 -0.9981 -0.0435
vn -0.0232 0.9977 -0.0644
vn -0.0342 -0.9981 -0.0511
vn -0.0102 0.9977 -0.0676
vn -0.0233 -0.9981 -0.0565
vn 0.0034 0.9977 -0.0680
vn -0.0119 -0.9981 -0.0606
vn 0.0164 0.9976 -0.0666
vn -0.0000 -0.9981 -0.0615
vn 0.0291 0.9977 -0.0619
vn 0.0119 -0.9981 -0.0599
vn 0.0406 0.9977 -0.0547
vn 0.0235 -0.9981 -0.0568
vn 0.0506 0.9977 -0.0460
vn 0.0344 -0.9981 -0.0513
vn 0.0587 0.9976 -0.0355
vn 0.0435 -0.9981 -0.0435
vn 0.0642 0.9977 -0.0230
vn 0.0511 -0.9981 -0.0342
vn 0.0676 0.9977 -0.0102
vn 0.0565 -0.9981 -0.0233
vn 0.0683 0.9977 0.0032
vn 0.0606 -0.9981 -0.0119
vn 0.0666 0.9976 0.0164
vn 0.0615 -0.9981 -0.0000
vn 0.0619 0.9977 0.0291
vn 0.0599 -0.9981 0.0119
vn 0.0550 0.9977 0.0406
vn 0.0568 -0.9981 0.0235
vn 0.0460 0.9977 0.0506
vn 0.0513 -0.9981 0.0344
vn 0.0353 0.9977 0.0586
vn 0.0435 -0.9981 0.0435
vn 0.0232 0.9977 0.0644
vn 0.0342 -0.9981 0.0511
vn 0.0100 0.9977 0.0674
vn 0.0233 -0.9981 0.0565
vn 0.0296 0.9986 -0.0445
vn 0.0371 0.9986 -0.0370
vn -0.0296 0.9986 0.0445
vn -0.0395 0.9984 0.0394
vn -0.0032 0.9977 0.0683
vn 0.0119 -0.9981 0.0606
vn -0.0164 0.9976 0.0666
vn -0.0524 -0.9986 0.0104
vn -0.0499 -0.9985 0.0207
vn 0.0524 -0.9986 -0.0104
vn 0.0497 -0.9986 -0.0206
vn 0.0360 0.9982 -0.0481
vn -0.0000 -0.9985 -0.0538
vn 0.0104 -0.9985 -0.0531
vn 0.0447 0.9982 -0.0401
vn 0.0205 -0.9986 -0.0497
vn 0.0296 -0.9986 -0.0444
vn 0.0394 -0.9984 -0.0395
vn 0.0447 -0.9986 -0.0299
vn 0.0448 0.9986 -0.0298
vn 0.0500 0.9985 -0.0207
vn 0.0524 0.9986 -0.0104
vn 0.0538 -0.9985 -0.0001
vn 0.0538 0.9985 -0.0000
vn 0.0530 -0.9985 0.0105
vn 0.0530 0.9985 0.0105
vn 0.0496 -0.9986 0.0208
vn 0.0497 0.9986 0.0206
vn 0.0444 -0.9986 0.0296
vn 0.0444 0.9986 0.0297
vn 0.0381 -0.9986 0.0380
vn 0.0380 0.9986 0.0380
vn 0.0299 -0.9986 0.0447
vn 0.0298 0.9986 0.0448
vn 0.0210 -0.9985 0.0498
vn 0.0207 0.9985 0.0500
vn 0.0105 -0.9986 0.0524
vn 0.0104 0.9986 0.0524
vn 0.0001 -0.9985 0.0538
vn -0.0000 0.9985 0.0538
vn -0.0105 -0.9985 0.0530
vn -0.0105 0.9985 0.0530
vn -0.0208 -0.9986 0.0496
vn -0.0206 0.9986 0.0497
vn -0.0296 -0.9986 0.0444
vn -0.0370 -0.9986 0.0371
vn -0.0595 0.9982 0.0084
vn -0.0447 -0.9986 0.0299
vn -0.0600 0.9982 -0.0032
vn -0.0578 0.9982 -0.0150
vn -0.0542 0.9982 -0.0259
vn -0.0538 -0.9985 0.0001
vn -0.0481 0.9982 -0.0360
vn -0.0531 -0.9985 -0.0104
vn -0.0401 0.9982 -0.0447
vn -0.0497 -0.9986 -0.0205
vn -0.0306 0.9982 -0.0517
vn -0.0444 -0.9986 -0.0296
vn -0.0200 0.9982 -0.0566
vn -0.0381 -0.9986 -0.0380
vn -0.0086 0.9982 -0.0598
vn -0.0299 -0.9986 -0.0447
vn 0.0032 0.9982 -0.0600
vn -0.0207 -0.9985 -0.0499
vn 0.0150 0.9982 -0.0578
vn -0.0105 -0.9986 -0.0524
vn 0.0259 0.9982 -0.0545
vt 1.000000 1.000000
vt 0.968750 0.500000
vt 1.000000 0.500000
vt 0.968750 1.000000
vt 0.937500 0.500000
vt 0.937500 1.000000
vt 0.906250 0.500000
vt 0.906250 1.000000
vt 0.875000 0.500000
vt 0.875000 1.000000
vt 0.843750 0.500000
vt 0.843750 1.000000
vt 0.812500 0.500000
vt 0.812500 1.000000
vt 0.781250 0.500000
vt 0.781250 1.000000
vt 0.750000 0.500000
vt 0.750000 1.000000
vt 0.718750 0.500000
vt 0.718750 1.000000
vt 0.687500 0.500000
vt 0.687500 1.000000
vt 0.656250 0.500000
vt 0.656250 1.000000
vt 0.625000 0.500000
vt 0.625000 1.000000
vt 0.593750 0.500000
vt 0.593750 1.000000
vt 0.562500 0.500000
vt 0.562500 1.000000
vt 0.531250 0.500000
vt 0.531250 1.000000
vt 0.500000 0.500000
vt 0.500000 1.000000
vt 0.468750 0.500000
vt 0.468750 1.000000
vt 0.437500 0.500000
vt 0.437500 1.000000
vt 0.406250 0.500000
vt 0.406250 1.000000
vt 0.375000 0.500000
vt 0.375000 1.000000
vt 0.343750 0.500000
vt 0.343750 1.000000
vt 0.312500 0.500000
vt 0.312500 1.000000
vt 0.281250 0.500000
vt 0.281250 1.000000
vt 0.250000 0.500000
vt 0.250000 1.000000
vt 0.218750 0.500000
vt 0.218750 1.000000
vt 0.187500 0.500000
vt 0.187500 1.000000
vt 0.156250 0.500000
vt 0.156250 1.000000
vt 0.125000 0.500000
vt 0.125000 1.000000
vt 0.093750 0.500000
vt 0.093750 1.000000
vt 0.062500 0.500000
vt 0.383337 0.449553
vt 0.364098 0.420760
vt 0.395219 0.395219
vt 0.116663 0.050447
vt 0.135902 0.079240
vt 0.104781 0.104781
vt 0.062500 1.000000
vt 0.031250 0.500000
vt 0.031250 1.000000
vt 0.000000 0.500000
vt 0.514612 0.203178
vt 0.548575 0.209934
vt 0.560262 0.171408
vt 0.985388 0.296822
vt 0.951424 0.290066
vt 0.939737 0.328592
vt 0.968750 0.854472
vt 1.000000 0.645528
vt 0.968750 0.645528
vt 0.937500 0.854472
vt 0.937500 0.645528
vt 0.906250 0.854472
vt 0.906250 0.645528
vt 0.875000 0.854472
vt 0.875000 0.645528
vt 0.843750 0.645528
vt 0.843750 0.854472
vt 0.812500 0.645528
vt 0.812500 0.854472
vt 0.781250 0.645528
vt 0.781250 0.854472
vt 0.750000 0.645528
vt 0.750000 0.854472
vt 0.718750 0.645528
vt 0.718750 0.854472
vt 0.687500 0.645528
vt 0.687500 0.854472
vt 0.656250 0.645528
vt 0.656250 0.854472
vt 0.625000 0.645528
vt 0.625000 0.854472
vt 0.593750 0.645528
vt 0.593750 0.854472
vt 0.562500 0.645528
vt 0.562500 0.854472
vt 0.531250 0.645528
vt 0.531250 0.854472
vt 0.500000 0.645528
vt 0.500000 0.854472
vt 0.468750 0.645528
vt 0.468750 0.854472
vt 0.437500 0.645528
vt 0.437500 0.854472
vt 0.406250 0.645528
vt 0.406250 0.854472
vt 0.375000 0.645528
vt 0.375000 0.854472
vt 0.343750 0.854472
vt 0.343750 0.645528
vt 0.312500 0.854472
vt 0.312500 0.645528
vt 0.281250 0.854472
vt 0.281250 0.645528
vt 0.250000 0.854472
vt 0.250000 0.645528
vt 0.218750 0.854472
vt 0.218750 0.645528
vt 0.187500 0.854472
vt 0.187500 0.645528
vt 0.156250 0.854472
vt 0.156250 0.645528
vt 0.125000 0.854472
vt 0.125000 0.645528
vt 0.093750 0.854472
vt 0.093750 0.645528
vt 0.062500 0.854472
vt 0.062500 0.645528
vt 0.031250 0.854472
vt 0.031250 0.645528
vt 0.000000 0.854472
vt 0.000000 0.645528
vt 0.328592 0.060262
vt 0.341844 0.028269
vt 0.383337 0.050447
vt 0.419706 0.080294
vt 0.364098 0.079240
vt 0.449553 0.116663
vt 0.395219 0.104781
vt 0.471731 0.158156
vt 0.439738 0.171408
vt 0.485388 0.203178
vt 0.451425 0.209934
vt 0.490000 0.250000
vt 0.485388 0.296822
vt 0.455371 0.250000
vt 0.471731 0.341844
vt 0.439738 0.328592
vt 0.449553 0.383337
vt 0.419706 0.419706
vt 0.420760 0.364098
vt 0.341844 0.471731
vt 0.328592 0.439738
vt 0.296822 0.485388
vt 0.290066 0.451424
vt 0.250000 0.490000
vt 0.250000 0.455371
vt 0.203178 0.485388
vt 0.158156 0.471731
vt 0.171408 0.439738
vt 0.116663 0.449553
vt 0.135902 0.420759
vt 0.080294 0.419706
vt 0.050447 0.383337
vt 0.104781 0.395219
vt 0.028269 0.341844
vt 0.079240 0.364098
vt 0.060262 0.328592
vt 0.420759 0.135902
vt 0.209934 0.451424
vt 0.451425 0.290066
vt 0.014612 0.296822
vt 0.010000 0.250000
vt 0.048575 0.290066
vt 0.014612 0.203178
vt 0.044629 0.250000
vt 0.028269 0.158156
vt 0.060262 0.171408
vt 0.050447 0.116663
vt 0.079240 0.135902
vt 0.080294 0.080294
vt 0.158156 0.028269
vt 0.171408 0.060262
vt 0.203178 0.014612
vt 0.209934 0.048575
vt 0.250000 0.010000
vt 0.296822 0.014612
vt 0.250000 0.044629
vt 0.290066 0.048575
vt 0.048575 0.209934
vt 0.000000 1.000000
vt 0.604781 0.104781
vt 0.635902 0.079240
vt 0.616663 0.050447
vt 0.580294 0.080294
vt 0.550447 0.116663
vt 0.579240 0.135902
vt 0.528269 0.158156
vt 0.510000 0.250000
vt 0.544629 0.250000
vt 0.514612 0.296822
vt 0.548575 0.290066
vt 0.528269 0.341844
vt 0.550447 0.383337
vt 0.560262 0.328592
vt 0.579240 0.364098
vt 0.604781 0.395219
vt 0.580294 0.419706
vt 0.616663 0.449553
vt 0.635902 0.420760
vt 0.658156 0.471731
vt 0.671408 0.439738
vt 0.703178 0.485388
vt 0.750000 0.490000
vt 0.750000 0.455371
vt 0.796822 0.485388
vt 0.790065 0.451424
vt 0.841844 0.471731
vt 0.883337 0.449553
vt 0.828592 0.439738
vt 0.919706 0.419706
vt 0.895219 0.395219
vt 0.949553 0.383337
vt 0.971731 0.341844
vt 0.920759 0.364098
vt 0.990000 0.250000
vt 0.955370 0.250000
vt 0.985388 0.203178
vt 0.951424 0.209934
vt 0.971731 0.158156
vt 0.949553 0.116663
vt 0.939737 0.171408
vt 0.919706 0.080294
vt 0.895219 0.104781
vt 0.883337 0.050447
vt 0.864098 0.079240
vt 0.841844 0.028269
vt 0.828592 0.060262
vt 0.796822 0.014612
vt 0.750000 0.010000
vt 0.750000 0.044629
vt 0.703178 0.014612
vt 0.709934 0.048575
vt 0.658156 0.028269
vt 0.671408 0.060262
vt 0.709934 0.451425
vt 0.790066 0.048575
vt 0.920759 0.135902
vt 0.864097 0.420759
vt 1.000000 0.854472
s 1
usemtl マテリアル
f 2/1/1 3/2/2 1/3/3
f 4/4/4 5/5/5 3/2/2
f 6/6/6 7/7/7 5/5/5
f 8/8/8 9/9/9 7/7/7
f 10/10/10 11/11/11 9/9/9
f 12/12/12 13/13/13 11/11/11
f 14/14/14 15/15/15 13/13/13
f 16/16/16 17/17/17 15/15/15
f 18/18/18 19/19/19 17/17/17
f 20/20/20 21/21/21 19/19/19
f 22/22/22 23/23/23 21/21/21
f 24/24/24 25/25/25 23/23/23
f 26/26/26 27/27/27 25/25/25
f 28/28/28 29/29/29 27/27/27
f 30/30/30 31/31/31 29/29/29
f 32/32/32 33/33/33 31/31/31
f 34/34/34 35/35/35 33/33/33
f 36/36/36 37/37/37 35/35/35
f 38/38/38 39/39/39 37/37/37
f 40/40/40 41/41/41 39/39/39
f 42/42/42 43/43/43 41/41/41
f 44/44/44 45/45/45 43/43/43
f 46/46/46 47/47/47 45/45/45
f 48/48/48 49/49/49 47/47/47
f 50/50/50 51/51/51 49/49/49
f 52/52/52 53/53/53 51/51/51
f 54/54/54 55/55/55 53/53/53
f 56/56/56 57/57/57 55/55/55
f 58/58/58 59/59/59 57/57/57
f 60/60/60 61/61/61 59/59/59
f 8/62/8 86/63/62 88/64/63
f 40/65/40 76/66/64 77/67/65
f 62/68/66 63/69/67 61/61/61
f 64/70/68 1/71/3 63/69/67
f 47/72/47 127/73/69 111/74/70
f 15/75/15 126/76/71 101/77/72
f 69/78/73 97/79/74 99/80/75
f 94/81/76 99/80/75 98/82/77
f 86/83/62 98/82/77 103/84/78
f 88/85/63 103/84/78 100/86/79
f 88/85/63 102/87/80 87/88/81
f 87/88/81 101/89/72 92/90/82
f 92/90/82 126/91/71 91/92/83
f 91/92/83 108/93/84 89/94/85
f 89/94/85 109/95/86 90/96/87
f 90/96/87 107/97/88 96/98/89
f 96/98/89 110/99/90 83/100/91
f 83/100/91 105/101/92 84/102/93
f 84/102/93 106/103/94 82/104/95
f 82/104/95 104/105/96 85/106/97
f 85/106/97 125/107/98 80/108/99
f 80/108/99 115/109/100 81/110/101
f 81/110/101 116/111/102 79/112/103
f 79/112/103 114/113/104 95/114/105
f 95/114/105 117/115/106 76/116/64
f 76/116/64 112/117/107 77/118/65
f 75/119/108 112/117/107 113/120/109
f 78/121/110 113/120/109 111/122/70
f 74/123/111 111/122/70 127/124/69
f 72/125/112 127/124/69 118/126/113
f 73/127/114 118/126/113 120/128/115
f 93/129/116 120/128/115 119/130/117
f 65/131/118 119/130/117 124/132/119
f 67/133/120 124/132/119 121/134/121
f 66/135/122 121/134/121 123/136/123
f 71/137/124 123/136/123 122/138/125
f 68/139/126 122/138/125 128/140/127
f 70/141/128 128/140/127 97/142/74
f 2/1/1 4/4/4 3/2/2
f 4/4/4 6/6/6 5/5/5
f 6/6/6 8/8/8 7/7/7
f 8/8/8 10/10/10 9/9/9
f 10/10/10 12/12/12 11/11/11
f 12/12/12 14/14/14 13/13/13
f 14/14/14 16/16/16 15/15/15
f 16/16/16 18/18/18 17/17/17
f 18/18/18 20/20/20 19/19/19
f 20/20/20 22/22/22 21/21/21
f 22/22/22 24/24/24 23/23/23
f 24/24/24 26/26/26 25/25/25
f 26/26/26 28/28/28 27/27/27
f 28/28/28 30/30/30 29/29/29
f 30/30/30 32/32/32 31/31/31
f 32/32/32 34/34/34 33/33/33
f 34/34/34 36/36/36 35/35/35
f 36/36/36 38/38/38 37/37/37
f 38/38/38 40/40/40 39/39/39
f 40/40/40 42/42/42 41/41/41
f 42/42/42 44/44/44 43/43/43
f 44/44/44 46/46/46 45/45/45
f 46/46/46 48/48/48 47/47/47
f 48/48/48 50/50/50 49/49/49
f 50/50/50 52/52/52 51/51/51
f 52/52/52 54/54/54 53/53/53
f 54/54/54 56/56/56 55/55/55
f 56/56/56 58/58/58 57/57/57
f 58/58/58 60/60/60 59/59/59
f 60/60/60 62/68/66 61/61/61
f 85/143/97 30/144/30 28/145/28
f 28/145/28 26/146/26 82/147/95
f 26/146/26 24/148/24 84/149/93
f 82/147/95 26/146/26 84/149/93
f 24/148/24 22/150/22 96/151/89
f 22/150/22 20/152/20 90/153/87
f 20/152/20 18/154/18 90/153/87
f 18/154/18 16/155/16 89/156/85
f 90/153/87 18/154/18 89/156/85
f 16/155/16 14/157/14 92/158/82
f 14/157/14 12/159/12 92/158/82
f 12/159/12 10/160/10 87/161/81
f 10/160/10 8/62/8 88/64/63
f 87/161/81 10/160/10 88/64/63
f 8/62/8 6/162/6 94/163/76
f 6/162/6 4/164/4 69/165/73
f 4/164/4 2/166/1 70/167/128
f 2/166/1 64/168/68 70/167/128
f 64/168/68 62/169/66 71/170/124
f 62/169/66 60/171/60 66/172/122
f 60/171/60 58/173/58 66/172/122
f 58/173/58 56/174/56 67/175/120
f 66/172/122 58/173/58 67/175/120
f 56/174/56 54/176/54 65/177/118
f 54/176/54 93/178/116 65/177/118
f 62/169/66 66/172/122 71/170/124
f 6/162/6 69/165/73 94/163/76
f 92/158/82 12/159/12 87/161/81
f 22/150/22 90/153/87 96/151/89
f 85/143/97 28/145/28 82/147/95
f 56/174/56 65/177/118 67/175/120
f 83/179/91 84/149/93 24/148/24
f 96/151/89 83/179/91 24/148/24
f 64/168/68 71/170/124 68/180/126
f 64/168/68 68/180/126 70/167/128
f 4/164/4 70/167/128 69/165/73
f 91/181/83 89/156/85 16/155/16
f 92/158/82 91/181/83 16/155/16
f 8/62/8 94/163/76 86/63/62
f 93/178/116 54/176/54 52/182/52
f 52/182/52 50/183/50 73/184/114
f 50/183/50 48/185/48 72/186/112
f 73/184/114 50/183/50 72/186/112
f 48/185/48 46/187/46 78/188/110
f 46/187/46 44/189/44 75/190/108
f 44/189/44 42/191/42 77/67/65
f 42/191/42 40/65/40 77/67/65
f 40/65/40 38/192/38 95/193/105
f 38/192/38 36/194/36 79/195/103
f 36/194/36 34/196/34 79/195/103
f 34/196/34 32/197/32 81/198/101
f 79/195/103 34/196/34 81/198/101
f 32/197/32 30/144/30 85/143/97
f 32/197/32 85/143/97 80/199/99
f 38/192/38 79/195/103 95/193/105
f 46/187/46 75/190/108 78/188/110
f 93/178/116 52/182/52 73/184/114
f 32/197/32 80/199/99 81/198/101
f 74/200/111 72/186/112 48/185/48
f 78/188/110 74/200/111 48/185/48
f 40/65/40 95/193/105 76/66/64
f 77/67/65 75/190/108 44/189/44
f 62/68/66 64/70/68 63/69/67
f 64/70/68 2/201/1 1/71/3
f 112/202/107 117/203/106 39/204/39
f 39/204/39 41/205/41 112/202/107
f 41/205/41 43/206/43 113/207/109
f 43/206/43 45/208/45 111/74/70
f 45/208/45 47/72/47 111/74/70
f 47/72/47 49/209/49 118/210/113
f 49/209/49 51/211/51 120/212/115
f 51/211/51 53/213/53 120/212/115
f 53/213/53 55/214/55 119/215/117
f 120/212/115 53/213/53 119/215/117
f 55/214/55 124/216/119 119/215/117
f 49/209/49 120/212/115 118/210/113
f 41/205/41 113/207/109 112/202/107
f 111/74/70 113/207/109 43/206/43
f 47/72/47 118/210/113 127/73/69
f 121/217/121 124/216/119 55/214/55
f 55/214/55 57/218/57 121/217/121
f 57/218/57 59/219/59 123/220/123
f 59/219/59 61/221/61 122/222/125
f 61/221/61 63/223/67 122/222/125
f 63/223/67 1/224/3 97/225/74
f 1/224/3 3/226/2 99/227/75
f 3/226/2 5/228/5 99/227/75
f 5/228/5 7/229/7 98/230/77
f 99/227/75 5/228/5 98/230/77
f 7/229/7 9/231/9 100/232/79
f 9/231/9 11/233/11 100/232/79
f 11/233/11 13/234/13 102/235/80
f 13/234/13 15/75/15 101/77/72
f 102/235/80 13/234/13 101/77/72
f 15/75/15 17/236/17 108/237/84
f 17/236/17 19/238/19 109/239/86
f 19/238/19 21/240/21 109/239/86
f 21/240/21 23/241/23 107/242/88
f 109/239/86 21/240/21 107/242/88
f 23/241/23 25/243/25 105/244/92
f 25/243/25 27/245/27 106/246/94
f 27/245/27 29/247/29 104/248/96
f 29/247/29 31/249/31 104/248/96
f 31/249/31 33/250/33 115/251/100
f 33/250/33 35/252/35 116/253/102
f 35/252/35 37/254/37 116/253/102
f 37/254/37 39/204/39 114/255/104
f 116/253/102 37/254/37 114/255/104
f 39/204/39 117/203/106 114/255/104
f 33/250/33 116/253/102 115/251/100
f 25/243/25 106/246/94 105/244/92
f 17/236/17 109/239/86 108/237/84
f 100/232/79 11/233/11 102/235/80
f 1/224/3 99/227/75 97/225/74
f 57/218/57 123/220/123 121/217/121
f 122/222/125 123/220/123 59/219/59
f 128/256/127 122/222/125 63/223/67
f 31/249/31 115/251/100 125/257/98
f 31/249/31 125/257/98 104/248/96
f 97/225/74 128/256/127 63/223/67
f 27/245/27 104/248/96 106/246/94
f 23/241/23 105/244/92 110/258/90
f 103/259/78 98/230/77 7/229/7
f 100/232/79 103/259/78 7/229/7
f 23/241/23 110/258/90 107/242/88
f 15/75/15 108/237/84 126/76/71
f 69/78/73 70/260/128 97/79/74
f 94/81/76 69/78/73 99/80/75
f 86/83/62 94/81/76 98/82/77
f 88/85/63 86/83/62 103/84/78
f 88/85/63 100/86/79 102/87/80
f 87/88/81 102/87/80 101/89/72
f 92/90/82 101/89/72 126/91/71
f 91/92/83 126/91/71 108/93/84
f 89/94/85 108/93/84 109/95/86
f 90/96/87 109/95/86 107/97/88
f 96/98/89 107/97/88 110/99/90
f 83/100/91 110/99/90 105/101/92
f 84/102/93 105/101/92 106/103/94
f 82/104/95 106/103/94 104/105/96
f 85/106/97 104/105/96 125/107/98
f 80/108/99 125/107/98 115/109/100
f 81/110/101 115/109/100 116/111/102
f 79/112/103 116/111/102 114/113/104
f 95/114/105 114/113/104 117/115/106
f 76/116/64 117/115/106 112/117/107
f 75/119/108 77/118/65 112/117/107
f 78/121/110 75/119/108 113/120/109
f 74/123/111 78/121/110 111/122/70
f 72/125/112 74/123/111 127/124/69
f 73/127/114 72/125/112 118/126/113
f 93/129/116 73/127/114 120/128/115
f 65/131/118 93/129/116 119/130/117
f 67/133/120 65/131/118 124/132/119
f 66/135/122 67/133/120 121/134/121
f 71/137/124 66/135/122 123/136/123
f 68/139/126 71/137/124 122/138/125
f 70/141/128 68/139/126 128/140/127
