{
	"asset":{
		"generator":"Khronos glTF Blender I/O v4.4.56",
		"version":"2.0"
	},
	"scene":0,
	"scenes":[
		{
			"name":"Scene",
			"nodes":[
				10
			]
		}
	],
	"nodes":[
		{
			"name":"\u30dc\u30fc\u30f3.002",
			"rotation":[
				-0.005454753991216421,
				-2.328341131008216e-10,
				8.342009749640056e-09,
				0.9999851584434509
			],
			"translation":[
				1.7171259969472885e-09,
				0.3303929269313812,
				4.656612873077393e-10
			]
		},
		{
			"name":"\u30dc\u30fc\u30f3.007",
			"rotation":[
				-0.5939431190490723,
				0.001209451351314783,
				-0.06584034860134125,
				0.8018074631690979
			],
			"scale":[
				0.9999999403953552,
				0.9999999403953552,
				0.9999998807907104
			],
			"translation":[
				2.2351741790771484e-08,
				0.6625063419342041,
				0
			]
		},
		{
			"name":"\u30dc\u30fc\u30f3.008",
			"rotation":[
				0.6868901252746582,
				-0.0014062169939279556,
				0.07277165353298187,
				0.7231074571609497
			],
			"scale":[
				0.9999999403953552,
				0.9999998807907104,
				0.9999999403953552
			],
			"translation":[
				2.2351741790771484e-08,
				0.6625063419342041,
				0
			]
		},
		{
			"children":[
				1,
				2
			],
			"name":"\u30dc\u30fc\u30f3.003",
			"rotation":[
				0.7564256191253662,
				-0.00034092835267074406,
				0.10636966675519943,
				0.6453725099563599
			],
			"scale":[
				1,
				1.0000001192092896,
				1.0000001192092896
			],
			"translation":[
				1.7171259969472885e-09,
				0.3303929269313812,
				4.656612873077393e-10
			]
		},
		{
			"name":"\u30dc\u30fc\u30f3.005",
			"rotation":[
				0.488199383020401,
				-0.0008515591616742313,
				0.08392558246850967,
				0.8686870336532593
			],
			"scale":[
				0.9999999403953552,
				1.0000001192092896,
				1
			],
			"translation":[
				1.1059455573558807e-08,
				0.7843311429023743,
				1.0069925338029861e-08
			]
		},
		{
			"name":"\u30dc\u30fc\u30f3.006",
			"rotation":[
				-0.7405135035514832,
				0.0012883786112070084,
				-0.13074080646038055,
				0.6592002511024475
			],
			"scale":[
				1.0000001192092896,
				1,
				1
			],
			"translation":[
				1.1059455573558807e-08,
				0.7843311429023743,
				1.0069925338029861e-08
			]
		},
		{
			"children":[
				4,
				5
			],
			"name":"\u30dc\u30fc\u30f3.004",
			"rotation":[
				-0.7347685098648071,
				0.00014054599159862846,
				-0.10466411709785461,
				0.6701945066452026
			],
			"scale":[
				1,
				1.0000001192092896,
				1
			],
			"translation":[
				1.7171259969472885e-09,
				0.3303929269313812,
				4.656612873077393e-10
			]
		},
		{
			"children":[
				0,
				3,
				6
			],
			"name":"\u30dc\u30fc\u30f3.001",
			"rotation":[
				-0.004777807276695967,
				-1.1967631508014165e-07,
				-1.0721246113121197e-08,
				0.9999885559082031
			],
			"scale":[
				1,
				0.9999999403953552,
				1
			],
			"translation":[
				-5.027686711400747e-09,
				0.37489575147628784,
				-1.0477378964424133e-09
			]
		},
		{
			"children":[
				7
			],
			"name":"\u30dc\u30fc\u30f3",
			"rotation":[
				0.017284346744418144,
				-0.009768396615982056,
				-0.655370831489563,
				0.7550463080406189
			],
			"scale":[
				1,
				0.9999998807907104,
				0.9999999403953552
			],
			"translation":[
				-0.40630245208740234,
				0.07416141033172607,
				-0.0007099583745002747
			]
		},
		{
			"mesh":0,
			"name":"\u7acb\u65b9\u4f53.006",
			"skin":0
		},
		{
			"children":[
				9,
				8
			],
			"name":"\u30a2\u30fc\u30de\u30c1\u30e5\u30a2.001"
		}
	],
	"animations":[
		{
			"channels":[
				{
					"sampler":0,
					"target":{
						"node":8,
						"path":"translation"
					}
				},
				{
					"sampler":1,
					"target":{
						"node":8,
						"path":"rotation"
					}
				},
				{
					"sampler":2,
					"target":{
						"node":8,
						"path":"scale"
					}
				},
				{
					"sampler":3,
					"target":{
						"node":7,
						"path":"translation"
					}
				},
				{
					"sampler":4,
					"target":{
						"node":7,
						"path":"rotation"
					}
				},
				{
					"sampler":5,
					"target":{
						"node":7,
						"path":"scale"
					}
				},
				{
					"sampler":6,
					"target":{
						"node":0,
						"path":"translation"
					}
				},
				{
					"sampler":7,
					"target":{
						"node":0,
						"path":"rotation"
					}
				},
				{
					"sampler":8,
					"target":{
						"node":0,
						"path":"scale"
					}
				},
				{
					"sampler":9,
					"target":{
						"node":3,
						"path":"translation"
					}
				},
				{
					"sampler":10,
					"target":{
						"node":3,
						"path":"rotation"
					}
				},
				{
					"sampler":11,
					"target":{
						"node":3,
						"path":"scale"
					}
				},
				{
					"sampler":12,
					"target":{
						"node":1,
						"path":"translation"
					}
				},
				{
					"sampler":13,
					"target":{
						"node":1,
						"path":"rotation"
					}
				},
				{
					"sampler":14,
					"target":{
						"node":1,
						"path":"scale"
					}
				},
				{
					"sampler":15,
					"target":{
						"node":2,
						"path":"translation"
					}
				},
				{
					"sampler":16,
					"target":{
						"node":2,
						"path":"rotation"
					}
				},
				{
					"sampler":17,
					"target":{
						"node":2,
						"path":"scale"
					}
				},
				{
					"sampler":18,
					"target":{
						"node":6,
						"path":"translation"
					}
				},
				{
					"sampler":19,
					"target":{
						"node":6,
						"path":"rotation"
					}
				},
				{
					"sampler":20,
					"target":{
						"node":6,
						"path":"scale"
					}
				},
				{
					"sampler":21,
					"target":{
						"node":4,
						"path":"translation"
					}
				},
				{
					"sampler":22,
					"target":{
						"node":4,
						"path":"rotation"
					}
				},
				{
					"sampler":23,
					"target":{
						"node":4,
						"path":"scale"
					}
				},
				{
					"sampler":24,
					"target":{
						"node":5,
						"path":"translation"
					}
				},
				{
					"sampler":25,
					"target":{
						"node":5,
						"path":"rotation"
					}
				},
				{
					"sampler":26,
					"target":{
						"node":5,
						"path":"scale"
					}
				}
			],
			"name":"fly.001",
			"samplers":[
				{
					"input":7,
					"interpolation":"CUBICSPLINE",
					"output":8
				},
				{
					"input":7,
					"interpolation":"CUBICSPLINE",
					"output":9
				},
				{
					"input":7,
					"interpolation":"CUBICSPLINE",
					"output":10
				},
				{
					"input":7,
					"interpolation":"CUBICSPLINE",
					"output":11
				},
				{
					"input":7,
					"interpolation":"CUBICSPLINE",
					"output":12
				},
				{
					"input":7,
					"interpolation":"CUBICSPLINE",
					"output":13
				},
				{
					"input":7,
					"interpolation":"CUBICSPLINE",
					"output":14
				},
				{
					"input":7,
					"interpolation":"CUBICSPLINE",
					"output":15
				},
				{
					"input":7,
					"interpolation":"CUBICSPLINE",
					"output":16
				},
				{
					"input":7,
					"interpolation":"CUBICSPLINE",
					"output":17
				},
				{
					"input":7,
					"interpolation":"CUBICSPLINE",
					"output":18
				},
				{
					"input":7,
					"interpolation":"CUBICSPLINE",
					"output":19
				},
				{
					"input":7,
					"interpolation":"CUBICSPLINE",
					"output":20
				},
				{
					"input":7,
					"interpolation":"CUBICSPLINE",
					"output":21
				},
				{
					"input":7,
					"interpolation":"CUBICSPLINE",
					"output":22
				},
				{
					"input":7,
					"interpolation":"CUBICSPLINE",
					"output":23
				},
				{
					"input":7,
					"interpolation":"CUBICSPLINE",
					"output":24
				},
				{
					"input":7,
					"interpolation":"CUBICSPLINE",
					"output":25
				},
				{
					"input":7,
					"interpolation":"CUBICSPLINE",
					"output":26
				},
				{
					"input":7,
					"interpolation":"CUBICSPLINE",
					"output":27
				},
				{
					"input":7,
					"interpolation":"CUBICSPLINE",
					"output":28
				},
				{
					"input":29,
					"interpolation":"CUBICSPLINE",
					"output":30
				},
				{
					"input":29,
					"interpolation":"CUBICSPLINE",
					"output":31
				},
				{
					"input":29,
					"interpolation":"CUBICSPLINE",
					"output":32
				},
				{
					"input":7,
					"interpolation":"CUBICSPLINE",
					"output":33
				},
				{
					"input":7,
					"interpolation":"CUBICSPLINE",
					"output":34
				},
				{
					"input":7,
					"interpolation":"CUBICSPLINE",
					"output":35
				}
			]
		},
		{
			"channels":[
				{
					"sampler":0,
					"target":{
						"node":8,
						"path":"translation"
					}
				},
				{
					"sampler":1,
					"target":{
						"node":8,
						"path":"rotation"
					}
				},
				{
					"sampler":2,
					"target":{
						"node":8,
						"path":"scale"
					}
				},
				{
					"sampler":3,
					"target":{
						"node":7,
						"path":"translation"
					}
				},
				{
					"sampler":4,
					"target":{
						"node":7,
						"path":"rotation"
					}
				},
				{
					"sampler":5,
					"target":{
						"node":7,
						"path":"scale"
					}
				},
				{
					"sampler":6,
					"target":{
						"node":0,
						"path":"translation"
					}
				},
				{
					"sampler":7,
					"target":{
						"node":0,
						"path":"rotation"
					}
				},
				{
					"sampler":8,
					"target":{
						"node":0,
						"path":"scale"
					}
				},
				{
					"sampler":9,
					"target":{
						"node":3,
						"path":"translation"
					}
				},
				{
					"sampler":10,
					"target":{
						"node":3,
						"path":"rotation"
					}
				},
				{
					"sampler":11,
					"target":{
						"node":3,
						"path":"scale"
					}
				},
				{
					"sampler":12,
					"target":{
						"node":1,
						"path":"translation"
					}
				},
				{
					"sampler":13,
					"target":{
						"node":1,
						"path":"rotation"
					}
				},
				{
					"sampler":14,
					"target":{
						"node":1,
						"path":"scale"
					}
				},
				{
					"sampler":15,
					"target":{
						"node":2,
						"path":"translation"
					}
				},
				{
					"sampler":16,
					"target":{
						"node":2,
						"path":"rotation"
					}
				},
				{
					"sampler":17,
					"target":{
						"node":2,
						"path":"scale"
					}
				},
				{
					"sampler":18,
					"target":{
						"node":6,
						"path":"translation"
					}
				},
				{
					"sampler":19,
					"target":{
						"node":6,
						"path":"rotation"
					}
				},
				{
					"sampler":20,
					"target":{
						"node":6,
						"path":"scale"
					}
				},
				{
					"sampler":21,
					"target":{
						"node":4,
						"path":"translation"
					}
				},
				{
					"sampler":22,
					"target":{
						"node":4,
						"path":"rotation"
					}
				},
				{
					"sampler":23,
					"target":{
						"node":4,
						"path":"scale"
					}
				},
				{
					"sampler":24,
					"target":{
						"node":5,
						"path":"translation"
					}
				},
				{
					"sampler":25,
					"target":{
						"node":5,
						"path":"rotation"
					}
				},
				{
					"sampler":26,
					"target":{
						"node":5,
						"path":"scale"
					}
				}
			],
			"name":"idle.001",
			"samplers":[
				{
					"input":36,
					"interpolation":"CUBICSPLINE",
					"output":37
				},
				{
					"input":36,
					"interpolation":"CUBICSPLINE",
					"output":38
				},
				{
					"input":36,
					"interpolation":"CUBICSPLINE",
					"output":39
				},
				{
					"input":36,
					"interpolation":"CUBICSPLINE",
					"output":40
				},
				{
					"input":36,
					"interpolation":"CUBICSPLINE",
					"output":41
				},
				{
					"input":36,
					"interpolation":"CUBICSPLINE",
					"output":42
				},
				{
					"input":36,
					"interpolation":"CUBICSPLINE",
					"output":43
				},
				{
					"input":36,
					"interpolation":"CUBICSPLINE",
					"output":44
				},
				{
					"input":36,
					"interpolation":"CUBICSPLINE",
					"output":45
				},
				{
					"input":36,
					"interpolation":"CUBICSPLINE",
					"output":46
				},
				{
					"input":36,
					"interpolation":"CUBICSPLINE",
					"output":47
				},
				{
					"input":36,
					"interpolation":"CUBICSPLINE",
					"output":48
				},
				{
					"input":36,
					"interpolation":"CUBICSPLINE",
					"output":49
				},
				{
					"input":36,
					"interpolation":"CUBICSPLINE",
					"output":50
				},
				{
					"input":36,
					"interpolation":"CUBICSPLINE",
					"output":51
				},
				{
					"input":36,
					"interpolation":"CUBICSPLINE",
					"output":52
				},
				{
					"input":36,
					"interpolation":"CUBICSPLINE",
					"output":53
				},
				{
					"input":36,
					"interpolation":"CUBICSPLINE",
					"output":54
				},
				{
					"input":36,
					"interpolation":"CUBICSPLINE",
					"output":55
				},
				{
					"input":36,
					"interpolation":"CUBICSPLINE",
					"output":56
				},
				{
					"input":36,
					"interpolation":"CUBICSPLINE",
					"output":57
				},
				{
					"input":36,
					"interpolation":"CUBICSPLINE",
					"output":58
				},
				{
					"input":36,
					"interpolation":"CUBICSPLINE",
					"output":59
				},
				{
					"input":36,
					"interpolation":"CUBICSPLINE",
					"output":60
				},
				{
					"input":36,
					"interpolation":"CUBICSPLINE",
					"output":61
				},
				{
					"input":36,
					"interpolation":"CUBICSPLINE",
					"output":62
				},
				{
					"input":36,
					"interpolation":"CUBICSPLINE",
					"output":63
				}
			]
		}
	],
	"materials":[
		{
			"doubleSided":true,
			"name":"\u30de\u30c6\u30ea\u30a2\u30eb.006",
			"pbrMetallicRoughness":{
				"baseColorTexture":{
					"index":0
				},
				"metallicFactor":0,
				"roughnessFactor":0.5
			}
		}
	],
	"meshes":[
		{
			"name":"\u7acb\u65b9\u4f53.009",
			"primitives":[
				{
					"attributes":{
						"POSITION":0,
						"NORMAL":1,
						"TEXCOORD_0":2,
						"JOINTS_0":3,
						"WEIGHTS_0":4
					},
					"indices":5,
					"material":0
				}
			]
		}
	],
	"textures":[
		{
			"sampler":0,
			"source":0
		}
	],
	"images":[
		{
			"mimeType":"image/png",
			"name":"butterfly",
			"uri":"butterfly.png"
		}
	],
	"skins":[
		{
			"inverseBindMatrices":6,
			"joints":[
				8,
				7,
				0,
				3,
				1,
				2,
				6,
				4,
				5
			],
			"name":"\u30a2\u30fc\u30de\u30c1\u30e5\u30a2.001"
		}
	],
	"accessors":[
		{
			"bufferView":0,
			"componentType":5126,
			"count":877,
			"max":[
				1.2863479852676392,
				0.31331419944763184,
				1.7989814281463623
			],
			"min":[
				-1.6934458017349243,
				-0.13202834129333496,
				-1.6995716094970703
			],
			"type":"VEC3"
		},
		{
			"bufferView":1,
			"componentType":5126,
			"count":877,
			"type":"VEC3"
		},
		{
			"bufferView":2,
			"componentType":5126,
			"count":877,
			"type":"VEC2"
		},
		{
			"bufferView":3,
			"componentType":5121,
			"count":877,
			"type":"VEC4"
		},
		{
			"bufferView":4,
			"componentType":5126,
			"count":877,
			"type":"VEC4"
		},
		{
			"bufferView":5,
			"componentType":5123,
			"count":2601,
			"type":"SCALAR"
		},
		{
			"bufferView":6,
			"componentType":5126,
			"count":9,
			"type":"MAT4"
		},
		{
			"bufferView":7,
			"componentType":5126,
			"count":5,
			"max":[
				1.6666666666666667
			],
			"min":[
				0.041666666666666664
			],
			"type":"SCALAR"
		},
		{
			"bufferView":8,
			"componentType":5126,
			"count":15,
			"type":"VEC3"
		},
		{
			"bufferView":9,
			"componentType":5126,
			"count":15,
			"type":"VEC4"
		},
		{
			"bufferView":10,
			"componentType":5126,
			"count":15,
			"type":"VEC3"
		},
		{
			"bufferView":11,
			"componentType":5126,
			"count":15,
			"type":"VEC3"
		},
		{
			"bufferView":12,
			"componentType":5126,
			"count":15,
			"type":"VEC4"
		},
		{
			"bufferView":13,
			"componentType":5126,
			"count":15,
			"type":"VEC3"
		},
		{
			"bufferView":14,
			"componentType":5126,
			"count":15,
			"type":"VEC3"
		},
		{
			"bufferView":15,
			"componentType":5126,
			"count":15,
			"type":"VEC4"
		},
		{
			"bufferView":16,
			"componentType":5126,
			"count":15,
			"type":"VEC3"
		},
		{
			"bufferView":17,
			"componentType":5126,
			"count":15,
			"type":"VEC3"
		},
		{
			"bufferView":18,
			"componentType":5126,
			"count":15,
			"type":"VEC4"
		},
		{
			"bufferView":19,
			"componentType":5126,
			"count":15,
			"type":"VEC3"
		},
		{
			"bufferView":20,
			"componentType":5126,
			"count":15,
			"type":"VEC3"
		},
		{
			"bufferView":21,
			"componentType":5126,
			"count":15,
			"type":"VEC4"
		},
		{
			"bufferView":22,
			"componentType":5126,
			"count":15,
			"type":"VEC3"
		},
		{
			"bufferView":23,
			"componentType":5126,
			"count":15,
			"type":"VEC3"
		},
		{
			"bufferView":24,
			"componentType":5126,
			"count":15,
			"type":"VEC4"
		},
		{
			"bufferView":25,
			"componentType":5126,
			"count":15,
			"type":"VEC3"
		},
		{
			"bufferView":26,
			"componentType":5126,
			"count":15,
			"type":"VEC3"
		},
		{
			"bufferView":27,
			"componentType":5126,
			"count":15,
			"type":"VEC4"
		},
		{
			"bufferView":28,
			"componentType":5126,
			"count":15,
			"type":"VEC3"
		},
		{
			"bufferView":29,
			"componentType":5126,
			"count":9,
			"max":[
				1.625
			],
			"min":[
				0.041666666666666664
			],
			"type":"SCALAR"
		},
		{
			"bufferView":30,
			"componentType":5126,
			"count":27,
			"type":"VEC3"
		},
		{
			"bufferView":31,
			"componentType":5126,
			"count":27,
			"type":"VEC4"
		},
		{
			"bufferView":32,
			"componentType":5126,
			"count":27,
			"type":"VEC3"
		},
		{
			"bufferView":33,
			"componentType":5126,
			"count":15,
			"type":"VEC3"
		},
		{
			"bufferView":34,
			"componentType":5126,
			"count":15,
			"type":"VEC4"
		},
		{
			"bufferView":35,
			"componentType":5126,
			"count":15,
			"type":"VEC3"
		},
		{
			"bufferView":36,
			"componentType":5126,
			"count":3,
			"max":[
				3.3333333333333335
			],
			"min":[
				0.08333333333333333
			],
			"type":"SCALAR"
		},
		{
			"bufferView":37,
			"componentType":5126,
			"count":9,
			"type":"VEC3"
		},
		{
			"bufferView":38,
			"componentType":5126,
			"count":9,
			"type":"VEC4"
		},
		{
			"bufferView":39,
			"componentType":5126,
			"count":9,
			"type":"VEC3"
		},
		{
			"bufferView":40,
			"componentType":5126,
			"count":9,
			"type":"VEC3"
		},
		{
			"bufferView":41,
			"componentType":5126,
			"count":9,
			"type":"VEC4"
		},
		{
			"bufferView":42,
			"componentType":5126,
			"count":9,
			"type":"VEC3"
		},
		{
			"bufferView":43,
			"componentType":5126,
			"count":9,
			"type":"VEC3"
		},
		{
			"bufferView":44,
			"componentType":5126,
			"count":9,
			"type":"VEC4"
		},
		{
			"bufferView":45,
			"componentType":5126,
			"count":9,
			"type":"VEC3"
		},
		{
			"bufferView":46,
			"componentType":5126,
			"count":9,
			"type":"VEC3"
		},
		{
			"bufferView":47,
			"componentType":5126,
			"count":9,
			"type":"VEC4"
		},
		{
			"bufferView":48,
			"componentType":5126,
			"count":9,
			"type":"VEC3"
		},
		{
			"bufferView":49,
			"componentType":5126,
			"count":9,
			"type":"VEC3"
		},
		{
			"bufferView":50,
			"componentType":5126,
			"count":9,
			"type":"VEC4"
		},
		{
			"bufferView":51,
			"componentType":5126,
			"count":9,
			"type":"VEC3"
		},
		{
			"bufferView":52,
			"componentType":5126,
			"count":9,
			"type":"VEC3"
		},
		{
			"bufferView":53,
			"componentType":5126,
			"count":9,
			"type":"VEC4"
		},
		{
			"bufferView":54,
			"componentType":5126,
			"count":9,
			"type":"VEC3"
		},
		{
			"bufferView":55,
			"componentType":5126,
			"count":9,
			"type":"VEC3"
		},
		{
			"bufferView":56,
			"componentType":5126,
			"count":9,
			"type":"VEC4"
		},
		{
			"bufferView":57,
			"componentType":5126,
			"count":9,
			"type":"VEC3"
		},
		{
			"bufferView":58,
			"componentType":5126,
			"count":9,
			"type":"VEC3"
		},
		{
			"bufferView":59,
			"componentType":5126,
			"count":9,
			"type":"VEC4"
		},
		{
			"bufferView":60,
			"componentType":5126,
			"count":9,
			"type":"VEC3"
		},
		{
			"bufferView":61,
			"componentType":5126,
			"count":9,
			"type":"VEC3"
		},
		{
			"bufferView":62,
			"componentType":5126,
			"count":9,
			"type":"VEC4"
		},
		{
			"bufferView":63,
			"componentType":5126,
			"count":9,
			"type":"VEC3"
		}
	],
	"bufferViews":[
		{
			"buffer":0,
			"byteLength":10524,
			"byteOffset":0,
			"target":34962
		},
		{
			"buffer":0,
			"byteLength":10524,
			"byteOffset":10524,
			"target":34962
		},
		{
			"buffer":0,
			"byteLength":7016,
			"byteOffset":21048,
			"target":34962
		},
		{
			"buffer":0,
			"byteLength":3508,
			"byteOffset":28064,
			"target":34962
		},
		{
			"buffer":0,
			"byteLength":14032,
			"byteOffset":31572,
			"target":34962
		},
		{
			"buffer":0,
			"byteLength":5202,
			"byteOffset":45604,
			"target":34963
		},
		{
			"buffer":0,
			"byteLength":576,
			"byteOffset":50808
		},
		{
			"buffer":0,
			"byteLength":20,
			"byteOffset":51384
		},
		{
			"buffer":0,
			"byteLength":180,
			"byteOffset":51404
		},
		{
			"buffer":0,
			"byteLength":240,
			"byteOffset":51584
		},
		{
			"buffer":0,
			"byteLength":180,
			"byteOffset":51824
		},
		{
			"buffer":0,
			"byteLength":180,
			"byteOffset":52004
		},
		{
			"buffer":0,
			"byteLength":240,
			"byteOffset":52184
		},
		{
			"buffer":0,
			"byteLength":180,
			"byteOffset":52424
		},
		{
			"buffer":0,
			"byteLength":180,
			"byteOffset":52604
		},
		{
			"buffer":0,
			"byteLength":240,
			"byteOffset":52784
		},
		{
			"buffer":0,
			"byteLength":180,
			"byteOffset":53024
		},
		{
			"buffer":0,
			"byteLength":180,
			"byteOffset":53204
		},
		{
			"buffer":0,
			"byteLength":240,
			"byteOffset":53384
		},
		{
			"buffer":0,
			"byteLength":180,
			"byteOffset":53624
		},
		{
			"buffer":0,
			"byteLength":180,
			"byteOffset":53804
		},
		{
			"buffer":0,
			"byteLength":240,
			"byteOffset":53984
		},
		{
			"buffer":0,
			"byteLength":180,
			"byteOffset":54224
		},
		{
			"buffer":0,
			"byteLength":180,
			"byteOffset":54404
		},
		{
			"buffer":0,
			"byteLength":240,
			"byteOffset":54584
		},
		{
			"buffer":0,
			"byteLength":180,
			"byteOffset":54824
		},
		{
			"buffer":0,
			"byteLength":180,
			"byteOffset":55004
		},
		{
			"buffer":0,
			"byteLength":240,
			"byteOffset":55184
		},
		{
			"buffer":0,
			"byteLength":180,
			"byteOffset":55424
		},
		{
			"buffer":0,
			"byteLength":36,
			"byteOffset":55604
		},
		{
			"buffer":0,
			"byteLength":324,
			"byteOffset":55640
		},
		{
			"buffer":0,
			"byteLength":432,
			"byteOffset":55964
		},
		{
			"buffer":0,
			"byteLength":324,
			"byteOffset":56396
		},
		{
			"buffer":0,
			"byteLength":180,
			"byteOffset":56720
		},
		{
			"buffer":0,
			"byteLength":240,
			"byteOffset":56900
		},
		{
			"buffer":0,
			"byteLength":180,
			"byteOffset":57140
		},
		{
			"buffer":0,
			"byteLength":12,
			"byteOffset":57320
		},
		{
			"buffer":0,
			"byteLength":108,
			"byteOffset":57332
		},
		{
			"buffer":0,
			"byteLength":144,
			"byteOffset":57440
		},
		{
			"buffer":0,
			"byteLength":108,
			"byteOffset":57584
		},
		{
			"buffer":0,
			"byteLength":108,
			"byteOffset":57692
		},
		{
			"buffer":0,
			"byteLength":144,
			"byteOffset":57800
		},
		{
			"buffer":0,
			"byteLength":108,
			"byteOffset":57944
		},
		{
			"buffer":0,
			"byteLength":108,
			"byteOffset":58052
		},
		{
			"buffer":0,
			"byteLength":144,
			"byteOffset":58160
		},
		{
			"buffer":0,
			"byteLength":108,
			"byteOffset":58304
		},
		{
			"buffer":0,
			"byteLength":108,
			"byteOffset":58412
		},
		{
			"buffer":0,
			"byteLength":144,
			"byteOffset":58520
		},
		{
			"buffer":0,
			"byteLength":108,
			"byteOffset":58664
		},
		{
			"buffer":0,
			"byteLength":108,
			"byteOffset":58772
		},
		{
			"buffer":0,
			"byteLength":144,
			"byteOffset":58880
		},
		{
			"buffer":0,
			"byteLength":108,
			"byteOffset":59024
		},
		{
			"buffer":0,
			"byteLength":108,
			"byteOffset":59132
		},
		{
			"buffer":0,
			"byteLength":144,
			"byteOffset":59240
		},
		{
			"buffer":0,
			"byteLength":108,
			"byteOffset":59384
		},
		{
			"buffer":0,
			"byteLength":108,
			"byteOffset":59492
		},
		{
			"buffer":0,
			"byteLength":144,
			"byteOffset":59600
		},
		{
			"buffer":0,
			"byteLength":108,
			"byteOffset":59744
		},
		{
			"buffer":0,
			"byteLength":108,
			"byteOffset":59852
		},
		{
			"buffer":0,
			"byteLength":144,
			"byteOffset":59960
		},
		{
			"buffer":0,
			"byteLength":108,
			"byteOffset":60104
		},
		{
			"buffer":0,
			"byteLength":108,
			"byteOffset":60212
		},
		{
			"buffer":0,
			"byteLength":144,
			"byteOffset":60320
		},
		{
			"buffer":0,
			"byteLength":108,
			"byteOffset":60464
		}
	],
	"samplers":[
		{
			"magFilter":9729,
			"minFilter":9987
		}
	],
	"buffers":[
		{
			"byteLength":60572,
			"uri":"butterfly.bin"
		}
	]
}
