# Blender 4.4.1
# www.blender.org
mtllib Menu.mtl
o Rool
v 0.738164 -0.252530 -0.003544
v -0.760223 -0.252530 -0.003414
v 0.738164 -0.362425 -0.003544
v 0.738164 -0.252530 0.020925
v -0.760223 -0.252530 0.021055
v 0.738164 -0.362425 0.020925
v -0.760223 -0.362425 0.021055
v -0.760223 -0.362425 -0.003414
v 0.738164 0.630644 -0.003544
v -0.760223 0.630644 -0.003414
v 0.738164 0.520749 -0.003544
v 0.738164 0.630644 0.020925
v -0.760223 0.630644 0.021055
v 0.738164 0.520749 0.020925
v -0.760223 0.520749 0.021055
v -0.760223 0.520749 -0.003414
vn -0.0000 1.0000 -0.0000
vn -0.0001 -0.0000 -1.0000
vn 1.0000 -0.0000 -0.0000
vn 0.0001 -0.0000 1.0000
vn -0.0000 -1.0000 -0.0000
vn -1.0000 -0.0000 -0.0000
vt 0.751930 0.428915
vt 0.758050 0.422806
vt 0.758050 0.428947
vt 0.709340 0.505450
vt 0.697927 0.332130
vt 0.709340 0.332618
vt 0.748137 0.426931
vt 0.735543 0.420304
vt 0.748371 0.420793
vt 0.760965 0.427441
vt 0.748370 0.420837
vt 0.761198 0.421326
vt 0.750630 0.432474
vt 0.744510 0.426365
vt 0.750630 0.426333
vt 0.744805 0.428684
vt 0.750947 0.415846
vt 0.750947 0.428684
vt 0.770145 0.428482
vt 0.776265 0.422372
vt 0.776265 0.428514
vt 0.709340 0.505669
vt 0.697927 0.331910
vt 0.709340 0.332398
vt 0.749347 0.424274
vt 0.736752 0.417647
vt 0.749581 0.418136
vt 0.762174 0.424784
vt 0.749579 0.418180
vt 0.762407 0.418669
vt 0.750630 0.432041
vt 0.744510 0.425932
vt 0.750630 0.425900
vt 0.727958 0.425338
vt 0.731037 0.418902
vt 0.731037 0.425338
vt 0.751930 0.422773
vt 0.697927 0.504961
vt 0.735309 0.426441
vt 0.748136 0.426952
vt 0.744510 0.432507
vt 0.744805 0.415846
vt 0.770145 0.422340
vt 0.697927 0.505181
vt 0.736518 0.423784
vt 0.749346 0.424295
vt 0.744510 0.432074
vt 0.727958 0.418902
s 0
usemtl マテリアル.001
f 4/1/1 2/2/1 5/3/1
f 1/4/2 8/5/2 2/6/2
f 4/7/3 3/8/3 1/9/3
f 6/10/4 5/11/4 7/12/4
f 8/13/5 6/14/5 7/15/5
f 2/16/6 7/17/6 5/18/6
f 12/19/1 10/20/1 13/21/1
f 9/22/2 16/23/2 10/24/2
f 12/25/3 11/26/3 9/27/3
f 14/28/4 13/29/4 15/30/4
f 16/31/5 14/32/5 15/33/5
f 10/34/6 15/35/6 13/36/6
f 4/1/1 1/37/1 2/2/1
f 1/4/2 3/38/2 8/5/2
f 4/7/3 6/39/3 3/8/3
f 6/10/4 4/40/4 5/11/4
f 8/13/5 3/41/5 6/14/5
f 2/16/6 8/42/6 7/17/6
f 12/19/1 9/43/1 10/20/1
f 9/22/2 11/44/2 16/23/2
f 12/25/3 14/45/3 11/26/3
f 14/28/4 12/46/4 13/29/4
f 16/31/5 11/47/5 14/32/5
f 10/34/6 16/48/6 15/35/6
o Menu
v 0.359321 0.344930 0.019228
v 0.359321 0.473118 0.019228
v -0.264993 0.344930 0.019228
v -0.264993 0.473118 0.019228
vn -0.0000 -0.0000 -1.0000
vt 0.925269 0.241959
vt 0.889955 0.116632
vt 0.925269 0.116632
vt 0.889955 0.241959
s 0
usemtl マテリアル.004
f 19/49/7 18/50/7 17/51/7
f 19/49/7 20/52/7 18/50/7
o 最初からやり直す
v 0.732887 0.179485 0.019228
v 0.732887 0.313015 0.019228
v -0.692793 0.179485 0.019228
v -0.692793 0.313015 0.019228
vn -0.0000 -0.0000 -1.0000
vt 0.322352 0.480461
vt 0.279706 0.059428
vt 0.322352 0.059428
vt 0.279706 0.480461
s 0
usemtl マテリアル.004
f 23/53/8 22/54/8 21/55/8
f 23/53/8 24/56/8 22/54/8
o タイトルに戻る
v 0.885881 -0.009158 0.019228
v 0.885881 0.124372 0.019228
v -0.705217 -0.009158 0.019228
v -0.705217 0.124372 0.019228
vn -0.0000 -0.0000 -1.0000
vt 0.585886 0.473625
vt 0.543240 0.052592
vt 0.585886 0.052592
vt 0.543240 0.473625
s 0
usemtl マテリアル.004
f 27/57/9 26/58/9 25/59/9
f 27/57/9 28/60/9 26/58/9
o セレクトに戻る
v 0.863002 -0.206003 0.019228
v 0.863002 -0.067293 0.019228
v -0.826667 -0.206003 0.019228
v -0.826667 -0.067293 0.019228
vn -0.0000 -0.0000 -1.0000
vt 0.069670 0.495867
vt 0.027024 0.026444
vt 0.069670 0.026444
vt 0.027024 0.495867
s 0
usemtl マテリアル.004
f 31/61/10 30/62/10 29/63/10
f 31/61/10 32/64/10 30/62/10
