{
	"asset":{
		"generator":"Khronos glTF Blender I/O v4.4.56",
		"version":"2.0"
	},
	"scene":0,
	"scenes":[
		{
			"name":"Scene",
			"nodes":[
				26
			]
		}
	],
	"nodes":[
		{
			"name":"\u30dc\u30fc\u30f3.001",
			"rotation":[
				-0.7071067690849304,
				-1.9670395090543025e-08,
				-1.9670395090543025e-08,
				0.7071067690849304
			],
			"translation":[
				-5.5636263596170465e-08,
				0.800000011920929,
				1
			]
		},
		{
			"name":"\u30dc\u30fc\u30f3.002",
			"translation":[
				0.00922594964504242,
				0.5081649422645569,
				0.933525025844574
			]
		},
		{
			"name":"\u30dc\u30fc\u30f3.003",
			"translation":[
				0.0038499473594129086,
				0.4362013638019562,
				0.9133399724960327
			]
		},
		{
			"name":"\u30dc\u30fc\u30f3.004",
			"translation":[
				0.007707363460212946,
				0.345855176448822,
				0.9629291296005249
			]
		},
		{
			"name":"\u30dc\u30fc\u30f3.005",
			"rotation":[
				-1.387778357264972e-15,
				3.725289587919178e-08,
				3.725289587919178e-08,
				1
			],
			"translation":[
				0.006428347434848547,
				0.28756147623062134,
				0.9028270244598389
			]
		},
		{
			"name":"\u30dc\u30fc\u30f3.006",
			"rotation":[
				-8.881774032605885e-14,
				2.980231101901154e-07,
				2.9802296808156825e-07,
				1
			],
			"translation":[
				0.007707364857196808,
				0.1953512579202652,
				0.9411729574203491
			]
		},
		{
			"name":"\u30dc\u30fc\u30f3.007",
			"translation":[
				0.004754593595862389,
				0.13179904222488403,
				0.9721198081970215
			]
		},
		{
			"name":"\u30dc\u30fc\u30f3.008",
			"translation":[
				0.0031366227194666862,
				0.06677722930908203,
				0.891819953918457
			]
		},
		{
			"name":"\u30dc\u30fc\u30f3.009",
			"translation":[
				0.007707363925874233,
				0.0393679141998291,
				0.9513117671012878
			]
		},
		{
			"name":"\u30dc\u30fc\u30f3.010",
			"translation":[
				0.004205859731882811,
				-0.035920143127441406,
				0.9397429823875427
			]
		},
		{
			"name":"\u30dc\u30fc\u30f3.011",
			"translation":[
				0.010479160584509373,
				-0.0948481634259224,
				0.9262230396270752
			]
		},
		{
			"name":"\u30dc\u30fc\u30f3.012",
			"translation":[
				0.007983459159731865,
				-0.150368332862854,
				0.9736257791519165
			]
		},
		{
			"name":"\u30dc\u30fc\u30f3.013",
			"translation":[
				0.009225644171237946,
				-0.26436662673950195,
				0.9335254430770874
			]
		},
		{
			"name":"\u30dc\u30fc\u30f3.014",
			"translation":[
				0.00922573171555996,
				0.5182327628135681,
				-0.6351726651191711
			]
		},
		{
			"name":"\u30dc\u30fc\u30f3.015",
			"translation":[
				0.0038501322269439697,
				0.4362013638019562,
				-0.6693428754806519
			]
		},
		{
			"name":"\u30dc\u30fc\u30f3.016",
			"translation":[
				0.00770745100453496,
				0.345855176448822,
				-0.6145593523979187
			]
		},
		{
			"name":"\u30dc\u30fc\u30f3.017",
			"translation":[
				0.0064284359104931355,
				0.28756147623062134,
				-0.6798563003540039
			]
		},
		{
			"name":"\u30dc\u30fc\u30f3.018",
			"translation":[
				0.007707452867180109,
				0.1953512579202652,
				-0.6493064761161804
			]
		},
		{
			"name":"\u30dc\u30fc\u30f3.019",
			"translation":[
				0.004754682071506977,
				0.13179904222488403,
				-0.6196745038032532
			]
		},
		{
			"name":"\u30dc\u30fc\u30f3.020",
			"translation":[
				0.007707453798502684,
				0.04168576002120972,
				-0.675636351108551
			]
		},
		{
			"name":"\u30dc\u30fc\u30f3.021",
			"translation":[
				0.004205948207527399,
				-0.035920143127441406,
				-0.646519660949707
			]
		},
		{
			"name":"\u30dc\u30fc\u30f3.022",
			"translation":[
				0.010479248128831387,
				-0.09976888447999954,
				-0.668380856513977
			]
		},
		{
			"name":"\u30dc\u30fc\u30f3.023",
			"translation":[
				0.007983548566699028,
				-0.150368332862854,
				-0.6295698881149292
			]
		},
		{
			"name":"\u30dc\u30fc\u30f3.024",
			"translation":[
				0.009225732646882534,
				-0.26436662673950195,
				-0.6491578817367554
			]
		},
		{
			"children":[
				0,
				1,
				2,
				3,
				4,
				5,
				6,
				7,
				8,
				9,
				10,
				11,
				12,
				13,
				14,
				15,
				16,
				17,
				18,
				19,
				20,
				21,
				22,
				23
			],
			"name":"\u30dc\u30fc\u30f3",
			"rotation":[
				0,
				0.7071068286895752,
				0,
				0.7071067094802856
			],
			"scale":[
				1,
				0.9999999403953552,
				1
			],
			"translation":[
				-0.10000000149011612,
				0,
				1.5099580252808664e-08
			]
		},
		{
			"mesh":0,
			"name":"Cube.004",
			"skin":0
		},
		{
			"children":[
				25,
				24
			],
			"name":"\u30a2\u30fc\u30de\u30c1\u30e5\u30a2.001"
		}
	],
	"animations":[
		{
			"channels":[
				{
					"sampler":0,
					"target":{
						"node":24,
						"path":"translation"
					}
				},
				{
					"sampler":1,
					"target":{
						"node":24,
						"path":"rotation"
					}
				},
				{
					"sampler":2,
					"target":{
						"node":24,
						"path":"scale"
					}
				},
				{
					"sampler":3,
					"target":{
						"node":0,
						"path":"translation"
					}
				},
				{
					"sampler":4,
					"target":{
						"node":0,
						"path":"rotation"
					}
				},
				{
					"sampler":5,
					"target":{
						"node":0,
						"path":"scale"
					}
				},
				{
					"sampler":6,
					"target":{
						"node":1,
						"path":"translation"
					}
				},
				{
					"sampler":7,
					"target":{
						"node":1,
						"path":"rotation"
					}
				},
				{
					"sampler":8,
					"target":{
						"node":1,
						"path":"scale"
					}
				},
				{
					"sampler":9,
					"target":{
						"node":2,
						"path":"translation"
					}
				},
				{
					"sampler":10,
					"target":{
						"node":2,
						"path":"rotation"
					}
				},
				{
					"sampler":11,
					"target":{
						"node":2,
						"path":"scale"
					}
				},
				{
					"sampler":12,
					"target":{
						"node":3,
						"path":"translation"
					}
				},
				{
					"sampler":13,
					"target":{
						"node":3,
						"path":"rotation"
					}
				},
				{
					"sampler":14,
					"target":{
						"node":3,
						"path":"scale"
					}
				},
				{
					"sampler":15,
					"target":{
						"node":4,
						"path":"translation"
					}
				},
				{
					"sampler":16,
					"target":{
						"node":4,
						"path":"rotation"
					}
				},
				{
					"sampler":17,
					"target":{
						"node":4,
						"path":"scale"
					}
				},
				{
					"sampler":18,
					"target":{
						"node":5,
						"path":"translation"
					}
				},
				{
					"sampler":19,
					"target":{
						"node":5,
						"path":"rotation"
					}
				},
				{
					"sampler":20,
					"target":{
						"node":5,
						"path":"scale"
					}
				},
				{
					"sampler":21,
					"target":{
						"node":6,
						"path":"translation"
					}
				},
				{
					"sampler":22,
					"target":{
						"node":6,
						"path":"rotation"
					}
				},
				{
					"sampler":23,
					"target":{
						"node":6,
						"path":"scale"
					}
				},
				{
					"sampler":24,
					"target":{
						"node":7,
						"path":"translation"
					}
				},
				{
					"sampler":25,
					"target":{
						"node":7,
						"path":"rotation"
					}
				},
				{
					"sampler":26,
					"target":{
						"node":7,
						"path":"scale"
					}
				},
				{
					"sampler":27,
					"target":{
						"node":8,
						"path":"translation"
					}
				},
				{
					"sampler":28,
					"target":{
						"node":8,
						"path":"rotation"
					}
				},
				{
					"sampler":29,
					"target":{
						"node":8,
						"path":"scale"
					}
				},
				{
					"sampler":30,
					"target":{
						"node":9,
						"path":"translation"
					}
				},
				{
					"sampler":31,
					"target":{
						"node":9,
						"path":"rotation"
					}
				},
				{
					"sampler":32,
					"target":{
						"node":9,
						"path":"scale"
					}
				},
				{
					"sampler":33,
					"target":{
						"node":10,
						"path":"translation"
					}
				},
				{
					"sampler":34,
					"target":{
						"node":10,
						"path":"rotation"
					}
				},
				{
					"sampler":35,
					"target":{
						"node":10,
						"path":"scale"
					}
				},
				{
					"sampler":36,
					"target":{
						"node":11,
						"path":"translation"
					}
				},
				{
					"sampler":37,
					"target":{
						"node":11,
						"path":"rotation"
					}
				},
				{
					"sampler":38,
					"target":{
						"node":11,
						"path":"scale"
					}
				},
				{
					"sampler":39,
					"target":{
						"node":12,
						"path":"translation"
					}
				},
				{
					"sampler":40,
					"target":{
						"node":12,
						"path":"rotation"
					}
				},
				{
					"sampler":41,
					"target":{
						"node":12,
						"path":"scale"
					}
				},
				{
					"sampler":42,
					"target":{
						"node":13,
						"path":"translation"
					}
				},
				{
					"sampler":43,
					"target":{
						"node":13,
						"path":"rotation"
					}
				},
				{
					"sampler":44,
					"target":{
						"node":13,
						"path":"scale"
					}
				},
				{
					"sampler":45,
					"target":{
						"node":14,
						"path":"translation"
					}
				},
				{
					"sampler":46,
					"target":{
						"node":14,
						"path":"rotation"
					}
				},
				{
					"sampler":47,
					"target":{
						"node":14,
						"path":"scale"
					}
				},
				{
					"sampler":48,
					"target":{
						"node":15,
						"path":"translation"
					}
				},
				{
					"sampler":49,
					"target":{
						"node":15,
						"path":"rotation"
					}
				},
				{
					"sampler":50,
					"target":{
						"node":15,
						"path":"scale"
					}
				},
				{
					"sampler":51,
					"target":{
						"node":16,
						"path":"translation"
					}
				},
				{
					"sampler":52,
					"target":{
						"node":16,
						"path":"rotation"
					}
				},
				{
					"sampler":53,
					"target":{
						"node":16,
						"path":"scale"
					}
				},
				{
					"sampler":54,
					"target":{
						"node":17,
						"path":"translation"
					}
				},
				{
					"sampler":55,
					"target":{
						"node":17,
						"path":"rotation"
					}
				},
				{
					"sampler":56,
					"target":{
						"node":17,
						"path":"scale"
					}
				},
				{
					"sampler":57,
					"target":{
						"node":18,
						"path":"translation"
					}
				},
				{
					"sampler":58,
					"target":{
						"node":18,
						"path":"rotation"
					}
				},
				{
					"sampler":59,
					"target":{
						"node":18,
						"path":"scale"
					}
				},
				{
					"sampler":60,
					"target":{
						"node":19,
						"path":"translation"
					}
				},
				{
					"sampler":61,
					"target":{
						"node":19,
						"path":"rotation"
					}
				},
				{
					"sampler":62,
					"target":{
						"node":19,
						"path":"scale"
					}
				},
				{
					"sampler":63,
					"target":{
						"node":20,
						"path":"translation"
					}
				},
				{
					"sampler":64,
					"target":{
						"node":20,
						"path":"rotation"
					}
				},
				{
					"sampler":65,
					"target":{
						"node":20,
						"path":"scale"
					}
				},
				{
					"sampler":66,
					"target":{
						"node":21,
						"path":"translation"
					}
				},
				{
					"sampler":67,
					"target":{
						"node":21,
						"path":"rotation"
					}
				},
				{
					"sampler":68,
					"target":{
						"node":21,
						"path":"scale"
					}
				},
				{
					"sampler":69,
					"target":{
						"node":22,
						"path":"translation"
					}
				},
				{
					"sampler":70,
					"target":{
						"node":22,
						"path":"rotation"
					}
				},
				{
					"sampler":71,
					"target":{
						"node":22,
						"path":"scale"
					}
				},
				{
					"sampler":72,
					"target":{
						"node":23,
						"path":"translation"
					}
				},
				{
					"sampler":73,
					"target":{
						"node":23,
						"path":"rotation"
					}
				},
				{
					"sampler":74,
					"target":{
						"node":23,
						"path":"scale"
					}
				}
			],
			"name":"Idle",
			"samplers":[
				{
					"input":10,
					"interpolation":"CUBICSPLINE",
					"output":11
				},
				{
					"input":10,
					"interpolation":"CUBICSPLINE",
					"output":12
				},
				{
					"input":10,
					"interpolation":"CUBICSPLINE",
					"output":13
				},
				{
					"input":10,
					"interpolation":"CUBICSPLINE",
					"output":14
				},
				{
					"input":10,
					"interpolation":"CUBICSPLINE",
					"output":15
				},
				{
					"input":10,
					"interpolation":"CUBICSPLINE",
					"output":16
				},
				{
					"input":17,
					"interpolation":"CUBICSPLINE",
					"output":18
				},
				{
					"input":17,
					"interpolation":"CUBICSPLINE",
					"output":19
				},
				{
					"input":17,
					"interpolation":"CUBICSPLINE",
					"output":20
				},
				{
					"input":17,
					"interpolation":"CUBICSPLINE",
					"output":21
				},
				{
					"input":17,
					"interpolation":"CUBICSPLINE",
					"output":22
				},
				{
					"input":17,
					"interpolation":"CUBICSPLINE",
					"output":23
				},
				{
					"input":17,
					"interpolation":"CUBICSPLINE",
					"output":24
				},
				{
					"input":17,
					"interpolation":"CUBICSPLINE",
					"output":25
				},
				{
					"input":17,
					"interpolation":"CUBICSPLINE",
					"output":26
				},
				{
					"input":17,
					"interpolation":"CUBICSPLINE",
					"output":27
				},
				{
					"input":17,
					"interpolation":"CUBICSPLINE",
					"output":28
				},
				{
					"input":17,
					"interpolation":"CUBICSPLINE",
					"output":29
				},
				{
					"input":17,
					"interpolation":"CUBICSPLINE",
					"output":30
				},
				{
					"input":17,
					"interpolation":"CUBICSPLINE",
					"output":31
				},
				{
					"input":17,
					"interpolation":"CUBICSPLINE",
					"output":32
				},
				{
					"input":17,
					"interpolation":"CUBICSPLINE",
					"output":33
				},
				{
					"input":17,
					"interpolation":"CUBICSPLINE",
					"output":34
				},
				{
					"input":17,
					"interpolation":"CUBICSPLINE",
					"output":35
				},
				{
					"input":17,
					"interpolation":"CUBICSPLINE",
					"output":36
				},
				{
					"input":17,
					"interpolation":"CUBICSPLINE",
					"output":37
				},
				{
					"input":17,
					"interpolation":"CUBICSPLINE",
					"output":38
				},
				{
					"input":17,
					"interpolation":"CUBICSPLINE",
					"output":39
				},
				{
					"input":17,
					"interpolation":"CUBICSPLINE",
					"output":40
				},
				{
					"input":17,
					"interpolation":"CUBICSPLINE",
					"output":41
				},
				{
					"input":17,
					"interpolation":"CUBICSPLINE",
					"output":42
				},
				{
					"input":17,
					"interpolation":"CUBICSPLINE",
					"output":43
				},
				{
					"input":17,
					"interpolation":"CUBICSPLINE",
					"output":44
				},
				{
					"input":17,
					"interpolation":"CUBICSPLINE",
					"output":45
				},
				{
					"input":17,
					"interpolation":"CUBICSPLINE",
					"output":46
				},
				{
					"input":17,
					"interpolation":"CUBICSPLINE",
					"output":47
				},
				{
					"input":17,
					"interpolation":"CUBICSPLINE",
					"output":48
				},
				{
					"input":17,
					"interpolation":"CUBICSPLINE",
					"output":49
				},
				{
					"input":17,
					"interpolation":"CUBICSPLINE",
					"output":50
				},
				{
					"input":17,
					"interpolation":"CUBICSPLINE",
					"output":51
				},
				{
					"input":17,
					"interpolation":"CUBICSPLINE",
					"output":52
				},
				{
					"input":17,
					"interpolation":"CUBICSPLINE",
					"output":53
				},
				{
					"input":17,
					"interpolation":"CUBICSPLINE",
					"output":54
				},
				{
					"input":17,
					"interpolation":"CUBICSPLINE",
					"output":55
				},
				{
					"input":17,
					"interpolation":"CUBICSPLINE",
					"output":56
				},
				{
					"input":17,
					"interpolation":"CUBICSPLINE",
					"output":57
				},
				{
					"input":17,
					"interpolation":"CUBICSPLINE",
					"output":58
				},
				{
					"input":17,
					"interpolation":"CUBICSPLINE",
					"output":59
				},
				{
					"input":17,
					"interpolation":"CUBICSPLINE",
					"output":60
				},
				{
					"input":17,
					"interpolation":"CUBICSPLINE",
					"output":61
				},
				{
					"input":17,
					"interpolation":"CUBICSPLINE",
					"output":62
				},
				{
					"input":17,
					"interpolation":"CUBICSPLINE",
					"output":63
				},
				{
					"input":17,
					"interpolation":"CUBICSPLINE",
					"output":64
				},
				{
					"input":17,
					"interpolation":"CUBICSPLINE",
					"output":65
				},
				{
					"input":17,
					"interpolation":"CUBICSPLINE",
					"output":66
				},
				{
					"input":17,
					"interpolation":"CUBICSPLINE",
					"output":67
				},
				{
					"input":17,
					"interpolation":"CUBICSPLINE",
					"output":68
				},
				{
					"input":17,
					"interpolation":"CUBICSPLINE",
					"output":69
				},
				{
					"input":17,
					"interpolation":"CUBICSPLINE",
					"output":70
				},
				{
					"input":17,
					"interpolation":"CUBICSPLINE",
					"output":71
				},
				{
					"input":17,
					"interpolation":"CUBICSPLINE",
					"output":72
				},
				{
					"input":17,
					"interpolation":"CUBICSPLINE",
					"output":73
				},
				{
					"input":17,
					"interpolation":"CUBICSPLINE",
					"output":74
				},
				{
					"input":17,
					"interpolation":"CUBICSPLINE",
					"output":75
				},
				{
					"input":17,
					"interpolation":"CUBICSPLINE",
					"output":76
				},
				{
					"input":17,
					"interpolation":"CUBICSPLINE",
					"output":77
				},
				{
					"input":17,
					"interpolation":"CUBICSPLINE",
					"output":78
				},
				{
					"input":17,
					"interpolation":"CUBICSPLINE",
					"output":79
				},
				{
					"input":17,
					"interpolation":"CUBICSPLINE",
					"output":80
				},
				{
					"input":17,
					"interpolation":"CUBICSPLINE",
					"output":81
				},
				{
					"input":17,
					"interpolation":"CUBICSPLINE",
					"output":82
				},
				{
					"input":17,
					"interpolation":"CUBICSPLINE",
					"output":83
				},
				{
					"input":17,
					"interpolation":"CUBICSPLINE",
					"output":84
				},
				{
					"input":17,
					"interpolation":"CUBICSPLINE",
					"output":85
				},
				{
					"input":17,
					"interpolation":"CUBICSPLINE",
					"output":86
				}
			]
		},
		{
			"channels":[
				{
					"sampler":0,
					"target":{
						"node":24,
						"path":"translation"
					}
				},
				{
					"sampler":1,
					"target":{
						"node":24,
						"path":"rotation"
					}
				},
				{
					"sampler":2,
					"target":{
						"node":24,
						"path":"scale"
					}
				},
				{
					"sampler":3,
					"target":{
						"node":0,
						"path":"translation"
					}
				},
				{
					"sampler":4,
					"target":{
						"node":0,
						"path":"rotation"
					}
				},
				{
					"sampler":5,
					"target":{
						"node":0,
						"path":"scale"
					}
				},
				{
					"sampler":6,
					"target":{
						"node":1,
						"path":"translation"
					}
				},
				{
					"sampler":7,
					"target":{
						"node":1,
						"path":"rotation"
					}
				},
				{
					"sampler":8,
					"target":{
						"node":1,
						"path":"scale"
					}
				},
				{
					"sampler":9,
					"target":{
						"node":2,
						"path":"translation"
					}
				},
				{
					"sampler":10,
					"target":{
						"node":2,
						"path":"rotation"
					}
				},
				{
					"sampler":11,
					"target":{
						"node":2,
						"path":"scale"
					}
				},
				{
					"sampler":12,
					"target":{
						"node":3,
						"path":"translation"
					}
				},
				{
					"sampler":13,
					"target":{
						"node":3,
						"path":"rotation"
					}
				},
				{
					"sampler":14,
					"target":{
						"node":3,
						"path":"scale"
					}
				},
				{
					"sampler":15,
					"target":{
						"node":4,
						"path":"translation"
					}
				},
				{
					"sampler":16,
					"target":{
						"node":4,
						"path":"rotation"
					}
				},
				{
					"sampler":17,
					"target":{
						"node":4,
						"path":"scale"
					}
				},
				{
					"sampler":18,
					"target":{
						"node":5,
						"path":"translation"
					}
				},
				{
					"sampler":19,
					"target":{
						"node":5,
						"path":"rotation"
					}
				},
				{
					"sampler":20,
					"target":{
						"node":5,
						"path":"scale"
					}
				},
				{
					"sampler":21,
					"target":{
						"node":6,
						"path":"translation"
					}
				},
				{
					"sampler":22,
					"target":{
						"node":6,
						"path":"rotation"
					}
				},
				{
					"sampler":23,
					"target":{
						"node":6,
						"path":"scale"
					}
				},
				{
					"sampler":24,
					"target":{
						"node":7,
						"path":"translation"
					}
				},
				{
					"sampler":25,
					"target":{
						"node":7,
						"path":"rotation"
					}
				},
				{
					"sampler":26,
					"target":{
						"node":7,
						"path":"scale"
					}
				},
				{
					"sampler":27,
					"target":{
						"node":8,
						"path":"translation"
					}
				},
				{
					"sampler":28,
					"target":{
						"node":8,
						"path":"rotation"
					}
				},
				{
					"sampler":29,
					"target":{
						"node":8,
						"path":"scale"
					}
				},
				{
					"sampler":30,
					"target":{
						"node":9,
						"path":"translation"
					}
				},
				{
					"sampler":31,
					"target":{
						"node":9,
						"path":"rotation"
					}
				},
				{
					"sampler":32,
					"target":{
						"node":9,
						"path":"scale"
					}
				},
				{
					"sampler":33,
					"target":{
						"node":10,
						"path":"translation"
					}
				},
				{
					"sampler":34,
					"target":{
						"node":10,
						"path":"rotation"
					}
				},
				{
					"sampler":35,
					"target":{
						"node":10,
						"path":"scale"
					}
				},
				{
					"sampler":36,
					"target":{
						"node":11,
						"path":"translation"
					}
				},
				{
					"sampler":37,
					"target":{
						"node":11,
						"path":"rotation"
					}
				},
				{
					"sampler":38,
					"target":{
						"node":11,
						"path":"scale"
					}
				},
				{
					"sampler":39,
					"target":{
						"node":12,
						"path":"translation"
					}
				},
				{
					"sampler":40,
					"target":{
						"node":12,
						"path":"rotation"
					}
				},
				{
					"sampler":41,
					"target":{
						"node":12,
						"path":"scale"
					}
				},
				{
					"sampler":42,
					"target":{
						"node":13,
						"path":"translation"
					}
				},
				{
					"sampler":43,
					"target":{
						"node":13,
						"path":"rotation"
					}
				},
				{
					"sampler":44,
					"target":{
						"node":13,
						"path":"scale"
					}
				},
				{
					"sampler":45,
					"target":{
						"node":14,
						"path":"translation"
					}
				},
				{
					"sampler":46,
					"target":{
						"node":14,
						"path":"rotation"
					}
				},
				{
					"sampler":47,
					"target":{
						"node":14,
						"path":"scale"
					}
				},
				{
					"sampler":48,
					"target":{
						"node":15,
						"path":"translation"
					}
				},
				{
					"sampler":49,
					"target":{
						"node":15,
						"path":"rotation"
					}
				},
				{
					"sampler":50,
					"target":{
						"node":15,
						"path":"scale"
					}
				},
				{
					"sampler":51,
					"target":{
						"node":16,
						"path":"translation"
					}
				},
				{
					"sampler":52,
					"target":{
						"node":16,
						"path":"rotation"
					}
				},
				{
					"sampler":53,
					"target":{
						"node":16,
						"path":"scale"
					}
				},
				{
					"sampler":54,
					"target":{
						"node":17,
						"path":"translation"
					}
				},
				{
					"sampler":55,
					"target":{
						"node":17,
						"path":"rotation"
					}
				},
				{
					"sampler":56,
					"target":{
						"node":17,
						"path":"scale"
					}
				},
				{
					"sampler":57,
					"target":{
						"node":18,
						"path":"translation"
					}
				},
				{
					"sampler":58,
					"target":{
						"node":18,
						"path":"rotation"
					}
				},
				{
					"sampler":59,
					"target":{
						"node":18,
						"path":"scale"
					}
				},
				{
					"sampler":60,
					"target":{
						"node":19,
						"path":"translation"
					}
				},
				{
					"sampler":61,
					"target":{
						"node":19,
						"path":"rotation"
					}
				},
				{
					"sampler":62,
					"target":{
						"node":19,
						"path":"scale"
					}
				},
				{
					"sampler":63,
					"target":{
						"node":20,
						"path":"translation"
					}
				},
				{
					"sampler":64,
					"target":{
						"node":20,
						"path":"rotation"
					}
				},
				{
					"sampler":65,
					"target":{
						"node":20,
						"path":"scale"
					}
				},
				{
					"sampler":66,
					"target":{
						"node":21,
						"path":"translation"
					}
				},
				{
					"sampler":67,
					"target":{
						"node":21,
						"path":"rotation"
					}
				},
				{
					"sampler":68,
					"target":{
						"node":21,
						"path":"scale"
					}
				},
				{
					"sampler":69,
					"target":{
						"node":22,
						"path":"translation"
					}
				},
				{
					"sampler":70,
					"target":{
						"node":22,
						"path":"rotation"
					}
				},
				{
					"sampler":71,
					"target":{
						"node":22,
						"path":"scale"
					}
				},
				{
					"sampler":72,
					"target":{
						"node":23,
						"path":"translation"
					}
				},
				{
					"sampler":73,
					"target":{
						"node":23,
						"path":"rotation"
					}
				},
				{
					"sampler":74,
					"target":{
						"node":23,
						"path":"scale"
					}
				}
			],
			"name":"Leave",
			"samplers":[
				{
					"input":87,
					"interpolation":"CUBICSPLINE",
					"output":88
				},
				{
					"input":87,
					"interpolation":"CUBICSPLINE",
					"output":89
				},
				{
					"input":87,
					"interpolation":"CUBICSPLINE",
					"output":90
				},
				{
					"input":91,
					"interpolation":"CUBICSPLINE",
					"output":92
				},
				{
					"input":91,
					"interpolation":"CUBICSPLINE",
					"output":93
				},
				{
					"input":91,
					"interpolation":"CUBICSPLINE",
					"output":94
				},
				{
					"input":95,
					"interpolation":"CUBICSPLINE",
					"output":96
				},
				{
					"input":95,
					"interpolation":"CUBICSPLINE",
					"output":97
				},
				{
					"input":95,
					"interpolation":"CUBICSPLINE",
					"output":98
				},
				{
					"input":95,
					"interpolation":"CUBICSPLINE",
					"output":99
				},
				{
					"input":95,
					"interpolation":"CUBICSPLINE",
					"output":100
				},
				{
					"input":95,
					"interpolation":"CUBICSPLINE",
					"output":101
				},
				{
					"input":95,
					"interpolation":"CUBICSPLINE",
					"output":102
				},
				{
					"input":95,
					"interpolation":"CUBICSPLINE",
					"output":103
				},
				{
					"input":95,
					"interpolation":"CUBICSPLINE",
					"output":104
				},
				{
					"input":95,
					"interpolation":"CUBICSPLINE",
					"output":105
				},
				{
					"input":95,
					"interpolation":"CUBICSPLINE",
					"output":106
				},
				{
					"input":95,
					"interpolation":"CUBICSPLINE",
					"output":107
				},
				{
					"input":95,
					"interpolation":"CUBICSPLINE",
					"output":108
				},
				{
					"input":95,
					"interpolation":"CUBICSPLINE",
					"output":109
				},
				{
					"input":95,
					"interpolation":"CUBICSPLINE",
					"output":110
				},
				{
					"input":95,
					"interpolation":"CUBICSPLINE",
					"output":111
				},
				{
					"input":95,
					"interpolation":"CUBICSPLINE",
					"output":112
				},
				{
					"input":95,
					"interpolation":"CUBICSPLINE",
					"output":113
				},
				{
					"input":95,
					"interpolation":"CUBICSPLINE",
					"output":114
				},
				{
					"input":95,
					"interpolation":"CUBICSPLINE",
					"output":115
				},
				{
					"input":95,
					"interpolation":"CUBICSPLINE",
					"output":116
				},
				{
					"input":95,
					"interpolation":"CUBICSPLINE",
					"output":117
				},
				{
					"input":95,
					"interpolation":"CUBICSPLINE",
					"output":118
				},
				{
					"input":95,
					"interpolation":"CUBICSPLINE",
					"output":119
				},
				{
					"input":95,
					"interpolation":"CUBICSPLINE",
					"output":120
				},
				{
					"input":95,
					"interpolation":"CUBICSPLINE",
					"output":121
				},
				{
					"input":95,
					"interpolation":"CUBICSPLINE",
					"output":122
				},
				{
					"input":95,
					"interpolation":"CUBICSPLINE",
					"output":123
				},
				{
					"input":95,
					"interpolation":"CUBICSPLINE",
					"output":124
				},
				{
					"input":95,
					"interpolation":"CUBICSPLINE",
					"output":125
				},
				{
					"input":95,
					"interpolation":"CUBICSPLINE",
					"output":126
				},
				{
					"input":95,
					"interpolation":"CUBICSPLINE",
					"output":127
				},
				{
					"input":95,
					"interpolation":"CUBICSPLINE",
					"output":128
				},
				{
					"input":95,
					"interpolation":"CUBICSPLINE",
					"output":129
				},
				{
					"input":95,
					"interpolation":"CUBICSPLINE",
					"output":130
				},
				{
					"input":95,
					"interpolation":"CUBICSPLINE",
					"output":131
				},
				{
					"input":95,
					"interpolation":"CUBICSPLINE",
					"output":132
				},
				{
					"input":95,
					"interpolation":"CUBICSPLINE",
					"output":133
				},
				{
					"input":95,
					"interpolation":"CUBICSPLINE",
					"output":134
				},
				{
					"input":95,
					"interpolation":"CUBICSPLINE",
					"output":135
				},
				{
					"input":95,
					"interpolation":"CUBICSPLINE",
					"output":136
				},
				{
					"input":95,
					"interpolation":"CUBICSPLINE",
					"output":137
				},
				{
					"input":95,
					"interpolation":"CUBICSPLINE",
					"output":138
				},
				{
					"input":95,
					"interpolation":"CUBICSPLINE",
					"output":139
				},
				{
					"input":95,
					"interpolation":"CUBICSPLINE",
					"output":140
				},
				{
					"input":95,
					"interpolation":"CUBICSPLINE",
					"output":141
				},
				{
					"input":95,
					"interpolation":"CUBICSPLINE",
					"output":142
				},
				{
					"input":95,
					"interpolation":"CUBICSPLINE",
					"output":143
				},
				{
					"input":95,
					"interpolation":"CUBICSPLINE",
					"output":144
				},
				{
					"input":95,
					"interpolation":"CUBICSPLINE",
					"output":145
				},
				{
					"input":95,
					"interpolation":"CUBICSPLINE",
					"output":146
				},
				{
					"input":95,
					"interpolation":"CUBICSPLINE",
					"output":147
				},
				{
					"input":95,
					"interpolation":"CUBICSPLINE",
					"output":148
				},
				{
					"input":95,
					"interpolation":"CUBICSPLINE",
					"output":149
				},
				{
					"input":95,
					"interpolation":"CUBICSPLINE",
					"output":150
				},
				{
					"input":95,
					"interpolation":"CUBICSPLINE",
					"output":151
				},
				{
					"input":95,
					"interpolation":"CUBICSPLINE",
					"output":152
				},
				{
					"input":95,
					"interpolation":"CUBICSPLINE",
					"output":153
				},
				{
					"input":95,
					"interpolation":"CUBICSPLINE",
					"output":154
				},
				{
					"input":95,
					"interpolation":"CUBICSPLINE",
					"output":155
				},
				{
					"input":95,
					"interpolation":"CUBICSPLINE",
					"output":156
				},
				{
					"input":95,
					"interpolation":"CUBICSPLINE",
					"output":157
				},
				{
					"input":95,
					"interpolation":"CUBICSPLINE",
					"output":158
				},
				{
					"input":95,
					"interpolation":"CUBICSPLINE",
					"output":159
				},
				{
					"input":95,
					"interpolation":"CUBICSPLINE",
					"output":160
				},
				{
					"input":95,
					"interpolation":"CUBICSPLINE",
					"output":161
				},
				{
					"input":95,
					"interpolation":"CUBICSPLINE",
					"output":162
				},
				{
					"input":95,
					"interpolation":"CUBICSPLINE",
					"output":163
				},
				{
					"input":95,
					"interpolation":"CUBICSPLINE",
					"output":164
				}
			]
		},
		{
			"channels":[
				{
					"sampler":0,
					"target":{
						"node":24,
						"path":"translation"
					}
				},
				{
					"sampler":1,
					"target":{
						"node":24,
						"path":"rotation"
					}
				},
				{
					"sampler":2,
					"target":{
						"node":24,
						"path":"scale"
					}
				},
				{
					"sampler":3,
					"target":{
						"node":0,
						"path":"translation"
					}
				},
				{
					"sampler":4,
					"target":{
						"node":0,
						"path":"rotation"
					}
				},
				{
					"sampler":5,
					"target":{
						"node":0,
						"path":"scale"
					}
				},
				{
					"sampler":6,
					"target":{
						"node":1,
						"path":"translation"
					}
				},
				{
					"sampler":7,
					"target":{
						"node":1,
						"path":"rotation"
					}
				},
				{
					"sampler":8,
					"target":{
						"node":1,
						"path":"scale"
					}
				},
				{
					"sampler":9,
					"target":{
						"node":2,
						"path":"translation"
					}
				},
				{
					"sampler":10,
					"target":{
						"node":2,
						"path":"rotation"
					}
				},
				{
					"sampler":11,
					"target":{
						"node":2,
						"path":"scale"
					}
				},
				{
					"sampler":12,
					"target":{
						"node":3,
						"path":"translation"
					}
				},
				{
					"sampler":13,
					"target":{
						"node":3,
						"path":"rotation"
					}
				},
				{
					"sampler":14,
					"target":{
						"node":3,
						"path":"scale"
					}
				},
				{
					"sampler":15,
					"target":{
						"node":4,
						"path":"translation"
					}
				},
				{
					"sampler":16,
					"target":{
						"node":4,
						"path":"rotation"
					}
				},
				{
					"sampler":17,
					"target":{
						"node":4,
						"path":"scale"
					}
				},
				{
					"sampler":18,
					"target":{
						"node":5,
						"path":"translation"
					}
				},
				{
					"sampler":19,
					"target":{
						"node":5,
						"path":"rotation"
					}
				},
				{
					"sampler":20,
					"target":{
						"node":5,
						"path":"scale"
					}
				},
				{
					"sampler":21,
					"target":{
						"node":6,
						"path":"translation"
					}
				},
				{
					"sampler":22,
					"target":{
						"node":6,
						"path":"rotation"
					}
				},
				{
					"sampler":23,
					"target":{
						"node":6,
						"path":"scale"
					}
				},
				{
					"sampler":24,
					"target":{
						"node":7,
						"path":"translation"
					}
				},
				{
					"sampler":25,
					"target":{
						"node":7,
						"path":"rotation"
					}
				},
				{
					"sampler":26,
					"target":{
						"node":7,
						"path":"scale"
					}
				},
				{
					"sampler":27,
					"target":{
						"node":8,
						"path":"translation"
					}
				},
				{
					"sampler":28,
					"target":{
						"node":8,
						"path":"rotation"
					}
				},
				{
					"sampler":29,
					"target":{
						"node":8,
						"path":"scale"
					}
				},
				{
					"sampler":30,
					"target":{
						"node":9,
						"path":"translation"
					}
				},
				{
					"sampler":31,
					"target":{
						"node":9,
						"path":"rotation"
					}
				},
				{
					"sampler":32,
					"target":{
						"node":9,
						"path":"scale"
					}
				},
				{
					"sampler":33,
					"target":{
						"node":10,
						"path":"translation"
					}
				},
				{
					"sampler":34,
					"target":{
						"node":10,
						"path":"rotation"
					}
				},
				{
					"sampler":35,
					"target":{
						"node":10,
						"path":"scale"
					}
				},
				{
					"sampler":36,
					"target":{
						"node":11,
						"path":"translation"
					}
				},
				{
					"sampler":37,
					"target":{
						"node":11,
						"path":"rotation"
					}
				},
				{
					"sampler":38,
					"target":{
						"node":11,
						"path":"scale"
					}
				},
				{
					"sampler":39,
					"target":{
						"node":12,
						"path":"translation"
					}
				},
				{
					"sampler":40,
					"target":{
						"node":12,
						"path":"rotation"
					}
				},
				{
					"sampler":41,
					"target":{
						"node":12,
						"path":"scale"
					}
				},
				{
					"sampler":42,
					"target":{
						"node":13,
						"path":"translation"
					}
				},
				{
					"sampler":43,
					"target":{
						"node":13,
						"path":"rotation"
					}
				},
				{
					"sampler":44,
					"target":{
						"node":13,
						"path":"scale"
					}
				},
				{
					"sampler":45,
					"target":{
						"node":14,
						"path":"translation"
					}
				},
				{
					"sampler":46,
					"target":{
						"node":14,
						"path":"rotation"
					}
				},
				{
					"sampler":47,
					"target":{
						"node":14,
						"path":"scale"
					}
				},
				{
					"sampler":48,
					"target":{
						"node":15,
						"path":"translation"
					}
				},
				{
					"sampler":49,
					"target":{
						"node":15,
						"path":"rotation"
					}
				},
				{
					"sampler":50,
					"target":{
						"node":15,
						"path":"scale"
					}
				},
				{
					"sampler":51,
					"target":{
						"node":16,
						"path":"translation"
					}
				},
				{
					"sampler":52,
					"target":{
						"node":16,
						"path":"rotation"
					}
				},
				{
					"sampler":53,
					"target":{
						"node":16,
						"path":"scale"
					}
				},
				{
					"sampler":54,
					"target":{
						"node":17,
						"path":"translation"
					}
				},
				{
					"sampler":55,
					"target":{
						"node":17,
						"path":"rotation"
					}
				},
				{
					"sampler":56,
					"target":{
						"node":17,
						"path":"scale"
					}
				},
				{
					"sampler":57,
					"target":{
						"node":18,
						"path":"translation"
					}
				},
				{
					"sampler":58,
					"target":{
						"node":18,
						"path":"rotation"
					}
				},
				{
					"sampler":59,
					"target":{
						"node":18,
						"path":"scale"
					}
				},
				{
					"sampler":60,
					"target":{
						"node":19,
						"path":"translation"
					}
				},
				{
					"sampler":61,
					"target":{
						"node":19,
						"path":"rotation"
					}
				},
				{
					"sampler":62,
					"target":{
						"node":19,
						"path":"scale"
					}
				},
				{
					"sampler":63,
					"target":{
						"node":20,
						"path":"translation"
					}
				},
				{
					"sampler":64,
					"target":{
						"node":20,
						"path":"rotation"
					}
				},
				{
					"sampler":65,
					"target":{
						"node":20,
						"path":"scale"
					}
				},
				{
					"sampler":66,
					"target":{
						"node":21,
						"path":"translation"
					}
				},
				{
					"sampler":67,
					"target":{
						"node":21,
						"path":"rotation"
					}
				},
				{
					"sampler":68,
					"target":{
						"node":21,
						"path":"scale"
					}
				},
				{
					"sampler":69,
					"target":{
						"node":22,
						"path":"translation"
					}
				},
				{
					"sampler":70,
					"target":{
						"node":22,
						"path":"rotation"
					}
				},
				{
					"sampler":71,
					"target":{
						"node":22,
						"path":"scale"
					}
				},
				{
					"sampler":72,
					"target":{
						"node":23,
						"path":"translation"
					}
				},
				{
					"sampler":73,
					"target":{
						"node":23,
						"path":"rotation"
					}
				},
				{
					"sampler":74,
					"target":{
						"node":23,
						"path":"scale"
					}
				}
			],
			"name":"Start",
			"samplers":[
				{
					"input":165,
					"interpolation":"CUBICSPLINE",
					"output":166
				},
				{
					"input":165,
					"interpolation":"CUBICSPLINE",
					"output":167
				},
				{
					"input":165,
					"interpolation":"CUBICSPLINE",
					"output":168
				},
				{
					"input":165,
					"interpolation":"CUBICSPLINE",
					"output":169
				},
				{
					"input":165,
					"interpolation":"CUBICSPLINE",
					"output":170
				},
				{
					"input":165,
					"interpolation":"CUBICSPLINE",
					"output":171
				},
				{
					"input":17,
					"interpolation":"CUBICSPLINE",
					"output":172
				},
				{
					"input":17,
					"interpolation":"CUBICSPLINE",
					"output":173
				},
				{
					"input":17,
					"interpolation":"CUBICSPLINE",
					"output":174
				},
				{
					"input":17,
					"interpolation":"CUBICSPLINE",
					"output":175
				},
				{
					"input":17,
					"interpolation":"CUBICSPLINE",
					"output":176
				},
				{
					"input":17,
					"interpolation":"CUBICSPLINE",
					"output":177
				},
				{
					"input":17,
					"interpolation":"CUBICSPLINE",
					"output":178
				},
				{
					"input":17,
					"interpolation":"CUBICSPLINE",
					"output":179
				},
				{
					"input":17,
					"interpolation":"CUBICSPLINE",
					"output":180
				},
				{
					"input":17,
					"interpolation":"CUBICSPLINE",
					"output":181
				},
				{
					"input":17,
					"interpolation":"CUBICSPLINE",
					"output":182
				},
				{
					"input":17,
					"interpolation":"CUBICSPLINE",
					"output":183
				},
				{
					"input":17,
					"interpolation":"CUBICSPLINE",
					"output":184
				},
				{
					"input":17,
					"interpolation":"CUBICSPLINE",
					"output":185
				},
				{
					"input":17,
					"interpolation":"CUBICSPLINE",
					"output":186
				},
				{
					"input":17,
					"interpolation":"CUBICSPLINE",
					"output":187
				},
				{
					"input":17,
					"interpolation":"CUBICSPLINE",
					"output":188
				},
				{
					"input":17,
					"interpolation":"CUBICSPLINE",
					"output":189
				},
				{
					"input":17,
					"interpolation":"CUBICSPLINE",
					"output":190
				},
				{
					"input":17,
					"interpolation":"CUBICSPLINE",
					"output":191
				},
				{
					"input":17,
					"interpolation":"CUBICSPLINE",
					"output":192
				},
				{
					"input":17,
					"interpolation":"CUBICSPLINE",
					"output":193
				},
				{
					"input":17,
					"interpolation":"CUBICSPLINE",
					"output":194
				},
				{
					"input":17,
					"interpolation":"CUBICSPLINE",
					"output":195
				},
				{
					"input":17,
					"interpolation":"CUBICSPLINE",
					"output":196
				},
				{
					"input":17,
					"interpolation":"CUBICSPLINE",
					"output":197
				},
				{
					"input":17,
					"interpolation":"CUBICSPLINE",
					"output":198
				},
				{
					"input":17,
					"interpolation":"CUBICSPLINE",
					"output":199
				},
				{
					"input":17,
					"interpolation":"CUBICSPLINE",
					"output":200
				},
				{
					"input":17,
					"interpolation":"CUBICSPLINE",
					"output":201
				},
				{
					"input":17,
					"interpolation":"CUBICSPLINE",
					"output":202
				},
				{
					"input":17,
					"interpolation":"CUBICSPLINE",
					"output":203
				},
				{
					"input":17,
					"interpolation":"CUBICSPLINE",
					"output":204
				},
				{
					"input":17,
					"interpolation":"CUBICSPLINE",
					"output":205
				},
				{
					"input":17,
					"interpolation":"CUBICSPLINE",
					"output":206
				},
				{
					"input":17,
					"interpolation":"CUBICSPLINE",
					"output":207
				},
				{
					"input":17,
					"interpolation":"CUBICSPLINE",
					"output":208
				},
				{
					"input":17,
					"interpolation":"CUBICSPLINE",
					"output":209
				},
				{
					"input":17,
					"interpolation":"CUBICSPLINE",
					"output":210
				},
				{
					"input":17,
					"interpolation":"CUBICSPLINE",
					"output":211
				},
				{
					"input":17,
					"interpolation":"CUBICSPLINE",
					"output":212
				},
				{
					"input":17,
					"interpolation":"CUBICSPLINE",
					"output":213
				},
				{
					"input":17,
					"interpolation":"CUBICSPLINE",
					"output":214
				},
				{
					"input":17,
					"interpolation":"CUBICSPLINE",
					"output":215
				},
				{
					"input":17,
					"interpolation":"CUBICSPLINE",
					"output":216
				},
				{
					"input":17,
					"interpolation":"CUBICSPLINE",
					"output":217
				},
				{
					"input":17,
					"interpolation":"CUBICSPLINE",
					"output":218
				},
				{
					"input":17,
					"interpolation":"CUBICSPLINE",
					"output":219
				},
				{
					"input":17,
					"interpolation":"CUBICSPLINE",
					"output":220
				},
				{
					"input":17,
					"interpolation":"CUBICSPLINE",
					"output":221
				},
				{
					"input":17,
					"interpolation":"CUBICSPLINE",
					"output":222
				},
				{
					"input":17,
					"interpolation":"CUBICSPLINE",
					"output":223
				},
				{
					"input":17,
					"interpolation":"CUBICSPLINE",
					"output":224
				},
				{
					"input":17,
					"interpolation":"CUBICSPLINE",
					"output":225
				},
				{
					"input":17,
					"interpolation":"CUBICSPLINE",
					"output":226
				},
				{
					"input":17,
					"interpolation":"CUBICSPLINE",
					"output":227
				},
				{
					"input":17,
					"interpolation":"CUBICSPLINE",
					"output":228
				},
				{
					"input":17,
					"interpolation":"CUBICSPLINE",
					"output":229
				},
				{
					"input":17,
					"interpolation":"CUBICSPLINE",
					"output":230
				},
				{
					"input":17,
					"interpolation":"CUBICSPLINE",
					"output":231
				},
				{
					"input":17,
					"interpolation":"CUBICSPLINE",
					"output":232
				},
				{
					"input":17,
					"interpolation":"CUBICSPLINE",
					"output":233
				},
				{
					"input":17,
					"interpolation":"CUBICSPLINE",
					"output":234
				},
				{
					"input":17,
					"interpolation":"CUBICSPLINE",
					"output":235
				},
				{
					"input":17,
					"interpolation":"CUBICSPLINE",
					"output":236
				},
				{
					"input":17,
					"interpolation":"CUBICSPLINE",
					"output":237
				},
				{
					"input":17,
					"interpolation":"CUBICSPLINE",
					"output":238
				},
				{
					"input":17,
					"interpolation":"CUBICSPLINE",
					"output":239
				},
				{
					"input":17,
					"interpolation":"CUBICSPLINE",
					"output":240
				}
			]
		}
	],
	"materials":[
		{
			"doubleSided":true,
			"name":"\u30de\u30c6\u30ea\u30a2\u30eb.004",
			"pbrMetallicRoughness":{
				"baseColorTexture":{
					"index":0
				},
				"metallicFactor":0,
				"roughnessFactor":0.5
			}
		}
	],
	"meshes":[
		{
			"name":"Cube.688",
			"primitives":[
				{
					"attributes":{
						"POSITION":0,
						"NORMAL":1,
						"TEXCOORD_0":2,
						"TEXCOORD_1":3,
						"COLOR_0":4,
						"COLOR_1":5,
						"JOINTS_0":6,
						"WEIGHTS_0":7
					},
					"indices":8,
					"material":0
				}
			]
		}
	],
	"textures":[
		{
			"sampler":0,
			"source":0
		}
	],
	"images":[
		{
			"mimeType":"image/png",
			"name":"Menu",
			"uri":"Menu.png"
		}
	],
	"skins":[
		{
			"inverseBindMatrices":9,
			"joints":[
				24,
				0,
				1,
				2,
				3,
				4,
				5,
				6,
				7,
				8,
				9,
				10,
				11,
				12,
				13,
				14,
				15,
				16,
				17,
				18,
				19,
				20,
				21,
				22,
				23
			],
			"name":"\u30a2\u30fc\u30de\u30c1\u30e5\u30a2.001"
		}
	],
	"accessors":[
		{
			"bufferView":0,
			"componentType":5126,
			"count":71450,
			"max":[
				0.9588552117347717,
				0.9142321348190308,
				0.09949488192796707
			],
			"min":[
				-0.9039758443832397,
				-0.3678775429725647,
				-0.06316539645195007
			],
			"type":"VEC3"
		},
		{
			"bufferView":1,
			"componentType":5126,
			"count":71450,
			"type":"VEC3"
		},
		{
			"bufferView":2,
			"componentType":5126,
			"count":71450,
			"type":"VEC2"
		},
		{
			"bufferView":3,
			"componentType":5126,
			"count":71450,
			"type":"VEC2"
		},
		{
			"bufferView":4,
			"componentType":5121,
			"count":71450,
			"normalized":true,
			"type":"VEC4"
		},
		{
			"bufferView":5,
			"componentType":5123,
			"count":71450,
			"normalized":true,
			"type":"VEC4"
		},
		{
			"bufferView":6,
			"componentType":5121,
			"count":71450,
			"type":"VEC4"
		},
		{
			"bufferView":7,
			"componentType":5126,
			"count":71450,
			"type":"VEC4"
		},
		{
			"bufferView":8,
			"componentType":5125,
			"count":135024,
			"type":"SCALAR"
		},
		{
			"bufferView":9,
			"componentType":5126,
			"count":25,
			"type":"MAT4"
		},
		{
			"bufferView":10,
			"componentType":5126,
			"count":2,
			"max":[
				1
			],
			"min":[
				0
			],
			"type":"SCALAR"
		},
		{
			"bufferView":11,
			"componentType":5126,
			"count":6,
			"type":"VEC3"
		},
		{
			"bufferView":12,
			"componentType":5126,
			"count":6,
			"type":"VEC4"
		},
		{
			"bufferView":13,
			"componentType":5126,
			"count":6,
			"type":"VEC3"
		},
		{
			"bufferView":14,
			"componentType":5126,
			"count":6,
			"type":"VEC3"
		},
		{
			"bufferView":15,
			"componentType":5126,
			"count":6,
			"type":"VEC4"
		},
		{
			"bufferView":16,
			"componentType":5126,
			"count":6,
			"type":"VEC3"
		},
		{
			"bufferView":17,
			"componentType":5126,
			"count":5,
			"max":[
				1
			],
			"min":[
				0
			],
			"type":"SCALAR"
		},
		{
			"bufferView":18,
			"componentType":5126,
			"count":15,
			"type":"VEC3"
		},
		{
			"bufferView":19,
			"componentType":5126,
			"count":15,
			"type":"VEC4"
		},
		{
			"bufferView":20,
			"componentType":5126,
			"count":15,
			"type":"VEC3"
		},
		{
			"bufferView":21,
			"componentType":5126,
			"count":15,
			"type":"VEC3"
		},
		{
			"bufferView":22,
			"componentType":5126,
			"count":15,
			"type":"VEC4"
		},
		{
			"bufferView":23,
			"componentType":5126,
			"count":15,
			"type":"VEC3"
		},
		{
			"bufferView":24,
			"componentType":5126,
			"count":15,
			"type":"VEC3"
		},
		{
			"bufferView":25,
			"componentType":5126,
			"count":15,
			"type":"VEC4"
		},
		{
			"bufferView":26,
			"componentType":5126,
			"count":15,
			"type":"VEC3"
		},
		{
			"bufferView":27,
			"componentType":5126,
			"count":15,
			"type":"VEC3"
		},
		{
			"bufferView":28,
			"componentType":5126,
			"count":15,
			"type":"VEC4"
		},
		{
			"bufferView":29,
			"componentType":5126,
			"count":15,
			"type":"VEC3"
		},
		{
			"bufferView":30,
			"componentType":5126,
			"count":15,
			"type":"VEC3"
		},
		{
			"bufferView":31,
			"componentType":5126,
			"count":15,
			"type":"VEC4"
		},
		{
			"bufferView":32,
			"componentType":5126,
			"count":15,
			"type":"VEC3"
		},
		{
			"bufferView":33,
			"componentType":5126,
			"count":15,
			"type":"VEC3"
		},
		{
			"bufferView":34,
			"componentType":5126,
			"count":15,
			"type":"VEC4"
		},
		{
			"bufferView":35,
			"componentType":5126,
			"count":15,
			"type":"VEC3"
		},
		{
			"bufferView":36,
			"componentType":5126,
			"count":15,
			"type":"VEC3"
		},
		{
			"bufferView":37,
			"componentType":5126,
			"count":15,
			"type":"VEC4"
		},
		{
			"bufferView":38,
			"componentType":5126,
			"count":15,
			"type":"VEC3"
		},
		{
			"bufferView":39,
			"componentType":5126,
			"count":15,
			"type":"VEC3"
		},
		{
			"bufferView":40,
			"componentType":5126,
			"count":15,
			"type":"VEC4"
		},
		{
			"bufferView":41,
			"componentType":5126,
			"count":15,
			"type":"VEC3"
		},
		{
			"bufferView":42,
			"componentType":5126,
			"count":15,
			"type":"VEC3"
		},
		{
			"bufferView":43,
			"componentType":5126,
			"count":15,
			"type":"VEC4"
		},
		{
			"bufferView":44,
			"componentType":5126,
			"count":15,
			"type":"VEC3"
		},
		{
			"bufferView":45,
			"componentType":5126,
			"count":15,
			"type":"VEC3"
		},
		{
			"bufferView":46,
			"componentType":5126,
			"count":15,
			"type":"VEC4"
		},
		{
			"bufferView":47,
			"componentType":5126,
			"count":15,
			"type":"VEC3"
		},
		{
			"bufferView":48,
			"componentType":5126,
			"count":15,
			"type":"VEC3"
		},
		{
			"bufferView":49,
			"componentType":5126,
			"count":15,
			"type":"VEC4"
		},
		{
			"bufferView":50,
			"componentType":5126,
			"count":15,
			"type":"VEC3"
		},
		{
			"bufferView":51,
			"componentType":5126,
			"count":15,
			"type":"VEC3"
		},
		{
			"bufferView":52,
			"componentType":5126,
			"count":15,
			"type":"VEC4"
		},
		{
			"bufferView":53,
			"componentType":5126,
			"count":15,
			"type":"VEC3"
		},
		{
			"bufferView":54,
			"componentType":5126,
			"count":15,
			"type":"VEC3"
		},
		{
			"bufferView":55,
			"componentType":5126,
			"count":15,
			"type":"VEC4"
		},
		{
			"bufferView":56,
			"componentType":5126,
			"count":15,
			"type":"VEC3"
		},
		{
			"bufferView":57,
			"componentType":5126,
			"count":15,
			"type":"VEC3"
		},
		{
			"bufferView":58,
			"componentType":5126,
			"count":15,
			"type":"VEC4"
		},
		{
			"bufferView":59,
			"componentType":5126,
			"count":15,
			"type":"VEC3"
		},
		{
			"bufferView":60,
			"componentType":5126,
			"count":15,
			"type":"VEC3"
		},
		{
			"bufferView":61,
			"componentType":5126,
			"count":15,
			"type":"VEC4"
		},
		{
			"bufferView":62,
			"componentType":5126,
			"count":15,
			"type":"VEC3"
		},
		{
			"bufferView":63,
			"componentType":5126,
			"count":15,
			"type":"VEC3"
		},
		{
			"bufferView":64,
			"componentType":5126,
			"count":15,
			"type":"VEC4"
		},
		{
			"bufferView":65,
			"componentType":5126,
			"count":15,
			"type":"VEC3"
		},
		{
			"bufferView":66,
			"componentType":5126,
			"count":15,
			"type":"VEC3"
		},
		{
			"bufferView":67,
			"componentType":5126,
			"count":15,
			"type":"VEC4"
		},
		{
			"bufferView":68,
			"componentType":5126,
			"count":15,
			"type":"VEC3"
		},
		{
			"bufferView":69,
			"componentType":5126,
			"count":15,
			"type":"VEC3"
		},
		{
			"bufferView":70,
			"componentType":5126,
			"count":15,
			"type":"VEC4"
		},
		{
			"bufferView":71,
			"componentType":5126,
			"count":15,
			"type":"VEC3"
		},
		{
			"bufferView":72,
			"componentType":5126,
			"count":15,
			"type":"VEC3"
		},
		{
			"bufferView":73,
			"componentType":5126,
			"count":15,
			"type":"VEC4"
		},
		{
			"bufferView":74,
			"componentType":5126,
			"count":15,
			"type":"VEC3"
		},
		{
			"bufferView":75,
			"componentType":5126,
			"count":15,
			"type":"VEC3"
		},
		{
			"bufferView":76,
			"componentType":5126,
			"count":15,
			"type":"VEC4"
		},
		{
			"bufferView":77,
			"componentType":5126,
			"count":15,
			"type":"VEC3"
		},
		{
			"bufferView":78,
			"componentType":5126,
			"count":15,
			"type":"VEC3"
		},
		{
			"bufferView":79,
			"componentType":5126,
			"count":15,
			"type":"VEC4"
		},
		{
			"bufferView":80,
			"componentType":5126,
			"count":15,
			"type":"VEC3"
		},
		{
			"bufferView":81,
			"componentType":5126,
			"count":15,
			"type":"VEC3"
		},
		{
			"bufferView":82,
			"componentType":5126,
			"count":15,
			"type":"VEC4"
		},
		{
			"bufferView":83,
			"componentType":5126,
			"count":15,
			"type":"VEC3"
		},
		{
			"bufferView":84,
			"componentType":5126,
			"count":15,
			"type":"VEC3"
		},
		{
			"bufferView":85,
			"componentType":5126,
			"count":15,
			"type":"VEC4"
		},
		{
			"bufferView":86,
			"componentType":5126,
			"count":15,
			"type":"VEC3"
		},
		{
			"bufferView":87,
			"componentType":5126,
			"count":4,
			"max":[
				1
			],
			"min":[
				0
			],
			"type":"SCALAR"
		},
		{
			"bufferView":88,
			"componentType":5126,
			"count":12,
			"type":"VEC3"
		},
		{
			"bufferView":89,
			"componentType":5126,
			"count":12,
			"type":"VEC4"
		},
		{
			"bufferView":90,
			"componentType":5126,
			"count":12,
			"type":"VEC3"
		},
		{
			"bufferView":91,
			"componentType":5126,
			"count":6,
			"max":[
				1
			],
			"min":[
				0
			],
			"type":"SCALAR"
		},
		{
			"bufferView":92,
			"componentType":5126,
			"count":18,
			"type":"VEC3"
		},
		{
			"bufferView":93,
			"componentType":5126,
			"count":18,
			"type":"VEC4"
		},
		{
			"bufferView":94,
			"componentType":5126,
			"count":18,
			"type":"VEC3"
		},
		{
			"bufferView":95,
			"componentType":5126,
			"count":4,
			"max":[
				1
			],
			"min":[
				0
			],
			"type":"SCALAR"
		},
		{
			"bufferView":96,
			"componentType":5126,
			"count":12,
			"type":"VEC3"
		},
		{
			"bufferView":97,
			"componentType":5126,
			"count":12,
			"type":"VEC4"
		},
		{
			"bufferView":98,
			"componentType":5126,
			"count":12,
			"type":"VEC3"
		},
		{
			"bufferView":99,
			"componentType":5126,
			"count":12,
			"type":"VEC3"
		},
		{
			"bufferView":100,
			"componentType":5126,
			"count":12,
			"type":"VEC4"
		},
		{
			"bufferView":101,
			"componentType":5126,
			"count":12,
			"type":"VEC3"
		},
		{
			"bufferView":102,
			"componentType":5126,
			"count":12,
			"type":"VEC3"
		},
		{
			"bufferView":103,
			"componentType":5126,
			"count":12,
			"type":"VEC4"
		},
		{
			"bufferView":104,
			"componentType":5126,
			"count":12,
			"type":"VEC3"
		},
		{
			"bufferView":105,
			"componentType":5126,
			"count":12,
			"type":"VEC3"
		},
		{
			"bufferView":106,
			"componentType":5126,
			"count":12,
			"type":"VEC4"
		},
		{
			"bufferView":107,
			"componentType":5126,
			"count":12,
			"type":"VEC3"
		},
		{
			"bufferView":108,
			"componentType":5126,
			"count":12,
			"type":"VEC3"
		},
		{
			"bufferView":109,
			"componentType":5126,
			"count":12,
			"type":"VEC4"
		},
		{
			"bufferView":110,
			"componentType":5126,
			"count":12,
			"type":"VEC3"
		},
		{
			"bufferView":111,
			"componentType":5126,
			"count":12,
			"type":"VEC3"
		},
		{
			"bufferView":112,
			"componentType":5126,
			"count":12,
			"type":"VEC4"
		},
		{
			"bufferView":113,
			"componentType":5126,
			"count":12,
			"type":"VEC3"
		},
		{
			"bufferView":114,
			"componentType":5126,
			"count":12,
			"type":"VEC3"
		},
		{
			"bufferView":115,
			"componentType":5126,
			"count":12,
			"type":"VEC4"
		},
		{
			"bufferView":116,
			"componentType":5126,
			"count":12,
			"type":"VEC3"
		},
		{
			"bufferView":117,
			"componentType":5126,
			"count":12,
			"type":"VEC3"
		},
		{
			"bufferView":118,
			"componentType":5126,
			"count":12,
			"type":"VEC4"
		},
		{
			"bufferView":119,
			"componentType":5126,
			"count":12,
			"type":"VEC3"
		},
		{
			"bufferView":120,
			"componentType":5126,
			"count":12,
			"type":"VEC3"
		},
		{
			"bufferView":121,
			"componentType":5126,
			"count":12,
			"type":"VEC4"
		},
		{
			"bufferView":122,
			"componentType":5126,
			"count":12,
			"type":"VEC3"
		},
		{
			"bufferView":123,
			"componentType":5126,
			"count":12,
			"type":"VEC3"
		},
		{
			"bufferView":124,
			"componentType":5126,
			"count":12,
			"type":"VEC4"
		},
		{
			"bufferView":125,
			"componentType":5126,
			"count":12,
			"type":"VEC3"
		},
		{
			"bufferView":126,
			"componentType":5126,
			"count":12,
			"type":"VEC3"
		},
		{
			"bufferView":127,
			"componentType":5126,
			"count":12,
			"type":"VEC4"
		},
		{
			"bufferView":128,
			"componentType":5126,
			"count":12,
			"type":"VEC3"
		},
		{
			"bufferView":129,
			"componentType":5126,
			"count":12,
			"type":"VEC3"
		},
		{
			"bufferView":130,
			"componentType":5126,
			"count":12,
			"type":"VEC4"
		},
		{
			"bufferView":131,
			"componentType":5126,
			"count":12,
			"type":"VEC3"
		},
		{
			"bufferView":132,
			"componentType":5126,
			"count":12,
			"type":"VEC3"
		},
		{
			"bufferView":133,
			"componentType":5126,
			"count":12,
			"type":"VEC4"
		},
		{
			"bufferView":134,
			"componentType":5126,
			"count":12,
			"type":"VEC3"
		},
		{
			"bufferView":135,
			"componentType":5126,
			"count":12,
			"type":"VEC3"
		},
		{
			"bufferView":136,
			"componentType":5126,
			"count":12,
			"type":"VEC4"
		},
		{
			"bufferView":137,
			"componentType":5126,
			"count":12,
			"type":"VEC3"
		},
		{
			"bufferView":138,
			"componentType":5126,
			"count":12,
			"type":"VEC3"
		},
		{
			"bufferView":139,
			"componentType":5126,
			"count":12,
			"type":"VEC4"
		},
		{
			"bufferView":140,
			"componentType":5126,
			"count":12,
			"type":"VEC3"
		},
		{
			"bufferView":141,
			"componentType":5126,
			"count":12,
			"type":"VEC3"
		},
		{
			"bufferView":142,
			"componentType":5126,
			"count":12,
			"type":"VEC4"
		},
		{
			"bufferView":143,
			"componentType":5126,
			"count":12,
			"type":"VEC3"
		},
		{
			"bufferView":144,
			"componentType":5126,
			"count":12,
			"type":"VEC3"
		},
		{
			"bufferView":145,
			"componentType":5126,
			"count":12,
			"type":"VEC4"
		},
		{
			"bufferView":146,
			"componentType":5126,
			"count":12,
			"type":"VEC3"
		},
		{
			"bufferView":147,
			"componentType":5126,
			"count":12,
			"type":"VEC3"
		},
		{
			"bufferView":148,
			"componentType":5126,
			"count":12,
			"type":"VEC4"
		},
		{
			"bufferView":149,
			"componentType":5126,
			"count":12,
			"type":"VEC3"
		},
		{
			"bufferView":150,
			"componentType":5126,
			"count":12,
			"type":"VEC3"
		},
		{
			"bufferView":151,
			"componentType":5126,
			"count":12,
			"type":"VEC4"
		},
		{
			"bufferView":152,
			"componentType":5126,
			"count":12,
			"type":"VEC3"
		},
		{
			"bufferView":153,
			"componentType":5126,
			"count":12,
			"type":"VEC3"
		},
		{
			"bufferView":154,
			"componentType":5126,
			"count":12,
			"type":"VEC4"
		},
		{
			"bufferView":155,
			"componentType":5126,
			"count":12,
			"type":"VEC3"
		},
		{
			"bufferView":156,
			"componentType":5126,
			"count":12,
			"type":"VEC3"
		},
		{
			"bufferView":157,
			"componentType":5126,
			"count":12,
			"type":"VEC4"
		},
		{
			"bufferView":158,
			"componentType":5126,
			"count":12,
			"type":"VEC3"
		},
		{
			"bufferView":159,
			"componentType":5126,
			"count":12,
			"type":"VEC3"
		},
		{
			"bufferView":160,
			"componentType":5126,
			"count":12,
			"type":"VEC4"
		},
		{
			"bufferView":161,
			"componentType":5126,
			"count":12,
			"type":"VEC3"
		},
		{
			"bufferView":162,
			"componentType":5126,
			"count":12,
			"type":"VEC3"
		},
		{
			"bufferView":163,
			"componentType":5126,
			"count":12,
			"type":"VEC4"
		},
		{
			"bufferView":164,
			"componentType":5126,
			"count":12,
			"type":"VEC3"
		},
		{
			"bufferView":165,
			"componentType":5126,
			"count":5,
			"max":[
				1
			],
			"min":[
				0
			],
			"type":"SCALAR"
		},
		{
			"bufferView":166,
			"componentType":5126,
			"count":15,
			"type":"VEC3"
		},
		{
			"bufferView":167,
			"componentType":5126,
			"count":15,
			"type":"VEC4"
		},
		{
			"bufferView":168,
			"componentType":5126,
			"count":15,
			"type":"VEC3"
		},
		{
			"bufferView":169,
			"componentType":5126,
			"count":15,
			"type":"VEC3"
		},
		{
			"bufferView":170,
			"componentType":5126,
			"count":15,
			"type":"VEC4"
		},
		{
			"bufferView":171,
			"componentType":5126,
			"count":15,
			"type":"VEC3"
		},
		{
			"bufferView":172,
			"componentType":5126,
			"count":15,
			"type":"VEC3"
		},
		{
			"bufferView":173,
			"componentType":5126,
			"count":15,
			"type":"VEC4"
		},
		{
			"bufferView":174,
			"componentType":5126,
			"count":15,
			"type":"VEC3"
		},
		{
			"bufferView":175,
			"componentType":5126,
			"count":15,
			"type":"VEC3"
		},
		{
			"bufferView":176,
			"componentType":5126,
			"count":15,
			"type":"VEC4"
		},
		{
			"bufferView":177,
			"componentType":5126,
			"count":15,
			"type":"VEC3"
		},
		{
			"bufferView":178,
			"componentType":5126,
			"count":15,
			"type":"VEC3"
		},
		{
			"bufferView":179,
			"componentType":5126,
			"count":15,
			"type":"VEC4"
		},
		{
			"bufferView":180,
			"componentType":5126,
			"count":15,
			"type":"VEC3"
		},
		{
			"bufferView":181,
			"componentType":5126,
			"count":15,
			"type":"VEC3"
		},
		{
			"bufferView":182,
			"componentType":5126,
			"count":15,
			"type":"VEC4"
		},
		{
			"bufferView":183,
			"componentType":5126,
			"count":15,
			"type":"VEC3"
		},
		{
			"bufferView":184,
			"componentType":5126,
			"count":15,
			"type":"VEC3"
		},
		{
			"bufferView":185,
			"componentType":5126,
			"count":15,
			"type":"VEC4"
		},
		{
			"bufferView":186,
			"componentType":5126,
			"count":15,
			"type":"VEC3"
		},
		{
			"bufferView":187,
			"componentType":5126,
			"count":15,
			"type":"VEC3"
		},
		{
			"bufferView":188,
			"componentType":5126,
			"count":15,
			"type":"VEC4"
		},
		{
			"bufferView":189,
			"componentType":5126,
			"count":15,
			"type":"VEC3"
		},
		{
			"bufferView":190,
			"componentType":5126,
			"count":15,
			"type":"VEC3"
		},
		{
			"bufferView":191,
			"componentType":5126,
			"count":15,
			"type":"VEC4"
		},
		{
			"bufferView":192,
			"componentType":5126,
			"count":15,
			"type":"VEC3"
		},
		{
			"bufferView":193,
			"componentType":5126,
			"count":15,
			"type":"VEC3"
		},
		{
			"bufferView":194,
			"componentType":5126,
			"count":15,
			"type":"VEC4"
		},
		{
			"bufferView":195,
			"componentType":5126,
			"count":15,
			"type":"VEC3"
		},
		{
			"bufferView":196,
			"componentType":5126,
			"count":15,
			"type":"VEC3"
		},
		{
			"bufferView":197,
			"componentType":5126,
			"count":15,
			"type":"VEC4"
		},
		{
			"bufferView":198,
			"componentType":5126,
			"count":15,
			"type":"VEC3"
		},
		{
			"bufferView":199,
			"componentType":5126,
			"count":15,
			"type":"VEC3"
		},
		{
			"bufferView":200,
			"componentType":5126,
			"count":15,
			"type":"VEC4"
		},
		{
			"bufferView":201,
			"componentType":5126,
			"count":15,
			"type":"VEC3"
		},
		{
			"bufferView":202,
			"componentType":5126,
			"count":15,
			"type":"VEC3"
		},
		{
			"bufferView":203,
			"componentType":5126,
			"count":15,
			"type":"VEC4"
		},
		{
			"bufferView":204,
			"componentType":5126,
			"count":15,
			"type":"VEC3"
		},
		{
			"bufferView":205,
			"componentType":5126,
			"count":15,
			"type":"VEC3"
		},
		{
			"bufferView":206,
			"componentType":5126,
			"count":15,
			"type":"VEC4"
		},
		{
			"bufferView":207,
			"componentType":5126,
			"count":15,
			"type":"VEC3"
		},
		{
			"bufferView":208,
			"componentType":5126,
			"count":15,
			"type":"VEC3"
		},
		{
			"bufferView":209,
			"componentType":5126,
			"count":15,
			"type":"VEC4"
		},
		{
			"bufferView":210,
			"componentType":5126,
			"count":15,
			"type":"VEC3"
		},
		{
			"bufferView":211,
			"componentType":5126,
			"count":15,
			"type":"VEC3"
		},
		{
			"bufferView":212,
			"componentType":5126,
			"count":15,
			"type":"VEC4"
		},
		{
			"bufferView":213,
			"componentType":5126,
			"count":15,
			"type":"VEC3"
		},
		{
			"bufferView":214,
			"componentType":5126,
			"count":15,
			"type":"VEC3"
		},
		{
			"bufferView":215,
			"componentType":5126,
			"count":15,
			"type":"VEC4"
		},
		{
			"bufferView":216,
			"componentType":5126,
			"count":15,
			"type":"VEC3"
		},
		{
			"bufferView":217,
			"componentType":5126,
			"count":15,
			"type":"VEC3"
		},
		{
			"bufferView":218,
			"componentType":5126,
			"count":15,
			"type":"VEC4"
		},
		{
			"bufferView":219,
			"componentType":5126,
			"count":15,
			"type":"VEC3"
		},
		{
			"bufferView":220,
			"componentType":5126,
			"count":15,
			"type":"VEC3"
		},
		{
			"bufferView":221,
			"componentType":5126,
			"count":15,
			"type":"VEC4"
		},
		{
			"bufferView":222,
			"componentType":5126,
			"count":15,
			"type":"VEC3"
		},
		{
			"bufferView":223,
			"componentType":5126,
			"count":15,
			"type":"VEC3"
		},
		{
			"bufferView":224,
			"componentType":5126,
			"count":15,
			"type":"VEC4"
		},
		{
			"bufferView":225,
			"componentType":5126,
			"count":15,
			"type":"VEC3"
		},
		{
			"bufferView":226,
			"componentType":5126,
			"count":15,
			"type":"VEC3"
		},
		{
			"bufferView":227,
			"componentType":5126,
			"count":15,
			"type":"VEC4"
		},
		{
			"bufferView":228,
			"componentType":5126,
			"count":15,
			"type":"VEC3"
		},
		{
			"bufferView":229,
			"componentType":5126,
			"count":15,
			"type":"VEC3"
		},
		{
			"bufferView":230,
			"componentType":5126,
			"count":15,
			"type":"VEC4"
		},
		{
			"bufferView":231,
			"componentType":5126,
			"count":15,
			"type":"VEC3"
		},
		{
			"bufferView":232,
			"componentType":5126,
			"count":15,
			"type":"VEC3"
		},
		{
			"bufferView":233,
			"componentType":5126,
			"count":15,
			"type":"VEC4"
		},
		{
			"bufferView":234,
			"componentType":5126,
			"count":15,
			"type":"VEC3"
		},
		{
			"bufferView":235,
			"componentType":5126,
			"count":15,
			"type":"VEC3"
		},
		{
			"bufferView":236,
			"componentType":5126,
			"count":15,
			"type":"VEC4"
		},
		{
			"bufferView":237,
			"componentType":5126,
			"count":15,
			"type":"VEC3"
		},
		{
			"bufferView":238,
			"componentType":5126,
			"count":15,
			"type":"VEC3"
		},
		{
			"bufferView":239,
			"componentType":5126,
			"count":15,
			"type":"VEC4"
		},
		{
			"bufferView":240,
			"componentType":5126,
			"count":15,
			"type":"VEC3"
		}
	],
	"bufferViews":[
		{
			"buffer":0,
			"byteLength":857400,
			"byteOffset":0,
			"target":34962
		},
		{
			"buffer":0,
			"byteLength":857400,
			"byteOffset":857400,
			"target":34962
		},
		{
			"buffer":0,
			"byteLength":571600,
			"byteOffset":1714800,
			"target":34962
		},
		{
			"buffer":0,
			"byteLength":571600,
			"byteOffset":2286400,
			"target":34962
		},
		{
			"buffer":0,
			"byteLength":285800,
			"byteOffset":2858000,
			"target":34962
		},
		{
			"buffer":0,
			"byteLength":571600,
			"byteOffset":3143800,
			"target":34962
		},
		{
			"buffer":0,
			"byteLength":285800,
			"byteOffset":3715400,
			"target":34962
		},
		{
			"buffer":0,
			"byteLength":1143200,
			"byteOffset":4001200,
			"target":34962
		},
		{
			"buffer":0,
			"byteLength":540096,
			"byteOffset":5144400,
			"target":34963
		},
		{
			"buffer":0,
			"byteLength":1600,
			"byteOffset":5684496
		},
		{
			"buffer":0,
			"byteLength":8,
			"byteOffset":5686096
		},
		{
			"buffer":0,
			"byteLength":72,
			"byteOffset":5686104
		},
		{
			"buffer":0,
			"byteLength":96,
			"byteOffset":5686176
		},
		{
			"buffer":0,
			"byteLength":72,
			"byteOffset":5686272
		},
		{
			"buffer":0,
			"byteLength":72,
			"byteOffset":5686344
		},
		{
			"buffer":0,
			"byteLength":96,
			"byteOffset":5686416
		},
		{
			"buffer":0,
			"byteLength":72,
			"byteOffset":5686512
		},
		{
			"buffer":0,
			"byteLength":20,
			"byteOffset":5686584
		},
		{
			"buffer":0,
			"byteLength":180,
			"byteOffset":5686604
		},
		{
			"buffer":0,
			"byteLength":240,
			"byteOffset":5686784
		},
		{
			"buffer":0,
			"byteLength":180,
			"byteOffset":5687024
		},
		{
			"buffer":0,
			"byteLength":180,
			"byteOffset":5687204
		},
		{
			"buffer":0,
			"byteLength":240,
			"byteOffset":5687384
		},
		{
			"buffer":0,
			"byteLength":180,
			"byteOffset":5687624
		},
		{
			"buffer":0,
			"byteLength":180,
			"byteOffset":5687804
		},
		{
			"buffer":0,
			"byteLength":240,
			"byteOffset":5687984
		},
		{
			"buffer":0,
			"byteLength":180,
			"byteOffset":5688224
		},
		{
			"buffer":0,
			"byteLength":180,
			"byteOffset":5688404
		},
		{
			"buffer":0,
			"byteLength":240,
			"byteOffset":5688584
		},
		{
			"buffer":0,
			"byteLength":180,
			"byteOffset":5688824
		},
		{
			"buffer":0,
			"byteLength":180,
			"byteOffset":5689004
		},
		{
			"buffer":0,
			"byteLength":240,
			"byteOffset":5689184
		},
		{
			"buffer":0,
			"byteLength":180,
			"byteOffset":5689424
		},
		{
			"buffer":0,
			"byteLength":180,
			"byteOffset":5689604
		},
		{
			"buffer":0,
			"byteLength":240,
			"byteOffset":5689784
		},
		{
			"buffer":0,
			"byteLength":180,
			"byteOffset":5690024
		},
		{
			"buffer":0,
			"byteLength":180,
			"byteOffset":5690204
		},
		{
			"buffer":0,
			"byteLength":240,
			"byteOffset":5690384
		},
		{
			"buffer":0,
			"byteLength":180,
			"byteOffset":5690624
		},
		{
			"buffer":0,
			"byteLength":180,
			"byteOffset":5690804
		},
		{
			"buffer":0,
			"byteLength":240,
			"byteOffset":5690984
		},
		{
			"buffer":0,
			"byteLength":180,
			"byteOffset":5691224
		},
		{
			"buffer":0,
			"byteLength":180,
			"byteOffset":5691404
		},
		{
			"buffer":0,
			"byteLength":240,
			"byteOffset":5691584
		},
		{
			"buffer":0,
			"byteLength":180,
			"byteOffset":5691824
		},
		{
			"buffer":0,
			"byteLength":180,
			"byteOffset":5692004
		},
		{
			"buffer":0,
			"byteLength":240,
			"byteOffset":5692184
		},
		{
			"buffer":0,
			"byteLength":180,
			"byteOffset":5692424
		},
		{
			"buffer":0,
			"byteLength":180,
			"byteOffset":5692604
		},
		{
			"buffer":0,
			"byteLength":240,
			"byteOffset":5692784
		},
		{
			"buffer":0,
			"byteLength":180,
			"byteOffset":5693024
		},
		{
			"buffer":0,
			"byteLength":180,
			"byteOffset":5693204
		},
		{
			"buffer":0,
			"byteLength":240,
			"byteOffset":5693384
		},
		{
			"buffer":0,
			"byteLength":180,
			"byteOffset":5693624
		},
		{
			"buffer":0,
			"byteLength":180,
			"byteOffset":5693804
		},
		{
			"buffer":0,
			"byteLength":240,
			"byteOffset":5693984
		},
		{
			"buffer":0,
			"byteLength":180,
			"byteOffset":5694224
		},
		{
			"buffer":0,
			"byteLength":180,
			"byteOffset":5694404
		},
		{
			"buffer":0,
			"byteLength":240,
			"byteOffset":5694584
		},
		{
			"buffer":0,
			"byteLength":180,
			"byteOffset":5694824
		},
		{
			"buffer":0,
			"byteLength":180,
			"byteOffset":5695004
		},
		{
			"buffer":0,
			"byteLength":240,
			"byteOffset":5695184
		},
		{
			"buffer":0,
			"byteLength":180,
			"byteOffset":5695424
		},
		{
			"buffer":0,
			"byteLength":180,
			"byteOffset":5695604
		},
		{
			"buffer":0,
			"byteLength":240,
			"byteOffset":5695784
		},
		{
			"buffer":0,
			"byteLength":180,
			"byteOffset":5696024
		},
		{
			"buffer":0,
			"byteLength":180,
			"byteOffset":5696204
		},
		{
			"buffer":0,
			"byteLength":240,
			"byteOffset":5696384
		},
		{
			"buffer":0,
			"byteLength":180,
			"byteOffset":5696624
		},
		{
			"buffer":0,
			"byteLength":180,
			"byteOffset":5696804
		},
		{
			"buffer":0,
			"byteLength":240,
			"byteOffset":5696984
		},
		{
			"buffer":0,
			"byteLength":180,
			"byteOffset":5697224
		},
		{
			"buffer":0,
			"byteLength":180,
			"byteOffset":5697404
		},
		{
			"buffer":0,
			"byteLength":240,
			"byteOffset":5697584
		},
		{
			"buffer":0,
			"byteLength":180,
			"byteOffset":5697824
		},
		{
			"buffer":0,
			"byteLength":180,
			"byteOffset":5698004
		},
		{
			"buffer":0,
			"byteLength":240,
			"byteOffset":5698184
		},
		{
			"buffer":0,
			"byteLength":180,
			"byteOffset":5698424
		},
		{
			"buffer":0,
			"byteLength":180,
			"byteOffset":5698604
		},
		{
			"buffer":0,
			"byteLength":240,
			"byteOffset":5698784
		},
		{
			"buffer":0,
			"byteLength":180,
			"byteOffset":5699024
		},
		{
			"buffer":0,
			"byteLength":180,
			"byteOffset":5699204
		},
		{
			"buffer":0,
			"byteLength":240,
			"byteOffset":5699384
		},
		{
			"buffer":0,
			"byteLength":180,
			"byteOffset":5699624
		},
		{
			"buffer":0,
			"byteLength":180,
			"byteOffset":5699804
		},
		{
			"buffer":0,
			"byteLength":240,
			"byteOffset":5699984
		},
		{
			"buffer":0,
			"byteLength":180,
			"byteOffset":5700224
		},
		{
			"buffer":0,
			"byteLength":16,
			"byteOffset":5700404
		},
		{
			"buffer":0,
			"byteLength":144,
			"byteOffset":5700420
		},
		{
			"buffer":0,
			"byteLength":192,
			"byteOffset":5700564
		},
		{
			"buffer":0,
			"byteLength":144,
			"byteOffset":5700756
		},
		{
			"buffer":0,
			"byteLength":24,
			"byteOffset":5700900
		},
		{
			"buffer":0,
			"byteLength":216,
			"byteOffset":5700924
		},
		{
			"buffer":0,
			"byteLength":288,
			"byteOffset":5701140
		},
		{
			"buffer":0,
			"byteLength":216,
			"byteOffset":5701428
		},
		{
			"buffer":0,
			"byteLength":16,
			"byteOffset":5701644
		},
		{
			"buffer":0,
			"byteLength":144,
			"byteOffset":5701660
		},
		{
			"buffer":0,
			"byteLength":192,
			"byteOffset":5701804
		},
		{
			"buffer":0,
			"byteLength":144,
			"byteOffset":5701996
		},
		{
			"buffer":0,
			"byteLength":144,
			"byteOffset":5702140
		},
		{
			"buffer":0,
			"byteLength":192,
			"byteOffset":5702284
		},
		{
			"buffer":0,
			"byteLength":144,
			"byteOffset":5702476
		},
		{
			"buffer":0,
			"byteLength":144,
			"byteOffset":5702620
		},
		{
			"buffer":0,
			"byteLength":192,
			"byteOffset":5702764
		},
		{
			"buffer":0,
			"byteLength":144,
			"byteOffset":5702956
		},
		{
			"buffer":0,
			"byteLength":144,
			"byteOffset":5703100
		},
		{
			"buffer":0,
			"byteLength":192,
			"byteOffset":5703244
		},
		{
			"buffer":0,
			"byteLength":144,
			"byteOffset":5703436
		},
		{
			"buffer":0,
			"byteLength":144,
			"byteOffset":5703580
		},
		{
			"buffer":0,
			"byteLength":192,
			"byteOffset":5703724
		},
		{
			"buffer":0,
			"byteLength":144,
			"byteOffset":5703916
		},
		{
			"buffer":0,
			"byteLength":144,
			"byteOffset":5704060
		},
		{
			"buffer":0,
			"byteLength":192,
			"byteOffset":5704204
		},
		{
			"buffer":0,
			"byteLength":144,
			"byteOffset":5704396
		},
		{
			"buffer":0,
			"byteLength":144,
			"byteOffset":5704540
		},
		{
			"buffer":0,
			"byteLength":192,
			"byteOffset":5704684
		},
		{
			"buffer":0,
			"byteLength":144,
			"byteOffset":5704876
		},
		{
			"buffer":0,
			"byteLength":144,
			"byteOffset":5705020
		},
		{
			"buffer":0,
			"byteLength":192,
			"byteOffset":5705164
		},
		{
			"buffer":0,
			"byteLength":144,
			"byteOffset":5705356
		},
		{
			"buffer":0,
			"byteLength":144,
			"byteOffset":5705500
		},
		{
			"buffer":0,
			"byteLength":192,
			"byteOffset":5705644
		},
		{
			"buffer":0,
			"byteLength":144,
			"byteOffset":5705836
		},
		{
			"buffer":0,
			"byteLength":144,
			"byteOffset":5705980
		},
		{
			"buffer":0,
			"byteLength":192,
			"byteOffset":5706124
		},
		{
			"buffer":0,
			"byteLength":144,
			"byteOffset":5706316
		},
		{
			"buffer":0,
			"byteLength":144,
			"byteOffset":5706460
		},
		{
			"buffer":0,
			"byteLength":192,
			"byteOffset":5706604
		},
		{
			"buffer":0,
			"byteLength":144,
			"byteOffset":5706796
		},
		{
			"buffer":0,
			"byteLength":144,
			"byteOffset":5706940
		},
		{
			"buffer":0,
			"byteLength":192,
			"byteOffset":5707084
		},
		{
			"buffer":0,
			"byteLength":144,
			"byteOffset":5707276
		},
		{
			"buffer":0,
			"byteLength":144,
			"byteOffset":5707420
		},
		{
			"buffer":0,
			"byteLength":192,
			"byteOffset":5707564
		},
		{
			"buffer":0,
			"byteLength":144,
			"byteOffset":5707756
		},
		{
			"buffer":0,
			"byteLength":144,
			"byteOffset":5707900
		},
		{
			"buffer":0,
			"byteLength":192,
			"byteOffset":5708044
		},
		{
			"buffer":0,
			"byteLength":144,
			"byteOffset":5708236
		},
		{
			"buffer":0,
			"byteLength":144,
			"byteOffset":5708380
		},
		{
			"buffer":0,
			"byteLength":192,
			"byteOffset":5708524
		},
		{
			"buffer":0,
			"byteLength":144,
			"byteOffset":5708716
		},
		{
			"buffer":0,
			"byteLength":144,
			"byteOffset":5708860
		},
		{
			"buffer":0,
			"byteLength":192,
			"byteOffset":5709004
		},
		{
			"buffer":0,
			"byteLength":144,
			"byteOffset":5709196
		},
		{
			"buffer":0,
			"byteLength":144,
			"byteOffset":5709340
		},
		{
			"buffer":0,
			"byteLength":192,
			"byteOffset":5709484
		},
		{
			"buffer":0,
			"byteLength":144,
			"byteOffset":5709676
		},
		{
			"buffer":0,
			"byteLength":144,
			"byteOffset":5709820
		},
		{
			"buffer":0,
			"byteLength":192,
			"byteOffset":5709964
		},
		{
			"buffer":0,
			"byteLength":144,
			"byteOffset":5710156
		},
		{
			"buffer":0,
			"byteLength":144,
			"byteOffset":5710300
		},
		{
			"buffer":0,
			"byteLength":192,
			"byteOffset":5710444
		},
		{
			"buffer":0,
			"byteLength":144,
			"byteOffset":5710636
		},
		{
			"buffer":0,
			"byteLength":144,
			"byteOffset":5710780
		},
		{
			"buffer":0,
			"byteLength":192,
			"byteOffset":5710924
		},
		{
			"buffer":0,
			"byteLength":144,
			"byteOffset":5711116
		},
		{
			"buffer":0,
			"byteLength":144,
			"byteOffset":5711260
		},
		{
			"buffer":0,
			"byteLength":192,
			"byteOffset":5711404
		},
		{
			"buffer":0,
			"byteLength":144,
			"byteOffset":5711596
		},
		{
			"buffer":0,
			"byteLength":144,
			"byteOffset":5711740
		},
		{
			"buffer":0,
			"byteLength":192,
			"byteOffset":5711884
		},
		{
			"buffer":0,
			"byteLength":144,
			"byteOffset":5712076
		},
		{
			"buffer":0,
			"byteLength":144,
			"byteOffset":5712220
		},
		{
			"buffer":0,
			"byteLength":192,
			"byteOffset":5712364
		},
		{
			"buffer":0,
			"byteLength":144,
			"byteOffset":5712556
		},
		{
			"buffer":0,
			"byteLength":20,
			"byteOffset":5712700
		},
		{
			"buffer":0,
			"byteLength":180,
			"byteOffset":5712720
		},
		{
			"buffer":0,
			"byteLength":240,
			"byteOffset":5712900
		},
		{
			"buffer":0,
			"byteLength":180,
			"byteOffset":5713140
		},
		{
			"buffer":0,
			"byteLength":180,
			"byteOffset":5713320
		},
		{
			"buffer":0,
			"byteLength":240,
			"byteOffset":5713500
		},
		{
			"buffer":0,
			"byteLength":180,
			"byteOffset":5713740
		},
		{
			"buffer":0,
			"byteLength":180,
			"byteOffset":5713920
		},
		{
			"buffer":0,
			"byteLength":240,
			"byteOffset":5714100
		},
		{
			"buffer":0,
			"byteLength":180,
			"byteOffset":5714340
		},
		{
			"buffer":0,
			"byteLength":180,
			"byteOffset":5714520
		},
		{
			"buffer":0,
			"byteLength":240,
			"byteOffset":5714700
		},
		{
			"buffer":0,
			"byteLength":180,
			"byteOffset":5714940
		},
		{
			"buffer":0,
			"byteLength":180,
			"byteOffset":5715120
		},
		{
			"buffer":0,
			"byteLength":240,
			"byteOffset":5715300
		},
		{
			"buffer":0,
			"byteLength":180,
			"byteOffset":5715540
		},
		{
			"buffer":0,
			"byteLength":180,
			"byteOffset":5715720
		},
		{
			"buffer":0,
			"byteLength":240,
			"byteOffset":5715900
		},
		{
			"buffer":0,
			"byteLength":180,
			"byteOffset":5716140
		},
		{
			"buffer":0,
			"byteLength":180,
			"byteOffset":5716320
		},
		{
			"buffer":0,
			"byteLength":240,
			"byteOffset":5716500
		},
		{
			"buffer":0,
			"byteLength":180,
			"byteOffset":5716740
		},
		{
			"buffer":0,
			"byteLength":180,
			"byteOffset":5716920
		},
		{
			"buffer":0,
			"byteLength":240,
			"byteOffset":5717100
		},
		{
			"buffer":0,
			"byteLength":180,
			"byteOffset":5717340
		},
		{
			"buffer":0,
			"byteLength":180,
			"byteOffset":5717520
		},
		{
			"buffer":0,
			"byteLength":240,
			"byteOffset":5717700
		},
		{
			"buffer":0,
			"byteLength":180,
			"byteOffset":5717940
		},
		{
			"buffer":0,
			"byteLength":180,
			"byteOffset":5718120
		},
		{
			"buffer":0,
			"byteLength":240,
			"byteOffset":5718300
		},
		{
			"buffer":0,
			"byteLength":180,
			"byteOffset":5718540
		},
		{
			"buffer":0,
			"byteLength":180,
			"byteOffset":5718720
		},
		{
			"buffer":0,
			"byteLength":240,
			"byteOffset":5718900
		},
		{
			"buffer":0,
			"byteLength":180,
			"byteOffset":5719140
		},
		{
			"buffer":0,
			"byteLength":180,
			"byteOffset":5719320
		},
		{
			"buffer":0,
			"byteLength":240,
			"byteOffset":5719500
		},
		{
			"buffer":0,
			"byteLength":180,
			"byteOffset":5719740
		},
		{
			"buffer":0,
			"byteLength":180,
			"byteOffset":5719920
		},
		{
			"buffer":0,
			"byteLength":240,
			"byteOffset":5720100
		},
		{
			"buffer":0,
			"byteLength":180,
			"byteOffset":5720340
		},
		{
			"buffer":0,
			"byteLength":180,
			"byteOffset":5720520
		},
		{
			"buffer":0,
			"byteLength":240,
			"byteOffset":5720700
		},
		{
			"buffer":0,
			"byteLength":180,
			"byteOffset":5720940
		},
		{
			"buffer":0,
			"byteLength":180,
			"byteOffset":5721120
		},
		{
			"buffer":0,
			"byteLength":240,
			"byteOffset":5721300
		},
		{
			"buffer":0,
			"byteLength":180,
			"byteOffset":5721540
		},
		{
			"buffer":0,
			"byteLength":180,
			"byteOffset":5721720
		},
		{
			"buffer":0,
			"byteLength":240,
			"byteOffset":5721900
		},
		{
			"buffer":0,
			"byteLength":180,
			"byteOffset":5722140
		},
		{
			"buffer":0,
			"byteLength":180,
			"byteOffset":5722320
		},
		{
			"buffer":0,
			"byteLength":240,
			"byteOffset":5722500
		},
		{
			"buffer":0,
			"byteLength":180,
			"byteOffset":5722740
		},
		{
			"buffer":0,
			"byteLength":180,
			"byteOffset":5722920
		},
		{
			"buffer":0,
			"byteLength":240,
			"byteOffset":5723100
		},
		{
			"buffer":0,
			"byteLength":180,
			"byteOffset":5723340
		},
		{
			"buffer":0,
			"byteLength":180,
			"byteOffset":5723520
		},
		{
			"buffer":0,
			"byteLength":240,
			"byteOffset":5723700
		},
		{
			"buffer":0,
			"byteLength":180,
			"byteOffset":5723940
		},
		{
			"buffer":0,
			"byteLength":180,
			"byteOffset":5724120
		},
		{
			"buffer":0,
			"byteLength":240,
			"byteOffset":5724300
		},
		{
			"buffer":0,
			"byteLength":180,
			"byteOffset":5724540
		},
		{
			"buffer":0,
			"byteLength":180,
			"byteOffset":5724720
		},
		{
			"buffer":0,
			"byteLength":240,
			"byteOffset":5724900
		},
		{
			"buffer":0,
			"byteLength":180,
			"byteOffset":5725140
		},
		{
			"buffer":0,
			"byteLength":180,
			"byteOffset":5725320
		},
		{
			"buffer":0,
			"byteLength":240,
			"byteOffset":5725500
		},
		{
			"buffer":0,
			"byteLength":180,
			"byteOffset":5725740
		},
		{
			"buffer":0,
			"byteLength":180,
			"byteOffset":5725920
		},
		{
			"buffer":0,
			"byteLength":240,
			"byteOffset":5726100
		},
		{
			"buffer":0,
			"byteLength":180,
			"byteOffset":5726340
		},
		{
			"buffer":0,
			"byteLength":180,
			"byteOffset":5726520
		},
		{
			"buffer":0,
			"byteLength":240,
			"byteOffset":5726700
		},
		{
			"buffer":0,
			"byteLength":180,
			"byteOffset":5726940
		},
		{
			"buffer":0,
			"byteLength":180,
			"byteOffset":5727120
		},
		{
			"buffer":0,
			"byteLength":240,
			"byteOffset":5727300
		},
		{
			"buffer":0,
			"byteLength":180,
			"byteOffset":5727540
		}
	],
	"samplers":[
		{
			"magFilter":9729,
			"minFilter":9987
		}
	],
	"buffers":[
		{
			"byteLength":5727720,
			"uri":"Menu_Base.bin"
		}
	]
}
