# Blender 4.4.0
# www.blender.org
mtllib Spiral.mtl
o 円錐.001
v -0.191341 0.195090 -0.961939
v -0.375330 0.195090 -0.906127
v -0.382683 -0.000000 -0.923879
v -0.544895 0.195090 -0.815493
v -0.555569 -0.000000 -0.831469
v -0.544895 -0.195090 -0.815493
v -0.375330 -0.195090 -0.906127
v -0.191341 -0.195090 -0.961939
v -0.195090 -0.000000 -0.980784
vn -0.2889 0.0975 -0.9524
vn -0.4692 0.0975 -0.8777
vn -0.4691 0.0975 -0.8777
vn -0.4691 -0.0975 -0.8777
vn -0.4692 -0.0975 -0.8777
vn -0.2889 -0.0975 -0.9524
vt 0.304739 0.849813
vt 0.362363 0.843497
vt 0.377784 0.907245
vt 0.305391 0.797613
vt 0.351482 0.793067
vt 0.247273 0.842035
vt 0.259392 0.791930
vt 0.303938 0.915856
vt 0.230312 0.905411
s 1
usemtl マテリアル.012
f 3/1/1 2/2/1 1/3/1
f 5/4/2 2/2/2 3/1/2
f 5/4/3 4/5/3 2/2/3
f 5/4/4 3/1/5 7/6/4
f 5/4/4 7/6/4 6/7/4
f 3/1/1 1/3/1 9/8/1
f 3/1/6 9/8/6 8/9/6
f 3/1/6 8/9/6 7/6/6
