{
	"asset":{
		"generator":"Khronos glTF Blender I/O v4.4.56",
		"version":"2.0"
	},
	"scene":0,
	"scenes":[
		{
			"name":"Scene",
			"nodes":[
				22
			]
		}
	],
	"nodes":[
		{
			"name":"\u30dc\u30fc\u30f3.020",
			"rotation":[
				2.025887013701322e-08,
				4.2454490715038845e-14,
				1.0464880305090067e-14,
				1
			],
			"translation":[
				-6.9783894218744535e-09,
				0.7355380654335022,
				-1.536467486573656e-08
			]
		},
		{
			"children":[
				0
			],
			"name":"\u30dc\u30fc\u30f3.003",
			"rotation":[
				-1.296840412834399e-09,
				1.804391018822571e-07,
				9.805226852677151e-09,
				1
			],
			"scale":[
				1,
				0.9999999403953552,
				1
			],
			"translation":[
				4.7704453720598394e-09,
				0.7858420014381409,
				1.1108042485830083e-08
			]
		},
		{
			"name":"\u30dc\u30fc\u30f3.007",
			"rotation":[
				-1.6314054107624543e-07,
				0.002530573634430766,
				-5.026425387022471e-10,
				0.9999967813491821
			],
			"translation":[
				2.5399700120942725e-09,
				1.463426947593689,
				-1.5908540262898896e-06
			]
		},
		{
			"children":[
				2
			],
			"name":"\u30dc\u30fc\u30f3.006",
			"rotation":[
				0.003522263141348958,
				2.5738744469094854e-08,
				0.08051182329654694,
				0.9967474341392517
			],
			"scale":[
				0.9999998807907104,
				0.9999999403953552,
				0.9999998807907104
			],
			"translation":[
				-4.470348358154297e-08,
				1.5694795846939087,
				4.4424086809158325e-07
			]
		},
		{
			"children":[
				3
			],
			"name":"\u30dc\u30fc\u30f3.005",
			"rotation":[
				-0.00352234928868711,
				-2.760746831143024e-08,
				-0.08051180839538574,
				0.9967474341392517
			],
			"translation":[
				2.3904709323119278e-08,
				0.9532204270362854,
				1.252393076356384e-06
			]
		},
		{
			"children":[
				4
			],
			"name":"\u30dc\u30fc\u30f3.004",
			"rotation":[
				0.7069380879402161,
				-0.015455547720193863,
				-0.015455624088644981,
				0.7069376707077026
			],
			"scale":[
				0.9999999403953552,
				1,
				0.9999999403953552
			],
			"translation":[
				-1.7581303524139003e-08,
				0.7858424782752991,
				1.1108157949024644e-08
			]
		},
		{
			"name":"\u30dc\u30fc\u30f3.011",
			"rotation":[
				1.41662610531057e-07,
				7.89761634223396e-06,
				4.8533053131905035e-08,
				1
			],
			"scale":[
				0.9999998807907104,
				0.9999999403953552,
				0.9999998807907104
			],
			"translation":[
				1.4063523678942147e-07,
				1.6199923753738403,
				-5.727315510739572e-09
			]
		},
		{
			"children":[
				6
			],
			"name":"\u30dc\u30fc\u30f3.010",
			"rotation":[
				-0.011179840192198753,
				-1.039720700646285e-05,
				0.07780395448207855,
				0.996906042098999
			],
			"scale":[
				0.9999999403953552,
				0.9999998211860657,
				0.9999999403953552
			],
			"translation":[
				1.7881393432617188e-07,
				1.6088730096817017,
				-8.475035429000854e-07
			]
		},
		{
			"children":[
				7
			],
			"name":"\u30dc\u30fc\u30f3.009",
			"rotation":[
				0.011186104267835617,
				-7.367312355199829e-05,
				-0.07780302315950394,
				0.9969059824943542
			],
			"translation":[
				-1.2362588108771888e-07,
				1.0028232336044312,
				1.2378845895000268e-06
			]
		},
		{
			"children":[
				8
			],
			"name":"\u30dc\u30fc\u30f3.008",
			"rotation":[
				-0.7053033113479614,
				0.050470590591430664,
				-0.050470516085624695,
				0.7053033113479614
			],
			"translation":[
				9.045211157854283e-08,
				0.7858429551124573,
				1.110826097772133e-08
			]
		},
		{
			"children":[
				1,
				5,
				9
			],
			"name":"\u30dc\u30fc\u30f3.002",
			"rotation":[
				-8.529460471251582e-10,
				-7.469273555216205e-08,
				-4.740508430245427e-09,
				1
			],
			"translation":[
				9.727922911650921e-10,
				0.822855532169342,
				1.753720901831457e-08
			]
		},
		{
			"children":[
				10
			],
			"name":"\u30dc\u30fc\u30f3.001",
			"rotation":[
				-3.20792992170027e-09,
				-2.2176106284632624e-08,
				-2.248417194751018e-16,
				1
			],
			"translation":[
				4.888655591450686e-10,
				1.0000003576278687,
				-2.7880325603746314e-08
			]
		},
		{
			"children":[
				11
			],
			"name":"\u30dc\u30fc\u30f3",
			"rotation":[
				-7.450577044210149e-09,
				4.613280779608431e-08,
				-6.874324582338033e-16,
				1
			],
			"translation":[
				-0.036495547741651535,
				3.511950731277466,
				-0.4090557098388672
			]
		},
		{
			"name":"\u30dc\u30fc\u30f3.015",
			"rotation":[
				0.10160940140485764,
				-0.14532512426376343,
				0.6424322128295898,
				0.7455447316169739
			],
			"scale":[
				1,
				1,
				0.9999999403953552
			],
			"translation":[
				-1.5668180708416912e-07,
				2.5691263675689697,
				-2.3685532823947142e-07
			]
		},
		{
			"children":[
				13
			],
			"name":"\u30dc\u30fc\u30f3.014",
			"rotation":[
				3.62845717916116e-08,
				-0.0011123433941975236,
				-8.304574805606535e-09,
				0.9999994039535522
			],
			"scale":[
				0.9999999403953552,
				1,
				0.9999999403953552
			],
			"translation":[
				-4.559007393822867e-09,
				1.5314794778823853,
				1.3511083807316027e-08
			]
		},
		{
			"children":[
				14
			],
			"name":"\u30dc\u30fc\u30f3.013",
			"rotation":[
				-0.377197265625,
				-0.008815759792923927,
				-0.023306164890527725,
				0.925797700881958
			],
			"scale":[
				0.9999999403953552,
				0.9999999403953552,
				1
			],
			"translation":[
				-2.1420419216156006e-08,
				0.791048526763916,
				-2.9295915737748146e-07
			]
		},
		{
			"children":[
				15
			],
			"name":"\u30dc\u30fc\u30f3.012",
			"rotation":[
				-0.925836443901062,
				0.025906261056661606,
				-0.0024325023405253887,
				0.3770276606082916
			],
			"scale":[
				1,
				0.9999999403953552,
				1
			],
			"translation":[
				0,
				3.511950731277466,
				-0.4090557098388672
			]
		},
		{
			"name":"\u30dc\u30fc\u30f3.019",
			"rotation":[
				0.035065893083810806,
				0.058866556733846664,
				-0.6942205429077148,
				0.716493546962738
			],
			"scale":[
				1,
				1.0000001192092896,
				1
			],
			"translation":[
				1.4319441632437702e-08,
				2.674851417541504,
				1.6626904653094243e-07
			]
		},
		{
			"children":[
				17
			],
			"name":"\u30dc\u30fc\u30f3.018",
			"rotation":[
				8.927219852239432e-08,
				-0.0010857534362003207,
				-5.789731361005579e-09,
				0.9999994039535522
			],
			"scale":[
				0.9999999403953552,
				1,
				0.9999999403953552
			],
			"translation":[
				2.2957458156724897e-09,
				1.6120117902755737,
				1.6472091601826833e-07
			]
		},
		{
			"children":[
				18
			],
			"name":"\u30dc\u30fc\u30f3.017",
			"rotation":[
				-0.4209015369415283,
				-0.009848655201494694,
				0.036116696894168854,
				0.9063335657119751
			],
			"scale":[
				1,
				0.9999998807907104,
				0.9999999403953552
			],
			"translation":[
				-1.257285475730896e-08,
				0.7104622721672058,
				-1.419917680323124e-06
			]
		},
		{
			"children":[
				19
			],
			"name":"\u30dc\u30fc\u30f3.016",
			"rotation":[
				0.0034458409063518047,
				0.42138582468032837,
				0.9063805937767029,
				0.029939305037260056
			],
			"scale":[
				1,
				0.9999997615814209,
				0.999999463558197
			],
			"translation":[
				0,
				3.511950731277466,
				-0.4090557098388672
			]
		},
		{
			"mesh":0,
			"name":"\u7acb\u65b9\u4f53.003",
			"skin":0
		},
		{
			"children":[
				21,
				12,
				16,
				20
			],
			"name":"\u30a2\u30fc\u30de\u30c1\u30e5\u30a2.001"
		}
	],
	"animations":[
		{
			"channels":[
				{
					"sampler":0,
					"target":{
						"node":0,
						"path":"translation"
					}
				},
				{
					"sampler":1,
					"target":{
						"node":0,
						"path":"rotation"
					}
				},
				{
					"sampler":2,
					"target":{
						"node":0,
						"path":"scale"
					}
				},
				{
					"sampler":3,
					"target":{
						"node":1,
						"path":"translation"
					}
				},
				{
					"sampler":4,
					"target":{
						"node":1,
						"path":"rotation"
					}
				},
				{
					"sampler":5,
					"target":{
						"node":1,
						"path":"scale"
					}
				},
				{
					"sampler":6,
					"target":{
						"node":2,
						"path":"translation"
					}
				},
				{
					"sampler":7,
					"target":{
						"node":2,
						"path":"rotation"
					}
				},
				{
					"sampler":8,
					"target":{
						"node":2,
						"path":"scale"
					}
				},
				{
					"sampler":9,
					"target":{
						"node":3,
						"path":"translation"
					}
				},
				{
					"sampler":10,
					"target":{
						"node":3,
						"path":"rotation"
					}
				},
				{
					"sampler":11,
					"target":{
						"node":3,
						"path":"scale"
					}
				},
				{
					"sampler":12,
					"target":{
						"node":4,
						"path":"translation"
					}
				},
				{
					"sampler":13,
					"target":{
						"node":4,
						"path":"rotation"
					}
				},
				{
					"sampler":14,
					"target":{
						"node":4,
						"path":"scale"
					}
				},
				{
					"sampler":15,
					"target":{
						"node":5,
						"path":"translation"
					}
				},
				{
					"sampler":16,
					"target":{
						"node":5,
						"path":"rotation"
					}
				},
				{
					"sampler":17,
					"target":{
						"node":5,
						"path":"scale"
					}
				},
				{
					"sampler":18,
					"target":{
						"node":6,
						"path":"translation"
					}
				},
				{
					"sampler":19,
					"target":{
						"node":6,
						"path":"rotation"
					}
				},
				{
					"sampler":20,
					"target":{
						"node":6,
						"path":"scale"
					}
				},
				{
					"sampler":21,
					"target":{
						"node":7,
						"path":"translation"
					}
				},
				{
					"sampler":22,
					"target":{
						"node":7,
						"path":"rotation"
					}
				},
				{
					"sampler":23,
					"target":{
						"node":7,
						"path":"scale"
					}
				},
				{
					"sampler":24,
					"target":{
						"node":8,
						"path":"translation"
					}
				},
				{
					"sampler":25,
					"target":{
						"node":8,
						"path":"rotation"
					}
				},
				{
					"sampler":26,
					"target":{
						"node":8,
						"path":"scale"
					}
				},
				{
					"sampler":27,
					"target":{
						"node":9,
						"path":"translation"
					}
				},
				{
					"sampler":28,
					"target":{
						"node":9,
						"path":"rotation"
					}
				},
				{
					"sampler":29,
					"target":{
						"node":9,
						"path":"scale"
					}
				},
				{
					"sampler":30,
					"target":{
						"node":10,
						"path":"translation"
					}
				},
				{
					"sampler":31,
					"target":{
						"node":10,
						"path":"rotation"
					}
				},
				{
					"sampler":32,
					"target":{
						"node":10,
						"path":"scale"
					}
				},
				{
					"sampler":33,
					"target":{
						"node":11,
						"path":"translation"
					}
				},
				{
					"sampler":34,
					"target":{
						"node":11,
						"path":"rotation"
					}
				},
				{
					"sampler":35,
					"target":{
						"node":11,
						"path":"scale"
					}
				},
				{
					"sampler":36,
					"target":{
						"node":12,
						"path":"translation"
					}
				},
				{
					"sampler":37,
					"target":{
						"node":12,
						"path":"rotation"
					}
				},
				{
					"sampler":38,
					"target":{
						"node":12,
						"path":"scale"
					}
				},
				{
					"sampler":39,
					"target":{
						"node":13,
						"path":"translation"
					}
				},
				{
					"sampler":40,
					"target":{
						"node":13,
						"path":"rotation"
					}
				},
				{
					"sampler":41,
					"target":{
						"node":13,
						"path":"scale"
					}
				},
				{
					"sampler":42,
					"target":{
						"node":14,
						"path":"translation"
					}
				},
				{
					"sampler":43,
					"target":{
						"node":14,
						"path":"rotation"
					}
				},
				{
					"sampler":44,
					"target":{
						"node":14,
						"path":"scale"
					}
				},
				{
					"sampler":45,
					"target":{
						"node":15,
						"path":"translation"
					}
				},
				{
					"sampler":46,
					"target":{
						"node":15,
						"path":"rotation"
					}
				},
				{
					"sampler":47,
					"target":{
						"node":15,
						"path":"scale"
					}
				},
				{
					"sampler":48,
					"target":{
						"node":16,
						"path":"translation"
					}
				},
				{
					"sampler":49,
					"target":{
						"node":16,
						"path":"rotation"
					}
				},
				{
					"sampler":50,
					"target":{
						"node":16,
						"path":"scale"
					}
				},
				{
					"sampler":51,
					"target":{
						"node":17,
						"path":"translation"
					}
				},
				{
					"sampler":52,
					"target":{
						"node":17,
						"path":"rotation"
					}
				},
				{
					"sampler":53,
					"target":{
						"node":17,
						"path":"scale"
					}
				},
				{
					"sampler":54,
					"target":{
						"node":18,
						"path":"translation"
					}
				},
				{
					"sampler":55,
					"target":{
						"node":18,
						"path":"rotation"
					}
				},
				{
					"sampler":56,
					"target":{
						"node":18,
						"path":"scale"
					}
				},
				{
					"sampler":57,
					"target":{
						"node":19,
						"path":"translation"
					}
				},
				{
					"sampler":58,
					"target":{
						"node":19,
						"path":"rotation"
					}
				},
				{
					"sampler":59,
					"target":{
						"node":19,
						"path":"scale"
					}
				},
				{
					"sampler":60,
					"target":{
						"node":20,
						"path":"translation"
					}
				},
				{
					"sampler":61,
					"target":{
						"node":20,
						"path":"rotation"
					}
				},
				{
					"sampler":62,
					"target":{
						"node":20,
						"path":"scale"
					}
				}
			],
			"name":"Idle_Mike.001",
			"samplers":[
				{
					"input":12,
					"interpolation":"CUBICSPLINE",
					"output":13
				},
				{
					"input":12,
					"interpolation":"CUBICSPLINE",
					"output":14
				},
				{
					"input":12,
					"interpolation":"CUBICSPLINE",
					"output":15
				},
				{
					"input":12,
					"interpolation":"CUBICSPLINE",
					"output":16
				},
				{
					"input":12,
					"interpolation":"CUBICSPLINE",
					"output":17
				},
				{
					"input":12,
					"interpolation":"CUBICSPLINE",
					"output":18
				},
				{
					"input":12,
					"interpolation":"CUBICSPLINE",
					"output":19
				},
				{
					"input":12,
					"interpolation":"CUBICSPLINE",
					"output":20
				},
				{
					"input":12,
					"interpolation":"CUBICSPLINE",
					"output":21
				},
				{
					"input":12,
					"interpolation":"CUBICSPLINE",
					"output":22
				},
				{
					"input":12,
					"interpolation":"CUBICSPLINE",
					"output":23
				},
				{
					"input":12,
					"interpolation":"CUBICSPLINE",
					"output":24
				},
				{
					"input":12,
					"interpolation":"CUBICSPLINE",
					"output":25
				},
				{
					"input":12,
					"interpolation":"CUBICSPLINE",
					"output":26
				},
				{
					"input":12,
					"interpolation":"CUBICSPLINE",
					"output":27
				},
				{
					"input":12,
					"interpolation":"CUBICSPLINE",
					"output":28
				},
				{
					"input":12,
					"interpolation":"CUBICSPLINE",
					"output":29
				},
				{
					"input":12,
					"interpolation":"CUBICSPLINE",
					"output":30
				},
				{
					"input":12,
					"interpolation":"CUBICSPLINE",
					"output":31
				},
				{
					"input":12,
					"interpolation":"CUBICSPLINE",
					"output":32
				},
				{
					"input":12,
					"interpolation":"CUBICSPLINE",
					"output":33
				},
				{
					"input":12,
					"interpolation":"CUBICSPLINE",
					"output":34
				},
				{
					"input":12,
					"interpolation":"CUBICSPLINE",
					"output":35
				},
				{
					"input":12,
					"interpolation":"CUBICSPLINE",
					"output":36
				},
				{
					"input":12,
					"interpolation":"CUBICSPLINE",
					"output":37
				},
				{
					"input":12,
					"interpolation":"CUBICSPLINE",
					"output":38
				},
				{
					"input":12,
					"interpolation":"CUBICSPLINE",
					"output":39
				},
				{
					"input":12,
					"interpolation":"CUBICSPLINE",
					"output":40
				},
				{
					"input":12,
					"interpolation":"CUBICSPLINE",
					"output":41
				},
				{
					"input":12,
					"interpolation":"CUBICSPLINE",
					"output":42
				},
				{
					"input":12,
					"interpolation":"CUBICSPLINE",
					"output":43
				},
				{
					"input":12,
					"interpolation":"CUBICSPLINE",
					"output":44
				},
				{
					"input":12,
					"interpolation":"CUBICSPLINE",
					"output":45
				},
				{
					"input":12,
					"interpolation":"CUBICSPLINE",
					"output":46
				},
				{
					"input":12,
					"interpolation":"CUBICSPLINE",
					"output":47
				},
				{
					"input":12,
					"interpolation":"CUBICSPLINE",
					"output":48
				},
				{
					"input":12,
					"interpolation":"CUBICSPLINE",
					"output":49
				},
				{
					"input":12,
					"interpolation":"CUBICSPLINE",
					"output":50
				},
				{
					"input":12,
					"interpolation":"CUBICSPLINE",
					"output":51
				},
				{
					"input":12,
					"interpolation":"CUBICSPLINE",
					"output":52
				},
				{
					"input":12,
					"interpolation":"CUBICSPLINE",
					"output":53
				},
				{
					"input":12,
					"interpolation":"CUBICSPLINE",
					"output":54
				},
				{
					"input":12,
					"interpolation":"CUBICSPLINE",
					"output":55
				},
				{
					"input":12,
					"interpolation":"CUBICSPLINE",
					"output":56
				},
				{
					"input":12,
					"interpolation":"CUBICSPLINE",
					"output":57
				},
				{
					"input":12,
					"interpolation":"CUBICSPLINE",
					"output":58
				},
				{
					"input":12,
					"interpolation":"CUBICSPLINE",
					"output":59
				},
				{
					"input":12,
					"interpolation":"CUBICSPLINE",
					"output":60
				},
				{
					"input":12,
					"interpolation":"CUBICSPLINE",
					"output":61
				},
				{
					"input":12,
					"interpolation":"CUBICSPLINE",
					"output":62
				},
				{
					"input":12,
					"interpolation":"CUBICSPLINE",
					"output":63
				},
				{
					"input":12,
					"interpolation":"CUBICSPLINE",
					"output":64
				},
				{
					"input":12,
					"interpolation":"CUBICSPLINE",
					"output":65
				},
				{
					"input":12,
					"interpolation":"CUBICSPLINE",
					"output":66
				},
				{
					"input":12,
					"interpolation":"CUBICSPLINE",
					"output":67
				},
				{
					"input":12,
					"interpolation":"CUBICSPLINE",
					"output":68
				},
				{
					"input":12,
					"interpolation":"CUBICSPLINE",
					"output":69
				},
				{
					"input":12,
					"interpolation":"CUBICSPLINE",
					"output":70
				},
				{
					"input":12,
					"interpolation":"CUBICSPLINE",
					"output":71
				},
				{
					"input":12,
					"interpolation":"CUBICSPLINE",
					"output":72
				},
				{
					"input":12,
					"interpolation":"CUBICSPLINE",
					"output":73
				},
				{
					"input":12,
					"interpolation":"CUBICSPLINE",
					"output":74
				},
				{
					"input":12,
					"interpolation":"CUBICSPLINE",
					"output":75
				}
			]
		},
		{
			"channels":[
				{
					"sampler":0,
					"target":{
						"node":0,
						"path":"translation"
					}
				},
				{
					"sampler":1,
					"target":{
						"node":0,
						"path":"rotation"
					}
				},
				{
					"sampler":2,
					"target":{
						"node":0,
						"path":"scale"
					}
				},
				{
					"sampler":3,
					"target":{
						"node":1,
						"path":"translation"
					}
				},
				{
					"sampler":4,
					"target":{
						"node":1,
						"path":"rotation"
					}
				},
				{
					"sampler":5,
					"target":{
						"node":1,
						"path":"scale"
					}
				},
				{
					"sampler":6,
					"target":{
						"node":2,
						"path":"translation"
					}
				},
				{
					"sampler":7,
					"target":{
						"node":2,
						"path":"rotation"
					}
				},
				{
					"sampler":8,
					"target":{
						"node":2,
						"path":"scale"
					}
				},
				{
					"sampler":9,
					"target":{
						"node":3,
						"path":"translation"
					}
				},
				{
					"sampler":10,
					"target":{
						"node":3,
						"path":"rotation"
					}
				},
				{
					"sampler":11,
					"target":{
						"node":3,
						"path":"scale"
					}
				},
				{
					"sampler":12,
					"target":{
						"node":4,
						"path":"translation"
					}
				},
				{
					"sampler":13,
					"target":{
						"node":4,
						"path":"rotation"
					}
				},
				{
					"sampler":14,
					"target":{
						"node":4,
						"path":"scale"
					}
				},
				{
					"sampler":15,
					"target":{
						"node":5,
						"path":"translation"
					}
				},
				{
					"sampler":16,
					"target":{
						"node":5,
						"path":"rotation"
					}
				},
				{
					"sampler":17,
					"target":{
						"node":5,
						"path":"scale"
					}
				},
				{
					"sampler":18,
					"target":{
						"node":6,
						"path":"translation"
					}
				},
				{
					"sampler":19,
					"target":{
						"node":6,
						"path":"rotation"
					}
				},
				{
					"sampler":20,
					"target":{
						"node":6,
						"path":"scale"
					}
				},
				{
					"sampler":21,
					"target":{
						"node":7,
						"path":"translation"
					}
				},
				{
					"sampler":22,
					"target":{
						"node":7,
						"path":"rotation"
					}
				},
				{
					"sampler":23,
					"target":{
						"node":7,
						"path":"scale"
					}
				},
				{
					"sampler":24,
					"target":{
						"node":8,
						"path":"translation"
					}
				},
				{
					"sampler":25,
					"target":{
						"node":8,
						"path":"rotation"
					}
				},
				{
					"sampler":26,
					"target":{
						"node":8,
						"path":"scale"
					}
				},
				{
					"sampler":27,
					"target":{
						"node":9,
						"path":"translation"
					}
				},
				{
					"sampler":28,
					"target":{
						"node":9,
						"path":"rotation"
					}
				},
				{
					"sampler":29,
					"target":{
						"node":9,
						"path":"scale"
					}
				},
				{
					"sampler":30,
					"target":{
						"node":10,
						"path":"translation"
					}
				},
				{
					"sampler":31,
					"target":{
						"node":10,
						"path":"rotation"
					}
				},
				{
					"sampler":32,
					"target":{
						"node":10,
						"path":"scale"
					}
				},
				{
					"sampler":33,
					"target":{
						"node":11,
						"path":"translation"
					}
				},
				{
					"sampler":34,
					"target":{
						"node":11,
						"path":"rotation"
					}
				},
				{
					"sampler":35,
					"target":{
						"node":11,
						"path":"scale"
					}
				},
				{
					"sampler":36,
					"target":{
						"node":12,
						"path":"translation"
					}
				},
				{
					"sampler":37,
					"target":{
						"node":12,
						"path":"rotation"
					}
				},
				{
					"sampler":38,
					"target":{
						"node":12,
						"path":"scale"
					}
				},
				{
					"sampler":39,
					"target":{
						"node":13,
						"path":"translation"
					}
				},
				{
					"sampler":40,
					"target":{
						"node":13,
						"path":"rotation"
					}
				},
				{
					"sampler":41,
					"target":{
						"node":13,
						"path":"scale"
					}
				},
				{
					"sampler":42,
					"target":{
						"node":14,
						"path":"translation"
					}
				},
				{
					"sampler":43,
					"target":{
						"node":14,
						"path":"rotation"
					}
				},
				{
					"sampler":44,
					"target":{
						"node":14,
						"path":"scale"
					}
				},
				{
					"sampler":45,
					"target":{
						"node":15,
						"path":"translation"
					}
				},
				{
					"sampler":46,
					"target":{
						"node":15,
						"path":"rotation"
					}
				},
				{
					"sampler":47,
					"target":{
						"node":15,
						"path":"scale"
					}
				},
				{
					"sampler":48,
					"target":{
						"node":16,
						"path":"translation"
					}
				},
				{
					"sampler":49,
					"target":{
						"node":16,
						"path":"rotation"
					}
				},
				{
					"sampler":50,
					"target":{
						"node":16,
						"path":"scale"
					}
				},
				{
					"sampler":51,
					"target":{
						"node":17,
						"path":"translation"
					}
				},
				{
					"sampler":52,
					"target":{
						"node":17,
						"path":"rotation"
					}
				},
				{
					"sampler":53,
					"target":{
						"node":17,
						"path":"scale"
					}
				},
				{
					"sampler":54,
					"target":{
						"node":18,
						"path":"translation"
					}
				},
				{
					"sampler":55,
					"target":{
						"node":18,
						"path":"rotation"
					}
				},
				{
					"sampler":56,
					"target":{
						"node":18,
						"path":"scale"
					}
				},
				{
					"sampler":57,
					"target":{
						"node":19,
						"path":"translation"
					}
				},
				{
					"sampler":58,
					"target":{
						"node":19,
						"path":"rotation"
					}
				},
				{
					"sampler":59,
					"target":{
						"node":19,
						"path":"scale"
					}
				},
				{
					"sampler":60,
					"target":{
						"node":20,
						"path":"translation"
					}
				},
				{
					"sampler":61,
					"target":{
						"node":20,
						"path":"rotation"
					}
				},
				{
					"sampler":62,
					"target":{
						"node":20,
						"path":"scale"
					}
				}
			],
			"name":"Idle_Mike.002",
			"samplers":[
				{
					"input":12,
					"interpolation":"CUBICSPLINE",
					"output":76
				},
				{
					"input":12,
					"interpolation":"CUBICSPLINE",
					"output":77
				},
				{
					"input":12,
					"interpolation":"CUBICSPLINE",
					"output":78
				},
				{
					"input":12,
					"interpolation":"CUBICSPLINE",
					"output":79
				},
				{
					"input":12,
					"interpolation":"CUBICSPLINE",
					"output":80
				},
				{
					"input":12,
					"interpolation":"CUBICSPLINE",
					"output":81
				},
				{
					"input":12,
					"interpolation":"CUBICSPLINE",
					"output":82
				},
				{
					"input":12,
					"interpolation":"CUBICSPLINE",
					"output":83
				},
				{
					"input":12,
					"interpolation":"CUBICSPLINE",
					"output":84
				},
				{
					"input":12,
					"interpolation":"CUBICSPLINE",
					"output":85
				},
				{
					"input":12,
					"interpolation":"CUBICSPLINE",
					"output":86
				},
				{
					"input":12,
					"interpolation":"CUBICSPLINE",
					"output":87
				},
				{
					"input":12,
					"interpolation":"CUBICSPLINE",
					"output":88
				},
				{
					"input":12,
					"interpolation":"CUBICSPLINE",
					"output":89
				},
				{
					"input":12,
					"interpolation":"CUBICSPLINE",
					"output":90
				},
				{
					"input":12,
					"interpolation":"CUBICSPLINE",
					"output":91
				},
				{
					"input":12,
					"interpolation":"CUBICSPLINE",
					"output":92
				},
				{
					"input":12,
					"interpolation":"CUBICSPLINE",
					"output":93
				},
				{
					"input":12,
					"interpolation":"CUBICSPLINE",
					"output":94
				},
				{
					"input":12,
					"interpolation":"CUBICSPLINE",
					"output":95
				},
				{
					"input":12,
					"interpolation":"CUBICSPLINE",
					"output":96
				},
				{
					"input":12,
					"interpolation":"CUBICSPLINE",
					"output":97
				},
				{
					"input":12,
					"interpolation":"CUBICSPLINE",
					"output":98
				},
				{
					"input":12,
					"interpolation":"CUBICSPLINE",
					"output":99
				},
				{
					"input":12,
					"interpolation":"CUBICSPLINE",
					"output":100
				},
				{
					"input":12,
					"interpolation":"CUBICSPLINE",
					"output":101
				},
				{
					"input":12,
					"interpolation":"CUBICSPLINE",
					"output":102
				},
				{
					"input":12,
					"interpolation":"CUBICSPLINE",
					"output":103
				},
				{
					"input":12,
					"interpolation":"CUBICSPLINE",
					"output":104
				},
				{
					"input":12,
					"interpolation":"CUBICSPLINE",
					"output":105
				},
				{
					"input":12,
					"interpolation":"CUBICSPLINE",
					"output":106
				},
				{
					"input":12,
					"interpolation":"CUBICSPLINE",
					"output":107
				},
				{
					"input":12,
					"interpolation":"CUBICSPLINE",
					"output":108
				},
				{
					"input":12,
					"interpolation":"CUBICSPLINE",
					"output":109
				},
				{
					"input":12,
					"interpolation":"CUBICSPLINE",
					"output":110
				},
				{
					"input":12,
					"interpolation":"CUBICSPLINE",
					"output":111
				},
				{
					"input":12,
					"interpolation":"CUBICSPLINE",
					"output":112
				},
				{
					"input":12,
					"interpolation":"CUBICSPLINE",
					"output":113
				},
				{
					"input":12,
					"interpolation":"CUBICSPLINE",
					"output":114
				},
				{
					"input":12,
					"interpolation":"CUBICSPLINE",
					"output":115
				},
				{
					"input":12,
					"interpolation":"CUBICSPLINE",
					"output":116
				},
				{
					"input":12,
					"interpolation":"CUBICSPLINE",
					"output":117
				},
				{
					"input":12,
					"interpolation":"CUBICSPLINE",
					"output":118
				},
				{
					"input":12,
					"interpolation":"CUBICSPLINE",
					"output":119
				},
				{
					"input":12,
					"interpolation":"CUBICSPLINE",
					"output":120
				},
				{
					"input":12,
					"interpolation":"CUBICSPLINE",
					"output":121
				},
				{
					"input":12,
					"interpolation":"CUBICSPLINE",
					"output":122
				},
				{
					"input":12,
					"interpolation":"CUBICSPLINE",
					"output":123
				},
				{
					"input":12,
					"interpolation":"CUBICSPLINE",
					"output":124
				},
				{
					"input":12,
					"interpolation":"CUBICSPLINE",
					"output":125
				},
				{
					"input":12,
					"interpolation":"CUBICSPLINE",
					"output":126
				},
				{
					"input":12,
					"interpolation":"CUBICSPLINE",
					"output":127
				},
				{
					"input":12,
					"interpolation":"CUBICSPLINE",
					"output":128
				},
				{
					"input":12,
					"interpolation":"CUBICSPLINE",
					"output":129
				},
				{
					"input":12,
					"interpolation":"CUBICSPLINE",
					"output":130
				},
				{
					"input":12,
					"interpolation":"CUBICSPLINE",
					"output":131
				},
				{
					"input":12,
					"interpolation":"CUBICSPLINE",
					"output":132
				},
				{
					"input":12,
					"interpolation":"CUBICSPLINE",
					"output":133
				},
				{
					"input":12,
					"interpolation":"CUBICSPLINE",
					"output":134
				},
				{
					"input":12,
					"interpolation":"CUBICSPLINE",
					"output":135
				},
				{
					"input":12,
					"interpolation":"CUBICSPLINE",
					"output":136
				},
				{
					"input":12,
					"interpolation":"CUBICSPLINE",
					"output":137
				},
				{
					"input":12,
					"interpolation":"CUBICSPLINE",
					"output":138
				}
			]
		}
	],
	"materials":[
		{
			"doubleSided":true,
			"name":"\u30de\u30c6\u30ea\u30a2\u30eb",
			"pbrMetallicRoughness":{
				"baseColorTexture":{
					"index":0
				},
				"metallicFactor":0,
				"roughnessFactor":0.5
			}
		}
	],
	"meshes":[
		{
			"name":"\u7acb\u65b9\u4f53.083",
			"primitives":[
				{
					"attributes":{
						"POSITION":0,
						"NORMAL":1,
						"TEXCOORD_0":2,
						"TEXCOORD_1":3,
						"COLOR_0":4,
						"COLOR_1":5,
						"COLOR_2":6,
						"COLOR_3":7,
						"JOINTS_0":8,
						"WEIGHTS_0":9
					},
					"indices":10,
					"material":0
				}
			]
		}
	],
	"textures":[
		{
			"sampler":0,
			"source":0
		}
	],
	"images":[
		{
			"mimeType":"image/png",
			"name":"Moderator.png",
			"uri":"Moderator_png.png"
		}
	],
	"skins":[
		{
			"inverseBindMatrices":11,
			"joints":[
				12,
				11,
				10,
				1,
				0,
				5,
				4,
				3,
				2,
				9,
				8,
				7,
				6,
				16,
				15,
				14,
				13,
				20,
				19,
				18,
				17
			],
			"name":"\u30a2\u30fc\u30de\u30c1\u30e5\u30a2.001"
		}
	],
	"accessors":[
		{
			"bufferView":0,
			"componentType":5126,
			"count":11024,
			"max":[
				0.2833251953125,
				8.211275100708008,
				4.3333420753479
			],
			"min":[
				-1.591663122177124,
				-2.0104053020477295,
				-5.757925987243652
			],
			"type":"VEC3"
		},
		{
			"bufferView":1,
			"componentType":5126,
			"count":11024,
			"type":"VEC3"
		},
		{
			"bufferView":2,
			"componentType":5126,
			"count":11024,
			"type":"VEC2"
		},
		{
			"bufferView":3,
			"componentType":5126,
			"count":11024,
			"type":"VEC2"
		},
		{
			"bufferView":4,
			"componentType":5121,
			"count":11024,
			"normalized":true,
			"type":"VEC4"
		},
		{
			"bufferView":5,
			"componentType":5123,
			"count":11024,
			"normalized":true,
			"type":"VEC4"
		},
		{
			"bufferView":6,
			"componentType":5123,
			"count":11024,
			"normalized":true,
			"type":"VEC4"
		},
		{
			"bufferView":7,
			"componentType":5123,
			"count":11024,
			"normalized":true,
			"type":"VEC4"
		},
		{
			"bufferView":8,
			"componentType":5121,
			"count":11024,
			"type":"VEC4"
		},
		{
			"bufferView":9,
			"componentType":5126,
			"count":11024,
			"type":"VEC4"
		},
		{
			"bufferView":10,
			"componentType":5123,
			"count":37257,
			"type":"SCALAR"
		},
		{
			"bufferView":11,
			"componentType":5126,
			"count":21,
			"type":"MAT4"
		},
		{
			"bufferView":12,
			"componentType":5126,
			"count":3,
			"max":[
				1.6666666666666667
			],
			"min":[
				0.08333333333333333
			],
			"type":"SCALAR"
		},
		{
			"bufferView":13,
			"componentType":5126,
			"count":9,
			"type":"VEC3"
		},
		{
			"bufferView":14,
			"componentType":5126,
			"count":9,
			"type":"VEC4"
		},
		{
			"bufferView":15,
			"componentType":5126,
			"count":9,
			"type":"VEC3"
		},
		{
			"bufferView":16,
			"componentType":5126,
			"count":9,
			"type":"VEC3"
		},
		{
			"bufferView":17,
			"componentType":5126,
			"count":9,
			"type":"VEC4"
		},
		{
			"bufferView":18,
			"componentType":5126,
			"count":9,
			"type":"VEC3"
		},
		{
			"bufferView":19,
			"componentType":5126,
			"count":9,
			"type":"VEC3"
		},
		{
			"bufferView":20,
			"componentType":5126,
			"count":9,
			"type":"VEC4"
		},
		{
			"bufferView":21,
			"componentType":5126,
			"count":9,
			"type":"VEC3"
		},
		{
			"bufferView":22,
			"componentType":5126,
			"count":9,
			"type":"VEC3"
		},
		{
			"bufferView":23,
			"componentType":5126,
			"count":9,
			"type":"VEC4"
		},
		{
			"bufferView":24,
			"componentType":5126,
			"count":9,
			"type":"VEC3"
		},
		{
			"bufferView":25,
			"componentType":5126,
			"count":9,
			"type":"VEC3"
		},
		{
			"bufferView":26,
			"componentType":5126,
			"count":9,
			"type":"VEC4"
		},
		{
			"bufferView":27,
			"componentType":5126,
			"count":9,
			"type":"VEC3"
		},
		{
			"bufferView":28,
			"componentType":5126,
			"count":9,
			"type":"VEC3"
		},
		{
			"bufferView":29,
			"componentType":5126,
			"count":9,
			"type":"VEC4"
		},
		{
			"bufferView":30,
			"componentType":5126,
			"count":9,
			"type":"VEC3"
		},
		{
			"bufferView":31,
			"componentType":5126,
			"count":9,
			"type":"VEC3"
		},
		{
			"bufferView":32,
			"componentType":5126,
			"count":9,
			"type":"VEC4"
		},
		{
			"bufferView":33,
			"componentType":5126,
			"count":9,
			"type":"VEC3"
		},
		{
			"bufferView":34,
			"componentType":5126,
			"count":9,
			"type":"VEC3"
		},
		{
			"bufferView":35,
			"componentType":5126,
			"count":9,
			"type":"VEC4"
		},
		{
			"bufferView":36,
			"componentType":5126,
			"count":9,
			"type":"VEC3"
		},
		{
			"bufferView":37,
			"componentType":5126,
			"count":9,
			"type":"VEC3"
		},
		{
			"bufferView":38,
			"componentType":5126,
			"count":9,
			"type":"VEC4"
		},
		{
			"bufferView":39,
			"componentType":5126,
			"count":9,
			"type":"VEC3"
		},
		{
			"bufferView":40,
			"componentType":5126,
			"count":9,
			"type":"VEC3"
		},
		{
			"bufferView":41,
			"componentType":5126,
			"count":9,
			"type":"VEC4"
		},
		{
			"bufferView":42,
			"componentType":5126,
			"count":9,
			"type":"VEC3"
		},
		{
			"bufferView":43,
			"componentType":5126,
			"count":9,
			"type":"VEC3"
		},
		{
			"bufferView":44,
			"componentType":5126,
			"count":9,
			"type":"VEC4"
		},
		{
			"bufferView":45,
			"componentType":5126,
			"count":9,
			"type":"VEC3"
		},
		{
			"bufferView":46,
			"componentType":5126,
			"count":9,
			"type":"VEC3"
		},
		{
			"bufferView":47,
			"componentType":5126,
			"count":9,
			"type":"VEC4"
		},
		{
			"bufferView":48,
			"componentType":5126,
			"count":9,
			"type":"VEC3"
		},
		{
			"bufferView":49,
			"componentType":5126,
			"count":9,
			"type":"VEC3"
		},
		{
			"bufferView":50,
			"componentType":5126,
			"count":9,
			"type":"VEC4"
		},
		{
			"bufferView":51,
			"componentType":5126,
			"count":9,
			"type":"VEC3"
		},
		{
			"bufferView":52,
			"componentType":5126,
			"count":9,
			"type":"VEC3"
		},
		{
			"bufferView":53,
			"componentType":5126,
			"count":9,
			"type":"VEC4"
		},
		{
			"bufferView":54,
			"componentType":5126,
			"count":9,
			"type":"VEC3"
		},
		{
			"bufferView":55,
			"componentType":5126,
			"count":9,
			"type":"VEC3"
		},
		{
			"bufferView":56,
			"componentType":5126,
			"count":9,
			"type":"VEC4"
		},
		{
			"bufferView":57,
			"componentType":5126,
			"count":9,
			"type":"VEC3"
		},
		{
			"bufferView":58,
			"componentType":5126,
			"count":9,
			"type":"VEC3"
		},
		{
			"bufferView":59,
			"componentType":5126,
			"count":9,
			"type":"VEC4"
		},
		{
			"bufferView":60,
			"componentType":5126,
			"count":9,
			"type":"VEC3"
		},
		{
			"bufferView":61,
			"componentType":5126,
			"count":9,
			"type":"VEC3"
		},
		{
			"bufferView":62,
			"componentType":5126,
			"count":9,
			"type":"VEC4"
		},
		{
			"bufferView":63,
			"componentType":5126,
			"count":9,
			"type":"VEC3"
		},
		{
			"bufferView":64,
			"componentType":5126,
			"count":9,
			"type":"VEC3"
		},
		{
			"bufferView":65,
			"componentType":5126,
			"count":9,
			"type":"VEC4"
		},
		{
			"bufferView":66,
			"componentType":5126,
			"count":9,
			"type":"VEC3"
		},
		{
			"bufferView":67,
			"componentType":5126,
			"count":9,
			"type":"VEC3"
		},
		{
			"bufferView":68,
			"componentType":5126,
			"count":9,
			"type":"VEC4"
		},
		{
			"bufferView":69,
			"componentType":5126,
			"count":9,
			"type":"VEC3"
		},
		{
			"bufferView":70,
			"componentType":5126,
			"count":9,
			"type":"VEC3"
		},
		{
			"bufferView":71,
			"componentType":5126,
			"count":9,
			"type":"VEC4"
		},
		{
			"bufferView":72,
			"componentType":5126,
			"count":9,
			"type":"VEC3"
		},
		{
			"bufferView":73,
			"componentType":5126,
			"count":9,
			"type":"VEC3"
		},
		{
			"bufferView":74,
			"componentType":5126,
			"count":9,
			"type":"VEC4"
		},
		{
			"bufferView":75,
			"componentType":5126,
			"count":9,
			"type":"VEC3"
		},
		{
			"bufferView":76,
			"componentType":5126,
			"count":9,
			"type":"VEC3"
		},
		{
			"bufferView":77,
			"componentType":5126,
			"count":9,
			"type":"VEC4"
		},
		{
			"bufferView":78,
			"componentType":5126,
			"count":9,
			"type":"VEC3"
		},
		{
			"bufferView":79,
			"componentType":5126,
			"count":9,
			"type":"VEC3"
		},
		{
			"bufferView":80,
			"componentType":5126,
			"count":9,
			"type":"VEC4"
		},
		{
			"bufferView":81,
			"componentType":5126,
			"count":9,
			"type":"VEC3"
		},
		{
			"bufferView":82,
			"componentType":5126,
			"count":9,
			"type":"VEC3"
		},
		{
			"bufferView":83,
			"componentType":5126,
			"count":9,
			"type":"VEC4"
		},
		{
			"bufferView":84,
			"componentType":5126,
			"count":9,
			"type":"VEC3"
		},
		{
			"bufferView":85,
			"componentType":5126,
			"count":9,
			"type":"VEC3"
		},
		{
			"bufferView":86,
			"componentType":5126,
			"count":9,
			"type":"VEC4"
		},
		{
			"bufferView":87,
			"componentType":5126,
			"count":9,
			"type":"VEC3"
		},
		{
			"bufferView":88,
			"componentType":5126,
			"count":9,
			"type":"VEC3"
		},
		{
			"bufferView":89,
			"componentType":5126,
			"count":9,
			"type":"VEC4"
		},
		{
			"bufferView":90,
			"componentType":5126,
			"count":9,
			"type":"VEC3"
		},
		{
			"bufferView":91,
			"componentType":5126,
			"count":9,
			"type":"VEC3"
		},
		{
			"bufferView":92,
			"componentType":5126,
			"count":9,
			"type":"VEC4"
		},
		{
			"bufferView":93,
			"componentType":5126,
			"count":9,
			"type":"VEC3"
		},
		{
			"bufferView":94,
			"componentType":5126,
			"count":9,
			"type":"VEC3"
		},
		{
			"bufferView":95,
			"componentType":5126,
			"count":9,
			"type":"VEC4"
		},
		{
			"bufferView":96,
			"componentType":5126,
			"count":9,
			"type":"VEC3"
		},
		{
			"bufferView":97,
			"componentType":5126,
			"count":9,
			"type":"VEC3"
		},
		{
			"bufferView":98,
			"componentType":5126,
			"count":9,
			"type":"VEC4"
		},
		{
			"bufferView":99,
			"componentType":5126,
			"count":9,
			"type":"VEC3"
		},
		{
			"bufferView":100,
			"componentType":5126,
			"count":9,
			"type":"VEC3"
		},
		{
			"bufferView":101,
			"componentType":5126,
			"count":9,
			"type":"VEC4"
		},
		{
			"bufferView":102,
			"componentType":5126,
			"count":9,
			"type":"VEC3"
		},
		{
			"bufferView":103,
			"componentType":5126,
			"count":9,
			"type":"VEC3"
		},
		{
			"bufferView":104,
			"componentType":5126,
			"count":9,
			"type":"VEC4"
		},
		{
			"bufferView":105,
			"componentType":5126,
			"count":9,
			"type":"VEC3"
		},
		{
			"bufferView":106,
			"componentType":5126,
			"count":9,
			"type":"VEC3"
		},
		{
			"bufferView":107,
			"componentType":5126,
			"count":9,
			"type":"VEC4"
		},
		{
			"bufferView":108,
			"componentType":5126,
			"count":9,
			"type":"VEC3"
		},
		{
			"bufferView":109,
			"componentType":5126,
			"count":9,
			"type":"VEC3"
		},
		{
			"bufferView":110,
			"componentType":5126,
			"count":9,
			"type":"VEC4"
		},
		{
			"bufferView":111,
			"componentType":5126,
			"count":9,
			"type":"VEC3"
		},
		{
			"bufferView":112,
			"componentType":5126,
			"count":9,
			"type":"VEC3"
		},
		{
			"bufferView":113,
			"componentType":5126,
			"count":9,
			"type":"VEC4"
		},
		{
			"bufferView":114,
			"componentType":5126,
			"count":9,
			"type":"VEC3"
		},
		{
			"bufferView":115,
			"componentType":5126,
			"count":9,
			"type":"VEC3"
		},
		{
			"bufferView":116,
			"componentType":5126,
			"count":9,
			"type":"VEC4"
		},
		{
			"bufferView":117,
			"componentType":5126,
			"count":9,
			"type":"VEC3"
		},
		{
			"bufferView":118,
			"componentType":5126,
			"count":9,
			"type":"VEC3"
		},
		{
			"bufferView":119,
			"componentType":5126,
			"count":9,
			"type":"VEC4"
		},
		{
			"bufferView":120,
			"componentType":5126,
			"count":9,
			"type":"VEC3"
		},
		{
			"bufferView":121,
			"componentType":5126,
			"count":9,
			"type":"VEC3"
		},
		{
			"bufferView":122,
			"componentType":5126,
			"count":9,
			"type":"VEC4"
		},
		{
			"bufferView":123,
			"componentType":5126,
			"count":9,
			"type":"VEC3"
		},
		{
			"bufferView":124,
			"componentType":5126,
			"count":9,
			"type":"VEC3"
		},
		{
			"bufferView":125,
			"componentType":5126,
			"count":9,
			"type":"VEC4"
		},
		{
			"bufferView":126,
			"componentType":5126,
			"count":9,
			"type":"VEC3"
		},
		{
			"bufferView":127,
			"componentType":5126,
			"count":9,
			"type":"VEC3"
		},
		{
			"bufferView":128,
			"componentType":5126,
			"count":9,
			"type":"VEC4"
		},
		{
			"bufferView":129,
			"componentType":5126,
			"count":9,
			"type":"VEC3"
		},
		{
			"bufferView":130,
			"componentType":5126,
			"count":9,
			"type":"VEC3"
		},
		{
			"bufferView":131,
			"componentType":5126,
			"count":9,
			"type":"VEC4"
		},
		{
			"bufferView":132,
			"componentType":5126,
			"count":9,
			"type":"VEC3"
		},
		{
			"bufferView":133,
			"componentType":5126,
			"count":9,
			"type":"VEC3"
		},
		{
			"bufferView":134,
			"componentType":5126,
			"count":9,
			"type":"VEC4"
		},
		{
			"bufferView":135,
			"componentType":5126,
			"count":9,
			"type":"VEC3"
		},
		{
			"bufferView":136,
			"componentType":5126,
			"count":9,
			"type":"VEC3"
		},
		{
			"bufferView":137,
			"componentType":5126,
			"count":9,
			"type":"VEC4"
		},
		{
			"bufferView":138,
			"componentType":5126,
			"count":9,
			"type":"VEC3"
		}
	],
	"bufferViews":[
		{
			"buffer":0,
			"byteLength":132288,
			"byteOffset":0,
			"target":34962
		},
		{
			"buffer":0,
			"byteLength":132288,
			"byteOffset":132288,
			"target":34962
		},
		{
			"buffer":0,
			"byteLength":88192,
			"byteOffset":264576,
			"target":34962
		},
		{
			"buffer":0,
			"byteLength":88192,
			"byteOffset":352768,
			"target":34962
		},
		{
			"buffer":0,
			"byteLength":44096,
			"byteOffset":440960,
			"target":34962
		},
		{
			"buffer":0,
			"byteLength":88192,
			"byteOffset":485056,
			"target":34962
		},
		{
			"buffer":0,
			"byteLength":88192,
			"byteOffset":573248,
			"target":34962
		},
		{
			"buffer":0,
			"byteLength":88192,
			"byteOffset":661440,
			"target":34962
		},
		{
			"buffer":0,
			"byteLength":44096,
			"byteOffset":749632,
			"target":34962
		},
		{
			"buffer":0,
			"byteLength":176384,
			"byteOffset":793728,
			"target":34962
		},
		{
			"buffer":0,
			"byteLength":74514,
			"byteOffset":970112,
			"target":34963
		},
		{
			"buffer":0,
			"byteLength":1344,
			"byteOffset":1044628
		},
		{
			"buffer":0,
			"byteLength":12,
			"byteOffset":1045972
		},
		{
			"buffer":0,
			"byteLength":108,
			"byteOffset":1045984
		},
		{
			"buffer":0,
			"byteLength":144,
			"byteOffset":1046092
		},
		{
			"buffer":0,
			"byteLength":108,
			"byteOffset":1046236
		},
		{
			"buffer":0,
			"byteLength":108,
			"byteOffset":1046344
		},
		{
			"buffer":0,
			"byteLength":144,
			"byteOffset":1046452
		},
		{
			"buffer":0,
			"byteLength":108,
			"byteOffset":1046596
		},
		{
			"buffer":0,
			"byteLength":108,
			"byteOffset":1046704
		},
		{
			"buffer":0,
			"byteLength":144,
			"byteOffset":1046812
		},
		{
			"buffer":0,
			"byteLength":108,
			"byteOffset":1046956
		},
		{
			"buffer":0,
			"byteLength":108,
			"byteOffset":1047064
		},
		{
			"buffer":0,
			"byteLength":144,
			"byteOffset":1047172
		},
		{
			"buffer":0,
			"byteLength":108,
			"byteOffset":1047316
		},
		{
			"buffer":0,
			"byteLength":108,
			"byteOffset":1047424
		},
		{
			"buffer":0,
			"byteLength":144,
			"byteOffset":1047532
		},
		{
			"buffer":0,
			"byteLength":108,
			"byteOffset":1047676
		},
		{
			"buffer":0,
			"byteLength":108,
			"byteOffset":1047784
		},
		{
			"buffer":0,
			"byteLength":144,
			"byteOffset":1047892
		},
		{
			"buffer":0,
			"byteLength":108,
			"byteOffset":1048036
		},
		{
			"buffer":0,
			"byteLength":108,
			"byteOffset":1048144
		},
		{
			"buffer":0,
			"byteLength":144,
			"byteOffset":1048252
		},
		{
			"buffer":0,
			"byteLength":108,
			"byteOffset":1048396
		},
		{
			"buffer":0,
			"byteLength":108,
			"byteOffset":1048504
		},
		{
			"buffer":0,
			"byteLength":144,
			"byteOffset":1048612
		},
		{
			"buffer":0,
			"byteLength":108,
			"byteOffset":1048756
		},
		{
			"buffer":0,
			"byteLength":108,
			"byteOffset":1048864
		},
		{
			"buffer":0,
			"byteLength":144,
			"byteOffset":1048972
		},
		{
			"buffer":0,
			"byteLength":108,
			"byteOffset":1049116
		},
		{
			"buffer":0,
			"byteLength":108,
			"byteOffset":1049224
		},
		{
			"buffer":0,
			"byteLength":144,
			"byteOffset":1049332
		},
		{
			"buffer":0,
			"byteLength":108,
			"byteOffset":1049476
		},
		{
			"buffer":0,
			"byteLength":108,
			"byteOffset":1049584
		},
		{
			"buffer":0,
			"byteLength":144,
			"byteOffset":1049692
		},
		{
			"buffer":0,
			"byteLength":108,
			"byteOffset":1049836
		},
		{
			"buffer":0,
			"byteLength":108,
			"byteOffset":1049944
		},
		{
			"buffer":0,
			"byteLength":144,
			"byteOffset":1050052
		},
		{
			"buffer":0,
			"byteLength":108,
			"byteOffset":1050196
		},
		{
			"buffer":0,
			"byteLength":108,
			"byteOffset":1050304
		},
		{
			"buffer":0,
			"byteLength":144,
			"byteOffset":1050412
		},
		{
			"buffer":0,
			"byteLength":108,
			"byteOffset":1050556
		},
		{
			"buffer":0,
			"byteLength":108,
			"byteOffset":1050664
		},
		{
			"buffer":0,
			"byteLength":144,
			"byteOffset":1050772
		},
		{
			"buffer":0,
			"byteLength":108,
			"byteOffset":1050916
		},
		{
			"buffer":0,
			"byteLength":108,
			"byteOffset":1051024
		},
		{
			"buffer":0,
			"byteLength":144,
			"byteOffset":1051132
		},
		{
			"buffer":0,
			"byteLength":108,
			"byteOffset":1051276
		},
		{
			"buffer":0,
			"byteLength":108,
			"byteOffset":1051384
		},
		{
			"buffer":0,
			"byteLength":144,
			"byteOffset":1051492
		},
		{
			"buffer":0,
			"byteLength":108,
			"byteOffset":1051636
		},
		{
			"buffer":0,
			"byteLength":108,
			"byteOffset":1051744
		},
		{
			"buffer":0,
			"byteLength":144,
			"byteOffset":1051852
		},
		{
			"buffer":0,
			"byteLength":108,
			"byteOffset":1051996
		},
		{
			"buffer":0,
			"byteLength":108,
			"byteOffset":1052104
		},
		{
			"buffer":0,
			"byteLength":144,
			"byteOffset":1052212
		},
		{
			"buffer":0,
			"byteLength":108,
			"byteOffset":1052356
		},
		{
			"buffer":0,
			"byteLength":108,
			"byteOffset":1052464
		},
		{
			"buffer":0,
			"byteLength":144,
			"byteOffset":1052572
		},
		{
			"buffer":0,
			"byteLength":108,
			"byteOffset":1052716
		},
		{
			"buffer":0,
			"byteLength":108,
			"byteOffset":1052824
		},
		{
			"buffer":0,
			"byteLength":144,
			"byteOffset":1052932
		},
		{
			"buffer":0,
			"byteLength":108,
			"byteOffset":1053076
		},
		{
			"buffer":0,
			"byteLength":108,
			"byteOffset":1053184
		},
		{
			"buffer":0,
			"byteLength":144,
			"byteOffset":1053292
		},
		{
			"buffer":0,
			"byteLength":108,
			"byteOffset":1053436
		},
		{
			"buffer":0,
			"byteLength":108,
			"byteOffset":1053544
		},
		{
			"buffer":0,
			"byteLength":144,
			"byteOffset":1053652
		},
		{
			"buffer":0,
			"byteLength":108,
			"byteOffset":1053796
		},
		{
			"buffer":0,
			"byteLength":108,
			"byteOffset":1053904
		},
		{
			"buffer":0,
			"byteLength":144,
			"byteOffset":1054012
		},
		{
			"buffer":0,
			"byteLength":108,
			"byteOffset":1054156
		},
		{
			"buffer":0,
			"byteLength":108,
			"byteOffset":1054264
		},
		{
			"buffer":0,
			"byteLength":144,
			"byteOffset":1054372
		},
		{
			"buffer":0,
			"byteLength":108,
			"byteOffset":1054516
		},
		{
			"buffer":0,
			"byteLength":108,
			"byteOffset":1054624
		},
		{
			"buffer":0,
			"byteLength":144,
			"byteOffset":1054732
		},
		{
			"buffer":0,
			"byteLength":108,
			"byteOffset":1054876
		},
		{
			"buffer":0,
			"byteLength":108,
			"byteOffset":1054984
		},
		{
			"buffer":0,
			"byteLength":144,
			"byteOffset":1055092
		},
		{
			"buffer":0,
			"byteLength":108,
			"byteOffset":1055236
		},
		{
			"buffer":0,
			"byteLength":108,
			"byteOffset":1055344
		},
		{
			"buffer":0,
			"byteLength":144,
			"byteOffset":1055452
		},
		{
			"buffer":0,
			"byteLength":108,
			"byteOffset":1055596
		},
		{
			"buffer":0,
			"byteLength":108,
			"byteOffset":1055704
		},
		{
			"buffer":0,
			"byteLength":144,
			"byteOffset":1055812
		},
		{
			"buffer":0,
			"byteLength":108,
			"byteOffset":1055956
		},
		{
			"buffer":0,
			"byteLength":108,
			"byteOffset":1056064
		},
		{
			"buffer":0,
			"byteLength":144,
			"byteOffset":1056172
		},
		{
			"buffer":0,
			"byteLength":108,
			"byteOffset":1056316
		},
		{
			"buffer":0,
			"byteLength":108,
			"byteOffset":1056424
		},
		{
			"buffer":0,
			"byteLength":144,
			"byteOffset":1056532
		},
		{
			"buffer":0,
			"byteLength":108,
			"byteOffset":1056676
		},
		{
			"buffer":0,
			"byteLength":108,
			"byteOffset":1056784
		},
		{
			"buffer":0,
			"byteLength":144,
			"byteOffset":1056892
		},
		{
			"buffer":0,
			"byteLength":108,
			"byteOffset":1057036
		},
		{
			"buffer":0,
			"byteLength":108,
			"byteOffset":1057144
		},
		{
			"buffer":0,
			"byteLength":144,
			"byteOffset":1057252
		},
		{
			"buffer":0,
			"byteLength":108,
			"byteOffset":1057396
		},
		{
			"buffer":0,
			"byteLength":108,
			"byteOffset":1057504
		},
		{
			"buffer":0,
			"byteLength":144,
			"byteOffset":1057612
		},
		{
			"buffer":0,
			"byteLength":108,
			"byteOffset":1057756
		},
		{
			"buffer":0,
			"byteLength":108,
			"byteOffset":1057864
		},
		{
			"buffer":0,
			"byteLength":144,
			"byteOffset":1057972
		},
		{
			"buffer":0,
			"byteLength":108,
			"byteOffset":1058116
		},
		{
			"buffer":0,
			"byteLength":108,
			"byteOffset":1058224
		},
		{
			"buffer":0,
			"byteLength":144,
			"byteOffset":1058332
		},
		{
			"buffer":0,
			"byteLength":108,
			"byteOffset":1058476
		},
		{
			"buffer":0,
			"byteLength":108,
			"byteOffset":1058584
		},
		{
			"buffer":0,
			"byteLength":144,
			"byteOffset":1058692
		},
		{
			"buffer":0,
			"byteLength":108,
			"byteOffset":1058836
		},
		{
			"buffer":0,
			"byteLength":108,
			"byteOffset":1058944
		},
		{
			"buffer":0,
			"byteLength":144,
			"byteOffset":1059052
		},
		{
			"buffer":0,
			"byteLength":108,
			"byteOffset":1059196
		},
		{
			"buffer":0,
			"byteLength":108,
			"byteOffset":1059304
		},
		{
			"buffer":0,
			"byteLength":144,
			"byteOffset":1059412
		},
		{
			"buffer":0,
			"byteLength":108,
			"byteOffset":1059556
		},
		{
			"buffer":0,
			"byteLength":108,
			"byteOffset":1059664
		},
		{
			"buffer":0,
			"byteLength":144,
			"byteOffset":1059772
		},
		{
			"buffer":0,
			"byteLength":108,
			"byteOffset":1059916
		},
		{
			"buffer":0,
			"byteLength":108,
			"byteOffset":1060024
		},
		{
			"buffer":0,
			"byteLength":144,
			"byteOffset":1060132
		},
		{
			"buffer":0,
			"byteLength":108,
			"byteOffset":1060276
		},
		{
			"buffer":0,
			"byteLength":108,
			"byteOffset":1060384
		},
		{
			"buffer":0,
			"byteLength":144,
			"byteOffset":1060492
		},
		{
			"buffer":0,
			"byteLength":108,
			"byteOffset":1060636
		},
		{
			"buffer":0,
			"byteLength":108,
			"byteOffset":1060744
		},
		{
			"buffer":0,
			"byteLength":144,
			"byteOffset":1060852
		},
		{
			"buffer":0,
			"byteLength":108,
			"byteOffset":1060996
		}
	],
	"samplers":[
		{
			"magFilter":9729,
			"minFilter":9987
		}
	],
	"buffers":[
		{
			"byteLength":1061104,
			"uri":"moderator_master.bin"
		}
	]
}
