# Blender 4.4.0
# www.blender.org
o 立方体.001
v -0.136371 0.698755 -0.037011
v -0.240621 1.087361 -0.143250
v 0.088308 0.766593 -0.096244
v -0.021934 1.027323 -0.394331
v -0.143766 0.793235 0.057987
v -0.266077 1.156234 -0.166976
v 0.162849 0.726278 0.002662
v 0.002755 1.098954 -0.394608
v -0.116139 0.902803 -0.059932
v 0.115042 0.904501 -0.082230
v 0.123053 0.936190 0.008506
v -0.109227 0.934398 0.021002
v -0.205091 1.080761 -0.132838
v 0.012856 1.008954 -0.344197
v 0.040313 1.086291 -0.332420
v -0.195889 1.167052 -0.154550
v 0.120047 0.832576 -0.058534
v 0.137913 0.811710 0.060884
v -0.121690 0.843182 0.045026
v -0.119271 0.795661 -0.070179
v -0.007208 0.711115 -0.059590
v -0.139507 0.994201 -0.263666
v -0.007196 0.709910 0.059432
v -0.127214 1.139818 -0.270031
v 0.001533 0.938393 0.013762
v -0.006022 0.902377 -0.079448
v -0.069065 1.104854 -0.203642
v -0.070865 0.961305 -0.155978
v -0.003781 0.811748 -0.060836
v 0.000319 0.819939 0.062974
v -0.071362 0.977522 -0.307763
v 0.071739 0.695283 0.032855
v 0.055387 0.904261 -0.077507
v 0.003864 0.957189 -0.195362
v 0.073398 0.828149 -0.061174
v 0.052711 0.731899 -0.092641
v -0.055825 1.127344 -0.324900
v 0.061820 0.935350 0.013784
v 0.000333 1.097222 -0.240106
v 0.080384 0.809989 0.062768
v -0.081519 0.679508 -0.013817
v -0.180904 1.148096 -0.231110
v -0.056854 0.936683 0.018350
v -0.111538 1.115893 -0.167805
v -0.072338 0.833644 0.058740
v -0.199331 1.018438 -0.210951
v -0.087661 0.757508 0.084698
v -0.064132 0.904140 -0.068801
v -0.133331 0.976546 -0.120780
v -0.072951 0.798700 -0.061932
v -0.047536 0.623441 -0.600532
v -0.049084 0.634130 -0.609817
v -0.002842 0.629677 -0.630261
v -0.000214 0.611523 -0.614493
v -0.492862 1.171056 0.164124
v -0.479693 1.158806 0.149330
v -0.475213 1.127605 0.186669
v -0.482967 1.134818 0.195380
v -0.295324 0.307313 0.355461
v -0.192638 0.369554 0.419196
v -0.217449 0.392814 0.444089
v -0.335704 0.342227 0.395214
v 0.271760 0.299226 -0.420869
v 0.311937 0.253623 -0.296988
v 0.267088 0.238055 -0.282173
v 0.201091 0.274526 -0.398311
v -0.236251 0.226175 0.386518
v -0.177634 0.284074 0.487964
v -0.239217 0.310587 0.541819
v -0.343288 0.235758 0.471044
v 0.341094 0.190428 -0.454509
v 0.351703 0.175475 -0.333353
v 0.262862 0.140527 -0.308874
v 0.218339 0.135353 -0.426085
v -0.317243 0.204031 0.282168
v -0.301285 0.166317 0.297289
v -0.410200 0.168422 0.381220
v -0.426307 0.212276 0.368139
v 0.301030 0.221732 -0.576203
v 0.320763 0.178538 -0.576442
v 0.200545 0.118551 -0.549603
v 0.177944 0.166507 -0.548573
v -0.100913 0.528685 -0.673745
v -0.106272 0.565703 -0.705898
v -0.042401 0.553610 -0.728516
v -0.037317 0.518496 -0.698018
v -0.603773 1.115655 0.124994
v -0.580792 1.094278 0.099176
v -0.571341 1.052256 0.140643
v -0.595568 1.074792 0.167861
v 0.123419 0.781592 -0.081228
v -0.267143 1.095106 -0.147644
v -0.114693 0.913140 -0.037518
v -0.180191 1.087070 -0.120362
v -0.128590 0.806570 -0.052412
v -0.005289 0.714153 -0.035711
v 0.025931 0.722625 -0.058299
v -0.034482 0.704057 -0.007610
v -0.040256 0.651896 -0.631325
v -0.499212 1.156687 0.203038
v -0.247164 0.302173 0.348990
v 0.311649 0.298927 -0.399357
v -0.219112 0.240919 0.410406
v 0.346425 0.192575 -0.423298
v -0.092628 0.578737 -0.725498
v -0.608151 1.094804 0.168976
v -0.038882 1.033674 -0.398752
v -0.165516 0.737397 -0.031497
v 0.117499 0.914394 -0.053235
v 0.030579 1.023237 -0.323262
v 0.141979 0.830755 -0.029178
v -0.150749 1.113236 -0.326973
v -0.113176 1.106427 -0.348743
v -0.189436 1.116877 -0.308102
v -0.032958 0.601478 -0.587534
v -0.462640 1.122669 0.161951
v -0.329381 0.375436 0.430485
v 0.187160 0.255871 -0.358907
v -0.324095 0.255189 0.494501
v 0.223377 0.138732 -0.393853
v -0.082685 0.510049 -0.665839
v -0.563196 1.052987 0.118471
v -0.018684 1.078382 -0.412131
v -0.170082 0.785697 0.015538
v 0.120888 0.927692 -0.016324
v 0.041893 1.055303 -0.318295
v 0.150915 0.819740 0.030034
v -0.134301 1.154412 -0.301479
v -0.097480 1.148070 -0.319748
v -0.177994 1.154190 -0.290414
v -0.009567 0.597390 -0.596139
v -0.466231 1.139525 0.144799
v -0.273878 0.404646 0.458703
v 0.213831 0.235226 -0.298829
v -0.279535 0.300139 0.537636
v 0.235885 0.138045 -0.334364
v -0.050819 0.504480 -0.677563
v -0.567609 1.073708 0.097387
v 0.167199 0.762738 -0.034496
v -0.280555 1.130938 -0.160872
v -0.112087 0.924274 -0.004679
v -0.166883 1.123540 -0.126528
v -0.129861 0.835321 0.002912
v -0.005101 0.712950 0.030006
v 0.027871 0.706192 0.006836
v -0.036235 0.721137 0.053002
v -0.016866 0.647808 -0.639930
v -0.502802 1.173544 0.185885
v -0.192165 0.329190 0.376990
v 0.338187 0.278175 -0.339656
v -0.183763 0.263244 0.454979
v 0.359753 0.187547 -0.367800
v -0.060762 0.573167 -0.737222
v -0.612564 1.115524 0.147892
v -0.151863 1.133180 -0.350392
v -0.192774 1.134855 -0.335040
v -0.109921 1.129754 -0.362265
v -0.142500 1.195200 -0.358113
v -0.101121 1.192694 -0.365580
v -0.184126 1.197394 -0.350205
v 0.066716 0.781676 -0.405207
v 0.084610 0.787040 -0.404060
v 0.075802 0.792568 -0.462003
v 0.095050 0.785861 -0.450495
v 0.111083 0.796128 -0.416395
v 0.039322 0.777014 -0.422961
v 0.044649 0.784243 -0.452973
v 0.110020 0.795402 -0.441831
v -0.271404 1.213115 0.052139
v -0.273727 1.243839 0.063782
v -0.242285 1.203858 0.103247
v -0.243482 1.221375 0.110130
v -0.247801 1.180356 0.080327
v -0.252779 1.253210 0.108952
v -0.267599 1.261649 0.084895
v -0.262621 1.188795 0.056270
v 0.248951 0.552494 -0.179794
v 0.213418 0.584612 -0.265264
v 0.203797 0.537116 -0.164968
v 0.162593 0.567302 -0.248576
v 0.152813 0.552916 -0.221080
v 0.242383 0.583422 -0.250491
v 0.261567 0.567846 -0.208221
v 0.171997 0.537340 -0.178811
v -0.209536 0.595496 0.182426
v -0.290481 0.553286 0.140332
v -0.237342 0.622047 0.210426
v -0.319481 0.580976 0.169534
v -0.314328 0.605932 0.195246
v -0.254862 0.549151 0.135366
v -0.214092 0.569971 0.156113
v -0.273558 0.626752 0.215993
v -0.200118 1.130429 -0.395158
v -0.203467 1.234533 -0.444291
v -0.086036 1.129249 -0.405374
v -0.089386 1.233377 -0.454516
v -0.190508 1.181474 -0.293708
v -0.193733 1.283555 -0.341225
v -0.076424 1.180287 -0.303903
v -0.079651 1.282399 -0.351450
v -0.109652 1.118027 -0.406662
v -0.143638 1.111957 -0.404504
v -0.177338 1.118735 -0.400614
v -0.209841 1.148500 -0.412097
v -0.215365 1.177529 -0.430003
v -0.211819 1.209992 -0.441114
v -0.181222 1.238273 -0.457455
v -0.147859 1.239926 -0.466057
v -0.113538 1.237587 -0.463522
v -0.081097 1.208668 -0.452831
v -0.076285 1.176120 -0.442469
v -0.079119 1.147168 -0.423814
v -0.069820 1.162702 -0.321822
v -0.068356 1.143742 -0.350346
v -0.075507 1.132239 -0.381829
v -0.079329 1.250812 -0.437872
v -0.072384 1.269104 -0.409464
v -0.073554 1.279896 -0.376723
v -0.069943 1.264840 -0.334731
v -0.064417 1.235884 -0.316817
v -0.067995 1.203670 -0.306082
v -0.166382 1.177998 -0.285070
v -0.132076 1.176148 -0.282764
v -0.098698 1.177320 -0.291143
v -0.102383 1.293759 -0.345422
v -0.135991 1.299690 -0.340405
v -0.170068 1.294445 -0.339356
v -0.200665 1.266164 -0.323014
v -0.203498 1.237293 -0.304351
v -0.198718 1.205003 -0.294379
v -0.206229 1.133565 -0.370113
v -0.207436 1.145150 -0.337879
v -0.200542 1.164025 -0.310104
v -0.204276 1.281220 -0.365006
v -0.211465 1.270513 -0.396998
v -0.210051 1.252136 -0.426155
v -0.182000 1.138390 -0.429811
v -0.185507 1.168765 -0.450584
v -0.184110 1.204064 -0.460778
v -0.146383 1.133160 -0.437521
v -0.148063 1.165553 -0.459934
v -0.148613 1.202867 -0.470288
v -0.109864 1.137636 -0.436273
v -0.109497 1.167995 -0.457396
v -0.111975 1.203333 -0.467244
v -0.058759 1.157551 -0.398080
v -0.053942 1.189472 -0.415740
v -0.060859 1.223094 -0.428916
v -0.049601 1.171354 -0.365264
v -0.044119 1.205736 -0.381994
v -0.051810 1.240290 -0.397702
v -0.052617 1.188779 -0.333078
v -0.047456 1.222134 -0.347069
v -0.054704 1.254091 -0.363746
v -0.095726 1.209834 -0.286689
v -0.094275 1.244648 -0.296236
v -0.097782 1.274806 -0.316976
v -0.131239 1.211224 -0.277389
v -0.131719 1.247861 -0.286885
v -0.133392 1.279519 -0.309128
v -0.167861 1.210568 -0.280227
v -0.170286 1.245418 -0.289423
v -0.169917 1.275536 -0.310510
v -0.218946 1.190466 -0.318173
v -0.225841 1.223941 -0.331080
v -0.221033 1.255776 -0.348838
v -0.227986 1.173161 -0.349280
v -0.235663 1.207677 -0.364826
v -0.230195 1.242096 -0.381713
v -0.225090 1.159222 -0.383187
v -0.232326 1.191279 -0.399751
v -0.227188 1.224779 -0.414008
v -0.104326 1.116478 -0.372095
v -0.099272 1.127697 -0.338766
v -0.098402 1.149149 -0.309694
v -0.139552 1.116008 -0.359378
v -0.137025 1.124939 -0.332187
v -0.134138 1.146116 -0.302378
v -0.176460 1.117224 -0.365610
v -0.175283 1.128414 -0.331949
v -0.170537 1.149873 -0.303225
v -0.103178 1.297304 -0.379721
v -0.104494 1.287256 -0.415065
v -0.109333 1.266307 -0.444891
v -0.139257 1.303971 -0.377323
v -0.142692 1.293611 -0.414480
v -0.145743 1.271309 -0.445994
v -0.175313 1.298035 -0.373256
v -0.180505 1.288025 -0.408252
v -0.181469 1.267037 -0.438426
vn -0.2063 -0.3313 -0.9207
vn -0.3077 -0.8131 0.4942
vn -0.2451 0.4954 -0.8333
vn -0.5707 -0.4311 0.6989
vn -0.4068 0.5551 0.7255
vn -0.5857 0.4671 -0.6624
vn 0.8027 -0.2395 0.5462
vn 0.4597 0.5372 -0.7072
vn -0.7114 -0.1755 -0.6806
vn 0.6903 -0.1431 -0.7093
vn 0.6816 0.5362 0.4980
vn -0.4597 0.3626 0.8107
vn -0.5620 -0.6588 0.5001
vn -0.4380 -0.8031 0.4040
vn 0.8694 0.4941 0.0103
vn 0.3059 0.9520 0.0146
vn 0.6308 0.1371 -0.7637
vn 0.2803 0.0136 0.9598
vn -0.4519 0.4093 0.7926
vn -0.1597 -0.0551 -0.9856
vn -0.1736 -0.3488 -0.9210
vn -0.5434 -0.7064 -0.4535
vn 0.0172 -0.2686 0.9631
vn 0.2571 0.9418 0.2168
vn 0.0462 0.5465 0.8362
vn -0.0741 -0.4098 -0.9092
vn 0.3372 0.8859 0.3185
vn -0.2753 -0.9248 -0.2624
vn -0.0914 -0.0432 -0.9949
vn -0.0093 0.1066 0.9943
vn -0.3397 -0.7339 -0.5881
vn 0.1728 -0.5739 0.8005
vn -0.0139 -0.3900 -0.9207
vn -0.1281 -0.9530 -0.2747
vn -0.0276 0.0268 -0.9993
vn -0.5786 0.1614 -0.7994
vn 0.4111 0.9076 0.0856
vn 0.0479 0.5417 0.8392
vn 0.4542 0.8591 0.2358
vn 0.0713 0.0324 0.9969
vn 0.1817 -0.7674 -0.6149
vn 0.1122 0.9915 0.0661
vn 0.0252 0.4681 0.8833
vn 0.5012 0.8117 0.3001
vn -0.0052 0.2736 0.9618
vn -0.7327 -0.6285 -0.2611
vn 0.2967 0.1803 0.9378
vn -0.1171 -0.2526 -0.9605
vn -0.5954 -0.7326 -0.3297
vn 0.0010 -0.1183 -0.9930
vn -0.8480 0.0195 0.5296
vn -0.9082 0.3372 0.2481
vn 0.9000 0.1092 -0.4220
vn 0.9454 -0.2911 -0.1468
vn -0.3780 0.8104 -0.4476
vn -0.2370 0.4110 -0.8803
vn 0.3682 -0.6115 0.7003
vn 0.2673 -0.2370 0.9340
vn -0.2308 -0.0483 -0.9718
vn 0.9542 0.2572 0.1526
vn 0.6033 0.5886 0.5381
vn -0.9721 0.2344 -0.0060
vn 0.1554 0.6426 -0.7503
vn 0.6068 -0.1472 0.7811
vn 0.0970 -0.3103 0.9457
vn -0.8382 0.1813 -0.5143
vn 0.7786 -0.4878 -0.3947
vn 0.7361 -0.1223 0.6657
vn 0.1464 0.0035 0.9892
vn -0.6744 -0.2705 0.6870
vn 0.9881 -0.1132 -0.1042
vn 0.8209 -0.2773 0.4993
vn -0.0337 -0.4610 0.8867
vn -0.6919 -0.6765 0.2520
vn -0.0022 0.0133 -0.9999
vn 0.4441 -0.2930 -0.8467
vn -0.6114 -0.3103 0.7279
vn -0.9610 0.0558 -0.2709
vn 0.0396 0.1710 -0.9845
vn 0.3624 -0.0848 -0.9282
vn -0.3121 -0.4049 -0.8595
vn -0.6662 0.0711 -0.7424
vn -0.9611 -0.2517 0.1136
vn -0.8685 -0.0500 -0.4932
vn 0.4170 -0.1338 -0.8990
vn 0.5937 -0.5375 -0.5989
vn -0.7785 0.1371 -0.6125
vn -0.2992 0.0660 -0.9519
vn -0.3499 -0.9359 0.0406
vn -0.3695 -0.5015 0.7823
vn 0.4193 0.5436 -0.7271
vn -0.7982 -0.5751 0.1793
vn -0.9975 -0.0199 0.0673
vn -0.1531 -0.0484 0.9870
vn -0.8935 0.0802 -0.4418
vn 0.2675 -0.9626 -0.0427
vn -0.4077 -0.9038 -0.1303
vn 0.4103 -0.9115 0.0293
vn -0.5640 0.7838 -0.2599
vn -0.0298 0.0404 0.9987
vn 0.2281 -0.5627 -0.7945
vn 0.6710 0.4229 -0.6091
vn 0.6776 -0.7110 -0.1880
vn 0.9128 -0.1302 -0.3870
vn -0.4604 0.0385 -0.8869
vn -0.6458 -0.0040 0.7635
vn -0.8064 -0.2529 -0.5346
vn -0.6941 -0.0233 -0.7195
vn 0.9552 0.1505 -0.2550
vn 0.7839 -0.4724 0.4029
vn 0.9169 0.2716 -0.2924
vn -0.4449 -0.5691 -0.6915
vn -0.1670 -0.2807 -0.9452
vn -0.9038 -0.1872 -0.3848
vn -0.4723 -0.4091 0.7808
vn 0.4553 -0.8888 0.0532
vn -0.8574 0.3459 0.3810
vn -0.9849 -0.1473 -0.0906
vn -0.5792 -0.1796 0.7952
vn -0.7109 -0.7013 -0.0534
vn -0.4859 -0.6411 0.5941
vn -0.0992 -0.8081 -0.5807
vn -0.1176 0.1641 -0.9794
vn -0.8500 0.4676 -0.2426
vn 0.9677 0.2073 -0.1438
vn 0.9878 -0.1487 -0.0471
vn 0.9377 0.1504 0.3131
vn 0.2328 0.8592 0.4556
vn 0.4724 0.8460 0.2473
vn -0.5344 0.8444 -0.0375
vn 0.5676 -0.6925 0.4453
vn -0.0225 -0.2145 -0.9765
vn -0.2568 0.6146 0.7459
vn -0.6456 -0.3257 0.6907
vn -0.2518 -0.0302 0.9673
vn -0.6123 -0.7479 0.2563
vn 0.3510 -0.9278 -0.1263
vn 0.0367 -0.0868 -0.9956
vn 0.9539 0.2946 -0.0576
vn -0.9280 -0.0050 -0.3726
vn -0.9953 0.0151 0.0959
vn 0.9395 -0.3356 0.0692
vn -0.9303 0.3441 -0.1274
vn -0.1436 -0.9881 0.0558
vn -0.3434 -0.9323 0.1137
vn 0.2050 -0.9101 0.3603
vn 0.5086 0.5795 -0.6368
vn -0.3520 0.7771 0.5218
vn 0.9010 -0.2222 -0.3726
vn 0.9629 0.2441 0.1153
vn 0.9011 -0.4328 0.0265
vn 0.9559 -0.2172 -0.1975
vn 0.0025 0.0142 -0.9999
vn -0.9782 0.1370 -0.1558
vn -0.3014 -0.2657 -0.9157
vn -0.8676 -0.2512 -0.4291
vn 0.1940 -0.1886 -0.9627
vn -0.1961 0.2230 -0.9549
vn 0.2912 0.1467 -0.9453
vn -0.4562 0.2018 -0.8667
vn -0.2208 -0.4170 0.8817
vn 0.2901 -0.3569 0.8879
vn 0.2200 0.4271 -0.8770
vn 0.3537 0.4925 -0.7952
vn 0.9099 -0.1901 0.3687
vn -0.7625 -0.4186 0.4934
vn -0.6374 0.3405 -0.6912
vn 0.7510 0.0354 -0.6593
vn -0.8460 -0.0810 -0.5271
vn -0.4371 0.5186 -0.7348
vn 0.8110 -0.3087 0.4969
vn 0.5879 -0.0202 0.8087
vn 0.6615 -0.7366 0.1406
vn 0.4881 0.4359 0.7561
vn 0.1850 0.9325 -0.3102
vn -0.7264 -0.5915 -0.3499
vn 0.7031 -0.1449 0.6962
vn -0.0433 0.5177 -0.8545
vn 0.1135 -0.5722 0.8122
vn -0.7246 0.2545 -0.6405
vn -0.9653 -0.2418 -0.0981
vn 0.6790 0.5602 -0.4746
vn 0.9445 0.2799 0.1718
vn -0.6001 -0.5785 0.5525
vn 0.9408 0.0629 0.3331
vn -0.5888 -0.3175 -0.7433
vn 0.5357 0.5543 0.6369
vn -0.8973 0.0519 -0.4383
vn -0.8915 0.4239 0.1597
vn 0.1300 -0.7414 -0.6583
vn 0.8126 -0.5591 -0.1644
vn -0.2412 0.7199 0.6508
vn -0.6403 -0.7407 -0.2035
vn -0.6124 0.2545 -0.7485
vn 0.5757 -0.7493 -0.3272
vn 0.4804 0.2342 -0.8452
vn -0.4672 -0.2626 0.8442
vn -0.5721 0.7533 0.3245
vn 0.5973 -0.2813 0.7511
vn 0.6378 0.7406 0.2114
vn 0.2905 -0.8845 -0.3652
vn -0.0409 -0.9470 -0.3187
vn -0.3707 -0.8769 -0.3060
vn -0.7402 -0.5358 -0.4062
vn -0.7687 -0.2649 -0.5821
vn -0.7084 -0.0105 -0.7058
vn -0.3674 0.2552 -0.8944
vn -0.0769 0.2260 -0.9711
vn 0.2137 0.2324 -0.9488
vn 0.5636 -0.0226 -0.8257
vn 0.6466 -0.2705 -0.7133
vn 0.6462 -0.5447 -0.5346
vn 0.7055 -0.4478 0.5493
vn 0.7389 -0.6137 0.2782
vn 0.6879 -0.7252 -0.0294
vn 0.6289 0.4136 -0.6583
vn 0.7056 0.5883 -0.3950
vn 0.7049 0.7030 -0.0941
vn 0.7395 0.5383 0.4041
vn 0.7676 0.2624 0.5847
vn 0.6951 -0.0047 0.7189
vn -0.2061 -0.2635 0.9424
vn 0.0784 -0.2595 0.9626
vn 0.3584 -0.2850 0.8890
vn 0.3643 0.8737 0.3223
vn 0.0438 0.9287 0.3681
vn -0.2833 0.8813 0.3783
vn -0.6457 0.5472 0.5325
vn -0.6450 0.2676 0.7158
vn -0.5479 0.0070 0.8365
vn -0.6972 -0.7089 0.1065
vn -0.6901 -0.5949 0.4121
vn -0.6074 -0.4279 0.6693
vn -0.6917 0.7206 0.0489
vn -0.7517 0.6073 -0.2573
vn -0.7253 0.4343 -0.5342
vn -0.4299 -0.6419 -0.6349
vn -0.4385 -0.3438 -0.8303
vn -0.3607 -0.0473 -0.9315
vn -0.0747 -0.6757 -0.7334
vn -0.0862 -0.3582 -0.9297
vn -0.0719 -0.0424 -0.9965
vn 0.2937 -0.6401 -0.7099
vn 0.2779 -0.3379 -0.8992
vn 0.2029 -0.0448 -0.9782
vn 0.8791 -0.4204 -0.2245
vn 0.9002 -0.1457 -0.4103
vn 0.8181 0.1280 -0.5606
vn 0.9499 -0.3008 0.0853
vn 0.9958 -0.0099 -0.0909
vn 0.9269 0.2773 -0.2531
vn 0.8983 -0.1565 0.4106
vn 0.9623 0.1283 0.2400
vn 0.9125 0.4047 0.0599
vn 0.3520 0.0274 0.9356
vn 0.4362 0.3366 0.8345
vn 0.4265 0.6445 0.6346
vn 0.0716 0.0263 0.9971
vn 0.0862 0.3471 0.9339
vn 0.0744 0.6776 0.7317
vn -0.1957 0.0270 0.9803
vn -0.2753 0.3297 0.9031
vn -0.2904 0.6435 0.7083
vn -0.8108 -0.1353 0.5694
vn -0.8999 0.1454 0.4112
vn -0.8781 0.4217 0.2262
vn -0.9245 -0.2799 0.2588
vn -0.9957 0.0103 0.0916
vn -0.9511 0.2984 -0.0794
vn -0.9131 -0.4037 -0.0578
vn -0.9624 -0.1286 -0.2394
vn -0.9039 0.1493 -0.4008
vn 0.3093 -0.9435 0.1190
vn 0.3603 -0.8276 0.4303
vn 0.3736 -0.6236 0.6867
vn 0.0143 -0.9702 0.2417
vn 0.0365 -0.8746 0.4835
vn 0.0631 -0.6472 0.7597
vn -0.3015 -0.9376 0.1733
vn -0.2943 -0.8186 0.4933
vn -0.2595 -0.6094 0.7492
vn 0.3537 0.9271 -0.1239
vn 0.3370 0.8202 -0.4623
vn 0.2868 0.6073 -0.7409
vn 0.0025 0.9962 -0.0868
vn -0.0323 0.8899 -0.4551
vn -0.0625 0.6446 -0.7619
vn -0.3532 0.9343 -0.0476
vn -0.3977 0.8294 -0.3923
vn -0.3999 0.6214 -0.6738
vt 0.625000 0.187500
vt 0.562500 0.250000
vt 0.562500 0.187500
vt 0.187500 0.687500
vt 0.125000 0.687500
vt 0.625000 0.687500
vt 0.562500 0.750000
vt 0.562500 0.687500
vt 0.875000 0.687500
vt 0.812500 0.750000
vt 0.812500 0.687500
vt 0.437500 0.937500
vt 0.500000 1.000000
vt 0.437500 1.000000
vt 0.500000 0.687500
vt 0.437500 0.750000
vt 0.437500 0.687500
vt 0.437500 0.437500
vt 0.500000 0.500000
vt 0.437500 0.500000
vt 0.437500 0.187500
vt 0.500000 0.250000
vt 0.437500 0.250000
vt 0.562500 0.937500
vt 0.500000 0.937500
vt 0.500000 0.750000
vt 0.500000 0.437500
vt 0.562500 0.500000
vt 0.500000 0.187500
vt 0.375000 0.250000
vt 0.375000 0.187500
vt 0.375000 0.500000
vt 0.375000 0.437500
vt 0.375000 0.750000
vt 0.375000 0.687500
vt 0.375000 1.000000
vt 0.375000 0.937500
vt 0.437500 0.562500
vt 0.375000 0.625000
vt 0.375000 0.562500
vt 0.437500 0.062500
vt 0.375000 0.125000
vt 0.375000 0.062500
vt 0.562500 0.062500
vt 0.500000 0.125000
vt 0.500000 0.062500
vt 0.500000 0.562500
vt 0.562500 0.625000
vt 0.500000 0.625000
vt 0.437500 0.125000
vt 0.437500 0.625000
vt 0.875000 0.562500
vt 0.812500 0.625000
vt 0.812500 0.562500
vt 0.312500 0.625000
vt 0.312500 0.562500
vt 0.562500 0.562500
vt 0.625000 0.625000
vt 0.625000 0.062500
vt 0.562500 0.125000
vt 0.625000 0.562500
vt 0.312500 0.750000
vt 0.312500 0.687500
vt 0.875000 0.500000
vt 0.812500 0.500000
vt 0.625000 0.125000
vt 0.562500 0.000000
vt 0.500000 0.000000
vt 0.437500 0.000000
vt 0.375000 0.000000
vt 0.875000 0.625000
vt 0.625000 0.250000
vt 0.625000 0.312500
vt 0.625000 0.500000
vt 0.562500 0.437500
vt 0.625000 0.750000
vt 0.562500 0.750000
vt 0.625000 0.812500
vt 0.562500 1.000000
vt 0.625000 1.000000
vt 0.125000 0.750000
vt 0.187500 0.500000
vt 0.125000 0.500000
vt 0.125000 0.562500
vt 0.312500 0.500000
vt 0.625000 0.437500
vt 0.625000 0.937500
vt 0.562500 0.812500
vt 0.562500 0.312500
vt 0.187500 0.562500
vt 0.187500 0.750000
vt 0.187500 0.625000
vt 0.687500 0.500000
vt 0.437500 0.812500
vt 0.375000 0.812500
vt 0.437500 0.312500
vt 0.375000 0.312500
vt 0.500000 0.312500
vt 0.500000 0.812500
vt 0.687500 0.750000
vt 0.687500 0.687500
vt 0.125000 0.625000
vt 0.687500 0.562500
vt 0.687500 0.625000
vt 0.500000 0.062500
vt 0.437500 0.125000
vt 0.437500 0.062500
vt 0.562500 0.062500
vt 0.500000 0.125000
vt 0.500000 0.187500
vt 0.437500 0.187500
vt 0.562500 0.187500
vt 0.437500 0.000000
vt 0.375000 0.062500
vt 0.375000 0.000000
vt 0.500000 0.000000
vt 0.562500 0.000000
vt 0.625000 0.000000
vt 0.625000 0.125000
vt 0.562500 0.125000
vt 0.562500 0.250000
vt 0.500000 0.250000
vt 0.375000 0.187500
vt 0.375000 0.125000
vt 0.437500 0.312500
vt 0.500000 0.375000
vt 0.437500 0.375000
vt 0.500000 0.312500
vt 0.562500 0.375000
vt 0.500000 0.437500
vt 0.437500 0.437500
vt 0.562500 0.437500
vt 0.375000 0.312500
vt 0.562500 0.312500
vt 0.625000 0.312500
vt 0.625000 0.375000
vt 0.625000 0.437500
vt 0.562500 0.500000
vt 0.500000 0.500000
vt 0.437500 0.500000
vt 0.375000 0.437500
vt 0.375000 0.375000
vt 0.437500 0.562500
vt 0.500000 0.625000
vt 0.500000 0.562500
vt 0.562500 0.625000
vt 0.437500 0.687500
vt 0.500000 0.687500
vt 0.375000 0.562500
vt 0.562500 0.562500
vt 0.625000 0.562500
vt 0.562500 0.687500
vt 0.625000 0.687500
vt 0.562500 0.750000
vt 0.500000 0.750000
vt 0.375000 0.687500
vt 0.375000 0.625000
vt 0.500000 0.812500
vt 0.437500 0.875000
vt 0.437500 0.812500
vt 0.562500 0.812500
vt 0.500000 0.875000
vt 0.437500 0.937500
vt 0.562500 0.875000
vt 0.500000 0.937500
vt 0.375000 0.812500
vt 0.625000 0.812500
vt 0.625000 0.875000
vt 0.562500 0.937500
vt 0.625000 0.937500
vt 0.562500 1.000000
vt 0.500000 1.000000
vt 0.437500 1.000000
vt 0.375000 1.000000
vt 0.375000 0.937500
vt 0.375000 0.875000
vt 0.250000 0.562500
vt 0.187500 0.625000
vt 0.187500 0.562500
vt 0.312500 0.562500
vt 0.250000 0.625000
vt 0.250000 0.687500
vt 0.187500 0.687500
vt 0.312500 0.687500
vt 0.187500 0.500000
vt 0.125000 0.562500
vt 0.125000 0.500000
vt 0.250000 0.500000
vt 0.312500 0.500000
vt 0.312500 0.625000
vt 0.312500 0.750000
vt 0.250000 0.750000
vt 0.187500 0.750000
vt 0.125000 0.750000
vt 0.125000 0.687500
vt 0.125000 0.625000
vt 0.687500 0.562500
vt 0.750000 0.625000
vt 0.687500 0.625000
vt 0.812500 0.562500
vt 0.750000 0.562500
vt 0.750000 0.687500
vt 0.687500 0.687500
vt 0.812500 0.687500
vt 0.750000 0.500000
vt 0.687500 0.500000
vt 0.812500 0.500000
vt 0.875000 0.500000
vt 0.875000 0.562500
vt 0.812500 0.625000
vt 0.875000 0.687500
vt 0.875000 0.750000
vt 0.812500 0.750000
vt 0.750000 0.750000
vt 0.687500 0.750000
vt 0.875000 0.750000
vt 0.625000 0.000000
vt 0.625000 0.062500
vt 0.625000 0.187500
vt 0.625000 1.000000
vt 0.875000 0.625000
s 1
f 31/1/31 14/2/14 34/3/34
f 101/4/101 186/5/186 190/4/190
f 42/6/42 16/7/16 44/8/44
f 76/5/76 59/5/59 67/5/67
f 101/4/101 67/5/67 59/5/59
f 46/9/46 92/10/92 114/11/114
f 95/12/95 9/13/9 20/14/20
f 43/15/43 19/16/19 45/17/45
f 127/18/127 11/19/11 18/20/18
f 35/21/35 10/22/10 17/23/17
f 94/24/94 9/13/9 93/25/93
f 43/15/43 16/7/16 12/26/12
f 125/27/125 15/28/15 11/19/11
f 34/3/34 10/22/10 33/29/33
f 35/21/35 3/30/3 36/31/36
f 127/18/127 7/32/7 139/33/139
f 45/17/45 5/34/5 47/35/47
f 95/12/95 1/36/1 108/37/108
f 40/38/40 23/39/23 32/40/32
f 50/41/50 21/42/21 41/43/41
f 49/44/49 26/45/26 48/46/48
f 38/47/38 27/48/27 25/49/25
f 48/46/48 29/50/29 50/41/50
f 38/47/38 30/51/30 40/38/40
f 31/52/31 112/53/112 113/54/113
f 32/40/32 144/55/144 145/56/145
f 39/57/39 24/58/24 27/48/27
f 46/59/46 28/60/28 49/44/49
f 15/28/15 37/61/37 39/57/39
f 68/35/68 135/62/135 151/63/151
f 4/64/4 113/54/113 107/65/107
f 18/20/18 38/47/38 40/38/40
f 11/19/11 39/57/39 38/47/38
f 18/20/18 32/40/32 7/32/7
f 29/50/29 36/31/36 21/42/21
f 28/60/28 33/29/33 26/45/26
f 29/50/29 33/29/33 35/21/35
f 22/66/22 34/3/34 28/60/28
f 13/67/13 46/59/46 49/44/49
f 9/68/9 50/41/50 20/69/20
f 9/68/9 49/44/49 48/46/48
f 1/70/1 50/41/50 41/43/41
f 23/39/23 45/17/45 47/35/47
f 25/49/25 44/8/44 43/15/43
f 30/51/30 43/15/43 45/17/45
f 22/71/22 114/11/114 112/53/112
f 23/39/23 146/63/146 144/55/144
f 27/48/27 42/6/42 44/8/44
f 161/72/161 51/2/51 162/2/162
f 166/73/166 52/72/52 161/72/161
f 54/28/54 163/74/163 164/28/164
f 168/75/168 54/28/54 164/28/164
f 56/76/56 170/77/170 169/76/169
f 132/78/132 169/76/169 176/78/176
f 172/79/172 57/80/57 171/80/171
f 174/24/174 58/79/58 172/79/172
f 187/34/187 60/35/60 185/35/185
f 192/62/192 61/34/61 187/34/187
f 59/5/59 188/81/188 186/5/186
f 76/5/76 78/81/78 75/5/75
f 102/82/102 178/83/178 182/82/182
f 65/40/65 177/32/177 179/40/179
f 184/56/184 65/40/65 179/40/179
f 178/83/178 66/84/66 180/84/180
f 61/34/61 68/35/68 60/35/60
f 133/62/133 69/34/69 61/34/61
f 52/72/52 83/2/83 51/2/51
f 72/32/72 136/56/136 152/85/152
f 104/82/104 63/83/63 102/82/102
f 73/40/73 64/32/64 65/40/65
f 134/56/134 73/40/73 65/40/65
f 153/86/153 86/28/86 137/75/137
f 77/81/77 67/5/67 70/81/70
f 62/81/62 77/81/77 70/81/70
f 59/5/59 78/81/78 62/81/62
f 79/83/79 81/84/81 82/84/82
f 71/83/71 79/83/79 63/83/63
f 81/84/81 71/83/71 74/84/74
f 82/84/82 74/84/74 66/84/66
f 63/83/63 82/84/82 66/84/66
f 99/73/99 84/72/84 52/72/52
f 86/28/86 53/74/53 54/28/54
f 137/75/137 54/28/54 131/75/131
f 106/24/106 89/80/89 90/79/90
f 56/76/56 87/7/87 55/7/55
f 138/78/138 56/76/56 132/78/132
f 90/79/90 57/80/57 58/79/58
f 100/24/100 90/79/90 58/79/58
f 122/87/122 132/78/132 116/87/116
f 122/87/122 154/88/154 138/78/138
f 121/89/121 131/75/131 115/89/115
f 105/73/105 147/86/147 153/86/153
f 137/75/137 105/73/105 153/86/153
f 136/56/136 118/90/118 120/90/120
f 152/85/152 102/82/102 150/85/150
f 152/85/152 120/90/120 104/82/104
f 119/91/119 133/62/133 117/91/117
f 184/56/184 97/90/97 181/90/181
f 183/85/183 91/82/91 139/85/139
f 189/91/189 124/62/124 108/91/108
f 175/88/175 94/24/94 142/88/142
f 176/78/176 92/87/92 173/87/173
f 165/89/165 126/75/126 110/89/110
f 166/73/166 123/86/123 167/86/167
f 144/55/144 98/4/98 96/92/96
f 112/53/112 156/11/156 155/53/155
f 113/54/113 123/93/123 107/65/107
f 151/63/151 119/91/119 103/4/103
f 145/56/145 96/92/96 97/90/97
f 113/54/113 155/53/155 157/54/157
f 143/94/143 108/37/108 124/95/124
f 111/96/111 139/33/139 91/97/91
f 126/75/126 109/98/109 110/89/110
f 142/88/142 93/25/93 141/99/141
f 125/27/125 111/96/111 109/98/109
f 93/25/93 143/94/143 141/99/141
f 114/11/114 140/100/140 130/101/130
f 103/4/103 149/63/149 151/63/151
f 190/4/190 146/63/146 191/63/191
f 17/23/17 109/98/109 111/96/111
f 10/22/10 110/89/110 109/98/109
f 17/23/17 91/97/91 3/30/3
f 97/90/97 21/102/21 36/84/36
f 103/4/103 70/81/70 67/5/67
f 96/92/96 41/5/41 21/102/21
f 162/2/162 115/89/115 165/89/165
f 171/80/171 116/87/116 173/87/173
f 62/81/62 189/91/189 188/81/188
f 180/84/180 118/90/118 181/90/181
f 70/81/70 117/91/117 62/81/62
f 104/82/104 74/84/74 71/83/71
f 66/84/66 120/90/120 118/90/118
f 84/72/84 121/89/121 83/2/83
f 51/2/51 121/89/121 115/89/115
f 89/80/89 116/87/116 57/80/57
f 185/35/185 149/63/149 191/63/191
f 60/35/60 151/63/151 149/63/149
f 42/6/42 140/100/140 6/76/6
f 12/26/12 143/94/143 19/16/19
f 12/26/12 142/88/142 141/99/141
f 19/16/19 124/95/124 5/34/5
f 129/103/129 24/58/24 37/61/37
f 8/74/8 129/103/129 37/61/37
f 24/58/24 130/101/130 42/6/42
f 53/74/53 167/86/167 163/74/163
f 55/7/55 175/88/175 170/77/170
f 64/32/64 183/85/183 177/32/177
f 72/32/72 150/85/150 64/32/64
f 85/74/85 147/86/147 53/74/53
f 87/7/87 138/78/138 154/88/154
f 55/7/55 154/88/154 148/88/148
f 106/24/106 148/88/148 154/88/154
f 155/53/155 160/101/160 158/104/158
f 157/54/157 158/104/158 159/103/159
f 128/104/128 160/101/160 130/101/130
f 114/11/114 160/101/160 156/11/156
f 129/103/129 158/104/158 128/104/128
f 113/54/113 159/103/159 129/103/129
f 8/74/8 167/86/167 123/86/123
f 162/2/162 110/89/110 14/2/14
f 99/73/99 167/86/167 147/86/147
f 115/89/115 168/75/168 165/89/165
f 168/75/168 15/28/15 126/75/126
f 164/28/164 8/74/8 15/28/15
f 166/73/166 4/72/4 107/73/107
f 161/72/161 14/2/14 4/72/4
f 170/77/170 142/88/142 16/7/16
f 2/80/2 173/87/173 92/87/92
f 132/78/132 173/87/173 116/87/116
f 148/88/148 174/24/174 175/88/175
f 94/24/94 172/79/172 13/79/13
f 13/79/13 171/80/171 2/80/2
f 140/78/140 169/76/169 6/76/6
f 169/76/169 16/7/16 6/76/6
f 177/32/177 139/85/139 7/32/7
f 36/84/36 181/90/181 97/90/97
f 150/85/150 182/82/182 183/85/183
f 134/56/134 181/90/181 118/90/118
f 3/83/3 180/84/180 36/84/36
f 145/56/145 179/40/179 32/40/32
f 179/40/179 7/32/7 32/40/32
f 182/82/182 3/83/3 91/82/91
f 47/35/47 191/63/191 146/63/146
f 1/81/1 189/91/189 108/91/108
f 101/4/101 191/63/191 149/63/149
f 117/91/117 192/62/192 189/91/189
f 186/5/186 1/81/1 41/5/41
f 192/62/192 5/34/5 124/62/124
f 5/34/5 185/35/185 47/35/47
f 190/4/190 41/5/41 98/4/98
f 238/105/238 240/106/240 237/107/237
f 239/108/239 241/109/241 238/105/238
f 240/106/240 244/110/244 243/111/243
f 241/109/241 245/112/245 244/110/244
f 204/113/204 203/114/203 193/115/193
f 205/116/205 237/107/237 204/113/204
f 206/117/206 238/105/238 205/116/205
f 194/118/194 239/108/239 206/117/206
f 239/108/239 208/119/208 242/120/242
f 208/119/208 245/112/245 242/120/242
f 245/112/245 196/72/196 210/121/210
f 244/110/244 210/121/210 211/122/211
f 243/111/243 211/122/211 212/23/212
f 201/123/201 212/23/212 195/30/195
f 240/106/240 201/123/201 202/124/202
f 237/107/237 202/124/202 203/114/203
f 246/125/246 250/126/250 249/127/249
f 247/128/247 251/129/251 250/126/250
f 249/127/249 253/130/253 252/131/252
f 250/126/250 254/132/254 253/130/253
f 195/30/195 246/125/246 215/133/215
f 212/23/212 247/128/247 246/125/246
f 211/122/211 248/134/248 247/128/247
f 210/121/210 216/135/216 248/134/248
f 248/134/248 217/136/217 251/129/251
f 251/129/251 218/137/218 254/132/254
f 254/132/254 200/74/200 219/138/219
f 253/130/253 219/138/219 220/139/220
f 252/131/252 220/139/220 221/140/221
f 213/141/213 221/140/221 199/32/199
f 214/142/214 252/131/252 213/141/213
f 215/133/215 249/127/249 214/142/214
f 255/143/255 259/144/259 258/51/258
f 256/145/256 260/146/260 259/144/259
f 259/144/259 261/147/261 258/51/258
f 260/146/260 262/148/262 259/144/259
f 199/32/199 255/143/255 224/149/224
f 221/140/221 256/145/256 255/143/255
f 220/139/220 257/150/257 256/145/256
f 219/138/219 225/151/225 257/150/257
f 257/150/257 226/58/226 260/146/260
f 226/58/226 263/152/263 260/146/260
f 227/153/227 228/154/228 263/152/263
f 263/152/263 229/155/229 262/148/262
f 262/148/262 230/16/230 261/147/261
f 261/147/261 197/34/197 222/156/222
f 223/157/223 261/147/261 222/156/222
f 255/143/255 223/157/223 224/149/224
f 265/158/265 267/159/267 264/160/264
f 266/161/266 268/162/268 265/158/265
f 268/162/268 270/163/270 267/159/267
f 269/164/269 271/165/271 268/162/268
f 230/16/230 233/166/233 197/34/197
f 229/155/229 264/160/264 230/16/230
f 228/154/228 265/158/265 229/155/229
f 198/76/198 266/161/266 228/154/228
f 234/167/234 269/164/269 266/161/266
f 235/168/235 272/169/272 269/164/269
f 236/170/236 206/171/206 272/169/272
f 272/169/272 205/172/205 271/165/271
f 271/165/271 204/173/204 270/163/270
f 270/163/270 193/174/193 231/175/231
f 267/159/267 231/175/231 232/176/232
f 264/160/264 232/176/232 233/166/233
f 274/177/274 276/178/276 273/179/273
f 275/180/275 277/181/277 274/177/274
f 276/178/276 280/182/280 279/183/279
f 277/181/277 281/184/281 280/182/280
f 215/185/215 201/186/201 195/187/195
f 214/188/214 273/179/273 215/185/215
f 213/189/213 274/177/274 214/188/214
f 199/32/199 275/180/275 213/189/213
f 224/149/224 278/190/278 275/180/275
f 278/190/278 222/156/222 281/184/281
f 281/184/281 197/34/197 233/191/233
f 280/182/280 233/191/233 232/192/232
f 279/183/279 232/192/232 231/193/231
f 279/183/279 193/194/193 203/195/203
f 202/196/202 279/183/279 203/195/203
f 273/179/273 202/196/202 201/186/201
f 282/197/282 286/198/286 285/199/285
f 284/200/284 286/198/286 283/201/283
f 285/199/285 289/202/289 288/203/288
f 286/198/286 290/204/290 289/202/289
f 200/74/200 282/197/282 225/151/225
f 217/205/217 282/197/282 218/206/218
f 216/207/216 283/201/283 217/205/217
f 196/208/196 284/200/284 216/207/216
f 209/209/209 287/210/287 284/200/284
f 287/210/287 207/211/207 290/204/290
f 290/204/290 194/212/194 236/213/236
f 289/202/289 236/213/236 235/214/235
f 288/203/288 235/214/235 234/215/234
f 227/153/227 234/215/234 198/76/198
f 226/58/226 288/203/288 227/153/227
f 225/151/225 285/199/285 226/58/226
f 31/1/31 4/72/4 14/2/14
f 101/4/101 59/5/59 186/5/186
f 42/6/42 6/76/6 16/7/16
f 76/5/76 75/5/75 59/5/59
f 101/4/101 103/4/103 67/5/67
f 46/9/46 2/216/2 92/10/92
f 95/12/95 93/25/93 9/13/9
f 43/15/43 12/26/12 19/16/19
f 127/18/127 125/27/125 11/19/11
f 35/21/35 33/29/33 10/22/10
f 94/24/94 13/79/13 9/13/9
f 43/15/43 44/8/44 16/7/16
f 125/27/125 126/75/126 15/28/15
f 34/3/34 14/2/14 10/22/10
f 35/21/35 17/23/17 3/30/3
f 127/18/127 18/20/18 7/32/7
f 45/17/45 19/16/19 5/34/5
f 95/12/95 20/14/20 1/36/1
f 40/38/40 30/51/30 23/39/23
f 50/41/50 29/50/29 21/42/21
f 49/44/49 28/60/28 26/45/26
f 38/47/38 39/57/39 27/48/27
f 48/46/48 26/45/26 29/50/29
f 38/47/38 25/49/25 30/51/30
f 31/52/31 22/71/22 112/53/112
f 32/40/32 23/39/23 144/55/144
f 39/57/39 37/61/37 24/58/24
f 46/59/46 22/66/22 28/60/28
f 15/28/15 8/74/8 37/61/37
f 68/35/68 69/34/69 135/62/135
f 4/64/4 31/52/31 113/54/113
f 18/20/18 11/19/11 38/47/38
f 11/19/11 15/28/15 39/57/39
f 18/20/18 40/38/40 32/40/32
f 29/50/29 35/21/35 36/31/36
f 28/60/28 34/3/34 33/29/33
f 29/50/29 26/45/26 33/29/33
f 22/66/22 31/1/31 34/3/34
f 13/67/13 2/217/2 46/59/46
f 9/68/9 48/46/48 50/41/50
f 9/68/9 13/67/13 49/44/49
f 1/70/1 20/69/20 50/41/50
f 23/39/23 30/51/30 45/17/45
f 25/49/25 27/48/27 44/8/44
f 30/51/30 25/49/25 43/15/43
f 22/71/22 46/9/46 114/11/114
f 23/39/23 47/35/47 146/63/146
f 27/48/27 24/58/24 42/6/42
f 161/72/161 52/72/52 51/2/51
f 166/73/166 99/73/99 52/72/52
f 54/28/54 53/74/53 163/74/163
f 168/75/168 131/75/131 54/28/54
f 56/76/56 55/7/55 170/77/170
f 132/78/132 56/76/56 169/76/169
f 172/79/172 58/79/58 57/80/57
f 174/24/174 100/24/100 58/79/58
f 187/34/187 61/34/61 60/35/60
f 192/62/192 133/62/133 61/34/61
f 59/5/59 62/81/62 188/81/188
f 76/5/76 77/81/77 78/81/78
f 102/82/102 63/83/63 178/83/178
f 65/40/65 64/32/64 177/32/177
f 184/56/184 134/56/134 65/40/65
f 178/83/178 63/83/63 66/84/66
f 61/34/61 69/34/69 68/35/68
f 133/62/133 135/62/135 69/34/69
f 52/72/52 84/72/84 83/2/83
f 72/32/72 73/40/73 136/56/136
f 104/82/104 71/83/71 63/83/63
f 73/40/73 72/32/72 64/32/64
f 134/56/134 136/56/136 73/40/73
f 153/86/153 85/74/85 86/28/86
f 77/81/77 76/5/76 67/5/67
f 62/81/62 78/81/78 77/81/77
f 59/5/59 75/5/75 78/81/78
f 79/83/79 80/83/80 81/84/81
f 71/83/71 80/83/80 79/83/79
f 81/84/81 80/83/80 71/83/71
f 82/84/82 81/84/81 74/84/74
f 63/83/63 79/83/79 82/84/82
f 99/73/99 105/73/105 84/72/84
f 86/28/86 85/74/85 53/74/53
f 137/75/137 86/28/86 54/28/54
f 106/24/106 122/87/122 89/80/89
f 56/76/56 88/76/88 87/7/87
f 138/78/138 88/76/88 56/76/56
f 90/79/90 89/80/89 57/80/57
f 100/24/100 106/24/106 90/79/90
f 122/87/122 138/78/138 132/78/132
f 122/87/122 106/24/106 154/88/154
f 121/89/121 137/75/137 131/75/131
f 105/73/105 99/73/99 147/86/147
f 137/75/137 121/89/121 105/73/105
f 136/56/136 134/56/134 118/90/118
f 152/85/152 104/82/104 102/82/102
f 152/85/152 136/56/136 120/90/120
f 119/91/119 135/62/135 133/62/133
f 184/56/184 145/56/145 97/90/97
f 183/85/183 182/82/182 91/82/91
f 189/91/189 192/62/192 124/62/124
f 175/88/175 174/24/174 94/24/94
f 176/78/176 140/78/140 92/87/92
f 165/89/165 168/75/168 126/75/126
f 166/73/166 107/73/107 123/86/123
f 144/55/144 146/63/146 98/4/98
f 112/53/112 114/11/114 156/11/156
f 113/54/113 129/103/129 123/93/123
f 151/63/151 135/62/135 119/91/119
f 145/56/145 144/55/144 96/92/96
f 113/54/113 112/53/112 155/53/155
f 143/94/143 95/12/95 108/37/108
f 111/96/111 127/18/127 139/33/139
f 126/75/126 125/27/125 109/98/109
f 142/88/142 94/24/94 93/25/93
f 125/27/125 127/18/127 111/96/111
f 93/25/93 95/12/95 143/94/143
f 114/11/114 92/10/92 140/100/140
f 103/4/103 101/4/101 149/63/149
f 190/4/190 98/4/98 146/63/146
f 17/23/17 10/22/10 109/98/109
f 10/22/10 14/2/14 110/89/110
f 17/23/17 111/96/111 91/97/91
f 97/90/97 96/92/96 21/102/21
f 103/4/103 119/91/119 70/81/70
f 96/92/96 98/4/98 41/5/41
f 162/2/162 51/2/51 115/89/115
f 171/80/171 57/80/57 116/87/116
f 62/81/62 117/91/117 189/91/189
f 180/84/180 66/84/66 118/90/118
f 70/81/70 119/91/119 117/91/117
f 104/82/104 120/90/120 74/84/74
f 66/84/66 74/84/74 120/90/120
f 84/72/84 105/73/105 121/89/121
f 51/2/51 83/2/83 121/89/121
f 89/80/89 122/87/122 116/87/116
f 185/35/185 60/35/60 149/63/149
f 60/35/60 68/35/68 151/63/151
f 42/6/42 130/101/130 140/100/140
f 12/26/12 141/99/141 143/94/143
f 12/26/12 16/7/16 142/88/142
f 19/16/19 143/94/143 124/95/124
f 129/103/129 128/104/128 24/58/24
f 8/74/8 123/93/123 129/103/129
f 24/58/24 128/104/128 130/101/130
f 53/74/53 147/86/147 167/86/167
f 55/7/55 148/88/148 175/88/175
f 64/32/64 150/85/150 183/85/183
f 72/32/72 152/85/152 150/85/150
f 85/74/85 153/86/153 147/86/147
f 87/7/87 88/76/88 138/78/138
f 55/7/55 87/7/87 154/88/154
f 106/24/106 100/24/100 148/88/148
f 155/53/155 156/11/156 160/101/160
f 157/54/157 155/53/155 158/104/158
f 128/104/128 158/104/158 160/101/160
f 114/11/114 130/101/130 160/101/160
f 129/103/129 159/103/159 158/104/158
f 113/54/113 157/54/157 159/103/159
f 8/74/8 163/74/163 167/86/167
f 162/2/162 165/89/165 110/89/110
f 99/73/99 166/73/166 167/86/167
f 115/89/115 131/75/131 168/75/168
f 168/75/168 164/28/164 15/28/15
f 164/28/164 163/74/163 8/74/8
f 166/73/166 161/72/161 4/72/4
f 161/72/161 162/2/162 14/2/14
f 170/77/170 175/88/175 142/88/142
f 2/80/2 171/80/171 173/87/173
f 132/78/132 176/78/176 173/87/173
f 148/88/148 100/24/100 174/24/174
f 94/24/94 174/24/174 172/79/172
f 13/79/13 172/79/172 171/80/171
f 140/78/140 176/78/176 169/76/169
f 169/76/169 170/77/170 16/7/16
f 177/32/177 183/85/183 139/85/139
f 36/84/36 180/84/180 181/90/181
f 150/85/150 102/82/102 182/82/182
f 134/56/134 184/56/184 181/90/181
f 3/83/3 178/83/178 180/84/180
f 145/56/145 184/56/184 179/40/179
f 179/40/179 177/32/177 7/32/7
f 182/82/182 178/83/178 3/83/3
f 47/35/47 185/35/185 191/63/191
f 1/81/1 188/81/188 189/91/189
f 101/4/101 190/4/190 191/63/191
f 117/91/117 133/62/133 192/62/192
f 186/5/186 188/81/188 1/81/1
f 192/62/192 187/34/187 5/34/5
f 5/34/5 187/34/187 185/35/185
f 190/4/190 186/5/186 41/5/41
f 238/105/238 241/109/241 240/106/240
f 239/108/239 242/120/242 241/109/241
f 240/106/240 241/109/241 244/110/244
f 241/109/241 242/120/242 245/112/245
f 204/113/204 237/107/237 203/114/203
f 205/116/205 238/105/238 237/107/237
f 206/117/206 239/108/239 238/105/238
f 194/118/194 207/218/207 239/108/239
f 239/108/239 207/218/207 208/119/208
f 208/119/208 209/219/209 245/112/245
f 245/112/245 209/219/209 196/72/196
f 244/110/244 245/112/245 210/121/210
f 243/111/243 244/110/244 211/122/211
f 201/123/201 243/111/243 212/23/212
f 240/106/240 243/111/243 201/123/201
f 237/107/237 240/106/240 202/124/202
f 246/125/246 247/128/247 250/126/250
f 247/128/247 248/134/248 251/129/251
f 249/127/249 250/126/250 253/130/253
f 250/126/250 251/129/251 254/132/254
f 195/30/195 212/23/212 246/125/246
f 212/23/212 211/122/211 247/128/247
f 211/122/211 210/121/210 248/134/248
f 210/121/210 196/72/196 216/135/216
f 248/134/248 216/135/216 217/136/217
f 251/129/251 217/136/217 218/137/218
f 254/132/254 218/137/218 200/74/200
f 253/130/253 254/132/254 219/138/219
f 252/131/252 253/130/253 220/139/220
f 213/141/213 252/131/252 221/140/221
f 214/142/214 249/127/249 252/131/252
f 215/133/215 246/125/246 249/127/249
f 255/143/255 256/145/256 259/144/259
f 256/145/256 257/150/257 260/146/260
f 259/144/259 262/148/262 261/147/261
f 260/146/260 263/152/263 262/148/262
f 199/32/199 221/140/221 255/143/255
f 221/140/221 220/139/220 256/145/256
f 220/139/220 219/138/219 257/150/257
f 219/138/219 200/74/200 225/151/225
f 257/150/257 225/151/225 226/58/226
f 226/58/226 227/153/227 263/152/263
f 227/153/227 198/76/198 228/154/228
f 263/152/263 228/154/228 229/155/229
f 262/148/262 229/155/229 230/16/230
f 261/147/261 230/16/230 197/34/197
f 223/157/223 258/51/258 261/147/261
f 255/143/255 258/51/258 223/157/223
f 265/158/265 268/162/268 267/159/267
f 266/161/266 269/164/269 268/162/268
f 268/162/268 271/165/271 270/163/270
f 269/164/269 272/169/272 271/165/271
f 230/16/230 264/160/264 233/166/233
f 229/155/229 265/158/265 264/160/264
f 228/154/228 266/161/266 265/158/265
f 198/76/198 234/167/234 266/161/266
f 234/167/234 235/168/235 269/164/269
f 235/168/235 236/170/236 272/169/272
f 236/170/236 194/220/194 206/171/206
f 272/169/272 206/171/206 205/172/205
f 271/165/271 205/172/205 204/173/204
f 270/163/270 204/173/204 193/174/193
f 267/159/267 270/163/270 231/175/231
f 264/160/264 267/159/267 232/176/232
f 274/177/274 277/181/277 276/178/276
f 275/180/275 278/190/278 277/181/277
f 276/178/276 277/181/277 280/182/280
f 277/181/277 278/190/278 281/184/281
f 215/185/215 273/179/273 201/186/201
f 214/188/214 274/177/274 273/179/273
f 213/189/213 275/180/275 274/177/274
f 199/32/199 224/149/224 275/180/275
f 224/149/224 223/157/223 278/190/278
f 278/190/278 223/157/223 222/156/222
f 281/184/281 222/156/222 197/34/197
f 280/182/280 281/184/281 233/191/233
f 279/183/279 280/182/280 232/192/232
f 279/183/279 231/193/231 193/194/193
f 202/196/202 276/178/276 279/183/279
f 273/179/273 276/178/276 202/196/202
f 282/197/282 283/201/283 286/198/286
f 284/200/284 287/210/287 286/198/286
f 285/199/285 286/198/286 289/202/289
f 286/198/286 287/210/287 290/204/290
f 200/74/200 218/206/218 282/197/282
f 217/205/217 283/201/283 282/197/282
f 216/207/216 284/200/284 283/201/283
f 196/208/196 209/209/209 284/200/284
f 209/209/209 208/221/208 287/210/287
f 287/210/287 208/221/208 207/211/207
f 290/204/290 207/211/207 194/212/194
f 289/202/289 290/204/290 236/213/236
f 288/203/288 289/202/289 235/214/235
f 227/153/227 288/203/288 234/215/234
f 226/58/226 285/199/285 288/203/288
f 225/151/225 282/197/282 285/199/285
