# Blender 4.4.1
# www.blender.org
mtllib Hat.mtl
o Cube
v -1.009810 0.530993 -0.270855
v -0.190190 0.530993 -0.270855
v -1.009810 0.530993 0.270855
v -0.190190 0.530993 0.270855
v -1.099614 0.000000 -0.456095
v -0.100386 0.000000 0.456095
v -0.100386 0.000000 -0.456095
v -1.099614 0.000000 0.456095
v -0.100386 0.516352 -0.000000
v -0.600000 0.647352 -0.372610
v -0.600000 0.647352 0.372610
v -1.099614 0.516352 0.000000
v -0.600000 0.516352 0.000000
v 0.088076 0.000000 -0.000000
v -0.600000 0.000000 0.669637
v -0.600000 0.000000 -0.669637
v -1.288076 0.000000 0.000000
v -1.359831 0.048103 -0.700023
v 0.159831 0.048103 0.700023
v 0.159831 0.048103 -0.700023
v -1.359831 0.048103 0.700023
v 0.400000 -0.052648 -0.000000
v -0.600000 0.179124 1.000000
v -0.600000 0.179124 -1.000000
v -1.600000 -0.052648 0.000000
v -1.086144 0.079649 -0.428309
v -0.113856 0.079649 0.428309
v -0.113857 0.079649 -0.428309
v -1.086143 0.079649 0.428309
v 0.059807 0.077453 -0.000000
v -0.600000 0.097103 0.625083
v -0.600000 0.097103 -0.625083
v -1.259807 0.077453 0.000000
v -1.099614 0.000000 -0.456095
v -0.100386 0.000000 0.456095
v -0.100386 0.000000 -0.456095
v -1.099614 0.000000 0.456095
v 0.088076 0.000000 -0.000000
v -0.600000 0.000000 0.669637
v -0.600000 0.000000 -0.669637
v -1.288076 0.000000 0.000000
v -1.359831 0.048103 -0.700023
v 0.159831 0.048103 0.700023
v 0.159831 0.048103 -0.700024
v -1.359831 0.048103 0.700024
v 0.400000 -0.052648 -0.000000
v -0.600000 0.179124 1.000000
v -0.600000 0.179124 -1.000000
v -1.600000 -0.052648 0.000000
vn -0.1824 0.9276 0.3261
vn -0.0000 0.9985 -0.0540
vn 0.1824 0.9276 0.3261
vn 0.8911 0.2763 -0.3599
vn 0.8911 0.2763 0.3599
vn 0.3610 0.3610 0.8599
vn -0.3610 0.3610 0.8599
vn -0.3610 0.3610 -0.8599
vn 0.3610 0.3610 -0.8599
vn -0.8911 0.2763 0.3599
vn -0.8911 0.2763 -0.3599
vn 0.0641 0.9639 -0.2585
vn -0.1996 0.8614 0.4671
vn -0.0641 0.9639 0.2585
vn 0.1658 0.9825 -0.0845
vn -0.1658 0.9825 0.0845
vn -0.1319 0.9898 0.0545
vn 0.1319 0.9898 -0.0545
vn 0.1996 0.8614 -0.4671
vn -0.8877 0.2781 -0.3668
vn -0.8877 0.2781 0.3668
vn 0.3621 0.3887 -0.8472
vn -0.3621 0.3887 -0.8472
vn -0.3621 0.3887 0.8472
vn 0.3621 0.3887 0.8472
vn 0.8877 0.2781 0.3668
vn 0.8877 0.2781 -0.3668
vn 0.1996 -0.8614 0.4671
vn 0.1996 -0.8614 -0.4671
vn -0.1996 -0.8614 -0.4671
vn 0.1319 -0.9898 0.0545
vn -0.1319 -0.9898 -0.0545
vn 0.1319 -0.9898 -0.0545
vn -0.1319 -0.9898 0.0545
vn -0.1996 -0.8614 0.4671
vn -0.0000 0.9985 0.0540
vn -0.1824 0.9276 -0.3261
vn 0.1824 0.9276 -0.3261
vn 0.9015 0.3290 -0.2811
vn 0.9015 0.3290 0.2811
vn 0.3254 0.3943 0.8594
vn -0.3254 0.3943 0.8594
vn -0.3254 0.3943 -0.8594
vn 0.3254 0.3943 -0.8594
vn -0.9015 0.3290 0.2811
vn -0.9015 0.3290 -0.2811
vn -0.1996 0.8614 -0.4671
vn 0.0641 0.9639 0.2585
vn 0.1996 0.8614 0.4671
vn -0.1319 0.9898 -0.0545
vn 0.1319 0.9898 0.0545
vn 0.1658 0.9825 0.0845
vn -0.1658 0.9825 -0.0845
vn -0.0641 0.9639 -0.2585
vn -0.8784 0.3206 -0.3545
vn -0.8784 0.3206 0.3545
vn 0.8784 0.3206 0.3545
vn 0.8784 0.3206 -0.3545
vn -0.0641 -0.9639 0.2585
vn -0.0641 -0.9639 -0.2585
vn 0.0641 -0.9639 -0.2585
vn -0.1658 -0.9825 0.0845
vn 0.1658 -0.9825 -0.0845
vn -0.1658 -0.9825 -0.0845
vn 0.1658 -0.9825 0.0845
vn 0.0641 -0.9639 0.2585
vt 0.650516 0.504348
vt 0.775832 0.442541
vt 0.747148 0.540822
vt 0.650511 0.380742
vt 0.633492 0.442546
vt 0.854603 0.319185
vt 0.918773 0.363607
vt 0.854607 0.565887
vt 0.998466 0.616795
vt 0.872663 0.680841
vt 0.998466 0.268263
vt 0.872651 0.204224
vt 0.702558 0.210923
vt 0.566454 0.311924
vt 0.702577 0.674158
vt 0.566467 0.573172
vt 0.524406 0.442551
vt 0.181768 0.167385
vt 0.001534 0.267212
vt 0.141732 0.076753
vt 0.408910 0.237653
vt 0.501291 0.421815
vt 0.411600 0.393350
vt 0.319621 0.519004
vt 0.358332 0.610210
vt 0.309639 0.146194
vt 0.335470 0.058173
vt 0.191454 0.538329
vt 0.164344 0.625964
vt 0.315343 0.147958
vt 0.493131 0.185461
vt 0.013138 0.503422
vt 0.096589 0.450008
vt 0.091631 0.294366
vt 0.462197 0.626296
vt 0.345088 0.673481
vt 0.336029 0.655991
vt 0.583367 0.661775
vt 0.590668 0.643482
vt 0.218092 0.754421
vt 0.101258 0.854157
vt 0.202173 0.735561
vt 0.717685 0.729878
vt 0.731679 0.709548
vt 0.843732 0.817682
vt 0.905649 0.931552
vt 0.829251 0.831032
vt 0.116978 0.866024
vt 0.050800 0.973548
vt 0.747141 0.344259
vt 0.918771 0.521462
vt 0.343728 0.060727
vt 0.463143 0.645556
vt 0.887320 0.937544
vt 0.069628 0.977715
s 0
usemtl Material
f 1/1/1 13/2/1 10/3/1
f 3/4/2 13/2/2 12/5/2
f 13/2/2 4/6/2 9/7/2
f 13/2/3 2/8/3 10/3/3
f 2/8/4 30/9/4 28/10/4
f 30/11/5 4/6/5 27/12/5
f 4/6/6 31/13/6 27/12/6
f 31/13/7 3/4/7 29/14/7
f 1/1/8 32/15/8 26/16/8
f 32/15/9 2/8/9 28/10/9
f 3/4/10 33/17/10 29/14/10
f 33/17/11 1/1/11 26/16/11
f 6/18/12 23/19/12 19/20/12
f 7/21/13 24/22/13 16/23/13
f 5/24/14 24/22/14 18/25/14
f 14/26/15 19/20/15 22/27/15
f 17/28/16 18/25/16 25/29/16
f 14/30/17 20/31/17 7/21/17
f 17/28/18 21/32/18 8/33/18
f 8/33/19 23/19/19 15/34/19
f 17/35/20 26/36/20 5/37/20
f 29/38/21 17/35/21 8/39/21
f 32/40/22 7/41/22 16/42/22
f 5/37/23 32/40/23 16/42/23
f 31/43/24 8/39/24 15/44/24
f 6/45/25 31/43/25 15/44/25
f 14/46/26 27/47/26 6/45/26
f 28/48/27 14/49/27 7/41/27
f 35/18/28 47/19/28 39/34/28
f 48/22/29 36/21/29 40/23/29
f 34/24/30 48/22/30 40/23/30
f 38/26/31 43/20/31 35/18/31
f 41/28/32 42/25/32 34/24/32
f 44/31/33 38/30/33 36/21/33
f 45/32/34 41/28/34 37/33/34
f 47/19/35 37/33/35 39/34/35
f 1/1/36 12/5/36 13/2/36
f 3/4/37 11/50/37 13/2/37
f 13/2/38 11/50/38 4/6/38
f 13/2/36 9/51/36 2/8/36
f 2/8/39 9/51/39 30/9/39
f 30/11/40 9/7/40 4/6/40
f 4/6/41 11/50/41 31/13/41
f 31/13/42 11/50/42 3/4/42
f 1/1/43 10/3/43 32/15/43
f 32/15/44 10/3/44 2/8/44
f 3/4/45 12/5/45 33/17/45
f 33/17/46 12/5/46 1/1/46
f 6/18/47 15/34/47 23/19/47
f 7/21/48 20/31/48 24/22/48
f 5/24/49 16/23/49 24/22/49
f 14/26/50 6/18/50 19/20/50
f 17/28/51 5/24/51 18/25/51
f 14/30/52 22/52/52 20/31/52
f 17/28/53 25/29/53 21/32/53
f 8/33/54 21/32/54 23/19/54
f 17/35/55 33/53/55 26/36/55
f 29/38/56 33/53/56 17/35/56
f 32/40/9 28/48/9 7/41/9
f 5/37/8 26/36/8 32/40/8
f 31/43/7 29/38/7 8/39/7
f 6/45/6 27/47/6 31/43/6
f 14/46/57 30/54/57 27/47/57
f 28/48/58 30/55/58 14/49/58
f 35/18/59 43/20/59 47/19/59
f 48/22/60 44/31/60 36/21/60
f 34/24/61 42/25/61 48/22/61
f 38/26/62 46/27/62 43/20/62
f 41/28/63 49/29/63 42/25/63
f 44/31/64 46/52/64 38/30/64
f 45/32/65 49/29/65 41/28/65
f 47/19/66 45/32/66 37/33/66
