# Blender 4.4.0
# www.blender.org
mtllib Long_flame.mtl
o Cube.001
v -0.077571 1.937368 -10.961962
v -0.077571 1.600574 -11.516131
v -0.159375 1.937368 -10.961962
v -0.077572 1.937366 0.421129
v -0.036114 1.937368 -10.961962
v -0.034227 1.922473 -10.941949
v -0.036114 1.600574 -11.516131
v -0.036115 1.937366 0.421129
v -0.034204 1.922473 0.421129
v -0.034075 1.899658 0.421129
v -0.034000 1.876534 0.421129
v -0.033968 1.876539 -10.956542
v -0.034944 1.869133 0.421129
v -0.035869 1.861643 0.421129
v -0.035868 1.861645 -10.936488
v -0.077326 1.861643 0.421129
v -0.077325 1.861645 -10.936488
v -0.152288 1.861643 0.421129
v -0.152287 1.861645 -10.936488
v -0.152288 -0.369898 0.421128
v -0.077325 -0.369898 0.421128
v -0.152287 -0.369896 -10.936489
v -0.077324 -0.369896 -10.936489
v -0.152041 -0.087298 -11.399776
v -0.077570 -0.087298 -11.399776
v -0.152041 1.579048 -11.399775
v -0.077571 1.579048 -11.399775
v -0.036114 1.579048 -11.399775
v -0.036114 -0.087298 -11.399776
v -0.034247 1.583503 -11.436941
v -0.034247 -0.091753 -11.436941
v -0.034070 -0.373412 -10.975150
v -0.034029 -0.384785 -10.903994
v -0.035868 -0.369896 -10.936489
v -0.034154 -0.404255 -10.985537
v -0.036114 -0.445618 -10.961964
v -0.034178 -0.430729 -10.919450
v -0.034227 -0.104356 -11.478964
v -0.036114 -0.108824 -11.516132
v -0.034227 1.596106 -11.478964
v -0.077570 -0.108824 -11.516132
v -0.077570 -0.445618 -10.961964
v -0.159374 -0.108824 -11.516132
v -0.159374 -0.445618 -10.961964
v -0.159374 1.600574 -11.516131
v -0.159375 -0.445620 0.421128
v -0.077571 -0.445620 0.421128
v -0.159376 1.937366 0.421129
v -0.036115 -0.445620 0.421128
v -0.034204 -0.430728 0.421128
v -0.034074 -0.407820 0.421128
v -0.034000 -0.384790 0.421128
v -0.034948 -0.377357 0.421128
v -0.035869 -0.369898 0.421128
v -0.035868 -0.369896 -7.344720
v -0.077325 -0.369896 -7.348699
v -0.113211 1.575184 -11.399775
v -0.113457 1.857781 -10.936489
v -0.113457 -0.373759 -10.936489
v -0.113211 -0.091162 -11.399776
v -0.113458 -0.373762 0.378264
v -0.113458 1.857779 0.378265
v -0.113458 1.857779 -0.132639
v -0.113458 -0.373761 -0.085846
v -0.113213 1.575180 12.146572
v -0.113459 1.857777 11.683287
v -0.113213 -0.091166 12.146576
v -0.113459 -0.373763 11.683289
v -0.113458 -0.373762 0.832644
v -0.113458 -0.373762 0.368533
v -0.113458 1.857779 0.879438
v -0.113458 1.857779 0.368534
v -0.077573 1.937364 11.708763
v -0.077573 1.600570 12.262932
v -0.159377 1.937364 11.708763
v -0.077572 1.937366 0.325671
v -0.036116 1.937364 11.708763
v -0.034229 1.922470 11.688749
v -0.036116 1.600570 12.262932
v -0.036115 1.937366 0.325671
v -0.034204 1.922473 0.325671
v -0.034075 1.899658 0.325671
v -0.034000 1.876534 0.325671
v -0.033970 1.876535 11.703341
v -0.034944 1.869133 0.325671
v -0.035869 1.861643 0.325671
v -0.035870 1.861641 11.683287
v -0.077326 1.861643 0.325671
v -0.077327 1.861641 11.683287
v -0.152288 1.861643 0.325671
v -0.152289 1.861641 11.683287
v -0.152288 -0.369898 0.325670
v -0.077325 -0.369898 0.325670
v -0.152289 -0.369899 11.683289
v -0.077326 -0.369899 11.683289
v -0.152043 -0.087302 12.146576
v -0.077572 -0.087302 12.146576
v -0.152043 1.579044 12.146572
v -0.077573 1.579044 12.146572
v -0.036116 1.579044 12.146572
v -0.036116 -0.087302 12.146576
v -0.034249 1.583499 12.183739
v -0.034249 -0.091757 12.183739
v -0.034072 -0.373416 11.721951
v -0.034031 -0.384789 11.650793
v -0.035870 -0.369899 11.683289
v -0.034156 -0.404258 11.732338
v -0.036116 -0.445622 11.708763
v -0.034180 -0.430732 11.666250
v -0.034229 -0.104360 12.225765
v -0.036116 -0.108828 12.262932
v -0.034229 1.596102 12.225761
v -0.077572 -0.108828 12.262932
v -0.077572 -0.445622 11.708763
v -0.159376 -0.108828 12.262932
v -0.159376 -0.445622 11.708763
v -0.159377 1.600570 12.262932
v -0.159375 -0.445620 0.325670
v -0.077571 -0.445620 0.325670
v -0.159376 1.937366 0.325671
v -0.036115 -0.445620 0.325670
v -0.034204 -0.430728 0.325670
v -0.034074 -0.407820 0.325670
v -0.034000 -0.384790 0.325670
v -0.034948 -0.377357 0.325670
v -0.035869 -0.369898 0.325670
v -0.035870 -0.369899 8.091520
v -0.077326 -0.369899 8.095496
vn -0.0000 0.5725 -0.8199
vn -0.0000 0.9713 -0.2380
vn -0.0000 0.8546 -0.5194
vn -0.0000 1.0000 -0.0000
vn 0.9949 0.0990 -0.0201
vn 0.9919 0.1273 -0.0000
vn 0.9954 0.0926 -0.0249
vn 0.9983 0.0364 -0.0463
vn 0.9984 0.0306 -0.0470
vn -0.0000 -0.0000 1.0000
vn 1.0000 0.0058 -0.0011
vn 1.0000 -0.0003 0.0004
vn 1.0000 -0.0001 0.0003
vn 0.9948 -0.0997 0.0202
vn 0.9922 -0.1245 -0.0000
vn 0.9920 -0.1265 -0.0000
vn -0.0000 -0.9710 0.2390
vn -0.0000 -1.0000 -0.0000
vn -0.0000 -0.9712 0.2381
vn 1.0000 0.0002 -0.0000
vn 1.0000 -0.0001 0.0002
vn 1.0000 -0.0000 -0.0000
vn -0.0000 0.8537 0.5207
vn -0.0000 -0.8537 0.5207
vn -0.0000 -0.5722 0.8201
vn -0.0000 -0.5708 0.8211
vn -0.0000 0.5722 0.8201
vn -0.0000 0.5708 0.8211
vn 0.9983 -0.0363 0.0458
vn 0.9985 0.0304 0.0465
vn 0.9983 0.0361 0.0458
vn 0.9953 -0.0934 0.0249
vn 0.9985 -0.0306 0.0465
vn 0.9985 0.0511 0.0216
vn 0.9915 0.1276 0.0257
vn 0.9974 0.0724 0.0025
vn 0.9989 -0.0404 -0.0225
vn 0.9972 -0.0738 -0.0068
vn 0.9984 -0.0305 -0.0471
vn 0.9964 -0.0813 -0.0220
vn 0.9983 -0.0363 -0.0463
vn -0.0000 -0.8546 -0.5194
vn -0.0000 -0.5725 -0.8199
vn -0.0000 -0.0000 -1.0000
vn -1.0000 -0.0000 -0.0000
vn 0.9919 -0.1273 -0.0000
vn 1.0000 -0.0033 -0.0000
vn 1.0000 -0.0044 -0.0000
vn 1.0000 -0.0032 -0.0000
vn 0.9922 0.1245 -0.0000
vn 0.9925 0.1226 -0.0000
vn 1.0000 -0.0001 -0.0002
vn -0.0000 0.9713 0.2380
vn -0.0000 0.5725 0.8199
vn -0.0000 0.8546 0.5194
vn 0.9949 0.0990 0.0201
vn 0.9954 0.0926 0.0249
vn 0.9983 0.0364 0.0463
vn 1.0000 -0.0005 -0.0003
vn 1.0000 0.0004 -0.0003
vn 1.0000 -0.0004 -0.0002
vn 0.9948 -0.0997 -0.0202
vn -0.0000 -0.9710 -0.2390
vn -0.0000 -0.9712 -0.2381
vn -0.0000 0.8537 -0.5207
vn -0.0000 -0.8537 -0.5207
vn -0.0000 -0.5722 -0.8201
vn -0.0000 -0.5708 -0.8211
vn -0.0000 0.5722 -0.8201
vn -0.0000 0.5708 -0.8211
vn 0.9983 0.0361 -0.0458
vn 0.9985 -0.0306 -0.0465
vn 0.9983 -0.0363 -0.0458
vn 0.9953 -0.0934 -0.0249
vn 0.9985 0.0511 -0.0216
vn 0.9915 0.1276 -0.0257
vn 0.9989 -0.0404 0.0225
vn 0.9974 0.0724 -0.0025
vn 0.9972 -0.0738 0.0068
vn 0.9984 -0.0305 0.0471
vn 0.9983 -0.0363 0.0463
vn 0.9964 -0.0813 0.0220
vn 0.9984 0.0306 0.0470
vn -0.0000 -0.5725 0.8199
vn -0.0000 -0.8546 0.5194
vn -0.0000 -0.0001 1.0000
vn -0.0000 -0.0002 1.0000
vn -0.0000 0.0001 1.0000
vn 1.0000 0.0004 0.0003
vn 1.0000 -0.0022 -0.0015
vn 1.0000 -0.0021 -0.0014
vn 1.0000 0.0044 -0.0000
vn 1.0000 0.0056 -0.0000
vn 1.0000 0.0067 -0.0032
vn 1.0000 0.0032 -0.0000
vn 0.9925 -0.1226 -0.0000
vn 1.0000 0.0009 -0.0000
vn 1.0000 -0.0000 0.0005
vn 1.0000 -0.0056 -0.0000
vn 0.9920 0.1265 -0.0000
vn 1.0000 -0.0000 -0.0005
vn -0.0000 0.0002 -1.0000
vn -0.0000 0.0001 -1.0000
vn -0.0000 -0.0001 -1.0000
vn 1.0000 0.0060 0.0010
vn 1.0000 0.0064 0.0027
vn 1.0000 -0.0021 0.0014
vn 1.0000 -0.0022 0.0015
vn 0.9985 0.0304 -0.0465
vt 0.142175 0.834302
vt 0.141656 0.833396
vt 0.148447 0.833708
vt 0.141936 0.827164
vt 0.139095 0.833278
vt 0.139382 0.827046
vt 0.156982 0.838120
vt 0.156991 0.836041
vt 0.156991 0.838128
vt 0.152816 0.838583
vt 0.152852 0.838584
vt 0.092572 0.841662
vt 0.156860 0.828879
vt 0.152799 0.829318
vt 0.152643 0.829291
vt 0.141713 0.832122
vt 0.139150 0.832004
vt 0.139147 0.832004
vt 0.139153 0.832004
vt 0.123480 0.833441
vt 0.123801 0.838818
vt 0.126646 0.832705
vt 0.098418 0.838122
vt 0.121721 0.837465
vt 0.121721 0.836041
vt 0.124970 0.838584
vt 0.121721 0.838122
vt 0.148201 0.839059
vt 0.143448 0.834361
vt 0.143242 0.838840
vt 0.156991 0.843660
vt 0.152852 0.839621
vt 0.152852 0.843660
vt 0.156991 0.839258
vt 0.131800 0.839621
vt 0.131800 0.839621
vt 0.121773 0.838129
vt 0.127999 0.828827
vt 0.128045 0.828895
vt 0.127777 0.828855
vt 0.141283 0.840899
vt 0.141303 0.840900
vt 0.141313 0.840889
vt 0.128083 0.838165
vt 0.131788 0.838584
vt 0.127705 0.838122
vt 0.141362 0.839627
vt 0.141335 0.839626
vt 0.141418 0.839549
vt 0.131825 0.838583
vt 0.141969 0.838784
vt 0.141642 0.845885
vt 0.141075 0.845858
vt 0.123275 0.837911
vt 0.124088 0.832587
vt 0.126355 0.838936
vt 0.138808 0.839509
vt 0.127705 0.838100
vt 0.127705 0.836041
vt 0.127709 0.836040
vt 0.127944 0.826795
vt 0.128084 0.826791
vt 0.138752 0.840783
vt 0.140496 0.840863
vt 0.138749 0.840782
vt 0.121721 0.837464
vt 0.811396 0.680291
vt 0.734550 0.688432
vt 0.824044 0.720534
vt 0.734550 0.720908
vt 0.824044 0.725170
vt 0.131838 0.829317
vt 0.098418 0.838584
vt 0.131844 0.843660
vt 0.148407 0.834589
vt 0.143044 0.833459
vt 0.121721 0.838105
vt 0.121721 0.836044
vt 0.140496 0.840863
vt 0.156987 0.836042
vt 0.128201 0.828877
vt 0.131994 0.829290
vt 0.156750 0.826809
vt 0.156889 0.826806
vt 0.156522 0.828881
vt 0.156609 0.826813
vt 0.139382 0.827046
vt 0.126355 0.838936
vt 0.098418 0.836041
vt 0.126646 0.832705
vt 0.138521 0.845741
vt 0.127805 0.826798
vt 0.138755 0.840783
vt 0.824044 0.688432
vt 0.747198 0.680291
vt 0.734550 0.725113
vt 0.121721 0.836046
s 1
usemtl マテリアル
f 2/1/1 1/2/2 5/2/2
f 3/3/3 1/2/3 2/1/3
f 3/4/4 48/6/4 4/5/4
f 1/2/2 4/5/4 8/5/4
f 6/7/5 5/9/7 8/8/6
f 40/10/8 7/11/9 5/9/7
f 20/12/10 48/12/10 46/12/10
f 6/13/11 30/15/13 40/14/12
f 15/16/14 11/18/16 13/17/15
f 17/16/17 15/16/19 14/19/18
f 19/4/18 17/16/18 16/19/18
f 26/20/20 18/22/22 22/21/21
f 22/23/4 21/25/4 56/24/4
f 22/23/23 23/27/23 25/26/23
f 24/28/10 25/30/10 27/29/10
f 19/31/24 26/33/24 27/32/24
f 17/34/17 27/32/26 28/32/25
f 27/32/26 25/36/28 29/35/27
f 28/32/29 29/35/31 31/36/30
f 28/32/29 30/32/33 12/34/32
f 29/26/31 34/27/35 32/37/34
f 33/38/36 37/40/38 35/39/37
f 33/41/36 32/43/34 34/42/35
f 35/44/37 36/46/40 39/45/39
f 36/47/40 35/49/37 37/48/38
f 7/11/9 40/10/8 38/50/41
f 42/47/42 41/51/43 39/51/43
f 41/45/43 2/11/1 7/11/1
f 42/47/42 44/53/42 43/52/42
f 2/1/44 41/51/44 43/28/44
f 43/54/45 46/56/45 3/55/45
f 44/53/18 42/47/18 47/57/18
f 42/47/18 36/47/18 49/57/18
f 37/58/38 50/60/46 49/59/46
f 37/40/47 52/62/49 51/61/48
f 33/41/36 55/64/51 53/63/50
f 21/65/4 54/65/4 55/64/4
f 56/24/4 55/66/4 34/27/4
f 23/27/23 34/27/23 29/26/27
f 57/67/20 63/69/22 59/68/21
f 64/70/22 63/69/22 62/71/22
f 71/69/22 65/67/20 68/68/52
f 72/71/22 71/69/22 69/70/22
f 77/2/53 73/2/53 74/1/54
f 74/1/55 73/2/55 75/3/55
f 76/5/4 120/6/4 75/4/4
f 80/5/4 76/5/4 73/2/53
f 80/8/6 77/9/57 78/7/56
f 112/10/58 78/7/56 77/9/57
f 120/12/44 92/12/44 118/12/44
f 102/15/59 112/14/61 110/72/60
f 83/18/16 87/16/62 85/17/15
f 86/19/18 87/16/64 89/16/63
f 88/19/18 89/16/18 91/4/18
f 90/22/22 98/20/20 94/21/52
f 93/25/4 94/23/4 128/24/4
f 94/23/65 96/73/65 97/26/65
f 99/32/44 97/36/44 96/74/44
f 98/75/66 91/3/66 89/76/66
f 100/29/67 99/29/68 89/76/63
f 101/35/69 97/36/70 99/32/68
f 101/35/71 100/32/73 102/32/72
f 100/32/73 87/34/62 84/34/74
f 104/37/75 106/27/76 101/26/71
f 107/39/77 109/40/79 105/38/78
f 105/77/78 106/27/76 104/37/75
f 107/44/77 110/50/81 111/45/80
f 108/46/82 109/58/79 107/44/77
f 112/10/58 79/11/83 111/45/80
f 111/51/84 113/51/84 114/47/85
f 79/11/54 74/11/54 113/45/84
f 115/52/85 116/53/85 114/47/85
f 115/28/10 113/51/10 74/1/10
f 118/56/45 115/54/45 75/55/45
f 119/57/18 114/47/18 116/53/18
f 121/57/18 108/47/18 114/47/18
f 109/58/79 108/46/82 121/59/46
f 124/62/49 109/40/47 123/61/48
f 127/66/51 105/77/78 125/78/50
f 93/65/4 128/79/4 127/64/4
f 106/27/4 127/66/4 128/24/4
f 95/27/65 97/26/70 101/26/69
f 2/1/1 5/2/2 7/1/1
f 3/3/3 2/1/3 45/75/3
f 3/4/4 4/5/4 1/2/4
f 1/2/2 8/5/4 5/2/2
f 6/7/5 8/8/6 9/80/6
f 40/10/8 5/9/7 6/7/5
f 9/12/10 11/12/10 10/12/86
f 13/12/10 16/12/10 14/12/10
f 9/12/10 13/12/10 11/12/10
f 4/12/86 9/12/10 8/12/10
f 50/12/10 47/12/87 49/12/10
f 52/12/10 50/12/10 51/12/88
f 21/12/10 53/12/10 54/12/10
f 53/12/10 50/12/10 52/12/10
f 50/12/10 46/12/10 47/12/87
f 48/12/10 9/12/10 4/12/86
f 9/12/10 16/12/10 13/12/10
f 9/12/10 18/12/10 16/12/10
f 53/12/10 46/12/10 50/12/10
f 20/12/10 53/12/10 21/12/10
f 48/12/10 18/12/10 9/12/10
f 20/12/10 46/12/10 53/12/10
f 48/12/10 20/12/10 18/12/10
f 38/72/89 32/81/91 35/39/90
f 38/72/89 31/82/89 32/81/91
f 10/83/92 6/13/11 9/84/93
f 12/85/94 10/83/92 11/86/95
f 38/72/89 30/15/13 31/82/89
f 12/85/94 6/13/11 10/83/92
f 40/14/12 30/15/13 38/72/89
f 30/15/13 6/13/11 12/85/94
f 11/18/16 15/16/14 12/16/32
f 15/16/14 13/17/15 14/19/96
f 17/16/17 14/19/18 16/19/18
f 19/4/18 16/19/18 18/87/18
f 18/22/22 26/20/20 19/55/97
f 26/20/20 22/21/21 24/54/98
f 22/21/21 18/22/22 20/88/22
f 21/25/4 22/23/4 20/89/4
f 22/23/4 56/24/4 23/27/4
f 22/23/23 25/26/23 24/73/23
f 24/28/10 27/29/10 26/75/10
f 19/31/24 27/32/24 17/34/24
f 17/34/17 28/32/25 15/34/19
f 27/32/26 29/35/27 28/32/25
f 28/32/29 31/36/30 30/32/33
f 28/32/29 12/34/32 15/34/14
f 29/26/31 32/37/34 31/26/30
f 33/38/36 35/39/37 32/81/34
f 35/44/37 39/45/39 38/50/41
f 7/11/9 38/50/41 39/45/39
f 42/47/42 39/51/43 36/47/42
f 41/45/43 7/11/1 39/45/43
f 42/47/42 43/52/42 41/51/42
f 2/1/44 43/28/44 45/75/44
f 46/56/45 43/54/45 44/21/45
f 43/54/45 3/55/45 45/20/45
f 3/55/45 46/56/45 48/90/45
f 44/53/18 47/57/18 46/91/18
f 42/47/18 49/57/18 47/57/18
f 37/58/38 49/59/46 36/46/40
f 52/62/49 37/40/47 33/38/49
f 37/40/47 51/61/48 50/92/99
f 55/64/51 33/41/36 34/42/35
f 33/41/36 53/63/50 52/93/100
f 53/63/50 55/64/51 54/65/51
f 21/65/4 55/64/4 56/79/4
f 56/24/4 34/27/4 23/27/4
f 23/27/23 29/26/27 25/26/28
f 63/69/22 57/67/20 58/94/97
f 57/67/20 59/68/21 60/95/98
f 59/68/21 63/69/22 64/70/22
f 64/70/22 62/71/22 61/96/22
f 65/67/20 71/69/22 66/94/97
f 71/69/22 68/68/52 69/70/22
f 68/68/52 65/67/20 67/95/101
f 72/71/22 69/70/22 70/96/22
f 77/2/53 74/1/54 79/1/54
f 74/1/55 75/3/55 117/75/55
f 76/5/4 75/4/4 73/2/4
f 80/5/4 73/2/53 77/2/53
f 80/8/6 78/7/56 81/80/6
f 112/10/58 77/9/57 79/11/83
f 83/12/44 81/12/44 82/12/44
f 81/12/44 76/12/102 80/12/44
f 119/12/103 122/12/44 121/12/44
f 122/12/44 124/12/44 123/12/44
f 125/12/44 93/12/102 126/12/102
f 122/12/44 125/12/44 124/12/44
f 118/12/44 122/12/44 119/12/103
f 81/12/44 120/12/44 76/12/102
f 85/12/44 81/12/44 83/12/44
f 88/12/104 85/12/44 86/12/104
f 90/12/44 85/12/44 88/12/104
f 85/12/44 120/12/44 81/12/44
f 118/12/44 125/12/44 122/12/44
f 125/12/44 92/12/44 93/12/102
f 90/12/44 120/12/44 85/12/44
f 118/12/44 92/12/44 125/12/44
f 92/12/44 120/12/44 90/12/44
f 78/13/105 82/83/92 81/84/93
f 82/83/92 84/85/106 83/86/95
f 78/13/105 84/85/106 82/83/92
f 104/81/107 110/72/60 107/39/108
f 103/82/60 110/72/60 104/81/107
f 112/14/61 84/85/106 78/13/105
f 102/15/59 110/72/60 103/82/60
f 112/14/61 102/15/59 84/85/106
f 87/16/62 83/18/16 84/16/74
f 85/17/15 87/16/62 86/19/96
f 86/19/18 89/16/63 88/19/18
f 88/19/18 91/4/18 90/87/18
f 98/20/20 90/22/22 91/55/97
f 90/22/22 94/21/52 92/88/22
f 94/21/52 98/20/20 96/54/101
f 94/23/4 93/25/4 92/89/4
f 128/24/4 94/23/4 95/27/4
f 94/23/65 97/26/65 95/27/65
f 99/32/44 96/74/44 98/33/44
f 98/75/66 89/76/66 99/29/66
f 100/29/67 89/76/63 87/76/64
f 101/35/69 99/32/68 100/32/67
f 101/35/71 102/32/72 103/36/109
f 100/32/73 84/34/74 102/32/72
f 104/37/75 101/26/71 103/26/109
f 107/39/77 105/38/78 104/81/75
f 107/44/77 111/45/80 108/46/82
f 112/10/58 111/45/80 110/50/81
f 111/51/84 114/47/85 108/47/85
f 79/11/54 113/45/84 111/45/84
f 115/52/85 114/47/85 113/51/85
f 115/28/10 74/1/10 117/75/10
f 115/54/45 118/56/45 116/21/45
f 118/56/45 75/55/45 120/90/45
f 75/55/45 115/54/45 117/20/45
f 119/57/18 116/53/18 118/91/18
f 121/57/18 114/47/18 119/57/18
f 109/58/79 121/59/46 122/60/46
f 109/40/47 124/62/49 105/38/49
f 123/61/48 109/40/47 122/92/99
f 105/77/78 127/66/51 106/27/76
f 127/66/51 125/78/50 126/25/51
f 125/78/50 105/77/78 124/97/100
f 93/65/4 127/64/4 126/65/4
f 106/27/4 128/24/4 95/27/4
f 95/27/65 101/26/69 106/27/65
