# Blender 4.4.0
# www.blender.org
mtllib rank_flame.mtl
o Cube.003
v -0.113211 1.147537 -1.071927
v -0.113457 1.430135 -0.608640
v -0.113457 -0.801406 -0.608641
v -0.113211 -0.518808 -1.071927
v -0.077571 1.509721 -0.634114
v -0.077571 1.172928 -1.188284
v -0.077571 -0.536471 -1.188284
v -0.077571 -0.873265 -0.634115
v -0.159375 1.172928 -1.188284
v -0.152041 1.151401 -1.071927
v -0.159375 1.509721 -0.634114
v -0.152287 1.433998 -0.608640
v -0.159375 -0.873265 -0.634115
v -0.152287 -0.797542 -0.608641
v -0.159375 -0.536471 -1.188284
v -0.152041 -0.514945 -1.071927
v -0.077325 1.433998 -0.608640
v -0.077571 -0.514945 -1.071927
v -0.077571 1.151401 -1.071927
v -0.077325 -0.797542 -0.608641
v -0.034227 1.168459 -1.151115
v -0.036114 1.172928 -1.188284
v -0.034227 1.494827 -0.614101
v -0.036115 1.509721 -0.634114
v -0.036114 -0.873265 -0.634115
v -0.034179 -0.858375 -0.591602
v -0.034154 -0.831901 -0.657688
v -0.034227 -0.532002 -1.151116
v -0.036114 -0.536471 -1.188284
v -0.034029 -0.812432 -0.576146
v -0.035868 -0.797542 -0.608641
v -0.034071 -0.801058 -0.647302
v -0.036114 -0.514945 -1.071927
v -0.034247 -0.519400 -1.109094
v -0.036114 1.151401 -1.071927
v -0.034247 1.155856 -1.109093
v -0.035868 1.433998 -0.608640
v -0.033968 1.448893 -0.628694
v -0.159375 1.509721 0.361901
v -0.077571 1.509721 0.361901
v -0.077571 -0.873265 0.361900
v -0.159375 -0.873265 0.361900
v -0.152287 1.433998 0.361901
v -0.077325 1.433998 0.361901
v -0.152287 -0.797543 0.361900
v -0.077325 -0.797543 0.361900
v -0.036115 1.509721 0.361901
v -0.034203 1.494829 0.361901
v -0.035869 1.433998 0.361901
v -0.034944 1.441488 0.361901
v -0.033999 1.448889 0.361901
v -0.036114 -0.873265 0.361900
v -0.034203 -0.858373 0.361900
v -0.035868 -0.797543 0.361900
v -0.034947 -0.805002 0.361900
v -0.033999 -0.812434 0.361900
v -0.034074 -0.835465 0.361900
v -0.034074 1.472013 0.361901
v -0.113457 1.430134 -0.164848
v -0.113457 -0.801406 -0.118055
v -0.113211 1.147537 1.277965
v -0.113457 1.430134 0.814679
v -0.113457 -0.801406 0.814679
v -0.113211 -0.518809 1.277965
v -0.077571 1.509721 0.840153
v -0.077571 1.172927 1.394322
v -0.077571 -0.536471 1.394322
v -0.077571 -0.873265 0.840153
v -0.159375 1.172927 1.394322
v -0.152041 1.151401 1.277965
v -0.159375 1.509721 0.840153
v -0.152287 1.433998 0.814679
v -0.159375 -0.873265 0.840153
v -0.152287 -0.797542 0.814679
v -0.159375 -0.536471 1.394322
v -0.152041 -0.514945 1.277965
v -0.077325 1.433998 0.814679
v -0.077571 -0.514945 1.277965
v -0.077571 1.151401 1.277965
v -0.077325 -0.797542 0.814679
v -0.034227 1.168459 1.357154
v -0.036115 1.172927 1.394322
v -0.034227 1.494827 0.820140
v -0.036115 1.509721 0.840153
v -0.036114 -0.873265 0.840153
v -0.034179 -0.858375 0.797640
v -0.034154 -0.831901 0.863726
v -0.034227 -0.532003 1.357154
v -0.036115 -0.536471 1.394322
v -0.034030 -0.812432 0.782184
v -0.035868 -0.797542 0.814679
v -0.034071 -0.801059 0.853340
v -0.036115 -0.514945 1.277965
v -0.034247 -0.519400 1.315132
v -0.036115 1.151401 1.277965
v -0.034247 1.155856 1.315132
v -0.035869 1.433998 0.814679
v -0.033968 1.448892 0.834733
v -0.159375 1.509721 -0.155862
v -0.077571 1.509721 -0.155862
v -0.077571 -0.873265 -0.155862
v -0.159375 -0.873265 -0.155862
v -0.152287 1.433998 -0.155862
v -0.077325 1.433998 -0.155862
v -0.152287 -0.797542 -0.155862
v -0.077325 -0.797542 -0.155862
v -0.036115 1.509721 -0.155862
v -0.034203 1.494829 -0.155862
v -0.035869 1.433998 -0.155862
v -0.034944 1.441488 -0.155862
v -0.033999 1.448890 -0.155862
v -0.036114 -0.873265 -0.155862
v -0.034203 -0.858373 -0.155862
v -0.035868 -0.797542 -0.155862
v -0.034947 -0.805002 -0.155862
v -0.033999 -0.812434 -0.155862
v -0.034074 -0.835465 -0.155862
v -0.034074 1.472014 -0.155862
v -0.113457 1.430134 -0.165423
v -0.113457 -0.801406 -0.114159
vn 1.0000 0.0001 0.0003
vn 1.0000 -0.0000 0.0002
vn 1.0000 0.0002 -0.0000
vn -0.0000 0.8546 -0.5194
vn -0.0000 -0.8546 -0.5194
vn -0.0000 1.0000 -0.0000
vn -0.0000 -1.0000 -0.0000
vn -0.0000 -0.0000 -1.0000
vn -1.0000 -0.0000 -0.0000
vn -0.0000 -0.8537 0.5207
vn -0.0000 0.8537 0.5207
vn -0.0000 -0.0000 1.0000
vn 1.0000 0.0001 0.0002
vn 1.0000 0.0001 0.0001
vn 0.9964 -0.0813 -0.0220
vn 0.9973 -0.0738 -0.0068
vn 0.9989 -0.0404 -0.0225
vn 0.9974 0.0724 0.0025
vn 0.9915 0.1276 0.0257
vn 0.9985 0.0511 0.0216
vn 0.9983 0.0364 -0.0463
vn 0.9954 0.0926 -0.0249
vn 0.9984 0.0306 -0.0470
vn 0.9984 -0.0305 -0.0471
vn 0.9949 0.0990 -0.0201
vn 0.9919 0.1273 -0.0000
vn 0.9983 0.0361 0.0458
vn 0.9983 -0.0363 0.0458
vn 0.9985 0.0304 0.0465
vn 0.9953 -0.0934 0.0249
vn 0.9985 -0.0306 0.0465
vn 0.9948 -0.0997 0.0202
vn 0.9922 -0.1246 -0.0000
vn 0.9920 -0.1265 -0.0000
vn 0.9919 -0.1273 -0.0000
vn 0.9922 0.1245 -0.0000
vn 0.9925 0.1226 -0.0000
vn 1.0000 -0.0033 -0.0000
vn 1.0000 -0.0044 -0.0000
vn 1.0000 -0.0032 -0.0000
vn -0.0000 0.5725 -0.8199
vn -0.0000 0.9713 -0.2380
vn 1.0000 0.0058 -0.0011
vn 1.0000 -0.0003 0.0004
vn 1.0000 -0.0001 0.0003
vn -0.0000 -0.5725 -0.8199
vn -0.0000 -0.9710 0.2390
vn -0.0000 -0.9712 0.2381
vn -0.0000 0.5722 0.8201
vn -0.0000 -0.5708 0.8211
vn -0.0000 0.5708 0.8211
vn -0.0000 -0.5722 0.8201
vn 1.0000 0.0001 -0.0001
vn 1.0000 -0.0000 -0.0002
vn 1.0000 0.0001 -0.0002
vn -0.0000 0.8546 0.5194
vn -0.0000 -0.8546 0.5194
vn -0.0000 -0.8537 -0.5207
vn -0.0000 0.8537 -0.5207
vn 0.9964 -0.0813 0.0220
vn 0.9989 -0.0404 0.0225
vn 0.9973 -0.0738 0.0068
vn 0.9974 0.0724 -0.0025
vn 0.9985 0.0511 -0.0216
vn 0.9915 0.1276 -0.0257
vn 0.9983 0.0364 0.0463
vn 0.9954 0.0926 0.0249
vn 0.9949 0.0990 0.0201
vn 0.9984 -0.0305 0.0471
vn 0.9983 -0.0363 0.0463
vn 0.9984 0.0306 0.0470
vn 0.9983 0.0361 -0.0458
vn 0.9985 0.0304 -0.0465
vn 0.9983 -0.0363 -0.0458
vn 0.9953 -0.0934 -0.0249
vn 0.9948 -0.0997 -0.0202
vn 0.9922 -0.1246 -0.0005
vn 0.9922 -0.1245 -0.0005
vn -0.0000 0.9713 0.2380
vn -0.0000 0.5725 0.8199
vn 1.0000 -0.0005 -0.0003
vn 1.0000 0.0004 -0.0003
vn 1.0000 -0.0004 -0.0002
vn -0.0000 -0.5725 0.8199
vn -0.0000 -0.9710 -0.2390
vn -0.0000 -0.9712 -0.2381
vn -0.0000 0.5722 -0.8201
vn -0.0000 0.5708 -0.8211
vn -0.0000 -0.5708 -0.8211
vn -0.0000 -0.5722 -0.8201
vn 1.0000 0.0009 -0.0000
vn 1.0000 -0.0000 0.0005
vn 1.0000 -0.0000 -0.0001
vn 1.0000 -0.0000 -0.0000
vn 0.9983 -0.0363 -0.0463
vn 0.9925 -0.1226 -0.0000
vn 0.9920 0.1265 -0.0000
vn 1.0000 -0.0056 -0.0000
vn 1.0000 0.0004 0.0003
vn 1.0000 -0.0022 -0.0015
vn 1.0000 -0.0021 -0.0014
vn 1.0000 0.0045 -0.0000
vn 1.0000 0.0056 -0.0000
vn 1.0000 0.0066 -0.0032
vn 1.0000 0.0032 -0.0000
vn 1.0000 -0.0000 -0.0005
vn 0.9985 -0.0306 -0.0465
vn -0.0000 -0.0002 -1.0000
vn 1.0000 0.0060 0.0011
vn 1.0000 0.0064 0.0027
vn 1.0000 -0.0021 0.0014
vn 1.0000 -0.0022 0.0015
vt 0.542345 0.475143
vt 0.533749 0.476053
vt 0.543760 0.479644
vt 0.176222 0.854178
vt 0.173863 0.837491
vt 0.176222 0.835992
vt 0.159534 0.835973
vt 0.142846 0.837491
vt 0.142846 0.835973
vt 0.192910 0.835973
vt 0.176222 0.829133
vt 0.192910 0.829133
vt 0.159534 0.829133
vt 0.161893 0.854178
vt 0.161861 0.837491
vt 0.161893 0.819513
vt 0.176222 0.821031
vt 0.159534 0.827871
vt 0.173863 0.840900
vt 0.173863 0.854178
vt 0.157976 0.837491
vt 0.156125 0.835973
vt 0.179632 0.829133
vt 0.179632 0.835988
vt 0.156125 0.829133
vt 0.142846 0.829133
vt 0.161868 0.840900
vt 0.173863 0.819513
vt 0.159534 0.821031
vt 0.176222 0.827881
vt 0.159534 0.835901
vt 0.159750 0.836113
vt 0.156125 0.835918
vt 0.156154 0.835997
vt 0.173843 0.837487
vt 0.176217 0.835965
vt 0.159702 0.837506
vt 0.159728 0.837730
vt 0.159575 0.837596
vt 0.176222 0.839708
vt 0.179632 0.835988
vt 0.179632 0.829124
vt 0.179632 0.829116
vt 0.159537 0.829129
vt 0.156125 0.829141
vt 0.159671 0.830824
vt 0.159750 0.830813
vt 0.176147 0.837677
vt 0.173834 0.839119
vt 0.173745 0.839031
vt 0.179632 0.829133
vt 0.000000 0.000000
vt 0.161882 0.837488
vt 0.159592 0.830837
vt 0.161890 0.839117
vt 0.543760 0.476053
vt 0.535164 0.475143
vt 0.533749 0.479686
vt 0.142846 0.829133
vt 0.176222 0.827881
vt 0.192910 0.829133
vt 0.159534 0.827871
vt 0.176220 0.829136
vt 0.159817 0.837671
vt 0.156125 0.829150
vt 0.161979 0.839028
vt 0.176085 0.830873
vt 0.176164 0.830861
vt 0.175955 0.837683
vt 0.176004 0.830885
s 1
usemtl マテリアル.001
f 1/1/1 59/3/3 3/2/2
f 11/4/4 5/6/4 6/5/4
f 8/7/5 13/9/5 15/8/5
f 11/10/6 39/12/6 40/11/6
f 13/9/7 8/7/7 41/13/7
f 6/5/8 7/15/8 15/14/8
f 15/16/9 42/18/9 11/17/9
f 12/4/10 10/20/10 19/19/10
f 14/9/11 20/22/11 18/21/11
f 12/10/7 17/24/7 44/23/7
f 14/9/6 45/26/6 46/25/6
f 16/14/12 18/27/12 19/19/12
f 10/28/13 43/30/14 14/29/2
f 25/7/15 27/32/17 26/31/16
f 30/33/18 32/34/20 31/22/19
f 21/35/21 22/5/23 24/6/22
f 27/32/17 25/7/15 29/15/24
f 23/36/25 24/6/22 47/11/26
f 29/15/24 22/5/23 21/35/21
f 30/37/18 26/39/16 27/38/17
f 33/21/27 31/22/19 32/34/20
f 35/19/28 33/27/27 34/27/29
f 35/19/28 36/19/31 38/40/30
f 37/41/32 51/43/34 50/42/33
f 26/31/16 53/44/35 52/13/35
f 30/33/18 54/25/37 55/45/36
f 26/39/38 56/47/40 57/46/39
f 8/7/7 25/7/7 52/13/7
f 6/5/41 5/6/42 24/6/42
f 23/48/43 36/50/45 21/49/44
f 7/15/46 6/5/41 22/5/41
f 5/6/42 40/11/6 47/11/6
f 8/7/5 7/15/46 29/15/46
f 17/24/47 37/41/48 49/51/7
f 20/22/11 31/22/11 33/21/49
f 19/19/50 18/27/51 33/27/49
f 17/40/47 19/19/50 35/19/52
f 45/52/12 39/52/12 42/52/12
f 20/22/6 46/25/6 54/25/6
f 119/3/53 61/1/55 63/2/54
f 66/5/56 65/6/56 71/4/56
f 75/8/57 73/9/57 68/7/57
f 100/11/6 99/12/6 71/10/6
f 101/13/7 68/7/7 73/9/7
f 75/14/12 67/15/12 66/5/12
f 102/18/9 75/16/9 71/17/9
f 79/19/58 70/20/58 72/4/58
f 74/9/59 76/8/59 78/21/59
f 104/23/7 77/24/7 72/10/7
f 106/25/6 105/26/6 74/9/6
f 79/19/8 78/27/8 76/14/8
f 103/30/53 70/28/55 74/29/54
f 85/7/60 86/31/62 87/32/61
f 90/33/63 91/22/65 92/34/64
f 81/35/66 83/36/68 84/6/67
f 87/32/61 88/53/70 89/15/69
f 107/11/26 84/6/67 83/36/68
f 81/35/66 82/5/71 89/15/69
f 87/38/61 86/39/62 90/37/63
f 92/34/64 91/22/65 93/21/72
f 94/27/73 93/27/72 95/19/74
f 95/19/74 97/40/76 98/40/75
f 111/43/77 97/41/76 109/51/78
f 86/31/62 85/7/60 112/13/35
f 114/25/37 90/33/63 115/45/36
f 116/47/39 86/39/38 113/54/39
f 112/13/7 85/7/7 68/7/7
f 84/6/79 65/6/79 66/5/80
f 96/50/81 81/49/83 88/55/82
f 82/5/80 66/5/80 67/15/84
f 107/11/6 100/11/6 65/6/79
f 89/15/84 67/15/84 68/7/57
f 109/51/7 97/41/86 77/24/85
f 80/22/59 78/21/88 93/21/87
f 93/27/87 78/27/88 79/19/89
f 95/19/90 79/19/89 77/40/85
f 99/52/8 105/52/8 102/52/8
f 114/25/6 106/25/6 80/22/6
f 59/3/3 1/1/1 2/56/91
f 1/1/1 3/2/2 4/57/92
f 3/2/2 59/3/3 60/58/93
f 11/4/4 6/5/4 9/20/4
f 8/7/5 15/8/5 7/15/5
f 11/10/6 40/11/6 5/6/6
f 13/9/7 41/13/7 42/59/7
f 6/5/8 15/14/8 9/20/8
f 42/18/9 15/16/9 13/29/9
f 15/16/9 11/17/9 9/28/9
f 11/17/9 42/18/9 39/60/9
f 12/4/10 19/19/10 17/40/10
f 14/9/11 18/21/11 16/8/11
f 12/10/7 44/23/7 43/61/7
f 14/9/6 46/25/6 20/22/6
f 16/14/12 19/19/12 10/20/12
f 43/30/14 10/28/13 12/17/91
f 10/28/13 14/29/2 16/16/92
f 14/29/2 43/30/14 45/62/94
f 21/35/21 24/6/22 23/36/25
f 27/32/17 29/15/24 28/53/95
f 23/36/25 47/11/26 48/63/26
f 29/15/24 21/35/21 28/53/95
f 30/37/18 27/38/17 32/64/20
f 33/21/27 32/34/20 34/21/29
f 35/19/28 34/27/29 36/19/31
f 35/19/28 38/40/30 37/40/32
f 51/43/34 37/41/32 38/24/30
f 37/41/32 50/42/33 49/51/96
f 26/31/16 52/13/35 25/7/15
f 54/25/37 30/33/18 31/22/19
f 30/33/18 55/45/36 56/65/97
f 56/47/40 26/39/38 30/37/40
f 26/39/38 57/46/39 53/54/98
f 8/7/7 52/13/7 41/13/7
f 6/5/41 24/6/42 22/5/41
f 28/55/99 32/64/101 27/38/100
f 28/55/99 34/66/99 32/64/101
f 58/67/102 23/48/43 48/68/103
f 38/69/104 58/67/102 51/70/105
f 28/55/99 36/50/45 34/66/99
f 38/69/104 23/48/43 58/67/102
f 21/49/44 36/50/45 28/55/99
f 36/50/45 23/48/43 38/69/104
f 7/15/46 22/5/41 29/15/46
f 5/6/42 47/11/6 24/6/42
f 8/7/5 29/15/46 25/7/5
f 17/24/47 49/51/7 44/23/7
f 20/22/11 33/21/49 18/21/51
f 19/19/50 33/27/49 35/19/52
f 17/40/47 35/19/52 37/40/48
f 48/52/12 51/52/12 58/52/12
f 50/52/12 44/52/12 49/52/12
f 48/52/12 50/52/12 51/52/12
f 40/52/12 48/52/12 47/52/12
f 53/52/12 41/52/12 52/52/12
f 56/52/12 53/52/12 57/52/12
f 46/52/12 55/52/12 54/52/12
f 55/52/12 53/52/12 56/52/12
f 53/52/12 42/52/12 41/52/12
f 39/52/12 48/52/12 40/52/12
f 48/52/12 44/52/12 50/52/12
f 48/52/12 43/52/12 44/52/12
f 55/52/12 42/52/12 53/52/12
f 45/52/12 55/52/12 46/52/12
f 39/52/12 43/52/12 48/52/12
f 45/52/12 42/52/12 55/52/12
f 39/52/12 45/52/12 43/52/12
f 20/22/6 54/25/6 31/22/6
f 61/1/55 119/3/53 62/56/91
f 119/3/53 63/2/54 120/58/94
f 63/2/54 61/1/55 64/57/106
f 66/5/56 71/4/56 69/20/56
f 75/8/57 68/7/57 67/15/57
f 100/11/6 71/10/6 65/6/6
f 101/13/7 73/9/7 102/59/7
f 75/14/12 66/5/12 69/20/12
f 75/16/9 102/18/9 73/29/9
f 102/18/9 71/17/9 99/60/9
f 71/17/9 75/16/9 69/28/9
f 79/19/58 72/4/58 77/40/58
f 74/9/59 78/21/59 80/22/59
f 104/23/7 72/10/7 103/61/7
f 106/25/6 74/9/6 80/22/6
f 79/19/8 76/14/8 70/20/8
f 70/28/55 103/30/53 72/17/91
f 103/30/53 74/29/54 105/62/94
f 74/29/54 70/28/55 76/16/106
f 81/35/66 84/6/67 82/5/71
f 87/32/61 89/15/69 85/7/60
f 107/11/26 83/36/68 108/63/26
f 81/35/66 89/15/69 88/53/70
f 87/38/61 90/37/63 92/64/64
f 92/34/64 93/21/72 94/21/73
f 94/27/73 95/19/74 96/19/107
f 95/19/74 98/40/75 96/19/107
f 97/41/76 111/43/77 98/24/75
f 111/43/77 109/51/78 110/42/108
f 86/31/62 112/13/35 113/44/35
f 90/33/63 114/25/37 91/22/65
f 115/45/36 90/33/63 116/65/97
f 86/39/38 116/47/39 90/37/40
f 116/47/12 113/54/12 117/46/12
f 112/13/7 68/7/7 101/13/7
f 84/6/79 66/5/80 82/5/80
f 83/48/109 118/67/102 108/68/103
f 118/67/102 98/69/110 111/70/105
f 83/48/109 98/69/110 118/67/102
f 92/64/111 88/55/82 87/38/112
f 94/66/82 88/55/82 92/64/111
f 81/49/83 98/69/110 83/48/109
f 96/50/81 88/55/82 94/66/82
f 81/49/83 96/50/81 98/69/110
f 82/5/80 67/15/84 89/15/84
f 107/11/6 65/6/79 84/6/79
f 89/15/84 68/7/57 85/7/57
f 109/51/7 77/24/85 104/23/7
f 80/22/59 93/21/87 91/22/59
f 93/27/87 79/19/89 95/19/90
f 95/19/90 77/40/85 97/40/86
f 111/52/8 108/52/8 118/52/8
f 108/52/8 100/52/8 107/52/8
f 101/52/8 113/52/8 112/52/8
f 115/52/8 106/52/8 114/52/8
f 113/52/8 115/52/8 116/52/8
f 102/52/8 113/52/8 101/52/8
f 108/52/8 99/52/8 100/52/8
f 110/52/8 108/52/8 111/52/8
f 104/52/8 110/52/8 109/52/8
f 103/52/8 110/52/8 104/52/8
f 110/52/8 99/52/8 108/52/8
f 102/52/8 115/52/8 113/52/8
f 115/52/8 105/52/8 106/52/8
f 103/52/8 99/52/8 110/52/8
f 102/52/8 105/52/8 115/52/8
f 105/52/8 99/52/8 103/52/8
f 114/25/6 80/22/6 91/22/6
