# Blender 4.4.0
# www.blender.org
mtllib Stage_flame.mtl
o Cube.004
v 0.055104 1.080061 -0.825571
v 0.055104 1.261979 -0.673394
v 0.055104 -0.025178 -0.673393
v 0.055104 0.156739 -0.825570
v 0.055104 1.261979 0.695289
v 0.055104 1.080062 0.847466
v 0.055104 0.156740 0.847466
v 0.055104 -0.025178 0.695289
v 0.020095 1.210914 -0.619094
v 0.014463 1.261979 -0.673394
v 0.014463 1.080061 -0.825571
v 0.020095 1.043431 -0.759197
v 0.014463 0.156739 -0.825570
v 0.020095 0.193370 -0.759197
v 0.014463 -0.025178 -0.673393
v 0.020095 0.025887 -0.619094
v 0.014463 1.080062 0.847466
v 0.020095 1.043431 0.781092
v 0.014463 1.261979 0.695289
v 0.020095 1.210914 0.640990
v 0.014463 -0.025178 0.695289
v 0.020095 0.025887 0.640990
v 0.014463 0.156740 0.847466
v 0.020095 0.193370 0.781093
v 0.055104 0.025887 -0.619094
v 0.055104 1.043431 -0.759197
v 0.055104 1.210914 0.640990
v 0.055104 0.193370 0.781093
v 0.055104 0.025887 0.640990
v 0.055104 0.025887 0.640990
v 0.055104 1.210914 -0.619094
v 0.055104 0.193370 -0.759197
v 0.055104 1.043431 0.781092
v 0.055104 1.210914 -0.619094
v 0.026608 1.210914 -0.623066
v 0.026608 1.043431 -0.763169
v 0.026608 0.193370 -0.763168
v 0.026608 0.025887 -0.623066
v 0.026608 1.043431 0.777120
v 0.026608 1.210914 0.637018
v 0.026608 0.025887 0.637018
v 0.026608 0.193370 0.777121
v 0.052599 1.676314 -0.655650
v 0.052599 1.743840 -0.571267
v 0.052599 1.266060 -0.571267
v 0.052599 1.333586 -0.655650
v 0.052599 1.743840 0.592809
v 0.052599 1.676314 0.677546
v 0.052599 1.333586 0.677546
v 0.052599 1.266060 0.592809
v 0.030952 1.743840 -0.571267
v 0.036196 1.713766 -0.525526
v 0.030952 1.676314 -0.655650
v 0.036196 1.654741 -0.603279
v 0.030952 1.333586 -0.655650
v 0.036196 1.355159 -0.603279
v 0.030952 1.266060 -0.571267
v 0.036196 1.296134 -0.525525
v 0.030952 1.676314 0.677546
v 0.036196 1.654741 0.625175
v 0.030952 1.743840 0.592809
v 0.036196 1.713766 0.547095
v 0.030952 1.266060 0.592809
v 0.036196 1.296134 0.547095
v 0.030952 1.333586 0.677546
v 0.036196 1.355159 0.625175
v 0.052599 1.296134 -0.525525
v 0.052599 1.654741 -0.603279
v 0.052599 1.713766 0.547095
v 0.052599 1.355159 0.625175
v 0.052599 1.713766 -0.525526
v 0.052599 1.355159 -0.603279
v 0.052599 1.654741 0.625175
v 0.052599 1.296134 0.547095
v 0.038065 1.723191 -0.513851
v 0.038065 1.661502 -0.590941
v 0.038065 1.348398 -0.590941
v 0.038065 1.286709 -0.513851
v 0.038065 1.661502 0.627020
v 0.038065 1.723192 0.549607
v 0.038065 1.286709 0.549607
v 0.038065 1.348398 0.627020
vn -0.0000 -0.6416 -0.7670
vn -0.0000 0.6416 0.7670
vn -0.0000 -0.6416 0.7670
vn -0.0000 0.6416 -0.7670
vn -0.0000 -0.0000 -1.0000
vn 0.9996 0.0282 -0.0000
vn 1.0000 -0.0000 -0.0000
vn -0.0000 1.0000 -0.0000
vn -0.0000 -1.0000 -0.0000
vn -0.0000 -0.0000 1.0000
vn -1.0000 -0.0000 -0.0000
vn -0.0000 0.8962 -0.4437
vn -0.0000 0.3274 0.9449
vn -0.0000 -0.7808 -0.6248
vn -0.0000 0.7821 0.6232
vn -0.0000 -0.7821 0.6232
vn -0.0000 0.7808 -0.6248
vn -0.0000 0.7965 0.6046
vn -0.0000 -0.7977 -0.6030
vn -0.0000 0.7977 -0.6030
vn -0.0000 -0.7965 0.6046
vt 0.370494 0.183540
vt 0.468870 0.175687
vt 0.456831 0.183540
vt 0.543169 0.348362
vt 0.530966 0.262024
vt 0.543169 0.254273
vt 0.456831 0.254171
vt 0.370494 0.262024
vt 0.370494 0.254171
vt 0.543169 0.183439
vt 0.530966 0.089350
vt 0.543169 0.081607
vt 0.469034 0.089350
vt 0.174478 0.856999
vt 0.169841 0.858468
vt 0.174478 0.822900
vt 0.282532 0.822857
vt 0.287190 0.821378
vt 0.282532 0.857042
vt 0.629506 0.183540
vt 0.469034 0.348362
vt 0.468870 0.262024
vt 0.184201 0.858583
vt 0.156324 0.861495
vt 0.151736 0.831982
vt 0.416103 0.175687
vt 0.370494 0.175687
vt 0.530966 0.308334
vt 0.530966 0.348362
vt 0.416103 0.262024
vt 0.410521 0.254171
vt 0.530966 0.129377
vt 0.543169 0.128818
vt 0.468958 0.129377
vt 0.589479 0.254218
vt 0.629506 0.254171
vt 0.410521 0.183540
vt 0.468958 0.308334
vt 0.530966 0.003012
vt 0.456831 0.010866
vt 0.939453 0.266643
vt 0.904120 0.039062
vt 0.689453 0.061802
vt 0.439833 0.184002
vt 0.485537 0.180353
vt 0.479944 0.184002
vt 0.520056 0.260576
vt 0.514387 0.220465
vt 0.520056 0.216863
vt 0.479944 0.216816
vt 0.439833 0.220465
vt 0.439833 0.216816
vt 0.520056 0.183955
vt 0.514387 0.140242
vt 0.520056 0.136645
vt 0.485613 0.140242
vt 0.255775 0.821648
vt 0.255775 0.838905
vt 0.252342 0.822217
vt 0.201256 0.838880
vt 0.201256 0.821673
vt 0.204670 0.838318
vt 0.560167 0.184002
vt 0.485613 0.260576
vt 0.485537 0.220465
vt 0.175510 0.879279
vt 0.162559 0.880632
vt 0.160427 0.866921
vt 0.460681 0.180353
vt 0.439833 0.180353
vt 0.514387 0.242279
vt 0.514387 0.260576
vt 0.458130 0.216816
vt 0.520056 0.158226
vt 0.485579 0.158539
vt 0.514387 0.158539
vt 0.541870 0.216838
vt 0.560167 0.216816
vt 0.458130 0.184002
vt 0.485579 0.242279
vt 0.514387 0.100131
vt 0.479944 0.103779
vt 0.724786 0.289062
vt 0.530966 0.175687
vt 0.270605 0.817313
vt 0.267255 0.819101
vt 0.189600 0.819109
vt 0.186204 0.817313
vt 0.169841 0.821431
vt 0.186204 0.862586
vt 0.189600 0.860790
vt 0.267255 0.860798
vt 0.270605 0.862586
vt 0.287190 0.858521
vt 0.156324 0.829029
vt 0.179613 0.829029
vt 0.184201 0.831982
vt 0.179613 0.861495
vt 0.151736 0.858542
vt 0.543169 0.304741
vt 0.589479 0.183493
vt 0.456831 0.081497
vt 0.543169 0.010866
vt 0.469034 0.003012
vt 0.689453 0.266323
vt 0.904120 0.289062
vt 0.939453 0.061802
vt 0.724786 0.039062
vt 0.514387 0.180353
vt 0.245601 0.820675
vt 0.248070 0.819760
vt 0.248070 0.840793
vt 0.245601 0.839879
vt 0.252342 0.838335
vt 0.208858 0.840793
vt 0.208858 0.819760
vt 0.211347 0.820679
vt 0.211347 0.839876
vt 0.204670 0.822235
vt 0.162559 0.865549
vt 0.173379 0.865549
vt 0.175510 0.866921
vt 0.173379 0.880632
vt 0.160427 0.879260
vt 0.520056 0.240636
vt 0.460681 0.220465
vt 0.541870 0.183980
vt 0.479944 0.136594
vt 0.520056 0.103779
vt 0.485613 0.100131
s 1
usemtl Material.011
f 15/1/1 4/2/1 3/3/1
f 19/4/2 6/5/2 5/6/2
f 8/7/3 23/8/3 21/9/3
f 2/10/4 11/11/4 10/12/4
f 11/11/5 4/2/5 13/13/5
f 29/14/6 8/15/7 25/16/7
f 31/17/6 2/18/7 27/19/7
f 10/20/8 5/6/8 2/10/8
f 3/3/9 21/9/9 15/1/9
f 6/5/10 23/21/10 7/22/10
f 10/23/11 13/24/11 21/25/11
f 16/1/2 32/26/2 14/27/2
f 20/4/1 33/28/1 18/29/1
f 22/9/4 28/30/4 29/31/12
f 9/12/3 26/32/3 31/33/13
f 12/11/10 32/34/10 26/32/10
f 9/20/9 27/35/9 20/36/9
f 22/9/8 25/37/8 16/1/8
f 18/29/5 28/38/5 24/21/5
f 9/12/7 18/39/7 22/40/7
f 35/41/7 39/42/7 41/43/7
f 57/44/14 46/45/14 45/46/14
f 61/47/15 48/48/15 47/49/15
f 50/50/16 65/51/16 63/52/16
f 44/53/17 53/54/17 51/55/17
f 53/54/5 46/45/5 55/56/5
f 44/57/7 47/58/7 71/59/7
f 50/60/7 45/61/7 74/62/7
f 51/63/8 47/49/8 44/53/8
f 45/46/9 63/52/9 57/44/9
f 48/48/10 65/64/10 49/65/10
f 51/66/11 55/67/11 63/68/11
f 58/44/18 72/69/18 56/70/18
f 62/47/19 73/71/19 60/72/19
f 66/51/20 74/73/20 64/52/20
f 54/54/21 71/74/21 52/55/21
f 54/54/10 72/75/10 68/76/10
f 52/63/9 69/77/9 62/78/9
f 64/52/8 67/79/8 58/44/8
f 60/72/5 70/80/5 66/64/5
f 52/55/7 60/81/7 64/82/7
f 77/83/7 75/41/7 79/42/7
f 15/1/1 13/27/1 4/2/1
f 19/4/2 17/29/2 6/5/2
f 8/7/3 7/22/3 23/8/3
f 2/10/4 1/84/4 11/11/4
f 11/11/5 1/84/5 4/2/5
f 1/85/7 2/18/7 31/17/6
f 1/85/7 31/17/6 26/86/7
f 1/85/7 26/86/7 32/87/7
f 4/88/7 1/85/7 32/87/7
f 4/88/7 32/87/7 25/16/7
f 3/89/7 4/88/7 25/16/7
f 8/15/7 3/89/7 25/16/7
f 25/16/7 30/14/8 29/14/6
f 7/90/7 8/15/7 29/14/6
f 7/90/7 29/14/6 28/91/7
f 7/90/7 28/91/7 33/92/7
f 6/93/7 7/90/7 33/92/7
f 6/93/7 33/92/7 27/19/7
f 5/94/7 6/93/7 27/19/7
f 2/18/7 5/94/7 27/19/7
f 27/19/7 34/17/8 31/17/6
f 10/20/8 19/36/8 5/6/8
f 3/3/9 8/7/9 21/9/9
f 6/5/10 17/29/10 23/21/10
f 21/25/11 23/95/11 17/96/11
f 17/96/11 19/97/11 10/23/11
f 10/23/11 11/98/11 13/24/11
f 13/24/11 15/99/11 21/25/11
f 21/25/11 17/96/11 10/23/11
f 16/1/2 25/37/2 32/26/2
f 20/4/1 27/100/1 33/28/1
f 22/9/4 24/8/4 28/30/4
f 29/31/12 30/31/8 22/9/4
f 9/12/3 12/11/3 26/32/3
f 31/33/13 34/33/8 9/12/3
f 12/11/10 14/13/10 32/34/10
f 9/20/9 34/101/9 27/35/9
f 22/9/8 30/31/8 25/37/8
f 18/29/5 33/28/5 28/38/5
f 22/40/7 16/102/7 14/13/7
f 14/13/7 12/11/7 9/12/7
f 9/12/7 20/103/7 18/39/7
f 18/39/7 24/104/7 22/40/7
f 22/40/7 14/13/7 9/12/7
f 41/43/7 38/105/7 37/83/7
f 37/83/7 36/106/7 35/41/7
f 35/41/7 40/107/7 39/42/7
f 39/42/7 42/108/7 41/43/7
f 41/43/7 37/83/7 35/41/7
f 57/44/14 55/70/14 46/45/14
f 61/47/15 59/72/15 48/48/15
f 50/50/16 49/65/16 65/51/16
f 44/53/17 43/109/17 53/54/17
f 53/54/5 43/109/5 46/45/5
f 71/59/7 68/110/7 43/111/7
f 47/58/7 48/112/7 73/113/7
f 47/58/7 73/113/7 69/114/7
f 71/59/7 43/111/7 44/57/7
f 47/58/7 69/114/7 71/59/7
f 73/113/7 48/112/7 49/115/7
f 46/116/7 43/111/7 68/110/7
f 46/116/7 68/110/7 72/117/7
f 70/118/7 73/113/7 49/115/7
f 74/62/7 70/118/7 49/115/7
f 45/61/7 46/116/7 72/117/7
f 45/61/7 72/117/7 67/119/7
f 74/62/7 49/115/7 50/60/7
f 45/61/7 67/119/7 74/62/7
f 51/63/8 61/78/8 47/49/8
f 45/46/9 50/50/9 63/52/9
f 48/48/10 59/72/10 65/64/10
f 63/68/11 65/120/11 59/121/11
f 59/121/11 61/122/11 51/66/11
f 51/66/11 53/123/11 55/67/11
f 55/67/11 57/124/11 63/68/11
f 63/68/11 59/121/11 51/66/11
f 58/44/18 67/79/18 72/69/18
f 62/47/19 69/125/19 73/71/19
f 66/51/20 70/126/20 74/73/20
f 54/54/21 68/76/21 71/74/21
f 54/54/10 56/56/10 72/75/10
f 52/63/9 71/127/9 69/77/9
f 64/52/8 74/73/8 67/79/8
f 60/72/5 73/71/5 70/80/5
f 64/82/7 58/128/7 56/56/7
f 56/56/7 54/54/7 52/55/7
f 52/55/7 62/129/7 60/81/7
f 60/81/7 66/130/7 64/82/7
f 64/82/7 56/56/7 52/55/7
f 79/42/7 82/108/7 81/43/7
f 81/43/7 78/105/7 77/83/7
f 77/83/7 76/106/7 75/41/7
f 75/41/7 80/107/7 79/42/7
f 79/42/7 81/43/7 77/83/7
