# Blender 4.4.0
# www.blender.org
mtllib Dust.mtl
o 円錐.001
v 0.000000 0.831470 -0.555570
v 0.000000 0.923880 -0.382683
v 0.108386 0.831470 -0.544895
v -0.108386 0.831470 -0.544894
v -0.137950 0.707107 -0.693520
v 0.000000 0.707107 -0.707107
v 0.137950 0.707107 -0.693520
v 0.000000 0.555570 -0.831470
v -0.162211 0.555570 -0.815493
v -0.318189 0.555570 -0.768177
v -0.180240 0.382683 -0.906127
v -0.191341 0.195090 -0.961939
v 0.000000 0.382683 -0.923879
v -0.353553 0.382683 -0.853553
v -0.375330 0.195090 -0.906127
v -0.382683 -0.000000 -0.923879
v -0.544895 0.195090 -0.815493
v -0.555569 -0.000000 -0.831469
v -0.544895 -0.195090 -0.815493
v -0.375330 -0.195090 -0.906127
v -0.707106 -0.000000 -0.707106
v -0.693519 0.195090 -0.693520
v -0.693519 -0.195090 -0.693520
v -0.831468 -0.000000 -0.555570
v -0.815493 0.195090 -0.544895
v -0.906127 0.195090 -0.375330
v -0.815493 -0.195090 -0.544895
v -0.923878 -0.000000 -0.382684
v -0.980784 -0.000000 -0.195091
v -0.906127 -0.195090 -0.375330
v -0.853553 -0.382683 -0.353553
v -0.768177 -0.382683 -0.513280
v -0.961939 -0.195090 -0.191342
v -0.999999 0.000000 0.000000
v -0.906127 -0.382683 -0.180240
v -0.980785 -0.195090 0.000000
v -0.980784 0.000000 0.195090
v -0.923879 -0.382683 0.000000
v -0.961939 -0.195090 0.191341
v -0.923879 0.000000 0.382683
v -0.906127 -0.382683 0.180240
v -0.906127 -0.195090 0.375330
v -0.831469 0.000000 0.555569
v -0.853553 -0.382683 0.353553
v -0.815493 -0.195090 0.544895
v -0.707106 0.000000 0.707106
v -0.693520 -0.195090 0.693520
v -0.768177 -0.382683 0.513280
v -0.653281 -0.382683 0.653281
v -0.691341 -0.555570 0.461939
v -0.587938 -0.555570 0.587937
v -0.461940 -0.555570 0.691341
v -0.500000 -0.707107 0.500000
v -0.587938 -0.707107 0.392847
v -0.461940 -0.831470 0.308658
v -0.653281 -0.707107 0.270598
v -0.513280 -0.831470 0.212607
v -0.392847 -0.831470 0.392847
v -0.270598 -0.923880 0.270598
v -0.318190 -0.923880 0.212607
v -0.308658 -0.831470 0.461939
v -0.392847 -0.707107 0.587938
v -0.212608 -0.923880 0.318190
v -0.212608 -0.831470 0.513280
v -0.146447 -0.923880 0.353553
v -0.108386 -0.831470 0.544895
v -0.074658 -0.980785 0.180240
v -0.108386 -0.980785 0.162212
v -0.074658 -0.923880 0.375330
v -0.038060 -0.980785 0.191342
v 0.000000 -0.923880 0.382683
v 0.000000 -1.000000 0.000000
v 0.000000 -0.980785 0.195090
v 0.038060 -0.980785 0.191342
v 0.074658 -0.980785 0.180240
v 0.074658 -0.923880 0.375330
v 0.146447 -0.923880 0.353553
v 0.108386 -0.831470 0.544895
v 0.212607 -0.831470 0.513280
v 0.000000 -0.831470 0.555570
v 0.000000 -0.707107 0.707107
v 0.000000 -0.555570 0.831469
v 0.162212 -0.555570 0.815493
v -0.137950 -0.707107 0.693520
v 0.137950 -0.707107 0.693520
v 0.318189 -0.555570 0.768178
v 0.270598 -0.707107 0.653281
v 0.308658 -0.831470 0.461940
v 0.461940 -0.555570 0.691342
v 0.392847 -0.707107 0.587938
v 0.500000 -0.707107 0.500000
v 0.392847 -0.831470 0.392847
v 0.270598 -0.923880 0.270598
v 0.461940 -0.831470 0.308658
v 0.587938 -0.707107 0.392847
v 0.318190 -0.923880 0.212608
v 0.513280 -0.831470 0.212608
v 0.653281 -0.707107 0.270598
v 0.353553 -0.923880 0.146447
v 0.544895 -0.831470 0.108386
v 0.693520 -0.707107 0.137950
v 0.707107 -0.707107 0.000000
v 0.375330 -0.923880 0.074658
v 0.555570 -0.831470 0.000000
v 0.693520 -0.707107 -0.137950
v 0.382683 -0.923880 0.000000
v 0.544895 -0.831470 -0.108386
v 0.375330 -0.923880 -0.074658
v 0.513280 -0.831470 -0.212607
v 0.653281 -0.707107 -0.270598
v 0.461940 -0.831470 -0.308658
v 0.353553 -0.923880 -0.146447
v 0.318190 -0.923880 -0.212607
v 0.180240 -0.980785 -0.074658
v 0.162212 -0.980785 -0.108386
v 0.191342 -0.980785 -0.038060
v 0.195090 -0.980785 0.000000
v 0.191342 -0.980785 0.038060
v 0.180240 -0.980785 0.074658
v 0.162212 -0.980785 0.108386
v 0.137950 -0.980785 0.137950
v 0.108386 -0.980785 0.162212
v 0.212607 -0.923880 0.318190
v 0.137950 -0.980785 -0.137950
v 0.270598 -0.923880 -0.270598
v 0.108386 -0.980785 -0.162212
v 0.212608 -0.923880 -0.318190
v 0.146447 -0.923880 -0.353553
v 0.074658 -0.980785 -0.180240
v 0.074658 -0.923880 -0.375330
v 0.038060 -0.980785 -0.191342
v 0.000000 -0.923880 -0.382683
v 0.000000 -0.980785 -0.195090
v -0.074658 -0.923880 -0.375330
v -0.038060 -0.980785 -0.191341
v -0.074658 -0.980785 -0.180240
v -0.146446 -0.923880 -0.353553
v -0.212607 -0.923880 -0.318190
v -0.108386 -0.980785 -0.162211
v -0.270598 -0.923880 -0.270598
v -0.137950 -0.980785 -0.137949
v -0.318189 -0.923880 -0.212607
v -0.162212 -0.980785 -0.108386
v -0.353553 -0.923880 -0.146447
v -0.180240 -0.980785 -0.074658
v -0.191342 -0.980785 -0.038060
v -0.195090 -0.980785 0.000000
v -0.375330 -0.923880 -0.074658
v -0.382683 -0.923880 0.000000
v -0.375330 -0.923880 0.074658
v -0.191342 -0.980785 0.038060
v -0.555570 -0.831470 0.000000
v -0.707107 -0.707107 0.000000
v -0.544895 -0.831470 -0.108387
v -0.693520 -0.707107 -0.137950
v -0.544895 -0.831470 0.108386
v -0.693520 -0.707107 0.137950
v -0.815493 -0.555570 0.162211
v -0.768177 -0.555570 0.318189
v -0.831469 -0.555570 0.000000
v -0.815493 -0.555570 -0.162212
v -0.768177 -0.555570 -0.318190
v -0.653281 -0.707107 -0.270598
v -0.513279 -0.831470 -0.212607
v -0.587938 -0.707107 -0.392847
v -0.691341 -0.555570 -0.461940
v -0.461939 -0.831470 -0.308658
v -0.392847 -0.831470 -0.392847
v -0.500000 -0.707107 -0.500000
v -0.587937 -0.555570 -0.587938
v -0.392847 -0.707107 -0.587938
v -0.308658 -0.831470 -0.461939
v -0.270598 -0.707107 -0.653281
v -0.461939 -0.555570 -0.691341
v -0.513280 -0.382683 -0.768178
v -0.318189 -0.555570 -0.768177
v -0.353553 -0.382683 -0.853553
v -0.180240 -0.382683 -0.906127
v -0.191341 -0.195090 -0.961939
v -0.162211 -0.555570 -0.815493
v 0.000000 -0.382683 -0.923879
v 0.000000 -0.555570 -0.831470
v 0.162212 -0.555570 -0.815493
v 0.000000 -0.707107 -0.707107
v 0.137950 -0.707107 -0.693520
v 0.270598 -0.707107 -0.653281
v 0.318190 -0.555570 -0.768178
v 0.108386 -0.831470 -0.544895
v 0.000000 -0.831470 -0.555570
v 0.212608 -0.831470 -0.513280
v 0.308658 -0.831470 -0.461940
v 0.392847 -0.707107 -0.587938
v 0.392847 -0.831470 -0.392847
v 0.500000 -0.707107 -0.500000
v 0.587938 -0.555570 -0.587938
v 0.461940 -0.555570 -0.691342
v 0.587938 -0.707107 -0.392848
v 0.691342 -0.555570 -0.461940
v 0.768178 -0.555570 -0.318190
v 0.853553 -0.382683 -0.353553
v 0.815493 -0.555570 -0.162212
v 0.906127 -0.382683 -0.180240
v 0.831469 -0.555570 0.000000
v 0.923879 -0.382683 0.000000
v 0.980785 -0.195090 0.000000
v 0.961940 -0.195090 -0.191342
v 0.906127 -0.382683 0.180240
v 0.961940 -0.195090 0.191342
v 0.815493 -0.555570 0.162212
v 0.853553 -0.382683 0.353553
v 0.768178 -0.555570 0.318190
v 0.768178 -0.382683 0.513280
v 0.906127 -0.195090 0.375330
v 0.923879 0.000000 0.382684
v 0.980785 0.000000 0.195090
v 0.815493 -0.195090 0.544895
v 0.831469 0.000000 0.555570
v 0.693520 -0.195090 0.693520
v 0.653281 -0.382683 0.653281
v 0.691341 -0.555570 0.461940
v 0.587938 -0.555570 0.587938
v 0.513280 -0.382683 0.768178
v 0.544895 -0.195090 0.815493
v 0.353553 -0.382683 0.853553
v 0.375330 -0.195090 0.906127
v 0.180240 -0.382683 0.906127
v 0.191342 -0.195090 0.961939
v 0.000000 -0.382683 0.923879
v 0.000000 -0.195090 0.980785
v -0.180240 -0.382683 0.906127
v -0.191342 -0.195090 0.961939
v -0.162212 -0.555570 0.815493
v -0.353553 -0.382683 0.853553
v -0.318190 -0.555570 0.768177
v -0.513280 -0.382683 0.768178
v -0.375330 -0.195090 0.906127
v -0.382683 0.000000 0.923879
v -0.195091 0.000000 0.980785
v -0.544895 -0.195090 0.815493
v -0.555570 0.000000 0.831469
v -0.544895 0.195090 0.815493
v -0.693520 0.195090 0.693520
v -0.653281 0.382683 0.653281
v -0.815493 0.195090 0.544895
v -0.768177 0.382683 0.513280
v -0.587938 0.555570 0.587937
v -0.691341 0.555570 0.461939
v -0.853553 0.382683 0.353553
v -0.768177 0.555570 0.318189
v -0.906127 0.195090 0.375330
v -0.906127 0.382683 0.180240
v -0.961939 0.195090 0.191341
v -0.923879 0.382683 -0.000000
v -0.815493 0.555570 0.162211
v -0.693520 0.707107 0.137950
v -0.831469 0.555570 -0.000000
v -0.707107 0.707107 -0.000000
v -0.555570 0.831470 -0.000000
v -0.544895 0.831470 0.108386
v -0.693520 0.707107 -0.137950
v -0.544895 0.831470 -0.108387
v -0.815493 0.555570 -0.162212
v -0.653281 0.707107 -0.270598
v -0.513279 0.831470 -0.212607
v -0.768177 0.555570 -0.318190
v -0.587938 0.707107 -0.392847
v -0.461939 0.831470 -0.308658
v -0.691341 0.555570 -0.461940
v -0.500000 0.707107 -0.500000
v -0.392847 0.831470 -0.392847
v -0.587937 0.555570 -0.587938
v -0.392847 0.707107 -0.587938
v -0.461939 0.555570 -0.691341
v -0.270598 0.707107 -0.653281
v -0.308658 0.831470 -0.461939
v -0.212607 0.923880 -0.318190
v -0.270598 0.923880 -0.270598
v -0.212607 0.831470 -0.513279
v -0.146446 0.923880 -0.353553
v -0.074658 0.923880 -0.375330
v -0.038060 0.980785 -0.191341
v -0.074658 0.980785 -0.180240
v 0.000000 0.980785 -0.195090
v 0.000000 1.000000 -0.000000
v 0.038060 0.980785 -0.191342
v 0.074658 0.923880 -0.375330
v 0.074658 0.980785 -0.180240
v 0.146447 0.923880 -0.353553
v 0.108386 0.980785 -0.162212
v 0.212608 0.923880 -0.318190
v 0.137950 0.980785 -0.137950
v 0.270598 0.923880 -0.270598
v 0.162212 0.980785 -0.108386
v 0.318190 0.923880 -0.212607
v 0.353553 0.923880 -0.146447
v 0.180240 0.980785 -0.074658
v 0.461940 0.831470 -0.308658
v 0.513280 0.831470 -0.212607
v 0.587938 0.707107 -0.392848
v 0.653281 0.707107 -0.270598
v 0.392847 0.831470 -0.392847
v 0.500000 0.707107 -0.500000
v 0.308658 0.831470 -0.461940
v 0.212608 0.831470 -0.513280
v 0.270598 0.707107 -0.653281
v 0.392847 0.707107 -0.587938
v 0.461940 0.555570 -0.691342
v 0.587938 0.555570 -0.587938
v 0.318190 0.555570 -0.768178
v 0.353553 0.382683 -0.853553
v 0.513280 0.382683 -0.768178
v 0.162212 0.555570 -0.815493
v 0.180240 0.382683 -0.906127
v 0.191342 0.195090 -0.961940
v 0.375330 0.195090 -0.906127
v 0.544895 0.195090 -0.815493
v 0.382683 -0.000000 -0.923879
v 0.555570 -0.000000 -0.831470
v 0.707107 -0.000000 -0.707107
v 0.544895 -0.195090 -0.815493
v 0.693520 -0.195090 -0.693520
v 0.653281 -0.382683 -0.653281
v 0.768178 -0.382683 -0.513280
v 0.815493 -0.195090 -0.544895
v 0.513280 -0.382683 -0.768178
v 0.375330 -0.195090 -0.906127
v 0.353553 -0.382683 -0.853553
v 0.180240 -0.382683 -0.906127
v 0.191342 -0.195090 -0.961940
v 0.000000 -0.000000 -1.000000
v 0.000000 -0.195090 -0.980785
v 0.195090 -0.000000 -0.980785
v 0.000000 0.195090 -0.980785
v -0.195090 -0.000000 -0.980784
v 0.831470 -0.000000 -0.555570
v 0.906127 -0.195090 -0.375330
v 0.923879 -0.000000 -0.382683
v 0.815493 0.195090 -0.544895
v 0.906127 0.195090 -0.375330
v 0.980785 -0.000000 -0.195090
v 0.961940 0.195090 -0.191342
v 0.980785 0.195090 -0.000000
v 0.923879 0.382683 -0.000000
v 1.000000 0.000000 0.000000
v 0.906127 0.382683 -0.180240
v 0.853553 0.382683 -0.353553
v 0.815493 0.555570 -0.162212
v 0.693520 0.707107 -0.137950
v 0.831469 0.555570 -0.000000
v 0.707107 0.707107 -0.000000
v 0.768178 0.555570 -0.318190
v 0.691342 0.555570 -0.461940
v 0.768178 0.382683 -0.513280
v 0.653281 0.382683 -0.653281
v 0.693520 0.195090 -0.693520
v 0.555570 0.831470 -0.000000
v 0.544895 0.831470 -0.108386
v 0.693520 0.707107 0.137950
v 0.544895 0.831470 0.108386
v 0.815493 0.555570 0.162212
v 0.653281 0.707107 0.270598
v 0.513280 0.831470 0.212608
v 0.768178 0.555570 0.318190
v 0.587938 0.707107 0.392847
v 0.461940 0.831470 0.308658
v 0.691341 0.555570 0.461940
v 0.500000 0.707107 0.500000
v 0.587938 0.555570 0.587938
v 0.461940 0.555570 0.691342
v 0.653281 0.382683 0.653281
v 0.513280 0.382683 0.768178
v 0.544895 0.195090 0.815493
v 0.353553 0.382683 0.853553
v 0.693520 0.195090 0.693520
v 0.707106 0.000000 0.707107
v 0.815493 0.195090 0.544895
v 0.768178 0.382683 0.513280
v 0.906127 0.195090 0.375330
v 0.853553 0.382683 0.353553
v 0.961940 0.195090 0.191342
v 0.906127 0.382683 0.180240
v 0.555570 0.000000 0.831469
v 0.382683 0.000000 0.923879
v 0.375330 0.195090 0.906127
v 0.191342 0.195090 0.961939
v 0.180240 0.382683 0.906127
v 0.162212 0.555570 0.815493
v 0.318189 0.555570 0.768178
v 0.000000 0.382683 0.923879
v 0.000000 0.555570 0.831469
v 0.000000 0.195090 0.980785
v -0.180240 0.382683 0.906127
v -0.162212 0.555570 0.815493
v -0.191342 0.195090 0.961939
v -0.353553 0.382683 0.853553
v -0.318190 0.555570 0.768177
v -0.375330 0.195090 0.906127
v -0.513280 0.382683 0.768178
v -0.461940 0.555570 0.691341
v -0.392847 0.707107 0.587938
v -0.500000 0.707107 0.500000
v -0.308658 0.831470 0.461939
v -0.587938 0.707107 0.392847
v -0.392847 0.831470 0.392847
v -0.270598 0.923880 0.270598
v -0.461940 0.831470 0.308658
v -0.318190 0.923880 0.212607
v -0.137950 0.980785 0.137950
v -0.162212 0.980785 0.108386
v -0.353553 0.923880 0.146446
v -0.180240 0.980785 0.074658
v -0.513280 0.831470 0.212607
v -0.653281 0.707107 0.270598
v -0.191342 0.980785 0.038060
v -0.375330 0.923880 0.074658
v -0.382683 0.923880 -0.000000
v -0.195090 0.980785 -0.000000
v -0.375330 0.923880 -0.074658
v -0.191342 0.980785 -0.038060
v -0.353553 0.923880 -0.146447
v -0.180240 0.980785 -0.074658
v -0.318189 0.923880 -0.212607
v -0.162212 0.980785 -0.108386
v -0.137950 0.980785 -0.137949
v -0.108386 0.980785 -0.162211
v -0.108386 0.980785 0.162212
v -0.212608 0.923880 0.318190
v -0.146447 0.923880 0.353553
v -0.074658 0.980785 0.180240
v -0.038060 0.980785 0.191342
v -0.074658 0.923880 0.375330
v 0.000000 0.980785 0.195090
v 0.000000 0.923880 0.382683
v 0.038060 0.980785 0.191342
v 0.000000 0.831470 0.555570
v 0.074658 0.923880 0.375330
v 0.074658 0.980785 0.180240
v 0.108386 0.831470 0.544895
v 0.146447 0.923880 0.353553
v 0.212607 0.831470 0.513280
v 0.212607 0.923880 0.318190
v 0.270598 0.707107 0.653281
v 0.137950 0.707107 0.693520
v 0.308658 0.831470 0.461940
v 0.392847 0.707107 0.587938
v 0.392847 0.831470 0.392847
v 0.270598 0.923880 0.270598
v 0.318190 0.923880 0.212608
v 0.353553 0.923880 0.146447
v 0.162212 0.980785 0.108386
v 0.137950 0.980785 0.137950
v 0.180240 0.980785 0.074658
v 0.191342 0.980785 0.038060
v 0.375330 0.923880 0.074658
v 0.195090 0.980785 -0.000000
v 0.382683 0.923880 -0.000000
v 0.191342 0.980785 -0.038060
v 0.375330 0.923880 -0.074658
v 0.108386 0.980785 0.162212
v 0.000000 0.707107 0.707107
v -0.137950 0.707107 0.693520
v -0.108386 0.831470 0.544895
v -0.270598 0.707107 0.653281
v -0.212608 0.831470 0.513280
v 0.000000 0.000000 0.999999
v 0.195090 0.000000 0.980785
v -0.513280 0.382683 -0.768178
v -0.653281 0.382683 -0.653281
v -0.768177 0.382683 -0.513280
v -0.853553 0.382683 -0.353553
v -0.906127 0.382683 -0.180240
v -0.961939 0.195090 -0.191342
v -0.980785 0.195090 -0.000000
v -0.270598 -0.707107 0.653281
v -0.108386 -0.831470 -0.544894
v -0.212607 -0.831470 -0.513279
v -0.137950 -0.707107 -0.693520
v -0.653281 -0.382683 -0.653281
v -0.353553 -0.923880 0.146446
v -0.180240 -0.980785 0.074658
v -0.162212 -0.980785 0.108386
v -0.137950 -0.980785 0.137950
vn -0.0464 0.8810 -0.4709
vn 0.0464 0.8810 -0.4709
vn 0.0624 0.7715 -0.6332
vn -0.0624 0.7715 -0.6332
vn 0.0759 0.6326 -0.7708
vn -0.0759 0.6326 -0.7708
vn -0.2563 0.4696 -0.8448
vn -0.2248 0.6326 -0.7412
vn -0.0865 0.4696 -0.8786
vn -0.0938 0.2890 -0.9527
vn -0.2779 0.2890 -0.9161
vn -0.4513 0.2890 -0.8443
vn -0.2889 0.0975 -0.9524
vn -0.4691 0.0975 -0.8777
vn -0.4692 0.0975 -0.8777
vn -0.6314 0.0975 -0.7693
vn -0.4691 -0.0975 -0.8777
vn -0.4692 -0.0975 -0.8777
vn -0.6314 -0.0975 -0.7693
vn -0.7693 0.0975 -0.6314
vn -0.7693 -0.0975 -0.6314
vn -0.8777 0.0975 -0.4691
vn -0.8777 0.0975 -0.4692
vn -0.8777 -0.0975 -0.4691
vn -0.8777 -0.0975 -0.4692
vn -0.9524 -0.0975 -0.2889
vn -0.9524 0.0975 -0.2889
vn -0.8443 -0.2890 -0.4513
vn -0.9161 -0.2890 -0.2779
vn -0.9904 -0.0975 -0.0976
vn -0.9527 -0.2890 -0.0938
vn -0.9904 -0.0975 0.0976
vn -0.9527 -0.2890 0.0938
vn -0.9524 -0.0975 0.2889
vn -0.9161 -0.2890 0.2779
vn -0.8777 -0.0975 0.4691
vn -0.8777 -0.0975 0.4692
vn -0.8443 -0.2890 0.4513
vn -0.7693 -0.0975 0.6314
vn -0.7400 -0.2890 0.6073
vn -0.6825 -0.4696 0.5601
vn -0.7786 -0.4696 0.4162
vn -0.4913 -0.6326 0.5987
vn -0.5601 -0.4696 0.6825
vn -0.5987 -0.6326 0.4913
vn -0.4918 -0.7715 0.4036
vn -0.5611 -0.7715 0.2999
vn -0.6831 -0.6326 0.3651
vn -0.4036 -0.7715 0.4918
vn -0.3658 -0.8810 0.3002
vn -0.3002 -0.8810 0.3658
vn -0.2999 -0.7715 0.5611
vn -0.2230 -0.8810 0.4173
vn -0.2231 -0.8810 0.4173
vn -0.1374 -0.8810 0.4528
vn -0.1374 -0.9566 0.2571
vn -0.0846 -0.9566 0.2790
vn -0.0286 -0.9566 0.2902
vn -0.0286 -0.9951 0.0942
vn -0.0097 -0.9951 0.0980
vn 0.0097 -0.9951 0.0980
vn 0.0286 -0.9566 0.2902
vn 0.0286 -0.9951 0.0942
vn 0.0846 -0.9566 0.2790
vn 0.1374 -0.8810 0.4528
vn 0.0464 -0.8810 0.4709
vn -0.0624 -0.7715 0.6332
vn 0.0624 -0.7715 0.6332
vn -0.0464 -0.8810 0.4709
vn 0.0759 -0.6326 0.7708
vn -0.0759 -0.6326 0.7708
vn 0.2248 -0.6326 0.7412
vn 0.1847 -0.7715 0.6088
vn 0.2999 -0.7715 0.5611
vn 0.3651 -0.6326 0.6831
vn 0.4036 -0.7715 0.4918
vn 0.4913 -0.6326 0.5987
vn 0.4918 -0.7715 0.4036
vn 0.3002 -0.8810 0.3658
vn 0.3658 -0.8810 0.3002
vn 0.5611 -0.7715 0.2999
vn 0.4173 -0.8810 0.2231
vn 0.4173 -0.8810 0.2230
vn 0.6088 -0.7715 0.1847
vn 0.4528 -0.8810 0.1374
vn 0.6332 -0.7715 0.0624
vn 0.4709 -0.8810 0.0464
vn 0.6332 -0.7715 -0.0624
vn 0.4709 -0.8810 -0.0464
vn 0.6088 -0.7715 -0.1847
vn 0.4528 -0.8810 -0.1374
vn 0.5611 -0.7715 -0.2999
vn 0.4173 -0.8810 -0.2230
vn 0.2571 -0.9566 -0.1374
vn 0.2790 -0.9566 -0.0846
vn 0.0869 -0.9951 -0.0464
vn 0.0942 -0.9951 -0.0286
vn 0.0980 -0.9951 -0.0097
vn 0.2902 -0.9566 -0.0286
vn 0.2902 -0.9566 0.0286
vn 0.0980 -0.9951 0.0097
vn 0.2790 -0.9566 0.0846
vn 0.0942 -0.9951 0.0286
vn 0.2571 -0.9566 0.1374
vn 0.0869 -0.9951 0.0464
vn 0.2254 -0.9566 0.1850
vn 0.0761 -0.9951 0.0625
vn 0.1850 -0.9566 0.2254
vn 0.1850 -0.9565 0.2254
vn 0.0625 -0.9951 0.0761
vn 0.1374 -0.9566 0.2571
vn 0.0464 -0.9951 0.0869
vn 0.2230 -0.8810 0.4173
vn 0.2254 -0.9566 -0.1850
vn 0.0761 -0.9951 -0.0625
vn 0.1850 -0.9565 -0.2254
vn 0.1850 -0.9566 -0.2254
vn 0.0625 -0.9951 -0.0761
vn 0.1374 -0.9566 -0.2571
vn 0.0464 -0.9951 -0.0869
vn 0.0846 -0.9566 -0.2790
vn 0.0286 -0.9951 -0.0942
vn 0.0286 -0.9566 -0.2902
vn 0.0097 -0.9951 -0.0980
vn -0.0286 -0.9566 -0.2902
vn -0.0097 -0.9951 -0.0980
vn -0.0846 -0.9566 -0.2790
vn -0.0286 -0.9951 -0.0942
vn -0.1374 -0.9566 -0.2571
vn -0.0464 -0.9951 -0.0869
vn -0.1850 -0.9566 -0.2254
vn -0.1850 -0.9565 -0.2254
vn -0.0625 -0.9951 -0.0761
vn -0.2254 -0.9566 -0.1850
vn -0.0761 -0.9951 -0.0625
vn -0.0869 -0.9951 -0.0464
vn -0.2571 -0.9566 -0.1374
vn -0.0942 -0.9951 -0.0286
vn -0.2790 -0.9566 -0.0846
vn -0.2902 -0.9566 -0.0286
vn -0.0980 -0.9951 -0.0097
vn -0.2902 -0.9566 0.0286
vn -0.4709 -0.8810 0.0464
vn -0.4709 -0.8810 -0.0464
vn -0.6332 -0.7715 -0.0624
vn -0.6332 -0.7715 0.0624
vn -0.4528 -0.8810 0.1374
vn -0.6088 -0.7715 0.1847
vn -0.7412 -0.6326 0.2248
vn -0.7708 -0.6326 0.0759
vn -0.8448 -0.4696 0.2563
vn -0.8786 -0.4696 0.0865
vn -0.8786 -0.4696 -0.0865
vn -0.7708 -0.6326 -0.0759
vn -0.8448 -0.4696 -0.2563
vn -0.7412 -0.6326 -0.2248
vn -0.6831 -0.6326 -0.3651
vn -0.5611 -0.7715 -0.2999
vn -0.6088 -0.7715 -0.1847
vn -0.5987 -0.6326 -0.4913
vn -0.4918 -0.7715 -0.4036
vn -0.4913 -0.6326 -0.5987
vn -0.4036 -0.7715 -0.4918
vn -0.2999 -0.7715 -0.5611
vn -0.3651 -0.6326 -0.6831
vn -0.5601 -0.4696 -0.6825
vn -0.4162 -0.4696 -0.7786
vn -0.4513 -0.2890 -0.8443
vn -0.2779 -0.2890 -0.9161
vn -0.2563 -0.4696 -0.8448
vn -0.0938 -0.2890 -0.9527
vn -0.0865 -0.4696 -0.8786
vn 0.0865 -0.4696 -0.8786
vn 0.0759 -0.6326 -0.7708
vn -0.0759 -0.6326 -0.7708
vn 0.2248 -0.6326 -0.7412
vn 0.0624 -0.7715 -0.6332
vn 0.1847 -0.7715 -0.6088
vn 0.0464 -0.8810 -0.4709
vn 0.1374 -0.8810 -0.4528
vn 0.2999 -0.7715 -0.5611
vn 0.2230 -0.8810 -0.4173
vn 0.2231 -0.8810 -0.4173
vn 0.4036 -0.7715 -0.4918
vn 0.3002 -0.8810 -0.3658
vn 0.4913 -0.6326 -0.5987
vn 0.5987 -0.6326 -0.4913
vn 0.4918 -0.7715 -0.4036
vn 0.6831 -0.6326 -0.3651
vn 0.8448 -0.4696 -0.2563
vn 0.8449 -0.4696 -0.2563
vn 0.7786 -0.4696 -0.4162
vn 0.7412 -0.6326 -0.2248
vn 0.8786 -0.4696 -0.0865
vn 0.7708 -0.6326 -0.0759
vn 0.9527 -0.2890 -0.0938
vn 0.9527 -0.2890 0.0938
vn 0.8786 -0.4696 0.0865
vn 0.9161 -0.2890 0.2779
vn 0.8448 -0.4696 0.2563
vn 0.7786 -0.4696 0.4162
vn 0.8449 -0.4696 0.2563
vn 0.8443 -0.2890 0.4513
vn 0.9524 -0.0975 0.2889
vn 0.9524 -0.0976 0.2889
vn 0.8777 -0.0975 0.4691
vn 0.8777 -0.0976 0.4691
vn 0.8777 -0.0975 0.4692
vn 0.7693 -0.0975 0.6314
vn 0.7400 -0.2890 0.6073
vn 0.6825 -0.4696 0.5601
vn 0.6073 -0.2890 0.7400
vn 0.5601 -0.4696 0.6825
vn 0.4513 -0.2890 0.8443
vn 0.4162 -0.4696 0.7786
vn 0.2779 -0.2890 0.9161
vn 0.2563 -0.4696 0.8448
vn 0.0938 -0.2890 0.9527
vn 0.0865 -0.4696 0.8786
vn -0.0938 -0.2890 0.9527
vn -0.0865 -0.4696 0.8786
vn -0.2779 -0.2890 0.9161
vn -0.2563 -0.4696 0.8448
vn -0.4162 -0.4696 0.7786
vn -0.4513 -0.2890 0.8443
vn -0.2889 -0.0976 0.9524
vn -0.2889 -0.0975 0.9524
vn -0.4691 -0.0975 0.8777
vn -0.6314 -0.0975 0.7693
vn -0.6073 -0.2890 0.7400
vn -0.6314 0.0975 0.7693
vn -0.4691 0.0975 0.8777
vn -0.7400 0.2890 0.6073
vn -0.6073 0.2890 0.7400
vn -0.7693 0.0975 0.6314
vn -0.6825 0.4696 0.5601
vn -0.7786 0.4696 0.4162
vn -0.8443 0.2890 0.4513
vn -0.8448 0.4696 0.2563
vn -0.9161 0.2890 0.2779
vn -0.9527 0.2890 0.0938
vn -0.8786 0.4696 0.0865
vn -0.7412 0.6326 0.2248
vn -0.7708 0.6326 0.0759
vn -0.6332 0.7715 0.0624
vn -0.6332 0.7715 -0.0624
vn -0.7708 0.6326 -0.0759
vn -0.6088 0.7715 -0.1847
vn -0.7412 0.6326 -0.2248
vn -0.5611 0.7715 -0.2999
vn -0.6831 0.6326 -0.3651
vn -0.4918 0.7715 -0.4036
vn -0.5987 0.6326 -0.4913
vn -0.4036 0.7715 -0.4918
vn -0.4913 0.6326 -0.5987
vn -0.3651 0.6326 -0.6831
vn -0.2999 0.7715 -0.5611
vn -0.3002 0.8810 -0.3658
vn -0.2230 0.8810 -0.4173
vn -0.1374 0.8810 -0.4528
vn -0.1847 0.7715 -0.6088
vn -0.0286 0.9566 -0.2902
vn -0.0846 0.9566 -0.2790
vn -0.0097 0.9951 -0.0980
vn 0.0097 0.9951 -0.0980
vn 0.0286 0.9566 -0.2902
vn 0.0286 0.9951 -0.0942
vn 0.0846 0.9566 -0.2790
vn 0.0464 0.9951 -0.0869
vn 0.1374 0.9566 -0.2571
vn 0.1850 0.9566 -0.2254
vn 0.0625 0.9951 -0.0761
vn 0.0761 0.9951 -0.0625
vn 0.2254 0.9566 -0.1850
vn 0.2571 0.9566 -0.1374
vn 0.4173 0.8810 -0.2230
vn 0.3658 0.8810 -0.3002
vn 0.5611 0.7715 -0.2999
vn 0.4918 0.7715 -0.4036
vn 0.3002 0.8810 -0.3658
vn 0.4036 0.7715 -0.4918
vn 0.2999 0.7715 -0.5611
vn 0.2230 0.8810 -0.4173
vn 0.2231 0.8810 -0.4173
vn 0.4913 0.6326 -0.5987
vn 0.3651 0.6326 -0.6831
vn 0.2248 0.6326 -0.7412
vn 0.4162 0.4696 -0.7786
vn 0.2563 0.4696 -0.8449
vn 0.2563 0.4696 -0.8448
vn 0.0865 0.4696 -0.8786
vn 0.0938 0.2890 -0.9527
vn 0.2779 0.2890 -0.9161
vn 0.4513 0.2890 -0.8443
vn 0.4691 0.0976 -0.8777
vn 0.2889 0.0975 -0.9524
vn 0.4691 0.0975 -0.8777
vn 0.6314 0.0976 -0.7693
vn 0.6314 -0.0976 -0.7693
vn 0.4691 -0.0976 -0.8777
vn 0.7693 -0.0976 -0.6314
vn 0.7400 -0.2890 -0.6073
vn 0.6073 -0.2890 -0.7400
vn 0.4162 -0.4696 -0.7786
vn 0.4513 -0.2890 -0.8443
vn 0.5601 -0.4696 -0.6825
vn 0.2563 -0.4696 -0.8449
vn 0.2563 -0.4696 -0.8448
vn 0.2779 -0.2890 -0.9161
vn 0.0938 -0.2890 -0.9527
vn 0.0975 -0.0975 -0.9904
vn 0.0976 -0.0975 -0.9904
vn 0.0975 -0.0976 -0.9904
vn 0.2889 -0.0975 -0.9524
vn 0.0975 0.0975 -0.9904
vn 0.0976 0.0976 -0.9904
vn -0.0976 0.0975 -0.9904
vn -0.0976 0.0976 -0.9904
vn -0.2889 -0.0975 -0.9524
vn -0.0976 -0.0975 -0.9904
vn -0.0976 -0.0976 -0.9904
vn 0.4691 -0.0975 -0.8777
vn 0.8777 -0.0976 -0.4691
vn 0.8443 -0.2890 -0.4513
vn 0.8777 -0.0975 -0.4691
vn 0.9524 -0.0975 -0.2889
vn 0.9161 -0.2890 -0.2779
vn 0.8777 0.0976 -0.4691
vn 0.8777 0.0975 -0.4691
vn 0.9524 0.0975 -0.2889
vn 0.9904 0.0975 -0.0975
vn 0.9904 0.0975 -0.0976
vn 0.9904 0.0976 -0.0975
vn 0.9527 0.2890 -0.0938
vn 0.9161 0.2890 -0.2779
vn 0.8448 0.4696 -0.2563
vn 0.8449 0.4696 -0.2563
vn 0.8786 0.4696 -0.0865
vn 0.7708 0.6326 -0.0759
vn 0.7412 0.6326 -0.2248
vn 0.6831 0.6326 -0.3651
vn 0.7786 0.4696 -0.4162
vn 0.6825 0.4696 -0.5601
vn 0.5987 0.6326 -0.4913
vn 0.8443 0.2890 -0.4513
vn 0.7400 0.2890 -0.6073
vn 0.6073 0.2890 -0.7400
vn 0.7693 0.0976 -0.6314
vn 0.5601 0.4696 -0.6825
vn 0.6332 0.7715 -0.0624
vn 0.6332 0.7715 0.0624
vn 0.7708 0.6326 0.0759
vn 0.6088 0.7715 0.1847
vn 0.7412 0.6326 0.2248
vn 0.5611 0.7715 0.2999
vn 0.6831 0.6326 0.3651
vn 0.4918 0.7715 0.4036
vn 0.5987 0.6326 0.4913
vn 0.4913 0.6326 0.5987
vn 0.5601 0.4696 0.6825
vn 0.6825 0.4696 0.5601
vn 0.4162 0.4696 0.7786
vn 0.4513 0.2890 0.8443
vn 0.6073 0.2890 0.7400
vn 0.7400 0.2890 0.6073
vn 0.6314 0.0975 0.7693
vn 0.7693 0.0975 0.6314
vn 0.8443 0.2890 0.4513
vn 0.8777 0.0975 0.4691
vn 0.8777 0.0975 0.4692
vn 0.8777 0.0976 0.4691
vn 0.9161 0.2890 0.2779
vn 0.9524 0.0975 0.2889
vn 0.9524 0.0976 0.2889
vn 0.9904 0.0975 0.0975
vn 0.9904 0.0976 0.0975
vn 0.9904 0.0975 0.0976
vn 0.9527 0.2890 0.0938
vn 0.8786 0.4696 0.0865
vn 0.8448 0.4696 0.2563
vn 0.8449 0.4696 0.2563
vn 0.7786 0.4696 0.4162
vn 0.6314 -0.0975 0.7693
vn 0.4691 0.0975 0.8777
vn 0.4691 -0.0975 0.8777
vn 0.2779 0.2890 0.9161
vn 0.2889 0.0976 0.9524
vn 0.2889 0.0975 0.9524
vn 0.2563 0.4696 0.8448
vn 0.0865 0.4696 0.8786
vn 0.0938 0.2890 0.9527
vn -0.0865 0.4696 0.8786
vn -0.0938 0.2890 0.9527
vn -0.2563 0.4696 0.8448
vn -0.2779 0.2890 0.9161
vn -0.4162 0.4696 0.7786
vn -0.4513 0.2890 0.8443
vn -0.5601 0.4696 0.6825
vn -0.4913 0.6326 0.5987
vn -0.3651 0.6326 0.6831
vn -0.4036 0.7715 0.4918
vn -0.5987 0.6326 0.4913
vn -0.4918 0.7715 0.4036
vn -0.3002 0.8810 0.3658
vn -0.3658 0.8810 0.3002
vn -0.2254 0.9566 0.1850
vn -0.2571 0.9566 0.1374
vn -0.4173 0.8810 0.2230
vn -0.4528 0.8810 0.1374
vn -0.6088 0.7715 0.1847
vn -0.5611 0.7715 0.2999
vn -0.6831 0.6326 0.3651
vn -0.0942 0.9951 0.0286
vn -0.0869 0.9951 0.0464
vn -0.2790 0.9566 0.0846
vn -0.2902 0.9566 0.0286
vn -0.4709 0.8810 0.0464
vn -0.2902 0.9566 -0.0286
vn -0.4709 0.8810 -0.0464
vn -0.2790 0.9566 -0.0846
vn -0.4528 0.8810 -0.1374
vn -0.2571 0.9566 -0.1374
vn -0.4173 0.8810 -0.2230
vn -0.4173 0.8810 -0.2231
vn -0.3658 0.8810 -0.3002
vn -0.2254 0.9566 -0.1850
vn -0.0869 0.9951 -0.0464
vn -0.0761 0.9951 -0.0625
vn -0.0625 0.9951 -0.0761
vn -0.1850 0.9566 -0.2254
vn -0.1850 0.9565 -0.2254
vn -0.0464 0.9951 -0.0869
vn -0.1374 0.9566 -0.2571
vn -0.0942 0.9951 -0.0286
vn -0.0980 0.9951 -0.0097
vn -0.0980 0.9951 0.0096
vn -0.0761 0.9951 0.0625
vn -0.0625 0.9951 0.0761
vn -0.1850 0.9566 0.2254
vn -0.2230 0.8810 0.4173
vn -0.2231 0.8810 0.4173
vn -0.1374 0.9566 0.2571
vn -0.0846 0.9566 0.2790
vn -0.0286 0.9951 0.0942
vn -0.0464 0.9951 0.0869
vn -0.0286 0.9566 0.2902
vn -0.0097 0.9951 0.0980
vn 0.0286 0.9566 0.2902
vn -0.0464 0.8810 0.4709
vn 0.0464 0.8810 0.4709
vn 0.0846 0.9566 0.2790
vn 0.1374 0.8810 0.4528
vn 0.2230 0.8810 0.4173
vn 0.1847 0.7715 0.6088
vn 0.2999 0.7715 0.5611
vn 0.3002 0.8810 0.3658
vn 0.4036 0.7715 0.4918
vn 0.3658 0.8810 0.3002
vn 0.4173 0.8810 0.2231
vn 0.4173 0.8810 0.2230
vn 0.2571 0.9566 0.1374
vn 0.2254 0.9566 0.1850
vn 0.0761 0.9951 0.0625
vn 0.0869 0.9951 0.0464
vn 0.2790 0.9566 0.0846
vn 0.0942 0.9951 0.0286
vn 0.2902 0.9566 0.0286
vn 0.0980 0.9951 0.0096
vn 0.2902 0.9566 -0.0286
vn 0.0980 0.9951 -0.0097
vn 0.0942 0.9951 -0.0286
vn 0.2790 0.9566 -0.0846
vn 0.4709 0.8810 -0.0464
vn 0.4528 0.8810 -0.1374
vn 0.4709 0.8810 0.0464
vn 0.4528 0.8810 0.1374
vn 0.0625 0.9951 0.0761
vn 0.1850 0.9566 0.2254
vn 0.0464 0.9951 0.0869
vn 0.1374 0.9566 0.2571
vn 0.1374 0.9565 0.2571
vn 0.3651 0.6326 0.6831
vn 0.0624 0.7715 0.6332
vn 0.0759 0.6326 0.7708
vn 0.2248 0.6326 0.7412
vn -0.0624 0.7715 0.6332
vn -0.0759 0.6326 0.7708
vn -0.1847 0.7715 0.6088
vn -0.2248 0.6326 0.7412
vn -0.2999 0.7715 0.5611
vn -0.1374 0.8810 0.4528
vn 0.0286 0.9951 0.0942
vn 0.0097 0.9951 0.0980
vn -0.2889 0.0976 0.9524
vn -0.2889 0.0975 0.9524
vn -0.0975 0.0975 0.9904
vn -0.0976 0.0975 0.9904
vn -0.0975 0.0976 0.9904
vn -0.0975 -0.0975 0.9904
vn -0.0975 -0.0976 0.9904
vn 0.0975 -0.0975 0.9904
vn -0.0976 -0.0975 0.9904
vn 0.0975 0.0975 0.9904
vn 0.0976 0.0976 0.9904
vn 0.2889 -0.0976 0.9524
vn 0.0976 -0.0976 0.9904
vn 0.2889 -0.0975 0.9524
vn 0.6088 0.7715 -0.1847
vn 0.9904 -0.0975 0.0975
vn 0.9904 -0.0975 0.0976
vn 0.9904 -0.0975 -0.0975
vn 0.9904 -0.0976 -0.0976
vn 0.9904 -0.0976 0.0975
vn 0.6825 -0.4696 -0.5601
vn 0.1847 0.7715 -0.6088
vn 0.1374 0.8810 -0.4528
vn 0.0869 0.9951 -0.0464
vn -0.0286 0.9951 -0.0942
vn -0.4162 0.4696 -0.7786
vn -0.5601 0.4696 -0.6825
vn -0.6073 0.2890 -0.7400
vn -0.6825 0.4696 -0.5601
vn -0.7400 0.2890 -0.6073
vn -0.7786 0.4696 -0.4162
vn -0.8443 0.2890 -0.4513
vn -0.8448 0.4696 -0.2563
vn -0.9161 0.2890 -0.2779
vn -0.9904 0.0975 -0.0976
vn -0.9527 0.2890 -0.0938
vn -0.9904 0.0975 0.0976
vn -0.8786 0.4696 -0.0865
vn -0.9524 0.0975 0.2889
vn -0.8777 0.0975 0.4691
vn -0.8777 0.0975 0.4692
vn -0.3651 -0.6326 0.6831
vn -0.2248 -0.6326 0.7412
vn -0.1847 -0.7715 0.6088
vn 0.5987 -0.6326 0.4913
vn 0.6831 -0.6326 0.3651
vn 0.7412 -0.6326 0.2248
vn 0.7708 -0.6326 0.0759
vn 0.3651 -0.6326 -0.6831
vn 0.3658 -0.8810 -0.3002
vn -0.0464 -0.8810 -0.4709
vn -0.0624 -0.7715 -0.6332
vn -0.1374 -0.8810 -0.4528
vn -0.1847 -0.7715 -0.6088
vn -0.2248 -0.6326 -0.7412
vn -0.2230 -0.8810 -0.4173
vn -0.6073 -0.2890 -0.7400
vn -0.6825 -0.4696 -0.5601
vn -0.7400 -0.2890 -0.6073
vn -0.3002 -0.8810 -0.3658
vn -0.3658 -0.8810 -0.3002
vn -0.4173 -0.8810 -0.2230
vn -0.4173 -0.8810 -0.2231
vn -0.7786 -0.4696 -0.4162
vn -0.4528 -0.8810 -0.1374
vn -0.2790 -0.9566 0.0846
vn -0.0980 -0.9951 0.0097
vn -0.0942 -0.9951 0.0286
vn -0.2571 -0.9566 0.1374
vn -0.0869 -0.9951 0.0464
vn -0.2254 -0.9566 0.1850
vn -0.0761 -0.9951 0.0625
vn -0.1850 -0.9565 0.2254
vn -0.1850 -0.9566 0.2254
vn -0.0625 -0.9951 0.0761
vn -0.4173 -0.8810 0.2230
vn -0.0464 -0.9951 0.0869
vt 0.566492 0.693122
vt 0.587147 0.611477
vt 0.612297 0.692825
vt 0.596259 0.424519
vt 0.578676 0.337821
vt 0.625134 0.340494
vt 0.624403 0.241865
vt 0.548768 0.766054
vt 0.606367 0.786824
vt 0.561252 0.261668
vt 0.581364 0.147808
vt 0.506275 0.829739
vt 0.563892 0.876435
vt 0.466598 0.789950
vt 0.448004 0.878965
vt 0.417415 0.823403
vt 0.377784 0.907245
vt 0.491676 0.947885
vt 0.362363 0.843497
vt 0.351482 0.793067
vt 0.304739 0.849813
vt 0.305391 0.797613
vt 0.305929 0.755461
vt 0.247273 0.842035
vt 0.259392 0.791930
vt 0.343761 0.752206
vt 0.306394 0.720605
vt 0.268169 0.751229
vt 0.338192 0.718210
vt 0.334069 0.689220
vt 0.306797 0.691220
vt 0.274660 0.717355
vt 0.307161 0.665164
vt 0.279590 0.688462
vt 0.283359 0.663606
vt 0.243389 0.708822
vt 0.252493 0.682014
vt 0.307471 0.642874
vt 0.286275 0.641393
vt 0.259482 0.658515
vt 0.307745 0.622724
vt 0.288555 0.621502
vt 0.264896 0.637477
vt 0.307991 0.604335
vt 0.290347 0.603348
vt 0.269115 0.618431
vt 0.308210 0.587317
vt 0.291754 0.586522
vt 0.272405 0.600942
vt 0.308409 0.571347
vt 0.292848 0.570709
vt 0.274968 0.584646
vt 0.276939 0.569268
vt 0.260264 0.566950
vt 0.257454 0.581583
vt 0.262355 0.552899
vt 0.242315 0.563388
vt 0.238743 0.576874
vt 0.222439 0.557982
vt 0.213009 0.581918
vt 0.218369 0.569772
vt 0.234068 0.590948
vt 0.225468 0.546426
vt 0.195016 0.559305
vt 0.199389 0.549975
vt 0.244966 0.550336
vt 0.227620 0.534984
vt 0.202781 0.540545
vt 0.204971 0.531055
vt 0.228894 0.523646
vt 0.206228 0.521631
vt 0.173868 0.530751
vt 0.175702 0.524608
vt 0.176948 0.518408
vt 0.206848 0.512219
vt 0.177442 0.512134
vt 0.131861 0.511622
vt 0.177189 0.505847
vt 0.175984 0.499627
vt 0.206332 0.502827
vt 0.205158 0.493439
vt 0.227950 0.489708
vt 0.229155 0.501078
vt 0.229485 0.512363
vt 0.248331 0.512545
vt 0.264894 0.499386
vt 0.265063 0.512635
vt 0.247976 0.524991
vt 0.248107 0.500078
vt 0.264183 0.485980
vt 0.247176 0.487492
vt 0.225900 0.478222
vt 0.245521 0.474690
vt 0.262877 0.472271
vt 0.222902 0.466565
vt 0.242891 0.461522
vt 0.218847 0.454703
vt 0.199890 0.474531
vt 0.239513 0.447981
vt 0.213714 0.442659
vt 0.195747 0.465151
vt 0.235030 0.433873
vt 0.206990 0.430177
vt 0.190166 0.455865
vt 0.229218 0.419035
vt 0.221802 0.403363
vt 0.198597 0.417411
vt 0.183451 0.446578
vt 0.212397 0.386772
vt 0.188148 0.404401
vt 0.175228 0.437521
vt 0.175477 0.391348
vt 0.165426 0.428992
vt 0.200182 0.368884
vt 0.159350 0.378297
vt 0.153699 0.421133
vt 0.139507 0.414186
vt 0.137548 0.460172
vt 0.128813 0.458434
vt 0.145510 0.462971
vt 0.152578 0.466675
vt 0.158600 0.471211
vt 0.163700 0.476289
vt 0.168091 0.481702
vt 0.171652 0.487433
vt 0.174214 0.493462
vt 0.203013 0.483985
vt 0.119219 0.458230
vt 0.123185 0.408942
vt 0.109030 0.459755
vt 0.103949 0.406069
vt 0.082003 0.406505
vt 0.098673 0.463362
vt 0.058292 0.411643
vt 0.088376 0.469360
vt 0.032750 0.423344
vt 0.079081 0.477986
vt 0.055604 0.612978
vt 0.028964 0.601673
vt 0.077170 0.544886
vt 0.086859 0.553801
vt 0.097170 0.560034
vt 0.080517 0.618190
vt 0.102754 0.618451
vt 0.107800 0.563770
vt 0.121796 0.615397
vt 0.118091 0.565403
vt 0.138594 0.610098
vt 0.127784 0.565260
vt 0.136687 0.563680
vt 0.152550 0.603212
vt 0.144720 0.560956
vt 0.174266 0.586828
vt 0.151866 0.557315
vt 0.164262 0.595318
vt 0.157967 0.552833
vt 0.182710 0.577851
vt 0.197838 0.606914
vt 0.206112 0.594280
vt 0.220799 0.621089
vt 0.211346 0.637584
vt 0.187581 0.619791
vt 0.228320 0.605533
vt 0.253798 0.596985
vt 0.249119 0.613338
vt 0.243118 0.630967
vt 0.235449 0.650154
vt 0.225617 0.671271
vt 0.199336 0.655237
vt 0.183984 0.674182
vt 0.174630 0.633000
vt 0.212910 0.694789
vt 0.164941 0.693990
vt 0.138936 0.658750
vt 0.158648 0.646160
vt 0.196333 0.721114
vt 0.139176 0.715520
vt 0.174192 0.751200
vt 0.114389 0.670348
vt 0.106559 0.737324
vt 0.215096 0.776408
vt 0.192714 0.820477
vt 0.144436 0.785449
vt 0.160728 0.875368
vt 0.230312 0.905411
vt 0.115482 0.943663
vt 0.044133 0.870853
vt 0.103572 0.824466
vt 0.102475 0.075199
vt 0.098202 0.199911
vt 0.034563 0.156873
vt 0.060042 0.267842
vt 0.001301 0.779041
vt 0.000115 0.252186
vt 0.141675 0.238264
vt 0.047300 0.341901
vt 0.106094 0.288438
vt 0.002201 0.345999
vt 0.084763 0.345853
vt 0.115091 0.354553
vt 0.140003 0.309553
vt 0.165260 0.330152
vt 0.139343 0.365731
vt 0.173687 0.272701
vt 0.196713 0.302669
vt 0.184950 0.350108
vt 0.213925 0.329273
vt 0.226763 0.352765
vt 0.254013 0.341808
vt 0.236611 0.374063
vt 0.261136 0.365858
vt 0.266411 0.387059
vt 0.244321 0.393548
vt 0.285371 0.360985
vt 0.288121 0.383398
vt 0.270508 0.406361
vt 0.290211 0.403646
vt 0.273643 0.424052
vt 0.250262 0.411381
vt 0.291803 0.421965
vt 0.254855 0.427924
vt 0.276031 0.440511
vt 0.309675 0.402558
vt 0.309639 0.421340
vt 0.292976 0.438961
vt 0.309577 0.438554
vt 0.293830 0.454904
vt 0.277806 0.456017
vt 0.258382 0.443451
vt 0.261060 0.458202
vt 0.279059 0.470785
vt 0.294417 0.470051
vt 0.279883 0.485048
vt 0.294779 0.484638
vt 0.280321 0.498978
vt 0.294939 0.498863
vt 0.280393 0.512734
vt 0.294910 0.512903
vt 0.280107 0.526480
vt 0.294695 0.526933
vt 0.279454 0.540374
vt 0.264713 0.525881
vt 0.294290 0.541122
vt 0.263818 0.539259
vt 0.278413 0.554578
vt 0.308913 0.527219
vt 0.308759 0.541513
vt 0.293682 0.555650
vt 0.308592 0.556156
vt 0.323518 0.555995
vt 0.323987 0.571084
vt 0.339946 0.570029
vt 0.341522 0.585472
vt 0.324686 0.586934
vt 0.356709 0.568123
vt 0.359096 0.582832
vt 0.343678 0.601879
vt 0.362409 0.598400
vt 0.346515 0.619503
vt 0.325661 0.603812
vt 0.366726 0.615002
vt 0.326969 0.622028
vt 0.350189 0.638649
vt 0.387695 0.607730
vt 0.394843 0.623574
vt 0.372122 0.632709
vt 0.410124 0.596987
vt 0.418102 0.609935
vt 0.403657 0.640315
vt 0.428190 0.623317
vt 0.415156 0.658339
vt 0.379366 0.652284
vt 0.440741 0.636958
vt 0.429776 0.677643
vt 0.388490 0.673591
vt 0.456401 0.650740
vt 0.448546 0.698269
vt 0.400442 0.697377
vt 0.475505 0.664028
vt 0.473131 0.720343
vt 0.416187 0.724110
vt 0.499374 0.676389
vt 0.437124 0.754323
vt 0.504851 0.742772
vt 0.493921 0.621121
vt 0.513124 0.624887
vt 0.528791 0.686641
vt 0.535189 0.625531
vt 0.560075 0.621482
vt 0.531685 0.560937
vt 0.541825 0.552466
vt 0.521056 0.566700
vt 0.488435 0.516283
vt 0.545288 0.482885
vt 0.535605 0.473459
vt 0.524824 0.466935
vt 0.568020 0.412311
vt 0.542532 0.407117
vt 0.513929 0.462927
vt 0.520186 0.406724
vt 0.503425 0.461164
vt 0.493433 0.461223
vt 0.482479 0.415075
vt 0.499703 0.409762
vt 0.484259 0.462771
vt 0.462364 0.377784
vt 0.468057 0.422065
vt 0.482507 0.364860
vt 0.445712 0.391329
vt 0.420074 0.368572
vt 0.435820 0.349026
vt 0.507828 0.352918
vt 0.455461 0.328558
vt 0.516144 0.283780
vt 0.539424 0.343308
vt 0.481561 0.306574
vt 0.423101 0.300627
vt 0.445434 0.269957
vt 0.477548 0.233429
vt 0.521032 0.192432
vt 0.403123 0.243329
vt 0.426508 0.196800
vt 0.511966 0.068182
vt 0.459840 0.140381
vt 0.386259 0.106516
vt 0.368608 0.174982
vt 0.356559 0.228295
vt 0.308442 0.222643
vt 0.307417 0.167881
vt 0.308933 0.267020
vt 0.269899 0.270950
vt 0.260404 0.228773
vt 0.276614 0.305699
vt 0.244498 0.314204
vt 0.232006 0.282688
vt 0.214724 0.245369
vt 0.190544 0.200554
vt 0.246815 0.176682
vt 0.156522 0.147120
vt 0.226551 0.109929
vt 0.301505 0.000115
vt 0.305626 0.096408
vt 0.196690 0.024996
vt 0.414757 0.011409
vt 0.399733 0.989534
vt 0.303938 0.915856
vt 0.302953 0.999885
vt 0.206481 0.987247
vt 0.309246 0.303325
vt 0.281631 0.335547
vt 0.309454 0.332973
vt 0.341980 0.305317
vt 0.337337 0.335331
vt 0.333960 0.360693
vt 0.309614 0.359358
vt 0.309657 0.382428
vt 0.331222 0.383394
vt 0.353121 0.386952
vt 0.358329 0.365655
vt 0.365479 0.341025
vt 0.383271 0.373712
vt 0.392968 0.352292
vt 0.407715 0.386697
vt 0.398196 0.403535
vt 0.375410 0.393532
vt 0.405777 0.328209
vt 0.374483 0.313512
vt 0.386617 0.281311
vt 0.348107 0.270331
vt 0.432312 0.404835
vt 0.421839 0.417929
vt 0.390643 0.419428
vt 0.413177 0.430903
vt 0.384713 0.434412
vt 0.369325 0.411628
vt 0.406200 0.443546
vt 0.379882 0.448724
vt 0.364551 0.428348
vt 0.400779 0.455792
vt 0.376352 0.462362
vt 0.358083 0.458767
vt 0.360986 0.443895
vt 0.356044 0.472927
vt 0.339801 0.471201
vt 0.341251 0.456373
vt 0.338755 0.485514
vt 0.324405 0.470252
vt 0.325182 0.455076
vt 0.326197 0.439100
vt 0.309498 0.454650
vt 0.343190 0.440805
vt 0.327501 0.422059
vt 0.345693 0.424300
vt 0.329203 0.403606
vt 0.348914 0.406557
vt 0.309405 0.469927
vt 0.323831 0.484865
vt 0.309299 0.484626
vt 0.338092 0.499488
vt 0.323438 0.499113
vt 0.354478 0.486713
vt 0.353584 0.500169
vt 0.337776 0.513289
vt 0.323212 0.513175
vt 0.353210 0.513488
vt 0.337781 0.527077
vt 0.353258 0.526805
vt 0.338127 0.541021
vt 0.323147 0.527226
vt 0.353844 0.540255
vt 0.338836 0.555280
vt 0.323245 0.541440
vt 0.354980 0.553980
vt 0.372518 0.551831
vt 0.374865 0.565019
vt 0.392210 0.548364
vt 0.394967 0.560101
vt 0.378134 0.578681
vt 0.418483 0.552706
vt 0.422370 0.562260
vt 0.398848 0.572142
vt 0.447250 0.540182
vt 0.450745 0.546065
vt 0.455082 0.551654
vt 0.403790 0.584385
vt 0.427690 0.571771
vt 0.382287 0.592846
vt 0.460135 0.556929
vt 0.434396 0.581273
vt 0.442597 0.590591
vt 0.466127 0.561682
vt 0.452109 0.599488
vt 0.473186 0.565620
vt 0.463637 0.607831
vt 0.481174 0.568689
vt 0.477400 0.615234
vt 0.490073 0.570640
vt 0.499816 0.571185
vt 0.510231 0.569988
vt 0.444765 0.534014
vt 0.415351 0.543116
vt 0.413450 0.533506
vt 0.443077 0.527718
vt 0.442169 0.521363
vt 0.412204 0.523918
vt 0.411857 0.514334
vt 0.441826 0.514973
vt 0.442456 0.508600
vt 0.412593 0.504763
vt 0.389080 0.513902
vt 0.443658 0.502264
vt 0.413957 0.495149
vt 0.389631 0.502522
vt 0.391092 0.491051
vt 0.416480 0.485569
vt 0.393333 0.479511
vt 0.370474 0.501145
vt 0.371729 0.488469
vt 0.396535 0.467765
vt 0.373548 0.475606
vt 0.424502 0.466506
vt 0.419956 0.476016
vt 0.430204 0.457136
vt 0.452066 0.484075
vt 0.456719 0.478637
vt 0.448445 0.489940
vt 0.462229 0.473640
vt 0.468641 0.469207
vt 0.437045 0.447844
vt 0.475990 0.465509
vt 0.445452 0.438751
vt 0.455915 0.430116
vt 0.445649 0.496025
vt 0.369891 0.513719
vt 0.370100 0.526282
vt 0.389276 0.525286
vt 0.370954 0.538949
vt 0.390283 0.536755
vt 0.309054 0.513091
vt 0.309182 0.498953
vt 0.396005 0.778625
vt 0.380795 0.741774
vt 0.369645 0.710536
vt 0.361326 0.683540
vt 0.355035 0.659887
vt 0.331001 0.664280
vt 0.328704 0.641979
vt 0.246826 0.537572
vt 0.045067 0.685083
vt 0.000115 0.682452
vt 0.084173 0.679655
vt 0.063073 0.758929
vt 0.231349 0.739817
vt 0.189706 0.568619
vt 0.163146 0.547799
vt 0.167603 0.542438
vt 0.171235 0.536746
s 1
usemtl マテリアル
f 4/1/1 2/2/1 1/3/1
f 2/4/2 3/5/2 1/6/2
f 6/7/3 1/6/3 3/5/3
f 5/8/4 4/1/4 1/3/4
f 5/8/4 1/3/4 6/9/4
f 6/7/3 3/5/3 7/10/3
f 8/11/5 6/7/5 7/10/5
f 9/12/6 6/9/6 8/13/6
f 9/12/6 5/8/6 6/9/6
f 10/14/7 9/12/7 11/15/7
f 10/14/8 5/8/8 9/12/8
f 11/15/9 9/12/9 8/13/9
f 10/14/7 11/15/7 14/16/7
f 12/17/10 11/15/10 13/18/10
f 15/19/11 11/15/11 12/17/11
f 11/15/9 8/13/9 13/18/9
f 15/19/11 14/16/11 11/15/11
f 17/20/12 14/16/12 15/19/12
f 16/21/13 15/19/13 12/17/13
f 18/22/14 15/19/14 16/21/15
f 18/22/14 17/20/14 15/19/14
f 21/23/16 17/20/16 18/22/16
f 18/22/17 16/21/18 20/24/17
f 21/23/19 18/22/19 19/25/19
f 18/22/17 20/24/17 19/25/17
f 21/23/16 22/26/16 17/20/16
f 24/27/20 22/26/20 21/23/20
f 24/27/21 21/23/21 23/28/21
f 21/23/19 19/25/19 23/28/19
f 24/27/20 25/29/20 22/26/20
f 26/30/22 25/29/22 24/27/22
f 26/30/22 24/27/22 28/31/23
f 28/31/24 24/27/25 27/32/24
f 24/27/21 23/28/21 27/32/21
f 29/33/26 28/31/26 30/34/26
f 29/33/27 26/30/27 28/31/27
f 28/31/24 27/32/24 30/34/24
f 29/33/26 30/34/26 33/35/26
f 30/34/28 27/32/28 32/36/28
f 33/35/29 30/34/29 31/37/29
f 30/34/28 32/36/28 31/37/28
f 34/38/30 29/33/30 33/35/30
f 34/38/30 33/35/30 36/39/30
f 36/39/31 33/35/31 35/40/31
f 33/35/29 31/37/29 35/40/29
f 37/41/32 34/38/32 36/39/32
f 37/41/32 36/39/32 39/42/32
f 39/42/33 36/39/33 38/43/33
f 36/39/31 35/40/31 38/43/31
f 40/44/34 37/41/34 39/42/34
f 40/44/34 39/42/34 42/45/34
f 42/45/35 39/42/35 41/46/35
f 39/42/33 38/43/33 41/46/33
f 43/47/36 40/44/37 42/45/36
f 43/47/36 42/45/36 45/48/36
f 45/48/38 42/45/38 44/49/38
f 42/45/35 41/46/35 44/49/35
f 46/50/39 43/47/39 45/48/39
f 46/50/39 45/48/39 47/51/39
f 47/51/40 45/48/40 48/52/40
f 45/48/38 44/49/38 48/52/38
f 47/51/40 48/52/40 49/53/40
f 51/54/41 49/53/41 48/52/41
f 50/55/42 48/52/42 44/49/42
f 51/54/41 48/52/41 50/55/41
f 52/56/43 51/54/43 53/57/43
f 52/56/44 49/53/44 51/54/44
f 51/54/45 50/55/45 54/58/45
f 51/54/45 54/58/45 53/57/45
f 58/59/46 53/57/46 54/58/46
f 54/58/47 57/60/47 55/61/47
f 58/59/46 54/58/46 55/61/46
f 54/58/47 56/62/47 57/60/47
f 50/55/48 56/62/48 54/58/48
f 61/63/49 53/57/49 58/59/49
f 58/59/50 55/61/50 60/64/50
f 61/63/51 58/59/51 59/65/51
f 58/59/50 60/64/50 59/65/50
f 61/63/49 62/66/49 53/57/49
f 64/67/52 62/66/52 61/63/52
f 61/63/51 59/65/51 63/68/51
f 65/69/53 61/63/54 63/68/53
f 65/69/53 64/67/54 61/63/54
f 66/70/55 64/67/55 65/69/55
f 66/70/55 65/69/55 69/71/55
f 65/69/56 68/72/56 67/73/56
f 70/74/57 65/69/57 67/73/57
f 65/69/56 63/68/56 68/72/56
f 70/74/57 69/71/57 65/69/57
f 71/75/58 69/71/58 70/74/58
f 71/75/58 70/74/58 73/76/58
f 72/77/59 70/74/59 67/73/59
f 72/77/60 73/76/60 70/74/60
f 72/77/61 74/78/61 73/76/61
f 74/78/62 71/75/62 73/76/62
f 72/77/63 75/79/63 74/78/63
f 74/78/62 76/80/62 71/75/62
f 75/79/64 76/80/64 74/78/64
f 75/79/64 77/81/64 76/80/64
f 79/82/65 76/80/65 77/81/65
f 76/80/66 78/83/66 80/84/66
f 79/82/65 78/83/65 76/80/65
f 76/80/66 80/84/66 71/75/66
f 81/85/67 66/70/67 80/84/67
f 78/83/68 81/85/68 80/84/68
f 80/84/69 69/71/69 71/75/69
f 80/84/69 66/70/69 69/71/69
f 83/86/70 82/87/70 81/85/70
f 82/87/71 84/88/71 81/85/71
f 83/86/70 81/85/70 85/89/70
f 81/85/67 84/88/67 66/70/67
f 78/83/68 85/89/68 81/85/68
f 86/90/72 83/86/72 85/89/72
f 79/82/73 85/89/73 78/83/73
f 86/90/72 85/89/72 87/91/72
f 79/82/73 87/91/73 85/89/73
f 88/92/74 90/93/74 87/91/74
f 88/92/74 87/91/74 79/82/74
f 89/94/75 86/90/75 87/91/75
f 89/94/75 87/91/75 90/93/75
f 92/95/76 91/96/76 90/93/76
f 91/96/77 89/94/77 90/93/77
f 92/95/76 90/93/76 88/92/76
f 94/97/78 91/96/78 92/95/78
f 93/98/79 92/95/79 88/92/79
f 94/97/80 92/95/80 93/98/80
f 94/97/78 95/99/78 91/96/78
f 97/100/81 95/99/81 94/97/81
f 97/100/82 94/97/82 96/101/83
f 94/97/80 93/98/80 96/101/80
f 97/100/81 98/102/81 95/99/81
f 100/103/84 98/102/84 97/100/84
f 100/103/85 97/100/85 99/104/85
f 97/100/82 96/101/83 99/104/83
f 100/103/84 101/105/84 98/102/84
f 102/106/86 101/105/86 100/103/86
f 102/106/86 100/103/86 104/107/86
f 104/107/87 100/103/87 103/108/87
f 100/103/85 99/104/85 103/108/85
f 105/109/88 102/106/88 104/107/88
f 105/109/88 104/107/88 107/110/88
f 107/110/89 104/107/89 106/111/89
f 104/107/87 103/108/87 106/111/87
f 109/112/90 105/109/90 107/110/90
f 109/112/91 107/110/91 108/113/91
f 107/110/89 106/111/89 108/113/89
f 109/112/90 110/114/90 105/109/90
f 111/115/92 110/114/92 109/112/92
f 111/115/93 109/112/93 112/116/93
f 109/112/91 108/113/91 112/116/91
f 113/117/94 112/116/94 114/118/94
f 111/115/93 112/116/93 113/117/93
f 114/118/95 112/116/95 108/113/95
f 113/117/94 114/118/94 115/119/94
f 72/77/96 115/119/96 114/118/96
f 72/77/97 114/118/97 116/120/97
f 114/118/95 108/113/95 116/120/95
f 72/77/98 116/120/98 117/121/98
f 116/120/99 106/111/99 117/121/99
f 116/120/99 108/113/99 106/111/99
f 117/121/100 106/111/100 103/108/100
f 72/77/101 117/121/101 118/122/101
f 117/121/100 103/108/100 118/122/100
f 103/108/102 119/123/102 118/122/102
f 72/77/103 118/122/103 119/123/103
f 103/108/102 99/104/102 119/123/102
f 99/104/104 120/124/104 119/123/104
f 72/77/105 119/123/105 120/124/105
f 99/104/104 96/101/104 120/124/104
f 96/101/106 121/125/106 120/124/106
f 72/77/107 120/124/107 121/125/107
f 96/101/106 93/98/106 121/125/106
f 93/98/108 122/126/109 121/125/109
f 72/77/110 121/125/110 122/126/110
f 93/98/108 123/127/108 122/126/109
f 123/127/111 75/79/111 122/126/111
f 72/77/112 122/126/112 75/79/112
f 123/127/113 88/92/113 79/82/113
f 93/98/79 88/92/79 123/127/79
f 123/127/111 77/81/111 75/79/111
f 123/127/113 79/82/113 77/81/113
f 124/128/114 113/117/114 115/119/114
f 72/77/115 124/128/115 115/119/115
f 124/128/114 125/129/114 113/117/114
f 126/130/116 125/129/117 124/128/116
f 72/77/118 126/130/118 124/128/118
f 126/130/116 127/131/117 125/129/117
f 128/132/119 127/131/119 126/130/119
f 128/132/119 126/130/119 129/133/119
f 72/77/120 129/133/120 126/130/120
f 130/134/121 128/132/121 129/133/121
f 130/134/121 129/133/121 131/135/121
f 72/77/122 131/135/122 129/133/122
f 132/136/123 130/134/123 131/135/123
f 132/136/123 131/135/123 133/137/123
f 72/77/124 133/137/124 131/135/124
f 134/138/125 132/139/125 133/140/125
f 134/138/125 133/140/125 135/141/125
f 72/77/126 135/141/126 133/140/126
f 136/142/127 134/138/127 135/141/127
f 72/77/128 136/142/128 135/141/128
f 136/142/127 137/143/127 134/138/127
f 138/144/129 137/143/129 136/142/129
f 138/144/129 136/142/129 139/145/129
f 72/77/130 139/145/130 136/142/130
f 140/146/131 138/144/131 139/145/131
f 140/146/131 139/145/131 141/147/132
f 72/77/133 141/147/133 139/145/133
f 142/148/134 140/146/134 141/147/134
f 142/148/134 141/147/134 143/149/134
f 72/77/135 143/149/135 141/147/135
f 72/77/136 145/150/136 143/149/136
f 144/151/137 142/148/137 143/149/137
f 144/151/137 143/149/137 145/150/137
f 72/77/138 146/152/138 145/150/138
f 146/152/139 144/151/139 145/150/139
f 149/153/140 146/152/140 147/154/140
f 72/77/141 147/154/141 146/152/141
f 146/152/139 148/155/139 144/151/139
f 149/153/140 148/155/140 146/152/140
f 151/156/142 150/157/142 149/153/142
f 150/157/143 152/158/143 149/153/143
f 151/156/142 149/153/142 147/154/142
f 152/158/144 148/155/144 149/153/144
f 150/157/143 156/159/143 152/158/143
f 152/158/145 153/160/145 155/161/145
f 156/159/146 153/160/146 152/158/146
f 152/158/144 154/162/144 148/155/144
f 152/158/145 155/161/145 154/162/145
f 57/60/147 156/159/147 150/157/147
f 57/60/148 157/163/148 156/159/148
f 156/159/146 157/163/146 153/160/146
f 57/60/148 56/62/148 157/163/148
f 159/164/149 158/165/149 157/163/149
f 158/165/150 153/160/150 157/163/150
f 159/164/149 157/163/149 56/62/149
f 159/164/151 44/49/151 41/46/151
f 50/55/42 44/49/42 159/164/42
f 159/164/151 41/46/151 158/165/151
f 50/55/48 159/164/48 56/62/48
f 158/165/152 41/46/152 38/43/152
f 158/165/150 160/166/150 153/160/150
f 158/165/152 38/43/152 160/166/152
f 160/166/153 38/43/153 35/40/153
f 160/166/154 161/167/154 155/161/154
f 160/166/153 35/40/153 161/167/153
f 160/166/154 155/161/154 153/160/154
f 161/167/155 35/40/155 31/37/155
f 161/167/156 162/168/156 163/169/156
f 161/167/155 31/37/155 162/168/155
f 161/167/156 163/169/156 155/161/156
f 162/168/157 165/170/157 163/169/157
f 164/171/158 163/169/158 165/170/158
f 154/162/159 163/169/159 164/171/159
f 154/162/159 155/161/159 163/169/159
f 162/168/157 166/172/157 165/170/157
f 166/172/160 169/173/160 165/170/160
f 165/170/161 168/174/161 167/175/161
f 164/171/158 165/170/158 167/175/158
f 165/170/161 169/173/161 168/174/161
f 166/172/160 170/176/160 169/173/160
f 170/176/162 171/177/162 169/173/162
f 168/174/163 169/173/163 171/177/163
f 170/176/162 174/178/162 171/177/162
f 172/179/164 171/177/164 173/180/164
f 168/174/163 171/177/163 172/179/163
f 174/178/165 173/180/165 171/177/165
f 170/176/166 175/181/166 174/178/166
f 174/178/167 175/181/167 177/182/167
f 174/178/165 176/183/165 173/180/165
f 174/178/167 177/182/167 176/183/167
f 19/25/168 20/24/168 177/182/168
f 20/24/169 178/184/169 177/182/169
f 19/25/168 177/182/168 175/181/168
f 176/183/170 177/182/170 178/184/170
f 20/24/169 179/185/169 178/184/169
f 179/185/171 181/186/171 178/184/171
f 178/184/172 182/187/172 180/188/172
f 176/183/170 178/184/170 180/188/170
f 178/184/172 181/186/172 182/187/172
f 181/189/173 183/190/173 182/191/173
f 182/191/174 183/190/174 185/192/174
f 180/188/175 182/187/175 184/193/175
f 182/191/174 185/192/174 184/194/174
f 185/192/176 183/190/176 187/195/176
f 184/194/177 185/192/177 188/196/177
f 188/196/178 185/192/178 186/197/178
f 185/192/176 187/195/176 186/197/176
f 184/194/177 188/196/177 189/198/177
f 189/198/179 188/196/179 130/134/179
f 130/134/180 188/196/180 190/199/180
f 188/196/178 186/197/178 190/199/178
f 186/197/181 191/200/181 190/199/181
f 128/132/182 190/199/183 191/200/182
f 130/134/180 190/199/180 128/132/180
f 191/200/184 192/201/184 194/202/184
f 186/197/181 192/201/181 191/200/181
f 127/131/185 191/200/185 193/203/185
f 128/132/182 191/200/182 127/131/182
f 191/200/184 194/202/184 193/203/184
f 196/204/186 194/202/186 192/201/186
f 196/204/186 195/205/186 194/202/186
f 195/205/187 197/206/187 194/202/187
f 193/203/188 194/202/188 197/206/188
f 193/203/188 197/206/188 111/115/188
f 197/206/189 198/207/189 199/208/189
f 195/205/187 198/207/187 197/206/187
f 111/115/92 197/206/92 110/114/92
f 197/206/189 199/208/189 110/114/189
f 200/209/190 201/210/191 199/208/191
f 198/207/192 200/209/192 199/208/192
f 110/114/193 199/208/193 201/210/193
f 201/210/194 202/211/194 204/212/194
f 200/209/190 202/211/190 201/210/191
f 105/109/195 201/210/195 203/213/195
f 110/114/193 201/210/193 105/109/193
f 201/210/194 204/212/194 203/213/194
f 206/214/196 205/215/196 204/212/196
f 205/215/197 207/216/197 204/212/197
f 206/214/196 204/212/196 202/211/196
f 203/213/198 204/212/198 207/216/198
f 205/215/197 208/217/197 207/216/197
f 208/217/199 210/218/199 207/216/199
f 209/219/200 207/216/200 210/218/200
f 203/213/198 207/216/198 209/219/198
f 208/217/199 213/220/199 210/218/199
f 211/221/201 210/218/201 212/222/201
f 209/219/200 210/218/200 211/221/202
f 213/220/203 212/222/203 210/218/203
f 215/223/204 213/220/204 208/217/204
f 215/223/204 214/224/205 213/220/204
f 214/224/206 216/225/206 213/220/207
f 213/220/203 216/225/203 212/222/203
f 214/224/206 217/226/208 216/225/206
f 217/226/209 218/227/209 216/225/209
f 216/225/210 218/227/210 219/228/210
f 216/225/210 219/228/210 212/222/210
f 220/229/211 212/222/211 219/228/211
f 220/229/211 219/228/211 221/230/211
f 218/227/212 222/231/212 219/228/212
f 221/230/213 219/228/213 222/231/213
f 218/227/212 223/232/212 222/231/212
f 223/232/214 224/233/214 222/231/214
f 89/94/215 222/231/215 224/233/215
f 221/230/213 222/231/213 89/94/213
f 223/232/214 225/234/214 224/233/214
f 225/234/216 226/235/216 224/233/216
f 86/90/217 224/233/217 226/235/217
f 89/94/215 224/233/215 86/90/215
f 225/234/216 227/236/216 226/235/216
f 227/236/218 228/237/218 226/235/218
f 83/86/219 226/235/219 228/237/219
f 86/90/217 226/235/217 83/86/217
f 227/236/218 229/238/218 228/237/218
f 229/238/220 230/239/220 228/237/220
f 82/87/221 228/237/221 230/239/221
f 83/86/219 228/237/219 82/87/219
f 229/238/220 231/240/220 230/239/220
f 231/240/222 233/241/222 230/239/222
f 232/242/223 230/239/223 233/241/223
f 82/87/221 230/239/221 232/242/221
f 231/240/222 236/243/222 233/241/222
f 234/244/224 233/241/224 235/245/224
f 232/242/223 233/241/223 234/244/223
f 236/243/225 235/245/225 233/241/225
f 238/246/226 236/243/226 231/240/226
f 238/246/226 237/247/227 236/243/226
f 237/247/228 239/248/228 236/243/228
f 236/243/225 239/248/225 235/245/225
f 237/247/228 240/249/228 239/248/228
f 240/249/229 47/51/229 239/248/229
f 239/248/230 47/51/230 49/53/230
f 239/248/230 49/53/230 235/245/230
f 240/249/231 241/250/231 242/251/231
f 237/247/232 241/250/232 240/249/232
f 240/249/229 46/50/229 47/51/229
f 240/249/231 242/251/231 46/50/231
f 242/251/233 243/252/233 245/253/233
f 241/250/234 243/252/234 242/251/234
f 46/50/235 242/251/235 244/254/235
f 242/251/233 245/253/233 244/254/233
f 246/255/236 247/256/236 245/253/236
f 246/255/236 245/253/236 243/252/236
f 247/256/237 248/257/237 245/253/237
f 244/254/238 245/253/238 248/257/238
f 247/256/237 249/258/237 248/257/237
f 249/258/239 251/259/239 248/257/239
f 250/260/240 248/257/240 251/259/240
f 244/254/238 248/257/238 250/260/238
f 249/258/239 254/261/239 251/259/239
f 252/262/241 251/259/241 253/263/241
f 250/260/240 251/259/240 252/262/240
f 254/261/242 253/263/242 251/259/242
f 249/258/243 255/264/243 254/261/243
f 254/261/244 255/264/244 257/265/244
f 254/261/242 256/266/242 253/263/242
f 254/261/244 257/265/244 256/266/244
f 259/267/245 258/268/245 257/265/245
f 258/268/246 260/269/246 257/265/246
f 256/266/247 257/265/247 260/269/247
f 259/267/245 257/265/245 255/264/245
f 258/268/246 261/270/246 260/269/246
f 261/270/248 263/271/248 260/269/248
f 262/272/249 260/269/249 263/271/249
f 256/266/247 260/269/247 262/272/247
f 261/270/248 264/273/248 263/271/248
f 264/273/250 266/274/250 263/271/250
f 265/275/251 263/271/251 266/274/251
f 262/272/249 263/271/249 265/275/249
f 264/273/250 267/276/250 266/274/250
f 267/276/252 269/277/252 266/274/252
f 268/278/253 266/274/253 269/277/253
f 265/275/251 266/274/251 268/278/251
f 267/276/252 270/279/252 269/277/252
f 270/279/254 272/280/254 269/277/254
f 271/281/255 269/277/255 272/280/255
f 268/278/253 269/277/253 271/281/253
f 270/279/254 275/282/254 272/280/254
f 273/283/256 272/280/256 274/284/256
f 271/281/255 272/280/255 273/283/255
f 275/282/257 274/284/257 272/280/257
f 277/285/258 275/282/258 270/279/258
f 277/285/258 276/286/258 275/282/258
f 276/286/259 278/287/259 275/282/259
f 275/282/257 278/287/257 274/284/257
f 278/287/260 279/288/260 280/289/260
f 276/286/259 279/288/259 278/287/259
f 278/287/261 4/1/261 5/8/261
f 278/287/260 280/289/260 4/1/260
f 278/287/261 5/8/261 274/284/261
f 280/289/262 281/290/262 283/291/262
f 282/292/263 281/290/263 280/289/263
f 4/1/1 280/289/1 2/2/1
f 282/292/263 280/289/263 279/288/263
f 280/289/262 283/291/262 2/2/262
f 281/290/264 284/293/264 283/291/264
f 283/294/265 284/293/265 285/295/265
f 2/4/266 283/294/266 285/295/266
f 285/295/267 284/293/267 287/296/267
f 2/4/266 285/295/266 286/297/266
f 286/297/268 285/295/268 287/296/268
f 286/297/268 287/296/268 288/298/268
f 287/296/269 284/293/269 289/299/269
f 288/298/270 287/296/270 289/299/270
f 290/300/271 289/299/271 291/301/271
f 288/298/270 289/299/270 290/300/270
f 289/299/272 284/293/272 291/301/272
f 291/301/273 284/293/273 293/302/273
f 291/301/274 294/303/274 292/304/274
f 290/300/271 291/301/271 292/304/271
f 291/301/274 293/302/274 294/303/274
f 294/303/275 293/302/275 296/305/275
f 297/306/276 294/303/276 295/307/276
f 294/303/275 296/305/275 295/307/275
f 292/304/277 294/303/277 297/306/277
f 292/304/277 297/306/277 301/308/277
f 297/306/278 298/309/278 300/310/278
f 297/306/276 295/307/276 298/309/276
f 301/308/279 297/306/279 299/311/279
f 297/306/278 300/310/278 299/311/278
f 290/300/280 292/304/280 301/308/280
f 290/300/280 301/308/280 303/312/280
f 303/312/281 301/308/281 302/313/281
f 301/308/279 299/311/279 302/313/279
f 305/314/282 304/315/282 303/312/282
f 288/298/283 303/312/283 304/315/284
f 305/314/282 303/312/282 306/316/282
f 288/298/283 290/300/283 303/312/283
f 303/312/281 302/313/281 306/316/281
f 306/316/285 308/317/285 307/318/285
f 309/319/286 306/316/286 307/318/286
f 306/316/285 302/313/285 308/317/285
f 309/319/286 305/314/286 306/316/286
f 7/10/287 305/314/287 309/319/287
f 7/10/287 309/319/287 312/320/287
f 309/319/288 307/318/288 311/321/288
f 312/320/289 309/319/289 310/322/290
f 309/319/288 311/321/288 310/322/288
f 13/323/291 8/11/291 312/320/291
f 8/11/5 7/10/5 312/320/5
f 13/323/291 312/320/291 313/324/291
f 312/320/289 310/322/290 313/324/290
f 13/323/292 313/324/292 314/325/292
f 313/324/293 310/322/293 315/326/293
f 313/324/293 315/326/293 314/325/293
f 315/326/294 310/322/294 311/321/294
f 315/326/295 316/327/295 318/328/295
f 315/326/294 311/321/294 316/327/294
f 314/325/296 315/326/296 317/329/296
f 315/326/295 318/328/295 317/329/297
f 316/327/298 319/330/298 318/328/298
f 318/328/299 319/330/299 321/331/299
f 317/329/300 318/328/300 320/332/300
f 318/328/299 321/331/299 320/332/299
f 319/330/301 324/333/301 321/331/301
f 321/331/302 323/334/302 322/335/302
f 325/336/303 321/331/303 322/335/303
f 321/331/302 324/333/302 323/334/302
f 325/336/303 320/332/303 321/331/303
f 187/195/304 327/337/304 325/336/304
f 187/195/304 325/336/304 196/204/304
f 326/338/305 320/332/305 325/336/305
f 326/338/305 325/336/305 327/337/305
f 325/336/306 195/205/306 196/204/306
f 325/336/306 322/335/306 195/205/306
f 183/190/307 328/339/308 327/337/308
f 328/339/309 326/338/309 327/337/309
f 183/190/307 327/337/308 187/195/307
f 181/189/173 328/339/173 183/190/173
f 181/189/310 329/340/310 328/339/310
f 328/339/309 329/340/309 326/338/309
f 330/341/311 332/342/312 329/340/311
f 330/341/311 329/340/311 331/343/313
f 181/189/310 331/343/310 329/340/310
f 332/342/314 326/338/314 329/340/314
f 333/344/315 314/325/315 332/342/315
f 333/344/315 332/342/315 330/341/316
f 314/325/296 317/329/296 332/342/296
f 332/342/314 317/329/314 326/338/314
f 12/17/10 13/18/10 333/345/10
f 13/323/292 314/325/292 333/344/292
f 334/346/317 333/345/317 330/347/318
f 334/346/317 12/17/317 333/345/317
f 16/21/13 12/17/13 334/346/13
f 16/21/319 334/346/319 179/185/319
f 334/346/320 331/348/320 179/185/320
f 334/346/320 330/347/321 331/348/320
f 179/185/171 331/348/171 181/186/171
f 317/329/300 320/332/300 326/338/322
f 319/330/301 335/349/301 324/333/301
f 335/349/323 336/350/323 324/333/323
f 324/333/324 336/350/324 200/209/324
f 324/333/324 200/209/324 323/334/324
f 335/349/323 337/351/325 336/350/323
f 337/351/326 206/214/326 336/350/326
f 336/350/327 206/214/327 202/211/327
f 336/350/327 202/211/327 200/209/327
f 338/352/328 339/353/329 337/351/328
f 338/352/328 337/351/328 335/349/328
f 337/351/330 339/353/330 341/354/330
f 337/351/326 340/355/326 206/214/326
f 337/351/330 341/354/330 340/355/330
f 341/354/331 344/356/331 340/355/332
f 341/354/331 342/357/333 344/356/331
f 341/354/334 343/358/334 342/357/334
f 341/354/334 345/359/334 343/358/334
f 339/353/335 345/359/335 341/354/335
f 339/353/335 346/360/335 345/359/335
f 346/360/336 347/361/337 345/359/336
f 347/361/338 343/358/338 345/359/338
f 346/360/336 351/362/337 347/361/337
f 347/361/339 348/363/339 350/364/339
f 300/310/340 348/363/340 347/361/340
f 300/310/340 347/361/340 351/362/340
f 347/361/338 349/365/338 343/358/338
f 347/361/339 350/364/339 349/365/339
f 299/311/341 300/310/341 351/362/341
f 299/311/341 351/362/341 352/366/341
f 352/366/342 351/362/342 346/360/342
f 308/317/343 352/366/343 353/367/343
f 308/317/344 299/311/344 352/366/344
f 352/366/342 346/360/342 353/367/342
f 308/317/343 353/367/343 354/368/343
f 338/352/345 353/367/345 346/360/345
f 355/369/346 353/367/346 338/352/346
f 355/369/346 354/368/346 353/367/346
f 311/321/347 354/368/347 355/369/347
f 311/321/347 355/369/347 316/327/347
f 319/330/348 355/369/348 338/352/348
f 316/327/298 355/369/298 319/330/298
f 307/318/349 308/317/349 354/368/349
f 307/318/349 354/368/349 311/321/349
f 357/370/350 356/371/350 350/364/350
f 356/371/351 358/372/351 350/364/351
f 357/370/350 350/364/350 348/363/350
f 349/365/352 350/364/352 358/372/352
f 356/371/351 359/373/351 358/372/351
f 359/373/353 361/374/353 358/372/353
f 360/375/354 358/372/354 361/374/354
f 349/365/352 358/372/352 360/375/352
f 359/373/353 362/376/353 361/374/353
f 362/376/355 364/377/355 361/374/355
f 363/378/356 361/374/356 364/377/356
f 360/375/354 361/374/354 363/378/354
f 362/376/355 365/379/355 364/377/355
f 365/379/357 367/380/357 364/377/357
f 364/377/358 368/381/358 366/382/358
f 363/378/356 364/377/356 366/382/356
f 364/377/358 367/380/358 368/381/358
f 367/380/359 369/383/359 368/381/359
f 368/381/360 369/383/360 371/384/360
f 366/382/361 368/381/361 370/385/361
f 368/381/360 371/384/360 370/385/360
f 369/383/362 373/386/362 371/384/362
f 372/387/363 371/384/363 373/386/363
f 374/388/364 371/384/364 372/387/364
f 374/388/364 370/385/364 371/384/364
f 376/389/365 370/385/365 374/388/365
f 375/390/366 374/388/366 372/387/366
f 217/226/367 374/388/367 375/390/367
f 217/226/367 376/389/367 374/388/367
f 376/389/365 377/391/365 370/385/365
f 378/392/368 377/391/368 376/389/368
f 214/224/369 376/389/369 217/226/370
f 214/224/369 378/392/371 376/389/369
f 378/392/368 379/393/368 377/391/368
f 380/394/372 379/393/372 378/392/372
f 215/223/373 378/392/373 214/224/374
f 215/223/373 380/394/373 378/392/373
f 344/356/375 342/357/376 380/394/375
f 344/356/375 380/394/375 215/223/377
f 380/394/372 381/395/372 379/393/372
f 342/357/378 381/395/378 380/394/378
f 349/365/379 360/375/379 381/395/379
f 360/375/380 379/393/380 381/395/380
f 349/365/379 381/395/379 343/358/379
f 342/357/378 343/358/378 381/395/378
f 360/375/380 363/378/381 379/393/380
f 363/378/382 377/391/382 379/393/382
f 363/378/382 366/382/382 377/391/382
f 366/382/361 370/385/361 377/391/361
f 375/390/383 382/396/383 223/232/383
f 375/390/366 372/387/366 382/396/366
f 217/226/209 375/390/209 218/227/209
f 375/390/383 223/232/383 218/227/383
f 382/396/384 372/387/384 384/397/384
f 382/396/385 225/234/385 223/232/385
f 382/396/385 383/398/385 225/234/385
f 382/396/384 384/397/384 383/398/384
f 384/397/386 373/386/386 386/399/386
f 372/387/363 373/386/363 384/397/363
f 383/398/387 384/397/388 385/400/387
f 384/397/386 386/399/386 385/400/386
f 388/401/389 386/399/389 373/386/389
f 388/401/389 387/402/389 386/399/389
f 387/402/390 389/403/390 386/399/390
f 385/400/391 386/399/391 389/403/391
f 385/400/391 389/403/391 391/404/391
f 387/402/390 390/405/390 389/403/390
f 390/405/392 392/406/392 389/403/392
f 391/404/393 389/403/393 392/406/393
f 390/405/392 393/407/392 392/406/392
f 393/407/394 395/408/394 392/406/394
f 394/409/395 392/406/395 395/408/395
f 391/404/393 392/406/393 394/409/393
f 393/407/394 396/410/394 395/408/394
f 396/410/396 398/411/396 395/408/396
f 397/412/397 395/408/397 398/411/397
f 394/409/395 395/408/395 397/412/395
f 396/410/396 399/413/396 398/411/396
f 399/413/398 243/252/398 398/411/398
f 241/250/234 398/411/234 243/252/234
f 397/412/397 398/411/397 241/250/397
f 399/413/399 400/414/399 401/415/399
f 396/410/400 400/414/400 399/413/400
f 399/413/398 246/255/398 243/252/398
f 399/413/399 401/415/399 246/255/399
f 402/416/401 404/417/401 401/415/401
f 402/416/401 401/415/401 400/414/401
f 246/255/402 401/415/402 403/418/402
f 404/417/403 403/418/403 401/415/403
f 402/416/404 405/419/404 404/417/404
f 404/417/405 405/419/405 407/420/405
f 404/417/403 406/421/403 403/418/403
f 404/417/405 407/420/405 406/421/405
f 408/422/406 409/423/406 407/420/406
f 408/422/406 407/420/406 405/419/406
f 407/420/407 409/423/407 411/424/407
f 407/420/408 412/425/408 406/421/408
f 407/420/408 410/426/408 412/425/408
f 407/420/407 411/424/407 410/426/407
f 410/426/409 259/267/409 412/425/409
f 412/425/410 259/267/410 255/264/410
f 406/421/411 412/425/411 413/427/411
f 412/425/410 255/264/410 413/427/410
f 247/256/412 403/418/412 413/427/412
f 406/421/411 413/427/411 403/418/411
f 247/256/412 413/427/412 249/258/412
f 249/258/243 413/427/243 255/264/243
f 411/424/413 284/293/413 414/428/413
f 409/423/414 284/293/414 411/424/414
f 411/424/415 415/429/415 410/426/415
f 411/424/415 414/428/415 415/429/415
f 414/428/416 416/430/416 415/429/416
f 259/267/417 415/429/417 416/430/417
f 410/426/409 415/429/409 259/267/409
f 414/428/416 417/431/416 416/430/416
f 417/431/418 418/432/418 416/430/418
f 416/430/419 261/270/419 258/268/419
f 259/267/417 416/430/417 258/268/417
f 416/430/419 418/432/419 261/270/419
f 417/431/418 419/433/418 418/432/418
f 419/433/420 420/434/420 418/432/420
f 418/432/421 420/434/421 264/273/421
f 418/432/421 264/273/421 261/270/421
f 419/433/420 421/435/420 420/434/420
f 421/435/422 422/436/422 420/434/422
f 264/273/423 420/434/424 422/436/424
f 421/435/422 423/437/422 422/436/422
f 267/276/425 422/436/425 277/285/425
f 264/273/423 422/436/424 267/276/423
f 423/437/426 277/285/426 422/436/426
f 421/435/427 284/293/427 423/437/427
f 423/437/428 284/293/428 424/438/428
f 423/437/426 424/438/426 277/285/426
f 424/438/429 284/293/429 425/439/429
f 277/285/430 424/438/431 425/439/431
f 425/439/432 284/293/432 282/292/432
f 276/286/433 425/439/433 282/292/433
f 277/285/430 425/439/431 276/286/430
f 419/433/434 284/293/434 421/435/434
f 417/431/435 284/293/435 419/433/435
f 414/428/436 284/293/436 417/431/436
f 408/422/437 284/293/437 409/423/437
f 426/440/438 284/293/438 408/422/438
f 427/441/439 408/422/439 405/419/439
f 427/441/439 426/440/439 408/422/439
f 428/442/440 427/441/440 402/416/441
f 429/443/442 427/441/442 428/442/442
f 429/443/442 426/440/442 427/441/442
f 402/416/404 427/441/404 405/419/404
f 430/444/443 429/443/443 428/442/443
f 430/444/444 284/293/444 429/443/444
f 429/443/445 284/293/445 426/440/445
f 430/444/443 428/442/443 431/445/443
f 433/446/446 430/444/446 431/445/446
f 433/446/446 432/447/446 430/444/446
f 432/447/447 284/293/447 430/444/447
f 434/448/448 432/447/448 433/446/448
f 434/448/448 433/446/448 436/449/448
f 435/450/449 433/446/449 431/445/449
f 436/449/450 433/446/450 435/450/450
f 437/451/451 434/448/451 436/449/451
f 437/451/451 436/449/451 439/452/451
f 436/449/450 435/450/450 438/453/450
f 440/454/452 436/449/452 438/453/452
f 440/454/452 439/452/452 436/449/452
f 441/455/453 439/452/453 440/454/453
f 441/455/453 440/454/453 444/456/453
f 440/454/454 438/453/454 443/457/454
f 444/456/455 440/454/455 442/458/455
f 440/454/454 443/457/454 442/458/454
f 446/459/456 441/455/456 444/456/456
f 446/459/457 444/456/457 445/460/457
f 444/456/455 442/458/455 445/460/455
f 365/379/357 446/459/357 367/380/357
f 448/461/458 446/459/458 365/379/458
f 446/459/456 447/462/456 441/455/456
f 448/461/458 447/462/458 446/459/458
f 446/459/457 445/460/457 367/380/457
f 362/376/459 449/463/460 448/461/460
f 449/463/461 450/464/461 448/461/461
f 362/376/459 448/461/460 365/379/459
f 450/464/462 447/462/462 448/461/462
f 449/463/461 452/465/461 450/464/461
f 450/464/463 284/293/463 451/466/463
f 452/465/464 284/293/464 450/464/464
f 450/464/462 451/466/462 447/462/462
f 453/467/465 452/465/465 449/463/465
f 453/467/466 284/293/466 452/465/466
f 455/468/467 453/467/467 454/469/467
f 453/467/465 449/463/465 454/469/465
f 455/468/468 284/293/468 453/467/468
f 457/470/469 455/468/469 456/471/469
f 455/468/467 454/469/467 456/471/467
f 457/470/470 284/293/470 455/468/470
f 296/305/471 284/293/471 457/470/471
f 296/305/472 457/470/472 458/472/472
f 457/470/469 456/471/469 458/472/469
f 357/370/473 458/472/473 456/471/473
f 298/309/474 458/472/474 357/370/474
f 296/305/472 458/472/472 295/307/472
f 298/309/474 295/307/474 458/472/474
f 456/471/475 359/373/475 356/371/475
f 357/370/473 456/471/473 356/371/473
f 456/471/475 454/469/475 359/373/475
f 454/469/476 449/463/476 362/376/476
f 454/469/476 362/376/476 359/373/476
f 451/466/477 284/293/477 459/473/477
f 451/466/478 459/473/478 441/455/478
f 451/466/478 441/455/478 447/462/478
f 459/473/479 284/293/479 437/451/479
f 441/455/480 459/473/481 437/451/480
f 367/380/359 445/460/359 369/383/359
f 369/383/482 445/460/482 442/458/482
f 438/453/483 460/474/483 443/457/483
f 443/457/484 390/405/484 387/402/484
f 388/401/485 443/457/485 387/402/485
f 443/457/484 460/474/484 390/405/484
f 388/401/485 442/458/485 443/457/485
f 438/453/483 435/450/483 460/474/483
f 435/450/486 461/475/486 460/474/486
f 390/405/487 460/474/487 461/475/487
f 435/450/486 462/476/486 461/475/486
f 462/476/488 463/477/488 461/475/488
f 393/407/489 461/475/489 463/477/489
f 390/405/487 461/475/487 393/407/487
f 462/476/488 464/478/488 463/477/488
f 464/478/490 400/414/490 463/477/490
f 396/410/400 463/477/400 400/414/400
f 393/407/489 463/477/489 396/410/489
f 428/442/440 402/416/441 464/478/441
f 462/476/491 428/442/491 464/478/491
f 464/478/490 402/416/490 400/414/490
f 462/476/491 431/445/491 428/442/491
f 435/450/449 431/445/449 462/476/449
f 369/383/482 442/458/482 388/401/482
f 441/455/480 437/451/480 439/452/480
f 437/451/492 284/293/492 434/448/492
f 434/448/493 284/293/493 432/447/493
f 246/255/402 403/418/402 247/256/402
f 237/247/232 397/412/232 241/250/232
f 238/246/494 397/412/494 237/247/495
f 238/246/494 394/409/494 397/412/494
f 465/479/496 391/404/497 394/409/496
f 465/479/496 394/409/496 238/246/498
f 465/479/499 238/246/500 231/240/499
f 466/480/501 465/479/501 229/238/501
f 465/479/499 231/240/499 229/238/502
f 466/480/503 391/404/503 465/479/503
f 466/480/503 385/400/504 391/404/503
f 383/398/387 385/400/387 466/480/387
f 383/398/505 466/480/505 227/236/505
f 466/480/501 229/238/501 227/236/506
f 369/383/362 388/401/362 373/386/362
f 383/398/505 227/236/505 225/234/507
f 298/309/508 357/370/508 348/363/508
f 298/309/508 348/363/508 300/310/508
f 338/352/345 346/360/345 339/353/345
f 344/356/509 215/223/510 208/217/509
f 340/355/511 344/356/512 205/215/511
f 344/356/509 208/217/509 205/215/513
f 340/355/511 205/215/511 206/214/511
f 319/330/348 338/352/348 335/349/348
f 198/207/192 323/334/192 200/209/192
f 195/205/514 323/334/514 198/207/514
f 195/205/514 322/335/514 323/334/514
f 308/317/344 302/313/344 299/311/344
f 3/5/515 304/315/515 305/314/515
f 3/5/515 305/314/515 7/10/515
f 286/297/516 288/298/516 304/315/516
f 286/297/516 304/315/516 3/5/516
f 293/302/517 284/293/517 296/305/517
f 2/4/2 286/297/2 3/5/2
f 282/292/518 284/293/518 281/290/518
f 276/286/433 282/292/433 279/288/433
f 267/276/425 277/285/425 270/279/425
f 273/283/256 274/284/256 10/14/256
f 10/14/8 274/284/8 5/8/8
f 273/283/519 10/14/519 14/16/519
f 271/281/520 273/283/520 467/481/520
f 273/283/519 14/16/519 467/481/519
f 271/281/520 467/481/520 468/482/520
f 17/20/12 467/481/12 14/16/12
f 22/26/521 467/481/521 17/20/521
f 22/26/521 468/482/521 467/481/521
f 268/278/522 271/281/522 468/482/522
f 268/278/522 468/482/522 469/483/522
f 25/29/523 468/482/523 22/26/523
f 25/29/523 469/483/523 468/482/523
f 265/275/524 268/278/524 469/483/524
f 265/275/524 469/483/524 470/484/524
f 26/30/525 469/483/525 25/29/525
f 26/30/525 470/484/525 469/483/525
f 262/272/526 265/275/526 470/484/526
f 262/272/526 470/484/526 471/485/526
f 472/486/527 470/484/527 26/30/527
f 472/486/527 471/485/527 470/484/527
f 34/38/528 473/487/528 472/486/528
f 473/487/529 471/485/529 472/486/529
f 34/38/528 472/486/528 29/33/528
f 29/33/27 472/486/27 26/30/27
f 37/41/530 473/487/530 34/38/530
f 473/487/529 253/263/529 471/485/529
f 37/41/530 252/262/530 473/487/530
f 252/262/241 253/263/241 473/487/241
f 256/266/531 262/272/531 471/485/531
f 256/266/531 471/485/531 253/263/531
f 40/44/532 252/262/532 37/41/532
f 40/44/532 250/260/532 252/262/532
f 43/47/533 250/260/533 40/44/534
f 43/47/533 244/254/533 250/260/533
f 46/50/235 244/254/235 43/47/235
f 234/244/224 235/245/224 52/56/224
f 52/56/44 235/245/44 49/53/44
f 234/244/535 52/56/535 62/66/535
f 232/242/536 234/244/536 474/488/536
f 234/244/535 62/66/535 474/488/535
f 232/242/536 474/488/536 84/88/536
f 64/67/52 474/488/52 62/66/52
f 66/70/537 474/488/537 64/67/537
f 66/70/537 84/88/537 474/488/537
f 82/87/71 232/242/71 84/88/71
f 220/229/538 221/230/538 91/96/538
f 91/96/77 221/230/77 89/94/77
f 211/221/539 220/229/539 95/99/539
f 220/229/538 91/96/538 95/99/538
f 211/221/201 212/222/201 220/229/201
f 209/219/540 211/221/540 98/102/540
f 211/221/539 95/99/539 98/102/539
f 203/213/541 209/219/541 101/105/541
f 209/219/540 98/102/540 101/105/540
f 203/213/541 101/105/541 102/106/541
f 105/109/195 203/213/195 102/106/195
f 187/195/542 196/204/542 192/201/542
f 125/129/543 193/203/543 111/115/543
f 127/131/185 193/203/185 125/129/185
f 187/195/542 192/201/542 186/197/542
f 475/489/544 189/490/544 132/139/544
f 189/198/179 130/134/179 132/136/179
f 475/489/545 184/193/545 189/490/545
f 476/491/546 475/489/546 134/138/546
f 476/491/547 477/492/547 475/489/547
f 475/489/545 477/492/545 184/193/545
f 475/489/544 132/139/544 134/138/544
f 476/491/547 173/180/547 477/492/547
f 176/183/548 180/188/548 477/492/548
f 180/188/175 184/193/175 477/492/175
f 176/183/548 477/492/548 173/180/548
f 476/491/546 134/138/546 137/143/546
f 138/144/549 476/491/549 137/143/549
f 138/144/549 172/179/549 476/491/549
f 172/179/164 173/180/164 476/491/164
f 16/21/319 179/185/319 20/24/319
f 170/176/166 478/493/166 175/181/166
f 23/28/550 19/25/550 175/181/550
f 23/28/550 175/181/550 478/493/550
f 166/172/551 32/36/551 478/493/551
f 27/32/552 478/493/552 32/36/552
f 166/172/551 478/493/551 170/176/551
f 27/32/552 23/28/552 478/493/552
f 140/146/553 172/179/553 138/144/553
f 140/146/553 168/174/553 172/179/553
f 167/175/554 168/174/554 140/146/554
f 164/171/555 167/175/555 142/148/556
f 167/175/554 140/146/554 142/148/554
f 162/168/557 32/36/557 166/172/557
f 164/171/555 142/148/556 144/151/556
f 148/155/558 164/171/558 144/151/558
f 148/155/558 154/162/558 164/171/558
f 162/168/557 31/37/557 32/36/557
f 479/494/559 150/157/559 151/156/559
f 479/494/559 151/156/559 480/495/559
f 72/77/560 151/156/560 147/154/560
f 72/77/561 480/495/561 151/156/561
f 60/64/562 479/494/562 480/495/562
f 60/64/562 480/495/562 481/496/562
f 72/77/563 481/496/563 480/495/563
f 482/497/564 60/64/564 481/496/564
f 72/77/565 482/497/565 481/496/565
f 482/497/564 59/65/564 60/64/564
f 68/72/566 59/65/567 482/497/566
f 72/77/568 68/72/568 482/497/568
f 55/61/569 57/60/569 479/494/569
f 57/60/147 150/157/147 479/494/147
f 55/61/569 479/494/569 60/64/569
f 125/129/543 111/115/543 113/117/543
f 72/77/570 67/73/570 68/72/570
f 68/72/566 63/68/567 59/65/567
f 52/56/43 53/57/43 62/66/43
