# Blender 4.4.1
# www.blender.org
mtllib Block.mtl
o Cube
v 1.000000 -1.000000 -1.000000
v -1.000000 1.000000 1.000000
v -1.000000 1.000000 -1.000000
v -1.000000 -1.000000 -1.000000
v 1.000000 1.000000 -1.000000
v 1.000000 1.000000 1.000000
v -1.000000 -1.000000 1.000000
v 1.000000 -1.000000 1.000000
vn -0.0000 -0.0000 -1.0000
vn -0.0000 1.0000 -0.0000
vn -1.0000 -0.0000 -0.0000
vn -0.0000 -0.0000 1.0000
vn 1.0000 -0.0000 -0.0000
vn -0.0000 -1.0000 -0.0000
vt 0.000100 0.999900
vt 0.999900 0.000100
vt 0.999900 0.999900
vt 0.000100 0.000100
s 0
usemtl Material
f 4/1/1 5/2/1 1/3/1
f 3/1/2 6/2/2 5/3/2
f 4/3/3 2/4/3 3/2/3
f 8/1/4 2/2/4 7/3/4
f 1/1/5 6/2/5 8/3/5
f 7/1/6 1/2/6 8/3/6
f 4/1/1 3/4/1 5/2/1
f 3/1/2 2/4/2 6/2/2
f 4/3/3 7/1/3 2/4/3
f 8/1/4 6/4/4 2/2/4
f 1/1/5 5/4/5 6/2/5
f 7/1/6 4/4/6 1/2/6
