# Blender 4.4.0
# www.blender.org
mtllib Circle.mtl
o 球
v 0.000000 0.195090 -0.980785
v 0.000000 0.000000 -1.000000
v 0.000000 -0.195090 -0.980785
v 0.191342 0.195090 -0.961940
v 0.195090 0.000000 -0.980785
v 0.191342 -0.195090 -0.961940
v 0.544895 0.195090 -0.815493
v 0.555570 0.000000 -0.831469
v 0.544895 -0.195090 -0.815493
v 0.693520 0.195090 -0.693520
v 0.707107 0.000000 -0.707107
v 0.693520 -0.195090 -0.693520
v 0.815493 0.195090 -0.544895
v 0.831470 0.000000 -0.555570
v 0.815493 -0.195090 -0.544895
v 0.961940 0.195090 -0.191342
v 0.980785 0.000000 -0.195090
v 0.961940 -0.195090 -0.191342
v 0.980785 0.195090 0.000000
v 1.000000 0.000000 0.000000
v 0.980785 -0.195090 0.000000
v 0.961940 0.195090 0.191342
v 0.980785 0.000000 0.195090
v 0.961940 -0.195090 0.191342
v 0.815493 0.195090 0.544895
v 0.831469 0.000000 0.555570
v 0.815493 -0.195090 0.544895
v 0.693520 0.195090 0.693520
v 0.707106 0.000000 0.707107
v 0.693520 -0.195090 0.693520
v 0.544895 0.195090 0.815493
v 0.555570 0.000000 0.831469
v 0.544895 -0.195090 0.815493
v 0.191342 0.195090 0.961939
v 0.195090 0.000000 0.980785
v 0.191342 -0.195090 0.961939
v -0.000000 0.195090 0.980785
v -0.000000 0.000000 0.999999
v -0.000000 -0.195090 0.980785
v -0.191342 0.195090 0.961939
v -0.195091 0.000000 0.980785
v -0.191342 -0.195090 0.961939
v -0.544895 0.195090 0.815493
v -0.555570 0.000000 0.831469
v -0.544895 -0.195090 0.815493
v -0.693520 0.195090 0.693520
v -0.707106 0.000000 0.707106
v -0.693520 -0.195090 0.693520
v -0.815493 0.195090 0.544895
v -0.831469 0.000000 0.555569
v -0.815493 -0.195090 0.544895
v -0.961939 0.195090 0.191341
v -0.980784 0.000000 0.195090
v -0.961939 -0.195090 0.191341
v -0.980785 0.195090 -0.000000
v -0.999999 0.000000 -0.000000
v -0.980785 -0.195090 -0.000000
v -0.961939 0.195090 -0.191342
v -0.980784 0.000000 -0.195091
v -0.961939 -0.195090 -0.191342
v -0.815493 0.195090 -0.544895
v -0.831468 0.000000 -0.555570
v -0.815493 -0.195090 -0.544895
v -0.693519 0.195090 -0.693520
v -0.707106 0.000000 -0.707106
v -0.693519 -0.195090 -0.693520
v -0.544895 0.195090 -0.815493
v -0.555569 0.000000 -0.831469
v -0.544895 -0.195090 -0.815493
v -0.191341 0.195090 -0.961939
v -0.195090 0.000000 -0.980784
v -0.191341 -0.195090 -0.961939
vn 0.0975 0.0975 -0.9904
vn 0.0975 -0.0976 -0.9904
vn 0.6314 0.0975 -0.7693
vn 0.6314 -0.0975 -0.7693
vn 0.7693 0.0975 -0.6314
vn 0.7693 -0.0975 -0.6314
vn 0.9904 0.0975 -0.0975
vn 0.9904 -0.0975 -0.0975
vn 0.9904 0.0975 0.0976
vn 0.9904 -0.0975 0.0976
vn 0.7693 -0.0975 0.6314
vn 0.7693 0.0975 0.6314
vn 0.6314 0.0975 0.7693
vn 0.6314 -0.0975 0.7693
vn 0.0975 0.0975 0.9904
vn 0.0975 -0.0975 0.9904
vn -0.0976 0.0975 0.9904
vn -0.0975 -0.0975 0.9904
vn -0.6314 0.0975 0.7693
vn -0.6314 -0.0975 0.7693
vn -0.7693 0.0975 0.6314
vn -0.7693 -0.0975 0.6314
vn -0.9904 0.0975 0.0975
vn -0.9904 -0.0975 0.0976
vn -0.9904 -0.0975 -0.0976
vn -0.9904 0.0975 -0.0975
vn -0.7693 0.0975 -0.6314
vn -0.7693 -0.0975 -0.6314
vn -0.6314 0.0975 -0.7693
vn -0.6314 -0.0975 -0.7693
vn -0.0976 0.0975 -0.9904
vn -0.0976 -0.0975 -0.9904
vn 0.0975 0.0976 -0.9904
vn 0.0975 -0.0975 -0.9904
vn -0.0975 0.0975 0.9904
vn -0.0976 -0.0975 0.9904
vn -0.9904 0.0975 0.0976
vn -0.9904 -0.0975 0.0975
vn -0.9904 -0.0975 -0.0975
vn -0.9904 0.0975 -0.0976
vt 0.750000 0.562500
vt 0.718750 0.500000
vt 0.750000 0.500000
vt 0.718750 0.437500
vt 0.750000 0.437500
vt 0.656250 0.500000
vt 0.625000 0.562500
vt 0.625000 0.500000
vt 0.625000 0.437500
vt 0.656250 0.437500
vt 0.593750 0.562500
vt 0.593750 0.500000
vt 0.593750 0.437500
vt 0.531250 0.500000
vt 0.500000 0.562500
vt 0.500000 0.500000
vt 0.500000 0.437500
vt 0.531250 0.437500
vt 0.468750 0.562500
vt 0.468750 0.500000
vt 0.468750 0.437500
vt 0.406250 0.500000
vt 0.375000 0.437500
vt 0.406250 0.437500
vt 0.375000 0.562500
vt 0.375000 0.500000
vt 0.343750 0.562500
vt 0.343750 0.500000
vt 0.343750 0.437500
vt 0.281250 0.500000
vt 0.250000 0.562500
vt 0.250000 0.500000
vt 0.250000 0.437500
vt 0.281250 0.437500
vt 0.218750 0.562500
vt 0.218750 0.500000
vt 0.218750 0.437500
vt 0.156250 0.500000
vt 0.125000 0.562500
vt 0.125000 0.500000
vt 0.125000 0.437500
vt 0.156250 0.437500
vt 0.093750 0.562500
vt 0.093750 0.500000
vt 0.093750 0.437500
vt 0.031250 0.500000
vt 0.000000 0.562500
vt 0.000000 0.500000
vt 0.000000 0.437500
vt 0.031250 0.437500
vt 1.000000 0.500000
vt 0.968750 0.437500
vt 1.000000 0.437500
vt 0.968750 0.562500
vt 0.968750 0.500000
vt 0.906250 0.500000
vt 0.875000 0.562500
vt 0.875000 0.500000
vt 0.875000 0.437500
vt 0.906250 0.437500
vt 0.843750 0.562500
vt 0.843750 0.500000
vt 0.843750 0.437500
vt 0.781250 0.500000
vt 0.781250 0.437500
vt 0.718750 0.562500
vt 0.656250 0.562500
vt 0.531250 0.562500
vt 0.406250 0.562500
vt 0.281250 0.562500
vt 0.156250 0.562500
vt 0.031250 0.562500
vt 1.000000 0.562500
vt 0.906250 0.562500
vt 0.781250 0.562500
s 0
usemtl マテリアル.001
f 1/1/1 5/2/1 2/3/1
f 2/3/2 6/4/2 3/5/2
f 8/6/3 10/7/3 11/8/3
f 8/6/4 12/9/4 9/10/4
f 11/8/5 13/11/5 14/12/5
f 11/8/6 15/13/6 12/9/6
f 17/14/7 19/15/7 20/16/7
f 17/14/8 21/17/8 18/18/8
f 20/16/9 22/19/9 23/20/9
f 20/16/10 24/21/10 21/17/10
f 26/22/11 30/23/11 27/24/11
f 26/22/12 28/25/12 29/26/12
f 29/26/13 31/27/13 32/28/13
f 29/26/14 33/29/14 30/23/14
f 35/30/15 37/31/15 38/32/15
f 35/30/16 39/33/16 36/34/16
f 38/32/17 40/35/17 41/36/17
f 38/32/18 42/37/18 39/33/18
f 44/38/19 46/39/19 47/40/19
f 44/38/20 48/41/20 45/42/20
f 47/40/21 49/43/21 50/44/21
f 47/40/22 51/45/22 48/41/22
f 53/46/23 55/47/23 56/48/23
f 53/46/24 57/49/24 54/50/24
f 56/51/25 60/52/25 57/53/25
f 56/51/26 58/54/26 59/55/26
f 62/56/27 64/57/27 65/58/27
f 62/56/28 66/59/28 63/60/28
f 65/58/29 67/61/29 68/62/29
f 65/58/30 69/63/30 66/59/30
f 71/64/31 1/1/31 2/3/31
f 71/64/32 3/5/32 72/65/32
f 1/1/33 4/66/33 5/2/33
f 2/3/34 5/2/34 6/4/34
f 8/6/3 7/67/3 10/7/3
f 8/6/4 11/8/4 12/9/4
f 11/8/5 10/7/5 13/11/5
f 11/8/6 14/12/6 15/13/6
f 17/14/7 16/68/7 19/15/7
f 17/14/8 20/16/8 21/17/8
f 20/16/9 19/15/9 22/19/9
f 20/16/10 23/20/10 24/21/10
f 26/22/11 29/26/11 30/23/11
f 26/22/12 25/69/12 28/25/12
f 29/26/13 28/25/13 31/27/13
f 29/26/14 32/28/14 33/29/14
f 35/30/15 34/70/15 37/31/15
f 35/30/16 38/32/16 39/33/16
f 38/32/35 37/31/35 40/35/35
f 38/32/36 41/36/36 42/37/36
f 44/38/19 43/71/19 46/39/19
f 44/38/20 47/40/20 48/41/20
f 47/40/21 46/39/21 49/43/21
f 47/40/22 50/44/22 51/45/22
f 53/46/37 52/72/37 55/47/37
f 53/46/38 56/48/38 57/49/38
f 56/51/39 59/55/39 60/52/39
f 56/51/40 55/73/40 58/54/40
f 62/56/27 61/74/27 64/57/27
f 62/56/28 65/58/28 66/59/28
f 65/58/29 64/57/29 67/61/29
f 65/58/30 68/62/30 69/63/30
f 71/64/31 70/75/31 1/1/31
f 71/64/32 2/3/32 3/5/32
