# Blender 4.4.0
# www.blender.org
mtllib LineCircle.mtl
o 円柱.001
v 0.168778 0.000000 -0.848503
v 0.331069 0.000000 -0.799272
v 0.480638 0.000000 -0.719326
v 0.719326 0.000000 -0.480638
v 0.799272 0.000000 -0.331069
v 0.848503 0.000000 -0.168778
v 0.848503 0.000000 0.168778
v 0.799272 0.000000 0.331069
v 0.719326 0.000000 0.480638
v 0.480638 0.000000 0.719326
v 0.331069 0.000000 0.799272
v 0.168778 0.000000 0.848503
v -0.168778 0.000000 0.848503
v -0.331069 0.000000 0.799272
v -0.480638 0.000000 0.719326
v -0.719326 0.000000 0.480638
v -0.799272 0.000000 0.331069
v -0.848503 0.000000 0.168778
v -0.848503 0.000000 -0.168778
v -0.799272 0.000000 -0.331069
v -0.719326 0.000000 -0.480638
v -0.480638 0.000000 -0.719326
v -0.331069 0.000000 -0.799272
v -0.168778 0.000000 -0.848503
v 0.195090 0.000000 -0.980785
v 0.382683 0.000000 -0.923879
v 0.555570 0.000000 -0.831470
v 0.831470 0.000000 -0.555570
v 0.923879 0.000000 -0.382683
v 0.980785 0.000000 -0.195090
v 0.980785 0.000000 0.195090
v 0.923879 0.000000 0.382683
v 0.831470 0.000000 0.555570
v 0.555570 0.000000 0.831470
v 0.382683 0.000000 0.923879
v 0.195090 0.000000 0.980785
v -0.195090 0.000000 0.980785
v -0.382683 0.000000 0.923879
v -0.555570 0.000000 0.831470
v -0.831470 0.000000 0.555570
v -0.923879 0.000000 0.382683
v -0.980785 0.000000 0.195090
v -0.980785 0.000000 -0.195090
v -0.923879 0.000000 -0.382683
v -0.831470 0.000000 -0.555570
v -0.555570 0.000000 -0.831470
v -0.382683 0.000000 -0.923879
v -0.195090 0.000000 -0.980785
vn -0.0000 1.0000 -0.0000
vt 0.000000 0.000000
vt 0.471731 0.341844
vt 0.449553 0.383337
vt 0.383337 0.449553
vt 0.341844 0.471731
vt 0.296822 0.485388
vt 0.158156 0.471731
vt 0.116663 0.449553
vt 0.050447 0.383337
vt 0.028269 0.341844
vt 0.014612 0.296822
vt 0.014612 0.203178
vt 0.028269 0.158156
vt 0.050447 0.116663
vt 0.116663 0.050447
vt 0.158156 0.028269
vt 0.203178 0.014612
vt 0.296822 0.014612
vt 0.341844 0.028269
vt 0.383337 0.050447
vt 0.449553 0.116663
vt 0.471731 0.158156
vt 0.485388 0.203178
vt 0.485388 0.296822
vt 0.203178 0.485388
s 0
usemtl マテリアル.001
f 6/1/1 29/2/1 5/1/1
f 5/1/1 28/3/1 4/1/1
f 2/1/1 27/4/1 26/5/1
f 2/1/1 25/6/1 1/1/1
f 24/1/1 47/7/1 23/1/1
f 23/1/1 46/8/1 22/1/1
f 20/1/1 45/9/1 44/10/1
f 20/1/1 43/11/1 19/1/1
f 17/1/1 42/12/1 41/13/1
f 17/1/1 40/14/1 16/1/1
f 14/1/1 39/15/1 38/16/1
f 14/1/1 37/17/1 13/1/1
f 11/1/1 36/18/1 35/19/1
f 11/1/1 34/20/1 10/1/1
f 8/1/1 33/21/1 32/22/1
f 8/1/1 31/23/1 7/1/1
f 6/1/1 30/24/1 29/2/1
f 5/1/1 29/2/1 28/3/1
f 2/1/1 3/1/1 27/4/1
f 2/1/1 26/5/1 25/6/1
f 24/1/1 48/25/1 47/7/1
f 23/1/1 47/7/1 46/8/1
f 20/1/1 21/1/1 45/9/1
f 20/1/1 44/10/1 43/11/1
f 17/1/1 18/1/1 42/12/1
f 17/1/1 41/13/1 40/14/1
f 14/1/1 15/1/1 39/15/1
f 14/1/1 38/16/1 37/17/1
f 11/1/1 12/1/1 36/18/1
f 11/1/1 35/19/1 34/20/1
f 8/1/1 9/1/1 33/21/1
f 8/1/1 32/22/1 31/23/1
