# Blender 4.4.0
# www.blender.org
o 円錐.001
v 0.000000 0.249441 -0.166671
v 0.000000 0.277164 -0.114805
v 0.032516 0.249441 -0.163469
v -0.032516 0.249441 -0.163468
v -0.041385 0.212132 -0.208056
v 0.000000 0.212132 -0.212132
v 0.041385 0.212132 -0.208056
v 0.000000 0.166671 -0.249441
v -0.048663 0.166671 -0.244648
v -0.095457 0.166671 -0.230453
v -0.054072 0.114805 -0.271838
v -0.057402 0.058527 -0.288582
v 0.000000 0.114805 -0.277164
v -0.106066 0.114805 -0.256066
v -0.112599 0.058527 -0.271838
v -0.114805 -0.000000 -0.277164
v -0.163469 0.058527 -0.244648
v -0.166671 -0.000000 -0.249441
v -0.163469 -0.058527 -0.244648
v -0.112599 -0.058527 -0.271838
v -0.212132 -0.000000 -0.212132
v -0.208056 0.058527 -0.208056
v -0.208056 -0.058527 -0.208056
v -0.249440 -0.000000 -0.166671
v -0.244648 0.058527 -0.163469
v -0.271838 0.058527 -0.112599
v -0.244648 -0.058527 -0.163469
v -0.277163 -0.000000 -0.114805
v -0.294235 -0.000000 -0.058527
v -0.271838 -0.058527 -0.112599
v -0.256066 -0.114805 -0.106066
v -0.230453 -0.114805 -0.153984
v -0.288582 -0.058527 -0.057403
v -0.300000 0.000000 0.000000
v -0.271838 -0.114805 -0.054072
v -0.294236 -0.058527 0.000000
v -0.294235 0.000000 0.058527
v -0.277164 -0.114805 0.000000
v -0.288582 -0.058527 0.057402
v -0.277164 0.000000 0.114805
v -0.271838 -0.114805 0.054072
v -0.271838 -0.058527 0.112599
v -0.249441 0.000000 0.166671
v -0.256066 -0.114805 0.106066
v -0.244648 -0.058527 0.163469
v -0.212132 0.000000 0.212132
v -0.208056 -0.058527 0.208056
v -0.230453 -0.114805 0.153984
v -0.195984 -0.114805 0.195984
v -0.207402 -0.166671 0.138582
v -0.176381 -0.166671 0.176381
v -0.138582 -0.166671 0.207402
v -0.150000 -0.212132 0.150000
v -0.176381 -0.212132 0.117854
v -0.138582 -0.249441 0.092597
v -0.195984 -0.212132 0.081179
v -0.153984 -0.249441 0.063782
v -0.117854 -0.249441 0.117854
v -0.081179 -0.277164 0.081179
v -0.095457 -0.277164 0.063782
v -0.092597 -0.249441 0.138582
v -0.117854 -0.212132 0.176381
v -0.063782 -0.277164 0.095457
v -0.063782 -0.249441 0.153984
v -0.043934 -0.277164 0.106066
v -0.032516 -0.249441 0.163469
v -0.022397 -0.294236 0.054072
v -0.032516 -0.294236 0.048664
v -0.022397 -0.277164 0.112599
v -0.011418 -0.294236 0.057403
v 0.000000 -0.277164 0.114805
v 0.000000 -0.300000 0.000000
v 0.000000 -0.294236 0.058527
v 0.011418 -0.294236 0.057403
v 0.022397 -0.294236 0.054072
v 0.022397 -0.277164 0.112599
v 0.043934 -0.277164 0.106066
v 0.032516 -0.249441 0.163469
v 0.063782 -0.249441 0.153984
v 0.000000 -0.249441 0.166671
v 0.000000 -0.212132 0.212132
v 0.000000 -0.166671 0.249441
v 0.048664 -0.166671 0.244648
v -0.041385 -0.212132 0.208056
v 0.041385 -0.212132 0.208056
v 0.095457 -0.166671 0.230453
v 0.081179 -0.212132 0.195984
v 0.092597 -0.249441 0.138582
v 0.138582 -0.166671 0.207403
v 0.117854 -0.212132 0.176381
v 0.150000 -0.212132 0.150000
v 0.117854 -0.249441 0.117854
v 0.081179 -0.277164 0.081179
v 0.138582 -0.249441 0.092597
v 0.176381 -0.212132 0.117854
v 0.095457 -0.277164 0.063782
v 0.153984 -0.249441 0.063782
v 0.195984 -0.212132 0.081179
v 0.106066 -0.277164 0.043934
v 0.163469 -0.249441 0.032516
v 0.208056 -0.212132 0.041385
v 0.212132 -0.212132 0.000000
v 0.112599 -0.277164 0.022397
v 0.166671 -0.249441 0.000000
v 0.208056 -0.212132 -0.041385
v 0.114805 -0.277164 0.000000
v 0.163469 -0.249441 -0.032516
v 0.112599 -0.277164 -0.022397
v 0.153984 -0.249441 -0.063782
v 0.195984 -0.212132 -0.081179
v 0.138582 -0.249441 -0.092597
v 0.106066 -0.277164 -0.043934
v 0.095457 -0.277164 -0.063782
v 0.054072 -0.294236 -0.022397
v 0.048664 -0.294236 -0.032516
v 0.057403 -0.294236 -0.011418
v 0.058527 -0.294236 0.000000
v 0.057403 -0.294236 0.011418
v 0.054072 -0.294236 0.022397
v 0.048664 -0.294236 0.032516
v 0.041385 -0.294236 0.041385
v 0.032516 -0.294236 0.048664
v 0.063782 -0.277164 0.095457
v 0.041385 -0.294236 -0.041385
v 0.081179 -0.277164 -0.081179
v 0.032516 -0.294236 -0.048664
v 0.063782 -0.277164 -0.095457
v 0.043934 -0.277164 -0.106066
v 0.022397 -0.294236 -0.054072
v 0.022397 -0.277164 -0.112599
v 0.011418 -0.294236 -0.057403
v 0.000000 -0.277164 -0.114805
v 0.000000 -0.294236 -0.058527
v -0.022397 -0.277164 -0.112599
v -0.011418 -0.294236 -0.057402
v -0.022397 -0.294236 -0.054072
v -0.043934 -0.277164 -0.106066
v -0.063782 -0.277164 -0.095457
v -0.032516 -0.294236 -0.048663
v -0.081179 -0.277164 -0.081179
v -0.041385 -0.294236 -0.041385
v -0.095457 -0.277164 -0.063782
v -0.048664 -0.294236 -0.032516
v -0.106066 -0.277164 -0.043934
v -0.054072 -0.294236 -0.022397
v -0.057403 -0.294236 -0.011418
v -0.058527 -0.294236 0.000000
v -0.112599 -0.277164 -0.022397
v -0.114805 -0.277164 0.000000
v -0.112599 -0.277164 0.022397
v -0.057403 -0.294236 0.011418
v -0.166671 -0.249441 0.000000
v -0.212132 -0.212132 0.000000
v -0.163469 -0.249441 -0.032516
v -0.208056 -0.212132 -0.041385
v -0.163469 -0.249441 0.032516
v -0.208056 -0.212132 0.041385
v -0.244648 -0.166671 0.048663
v -0.230453 -0.166671 0.095457
v -0.249441 -0.166671 0.000000
v -0.244648 -0.166671 -0.048664
v -0.230453 -0.166671 -0.095457
v -0.195984 -0.212132 -0.081179
v -0.153984 -0.249441 -0.063782
v -0.176381 -0.212132 -0.117854
v -0.207402 -0.166671 -0.138582
v -0.138582 -0.249441 -0.092597
v -0.117854 -0.249441 -0.117854
v -0.150000 -0.212132 -0.150000
v -0.176381 -0.166671 -0.176381
v -0.117854 -0.212132 -0.176381
v -0.092597 -0.249441 -0.138582
v -0.081179 -0.212132 -0.195984
v -0.138582 -0.166671 -0.207402
v -0.153984 -0.114805 -0.230453
v -0.095457 -0.166671 -0.230453
v -0.106066 -0.114805 -0.256066
v -0.054072 -0.114805 -0.271838
v -0.057402 -0.058527 -0.288582
v -0.048663 -0.166671 -0.244648
v 0.000000 -0.114805 -0.277164
v 0.000000 -0.166671 -0.249441
v 0.048664 -0.166671 -0.244648
v 0.000000 -0.212132 -0.212132
v 0.041385 -0.212132 -0.208056
v 0.081179 -0.212132 -0.195984
v 0.095457 -0.166671 -0.230453
v 0.032516 -0.249441 -0.163468
v 0.000000 -0.249441 -0.166671
v 0.063782 -0.249441 -0.153984
v 0.092597 -0.249441 -0.138582
v 0.117854 -0.212132 -0.176381
v 0.117854 -0.249441 -0.117854
v 0.150000 -0.212132 -0.150000
v 0.176381 -0.166671 -0.176381
v 0.138582 -0.166671 -0.207403
v 0.176381 -0.212132 -0.117854
v 0.207403 -0.166671 -0.138582
v 0.230453 -0.166671 -0.095457
v 0.256066 -0.114805 -0.106066
v 0.244648 -0.166671 -0.048664
v 0.271838 -0.114805 -0.054072
v 0.249441 -0.166671 0.000000
v 0.277164 -0.114805 0.000000
v 0.294236 -0.058527 0.000000
v 0.288582 -0.058527 -0.057403
v 0.271838 -0.114805 0.054072
v 0.288582 -0.058527 0.057403
v 0.244648 -0.166671 0.048664
v 0.256066 -0.114805 0.106066
v 0.230453 -0.166671 0.095457
v 0.230453 -0.114805 0.153984
v 0.271838 -0.058527 0.112599
v 0.277164 0.000000 0.114805
v 0.294236 0.000000 0.058527
v 0.244648 -0.058527 0.163469
v 0.249441 0.000000 0.166671
v 0.208056 -0.058527 0.208056
v 0.195984 -0.114805 0.195984
v 0.207402 -0.166671 0.138582
v 0.176381 -0.166671 0.176381
v 0.153984 -0.114805 0.230453
v 0.163469 -0.058527 0.244648
v 0.106066 -0.114805 0.256066
v 0.112599 -0.058527 0.271838
v 0.054072 -0.114805 0.271838
v 0.057403 -0.058527 0.288582
v 0.000000 -0.114805 0.277164
v 0.000000 -0.058527 0.294236
v -0.054072 -0.114805 0.271838
v -0.057403 -0.058527 0.288582
v -0.048664 -0.166671 0.244648
v -0.106066 -0.114805 0.256066
v -0.095457 -0.166671 0.230453
v -0.153984 -0.114805 0.230453
v -0.112599 -0.058527 0.271838
v -0.114805 0.000000 0.277164
v -0.058527 0.000000 0.294236
v -0.163469 -0.058527 0.244648
v -0.166671 0.000000 0.249441
v -0.163469 0.058527 0.244648
v -0.208056 0.058527 0.208056
v -0.195984 0.114805 0.195984
v -0.244648 0.058527 0.163469
v -0.230453 0.114805 0.153984
v -0.176381 0.166671 0.176381
v -0.207402 0.166671 0.138582
v -0.256066 0.114805 0.106066
v -0.230453 0.166671 0.095457
v -0.271838 0.058527 0.112599
v -0.271838 0.114805 0.054072
v -0.288582 0.058527 0.057402
v -0.277164 0.114805 -0.000000
v -0.244648 0.166671 0.048663
v -0.208056 0.212132 0.041385
v -0.249441 0.166671 -0.000000
v -0.212132 0.212132 -0.000000
v -0.166671 0.249441 -0.000000
v -0.163469 0.249441 0.032516
v -0.208056 0.212132 -0.041385
v -0.163469 0.249441 -0.032516
v -0.244648 0.166671 -0.048664
v -0.195984 0.212132 -0.081179
v -0.153984 0.249441 -0.063782
v -0.230453 0.166671 -0.095457
v -0.176381 0.212132 -0.117854
v -0.138582 0.249441 -0.092597
v -0.207402 0.166671 -0.138582
v -0.150000 0.212132 -0.150000
v -0.117854 0.249441 -0.117854
v -0.176381 0.166671 -0.176381
v -0.117854 0.212132 -0.176381
v -0.138582 0.166671 -0.207402
v -0.081179 0.212132 -0.195984
v -0.092597 0.249441 -0.138582
v -0.063782 0.277164 -0.095457
v -0.081179 0.277164 -0.081179
v -0.063782 0.249441 -0.153984
v -0.043934 0.277164 -0.106066
v -0.022397 0.277164 -0.112599
v -0.011418 0.294236 -0.057402
v -0.022397 0.294236 -0.054072
v 0.000000 0.294236 -0.058527
v 0.000000 0.300000 -0.000000
v 0.011418 0.294236 -0.057403
v 0.022397 0.277164 -0.112599
v 0.022397 0.294236 -0.054072
v 0.043934 0.277164 -0.106066
v 0.032516 0.294236 -0.048664
v 0.063782 0.277164 -0.095457
v 0.041385 0.294236 -0.041385
v 0.081179 0.277164 -0.081179
v 0.048664 0.294236 -0.032516
v 0.095457 0.277164 -0.063782
v 0.106066 0.277164 -0.043934
v 0.054072 0.294236 -0.022397
v 0.138582 0.249441 -0.092597
v 0.153984 0.249441 -0.063782
v 0.176381 0.212132 -0.117854
v 0.195984 0.212132 -0.081179
v 0.117854 0.249441 -0.117854
v 0.150000 0.212132 -0.150000
v 0.092597 0.249441 -0.138582
v 0.063782 0.249441 -0.153984
v 0.081179 0.212132 -0.195984
v 0.117854 0.212132 -0.176381
v 0.138582 0.166671 -0.207403
v 0.176381 0.166671 -0.176381
v 0.095457 0.166671 -0.230453
v 0.106066 0.114805 -0.256066
v 0.153984 0.114805 -0.230453
v 0.048664 0.166671 -0.244648
v 0.054072 0.114805 -0.271838
v 0.057403 0.058527 -0.288582
v 0.112599 0.058527 -0.271838
v 0.163469 0.058527 -0.244648
v 0.114805 -0.000000 -0.277164
v 0.166671 -0.000000 -0.249441
v 0.212132 -0.000000 -0.212132
v 0.163469 -0.058527 -0.244648
v 0.208056 -0.058527 -0.208056
v 0.195984 -0.114805 -0.195984
v 0.230453 -0.114805 -0.153984
v 0.244648 -0.058527 -0.163469
v 0.153984 -0.114805 -0.230453
v 0.112599 -0.058527 -0.271838
v 0.106066 -0.114805 -0.256066
v 0.054072 -0.114805 -0.271838
v 0.057403 -0.058527 -0.288582
v 0.000000 -0.000000 -0.300000
v 0.000000 -0.058527 -0.294236
v 0.058527 -0.000000 -0.294236
v 0.000000 0.058527 -0.294236
v -0.058527 -0.000000 -0.294235
v 0.249441 -0.000000 -0.166671
v 0.271838 -0.058527 -0.112599
v 0.277164 -0.000000 -0.114805
v 0.244648 0.058527 -0.163469
v 0.271838 0.058527 -0.112599
v 0.294236 -0.000000 -0.058527
v 0.288582 0.058527 -0.057403
v 0.294236 0.058527 -0.000000
v 0.277164 0.114805 -0.000000
v 0.300000 0.000000 0.000000
v 0.271838 0.114805 -0.054072
v 0.256066 0.114805 -0.106066
v 0.244648 0.166671 -0.048664
v 0.208056 0.212132 -0.041385
v 0.249441 0.166671 -0.000000
v 0.212132 0.212132 -0.000000
v 0.230453 0.166671 -0.095457
v 0.207403 0.166671 -0.138582
v 0.230453 0.114805 -0.153984
v 0.195984 0.114805 -0.195984
v 0.208056 0.058527 -0.208056
v 0.166671 0.249441 -0.000000
v 0.163469 0.249441 -0.032516
v 0.208056 0.212132 0.041385
v 0.163469 0.249441 0.032516
v 0.244648 0.166671 0.048664
v 0.195984 0.212132 0.081179
v 0.153984 0.249441 0.063782
v 0.230453 0.166671 0.095457
v 0.176381 0.212132 0.117854
v 0.138582 0.249441 0.092597
v 0.207402 0.166671 0.138582
v 0.150000 0.212132 0.150000
v 0.176381 0.166671 0.176381
v 0.138582 0.166671 0.207403
v 0.195984 0.114805 0.195984
v 0.153984 0.114805 0.230453
v 0.163469 0.058527 0.244648
v 0.106066 0.114805 0.256066
v 0.208056 0.058527 0.208056
v 0.212132 0.000000 0.212132
v 0.244648 0.058527 0.163469
v 0.230453 0.114805 0.153984
v 0.271838 0.058527 0.112599
v 0.256066 0.114805 0.106066
v 0.288582 0.058527 0.057403
v 0.271838 0.114805 0.054072
v 0.166671 0.000000 0.249441
v 0.114805 0.000000 0.277164
v 0.112599 0.058527 0.271838
v 0.057403 0.058527 0.288582
v 0.054072 0.114805 0.271838
v 0.048664 0.166671 0.244648
v 0.095457 0.166671 0.230453
v 0.000000 0.114805 0.277164
v 0.000000 0.166671 0.249441
v 0.000000 0.058527 0.294236
v -0.054072 0.114805 0.271838
v -0.048664 0.166671 0.244648
v -0.057403 0.058527 0.288582
v -0.106066 0.114805 0.256066
v -0.095457 0.166671 0.230453
v -0.112599 0.058527 0.271838
v -0.153984 0.114805 0.230453
v -0.138582 0.166671 0.207402
v -0.117854 0.212132 0.176381
v -0.150000 0.212132 0.150000
v -0.092597 0.249441 0.138582
v -0.176381 0.212132 0.117854
v -0.117854 0.249441 0.117854
v -0.081179 0.277164 0.081179
v -0.138582 0.249441 0.092597
v -0.095457 0.277164 0.063782
v -0.041385 0.294236 0.041385
v -0.048664 0.294236 0.032516
v -0.106066 0.277164 0.043934
v -0.054072 0.294236 0.022397
v -0.153984 0.249441 0.063782
v -0.195984 0.212132 0.081179
v -0.057403 0.294236 0.011418
v -0.112599 0.277164 0.022397
v -0.114805 0.277164 -0.000000
v -0.058527 0.294236 -0.000000
v -0.112599 0.277164 -0.022397
v -0.057403 0.294236 -0.011418
v -0.106066 0.277164 -0.043934
v -0.054072 0.294236 -0.022397
v -0.095457 0.277164 -0.063782
v -0.048664 0.294236 -0.032516
v -0.041385 0.294236 -0.041385
v -0.032516 0.294236 -0.048663
v -0.032516 0.294236 0.048664
v -0.063782 0.277164 0.095457
v -0.043934 0.277164 0.106066
v -0.022397 0.294236 0.054072
v -0.011418 0.294236 0.057403
v -0.022397 0.277164 0.112599
v 0.000000 0.294236 0.058527
v 0.000000 0.277164 0.114805
v 0.011418 0.294236 0.057403
v 0.000000 0.249441 0.166671
v 0.022397 0.277164 0.112599
v 0.022397 0.294236 0.054072
v 0.032516 0.249441 0.163468
v 0.043934 0.277164 0.106066
v 0.063782 0.249441 0.153984
v 0.063782 0.277164 0.095457
v 0.081179 0.212132 0.195984
v 0.041385 0.212132 0.208056
v 0.092597 0.249441 0.138582
v 0.117854 0.212132 0.176381
v 0.117854 0.249441 0.117854
v 0.081179 0.277164 0.081179
v 0.095457 0.277164 0.063782
v 0.106066 0.277164 0.043934
v 0.048664 0.294236 0.032516
v 0.041385 0.294236 0.041385
v 0.054072 0.294236 0.022397
v 0.057403 0.294236 0.011418
v 0.112599 0.277164 0.022397
v 0.058527 0.294236 -0.000000
v 0.114805 0.277164 -0.000000
v 0.057403 0.294236 -0.011418
v 0.112599 0.277164 -0.022397
v 0.032516 0.294236 0.048664
v 0.000000 0.212132 0.212132
v -0.041385 0.212132 0.208056
v -0.032516 0.249441 0.163468
v -0.081179 0.212132 0.195984
v -0.063782 0.249441 0.153984
v 0.000000 0.000000 0.300000
v 0.058527 0.000000 0.294236
v -0.153984 0.114805 -0.230453
v -0.195984 0.114805 -0.195984
v -0.230453 0.114805 -0.153984
v -0.256066 0.114805 -0.106066
v -0.271838 0.114805 -0.054072
v -0.288582 0.058527 -0.057403
v -0.294236 0.058527 -0.000000
v -0.081179 -0.212132 0.195984
v -0.032516 -0.249441 -0.163468
v -0.063782 -0.249441 -0.153984
v -0.041385 -0.212132 -0.208056
v -0.195984 -0.114805 -0.195984
v -0.106066 -0.277164 0.043934
v -0.054072 -0.294236 0.022397
v -0.048664 -0.294236 0.032516
v -0.041385 -0.294236 0.041385
vn -0.0464 0.8810 -0.4709
vn 0.0464 0.8810 -0.4709
vn 0.0624 0.7715 -0.6332
vn -0.0624 0.7715 -0.6332
vn 0.0759 0.6326 -0.7708
vn -0.0759 0.6326 -0.7708
vn -0.2563 0.4696 -0.8448
vn -0.2248 0.6326 -0.7412
vn -0.0865 0.4696 -0.8786
vn -0.0938 0.2890 -0.9527
vn -0.2779 0.2890 -0.9161
vn -0.4513 0.2890 -0.8443
vn -0.2889 0.0975 -0.9524
vn -0.2889 0.0976 -0.9524
vn -0.4691 0.0976 -0.8777
vn -0.4692 0.0976 -0.8777
vn -0.4691 0.0975 -0.8777
vn -0.6314 0.0975 -0.7693
vn -0.4691 -0.0976 -0.8777
vn -0.4692 -0.0976 -0.8777
vn -0.6314 -0.0975 -0.7693
vn -0.4691 -0.0975 -0.8777
vn -0.7693 0.0975 -0.6314
vn -0.7693 -0.0975 -0.6314
vn -0.8777 0.0975 -0.4691
vn -0.8777 -0.0975 -0.4691
vn -0.8777 -0.0975 -0.4692
vn -0.9524 -0.0975 -0.2889
vn -0.9524 0.0975 -0.2889
vn -0.8443 -0.2890 -0.4513
vn -0.9161 -0.2890 -0.2779
vn -0.9904 -0.0975 -0.0976
vn -0.9527 -0.2890 -0.0938
vn -0.9904 -0.0975 0.0976
vn -0.9527 -0.2890 0.0938
vn -0.9524 -0.0975 0.2889
vn -0.9524 -0.0976 0.2889
vn -0.9161 -0.2890 0.2779
vn -0.8777 -0.0976 0.4691
vn -0.8777 -0.0975 0.4691
vn -0.8443 -0.2890 0.4513
vn -0.7693 -0.0975 0.6314
vn -0.7400 -0.2890 0.6073
vn -0.6825 -0.4696 0.5601
vn -0.7786 -0.4696 0.4162
vn -0.4913 -0.6326 0.5987
vn -0.5601 -0.4696 0.6825
vn -0.5987 -0.6326 0.4913
vn -0.4918 -0.7715 0.4036
vn -0.5611 -0.7715 0.2999
vn -0.6831 -0.6326 0.3651
vn -0.4036 -0.7715 0.4918
vn -0.3658 -0.8810 0.3002
vn -0.3002 -0.8810 0.3658
vn -0.2999 -0.7715 0.5611
vn -0.2231 -0.8810 0.4173
vn -0.1374 -0.8810 0.4528
vn -0.1373 -0.8810 0.4528
vn -0.1374 -0.9565 0.2571
vn -0.1374 -0.9565 0.2572
vn -0.0846 -0.9565 0.2790
vn -0.0847 -0.9565 0.2790
vn -0.0286 -0.9565 0.2902
vn -0.0286 -0.9951 0.0942
vn -0.0096 -0.9951 0.0980
vn 0.0096 -0.9951 0.0980
vn 0.0286 -0.9565 0.2902
vn 0.0286 -0.9951 0.0942
vn 0.0847 -0.9565 0.2790
vn 0.0846 -0.9565 0.2790
vn 0.1374 -0.8810 0.4528
vn 0.0464 -0.8810 0.4709
vn -0.0624 -0.7715 0.6332
vn 0.0624 -0.7715 0.6332
vn -0.0464 -0.8810 0.4709
vn 0.0759 -0.6326 0.7708
vn -0.0759 -0.6326 0.7708
vn 0.2248 -0.6326 0.7412
vn 0.1847 -0.7715 0.6088
vn 0.2999 -0.7715 0.5611
vn 0.3651 -0.6326 0.6831
vn 0.4036 -0.7715 0.4918
vn 0.4913 -0.6326 0.5987
vn 0.4918 -0.7715 0.4036
vn 0.3002 -0.8810 0.3658
vn 0.3658 -0.8810 0.3002
vn 0.5611 -0.7715 0.2999
vn 0.4173 -0.8810 0.2231
vn 0.6088 -0.7715 0.1847
vn 0.4528 -0.8810 0.1374
vn 0.6332 -0.7715 0.0624
vn 0.6332 -0.7715 0.0623
vn 0.4709 -0.8810 0.0464
vn 0.4528 -0.8810 0.1373
vn 0.6332 -0.7715 -0.0624
vn 0.4709 -0.8810 -0.0464
vn 0.6088 -0.7715 -0.1847
vn 0.4528 -0.8810 -0.1374
vn 0.5611 -0.7715 -0.2999
vn 0.4173 -0.8810 -0.2231
vn 0.4528 -0.8810 -0.1373
vn 0.2571 -0.9565 -0.1374
vn 0.2572 -0.9565 -0.1374
vn 0.2790 -0.9565 -0.0846
vn 0.0869 -0.9951 -0.0464
vn 0.0942 -0.9951 -0.0286
vn 0.2790 -0.9565 -0.0847
vn 0.0980 -0.9951 -0.0096
vn 0.2902 -0.9565 -0.0286
vn 0.2902 -0.9565 0.0286
vn 0.0980 -0.9951 0.0096
vn 0.2790 -0.9565 0.0846
vn 0.2790 -0.9565 0.0847
vn 0.0942 -0.9951 0.0286
vn 0.2571 -0.9565 0.1374
vn 0.2572 -0.9565 0.1374
vn 0.0869 -0.9951 0.0464
vn 0.2254 -0.9565 0.1850
vn 0.0761 -0.9951 0.0625
vn 0.1850 -0.9565 0.2254
vn 0.0625 -0.9951 0.0761
vn 0.1374 -0.9565 0.2571
vn 0.1374 -0.9565 0.2572
vn 0.0464 -0.9951 0.0869
vn 0.2231 -0.8810 0.4173
vn 0.2254 -0.9565 -0.1850
vn 0.0761 -0.9951 -0.0625
vn 0.1850 -0.9565 -0.2254
vn 0.0625 -0.9951 -0.0761
vn 0.1374 -0.9565 -0.2571
vn 0.1374 -0.9565 -0.2572
vn 0.0464 -0.9951 -0.0869
vn 0.0846 -0.9565 -0.2790
vn 0.0847 -0.9565 -0.2790
vn 0.0286 -0.9951 -0.0942
vn 0.0286 -0.9565 -0.2902
vn 0.0096 -0.9951 -0.0980
vn -0.0286 -0.9565 -0.2902
vn -0.0097 -0.9951 -0.0980
vn -0.0846 -0.9565 -0.2790
vn -0.0286 -0.9951 -0.0942
vn -0.1374 -0.9565 -0.2571
vn -0.1375 -0.9565 -0.2571
vn -0.0464 -0.9951 -0.0869
vn -0.1850 -0.9565 -0.2254
vn -0.0625 -0.9951 -0.0761
vn -0.2254 -0.9565 -0.1850
vn -0.0761 -0.9951 -0.0625
vn -0.0869 -0.9951 -0.0464
vn -0.2571 -0.9565 -0.1374
vn -0.2572 -0.9565 -0.1374
vn -0.0942 -0.9951 -0.0286
vn -0.2790 -0.9565 -0.0846
vn -0.2790 -0.9565 -0.0847
vn -0.2902 -0.9565 -0.0286
vn -0.0980 -0.9951 -0.0096
vn -0.2902 -0.9565 0.0286
vn -0.4709 -0.8810 0.0464
vn -0.4709 -0.8810 -0.0464
vn -0.6332 -0.7715 -0.0624
vn -0.6332 -0.7715 0.0624
vn -0.6332 -0.7715 0.0623
vn -0.4528 -0.8810 0.1374
vn -0.6088 -0.7715 0.1847
vn -0.7412 -0.6326 0.2248
vn -0.7708 -0.6326 0.0759
vn -0.8448 -0.4696 0.2563
vn -0.8786 -0.4696 0.0865
vn -0.8786 -0.4696 -0.0865
vn -0.7708 -0.6326 -0.0759
vn -0.8448 -0.4696 -0.2563
vn -0.8449 -0.4696 -0.2563
vn -0.7412 -0.6326 -0.2248
vn -0.6831 -0.6326 -0.3651
vn -0.5611 -0.7715 -0.2999
vn -0.6088 -0.7715 -0.1847
vn -0.5987 -0.6326 -0.4913
vn -0.4918 -0.7715 -0.4036
vn -0.4913 -0.6326 -0.5987
vn -0.4036 -0.7715 -0.4918
vn -0.2999 -0.7715 -0.5611
vn -0.3651 -0.6326 -0.6831
vn -0.5601 -0.4696 -0.6825
vn -0.4162 -0.4696 -0.7786
vn -0.4513 -0.2890 -0.8443
vn -0.2779 -0.2890 -0.9161
vn -0.2563 -0.4696 -0.8448
vn -0.0938 -0.2890 -0.9527
vn -0.0865 -0.4696 -0.8786
vn 0.0865 -0.4696 -0.8786
vn 0.0759 -0.6326 -0.7708
vn -0.0759 -0.6326 -0.7708
vn 0.2248 -0.6326 -0.7412
vn 0.0624 -0.7715 -0.6332
vn 0.1847 -0.7715 -0.6088
vn 0.0464 -0.8810 -0.4709
vn 0.1373 -0.8810 -0.4528
vn 0.2999 -0.7715 -0.5611
vn 0.2231 -0.8810 -0.4173
vn 0.1374 -0.8810 -0.4528
vn 0.4036 -0.7715 -0.4918
vn 0.3002 -0.8810 -0.3658
vn 0.4913 -0.6326 -0.5987
vn 0.4914 -0.6326 -0.5987
vn 0.5987 -0.6326 -0.4913
vn 0.4918 -0.7715 -0.4036
vn 0.6831 -0.6326 -0.3651
vn 0.5987 -0.6326 -0.4914
vn 0.8448 -0.4696 -0.2563
vn 0.7786 -0.4696 -0.4162
vn 0.7412 -0.6326 -0.2248
vn 0.8786 -0.4696 -0.0865
vn 0.8449 -0.4696 -0.2563
vn 0.7708 -0.6326 -0.0759
vn 0.9527 -0.2890 -0.0938
vn 0.9527 -0.2890 0.0938
vn 0.8786 -0.4696 0.0865
vn 0.9161 -0.2890 0.2779
vn 0.8448 -0.4696 0.2563
vn 0.8449 -0.4696 0.2563
vn 0.7786 -0.4696 0.4162
vn 0.8443 -0.2890 0.4513
vn 0.9524 -0.0976 0.2889
vn 0.8777 -0.0976 0.4691
vn 0.8777 -0.0975 0.4691
vn 0.7693 -0.0975 0.6314
vn 0.7400 -0.2890 0.6073
vn 0.6825 -0.4696 0.5601
vn 0.6073 -0.2890 0.7400
vn 0.5601 -0.4696 0.6825
vn 0.4513 -0.2890 0.8443
vn 0.4162 -0.4696 0.7786
vn 0.2779 -0.2890 0.9161
vn 0.2563 -0.4696 0.8448
vn 0.0938 -0.2890 0.9527
vn 0.0865 -0.4696 0.8786
vn -0.0938 -0.2890 0.9527
vn -0.0865 -0.4696 0.8786
vn -0.2779 -0.2890 0.9161
vn -0.2563 -0.4696 0.8448
vn -0.2563 -0.4696 0.8449
vn -0.4162 -0.4696 0.7786
vn -0.4513 -0.2890 0.8443
vn -0.2889 -0.0976 0.9524
vn -0.4691 -0.0976 0.8777
vn -0.4691 -0.0975 0.8777
vn -0.6314 -0.0975 0.7693
vn -0.6073 -0.2890 0.7400
vn -0.6314 0.0975 0.7693
vn -0.4691 0.0976 0.8777
vn -0.4691 0.0975 0.8777
vn -0.7400 0.2890 0.6073
vn -0.6073 0.2890 0.7400
vn -0.7693 0.0975 0.6314
vn -0.6825 0.4696 0.5601
vn -0.7786 0.4696 0.4162
vn -0.8443 0.2890 0.4513
vn -0.8448 0.4696 0.2563
vn -0.9161 0.2890 0.2779
vn -0.9527 0.2890 0.0938
vn -0.8786 0.4696 0.0865
vn -0.7412 0.6326 0.2248
vn -0.7708 0.6326 0.0759
vn -0.6332 0.7715 0.0624
vn -0.6332 0.7715 0.0623
vn -0.6332 0.7715 -0.0624
vn -0.7708 0.6326 -0.0759
vn -0.6088 0.7715 -0.1847
vn -0.7412 0.6326 -0.2248
vn -0.5611 0.7715 -0.2999
vn -0.6831 0.6326 -0.3651
vn -0.4918 0.7715 -0.4036
vn -0.5987 0.6326 -0.4913
vn -0.4036 0.7715 -0.4918
vn -0.4913 0.6326 -0.5987
vn -0.3651 0.6326 -0.6831
vn -0.2999 0.7715 -0.5611
vn -0.3002 0.8810 -0.3658
vn -0.2231 0.8810 -0.4173
vn -0.1373 0.8810 -0.4528
vn -0.1374 0.8810 -0.4528
vn -0.1847 0.7715 -0.6088
vn -0.0286 0.9565 -0.2902
vn -0.0846 0.9565 -0.2790
vn -0.0097 0.9951 -0.0980
vn 0.0096 0.9951 -0.0980
vn 0.0286 0.9565 -0.2902
vn 0.0286 0.9951 -0.0942
vn 0.0846 0.9565 -0.2790
vn 0.0847 0.9565 -0.2790
vn 0.0464 0.9951 -0.0869
vn 0.1374 0.9565 -0.2571
vn 0.1374 0.9565 -0.2572
vn 0.1850 0.9565 -0.2254
vn 0.0625 0.9951 -0.0761
vn 0.0761 0.9951 -0.0625
vn 0.2254 0.9565 -0.1850
vn 0.2571 0.9565 -0.1374
vn 0.2572 0.9565 -0.1374
vn 0.4173 0.8810 -0.2231
vn 0.3658 0.8810 -0.3002
vn 0.5611 0.7715 -0.2999
vn 0.4918 0.7715 -0.4036
vn 0.3002 0.8810 -0.3658
vn 0.4036 0.7715 -0.4918
vn 0.2999 0.7715 -0.5611
vn 0.2231 0.8810 -0.4173
vn 0.4913 0.6326 -0.5987
vn 0.4914 0.6326 -0.5987
vn 0.3651 0.6326 -0.6831
vn 0.2248 0.6326 -0.7412
vn 0.4162 0.4696 -0.7786
vn 0.2563 0.4696 -0.8448
vn 0.0865 0.4696 -0.8786
vn 0.2563 0.4696 -0.8449
vn 0.0938 0.2890 -0.9527
vn 0.2779 0.2890 -0.9161
vn 0.4513 0.2890 -0.8443
vn 0.4691 0.0976 -0.8777
vn 0.4691 0.0975 -0.8777
vn 0.2889 0.0976 -0.9524
vn 0.4692 0.0976 -0.8777
vn 0.6314 0.0975 -0.7693
vn 0.6314 -0.0975 -0.7693
vn 0.4691 -0.0976 -0.8777
vn 0.4691 -0.0975 -0.8777
vn 0.7693 -0.0975 -0.6314
vn 0.7400 -0.2890 -0.6073
vn 0.6073 -0.2890 -0.7400
vn 0.4162 -0.4696 -0.7786
vn 0.4513 -0.2890 -0.8443
vn 0.5601 -0.4696 -0.6825
vn 0.2563 -0.4696 -0.8448
vn 0.2563 -0.4696 -0.8449
vn 0.2779 -0.2890 -0.9161
vn 0.0938 -0.2890 -0.9527
vn 0.0975 -0.0975 -0.9904
vn 0.0975 -0.0976 -0.9904
vn 0.0976 -0.0975 -0.9904
vn 0.2889 -0.0976 -0.9524
vn 0.0975 0.0975 -0.9904
vn 0.0976 0.0976 -0.9904
vn -0.0976 0.0975 -0.9904
vn -0.2889 -0.0975 -0.9524
vn -0.0976 -0.0975 -0.9904
vn 0.8777 -0.0976 -0.4691
vn 0.8777 -0.0975 -0.4691
vn 0.8443 -0.2890 -0.4513
vn 0.9524 -0.0976 -0.2889
vn 0.9161 -0.2890 -0.2779
vn 0.8777 0.0976 -0.4691
vn 0.8777 0.0975 -0.4691
vn 0.9524 0.0976 -0.2889
vn 0.9904 0.0975 -0.0975
vn 0.9904 0.0976 -0.0975
vn 0.9904 0.0975 -0.0976
vn 0.9527 0.2890 -0.0938
vn 0.9161 0.2890 -0.2779
vn 0.8448 0.4696 -0.2563
vn 0.8449 0.4696 -0.2563
vn 0.8786 0.4696 -0.0865
vn 0.7708 0.6326 -0.0759
vn 0.7412 0.6326 -0.2248
vn 0.6831 0.6326 -0.3651
vn 0.7786 0.4696 -0.4162
vn 0.6825 0.4696 -0.5601
vn 0.5987 0.6326 -0.4913
vn 0.5987 0.6326 -0.4914
vn 0.8443 0.2890 -0.4513
vn 0.7400 0.2890 -0.6073
vn 0.6073 0.2890 -0.7400
vn 0.7693 0.0975 -0.6314
vn 0.5601 0.4696 -0.6825
vn 0.6332 0.7715 -0.0624
vn 0.6332 0.7715 -0.0623
vn 0.6332 0.7715 0.0624
vn 0.7708 0.6326 0.0759
vn 0.6088 0.7715 0.1847
vn 0.7412 0.6326 0.2248
vn 0.5611 0.7715 0.2999
vn 0.6831 0.6326 0.3651
vn 0.4918 0.7715 0.4036
vn 0.5987 0.6326 0.4913
vn 0.4913 0.6326 0.5987
vn 0.4914 0.6326 0.5987
vn 0.5601 0.4696 0.6825
vn 0.6825 0.4696 0.5601
vn 0.4162 0.4696 0.7786
vn 0.4513 0.2890 0.8443
vn 0.6073 0.2890 0.7400
vn 0.7400 0.2890 0.6073
vn 0.6314 0.0975 0.7693
vn 0.7693 0.0975 0.6314
vn 0.8443 0.2890 0.4513
vn 0.8777 0.0976 0.4691
vn 0.8777 0.0975 0.4691
vn 0.9161 0.2890 0.2779
vn 0.9524 0.0976 0.2889
vn 0.9904 0.0975 0.0975
vn 0.9904 0.0975 0.0976
vn 0.9904 0.0976 0.0975
vn 0.9527 0.2890 0.0938
vn 0.8786 0.4696 0.0865
vn 0.8448 0.4696 0.2563
vn 0.8449 0.4696 0.2563
vn 0.7786 0.4696 0.4162
vn 0.6314 -0.0975 0.7693
vn 0.4691 0.0976 0.8777
vn 0.4691 0.0975 0.8777
vn 0.4691 -0.0976 0.8777
vn 0.4691 -0.0975 0.8777
vn 0.4692 -0.0976 0.8777
vn 0.4692 0.0976 0.8777
vn 0.2779 0.2890 0.9161
vn 0.2889 0.0976 0.9524
vn 0.2563 0.4696 0.8448
vn 0.0865 0.4696 0.8786
vn 0.0938 0.2890 0.9527
vn -0.0865 0.4696 0.8786
vn -0.0938 0.2890 0.9527
vn -0.2563 0.4696 0.8448
vn -0.2563 0.4696 0.8449
vn -0.2779 0.2890 0.9161
vn -0.4162 0.4696 0.7786
vn -0.4513 0.2890 0.8443
vn -0.5601 0.4696 0.6825
vn -0.4913 0.6326 0.5987
vn -0.3651 0.6326 0.6831
vn -0.4036 0.7715 0.4918
vn -0.5987 0.6326 0.4913
vn -0.4918 0.7715 0.4036
vn -0.3002 0.8810 0.3658
vn -0.3658 0.8810 0.3002
vn -0.2254 0.9565 0.1850
vn -0.2571 0.9565 0.1374
vn -0.2572 0.9565 0.1374
vn -0.4173 0.8810 0.2231
vn -0.4528 0.8810 0.1374
vn -0.6088 0.7715 0.1847
vn -0.5611 0.7715 0.2999
vn -0.6831 0.6326 0.3651
vn -0.0942 0.9951 0.0286
vn -0.0869 0.9951 0.0464
vn -0.2790 0.9565 0.0846
vn -0.2790 0.9565 0.0847
vn -0.2902 0.9565 0.0286
vn -0.4709 0.8810 0.0464
vn -0.4528 0.8810 0.1373
vn -0.2902 0.9565 -0.0286
vn -0.4709 0.8810 -0.0464
vn -0.2790 0.9565 -0.0846
vn -0.4528 0.8810 -0.1374
vn -0.2790 0.9565 -0.0847
vn -0.2572 0.9565 -0.1374
vn -0.2571 0.9565 -0.1374
vn -0.4173 0.8810 -0.2231
vn -0.3658 0.8810 -0.3002
vn -0.2254 0.9565 -0.1850
vn -0.0869 0.9951 -0.0464
vn -0.0761 0.9951 -0.0625
vn -0.0625 0.9951 -0.0761
vn -0.1850 0.9565 -0.2254
vn -0.0464 0.9951 -0.0868
vn -0.1374 0.9565 -0.2571
vn -0.1375 0.9565 -0.2571
vn -0.0942 0.9951 -0.0286
vn -0.0980 0.9951 -0.0096
vn -0.0980 0.9951 0.0096
vn -0.0761 0.9951 0.0625
vn -0.0625 0.9951 0.0761
vn -0.1850 0.9565 0.2254
vn -0.2231 0.8810 0.4173
vn -0.1374 0.9565 0.2572
vn -0.1374 0.9565 0.2571
vn -0.0846 0.9565 0.2790
vn -0.0847 0.9565 0.2790
vn -0.0286 0.9951 0.0942
vn -0.0464 0.9951 0.0869
vn -0.0286 0.9565 0.2902
vn -0.0096 0.9951 0.0980
vn 0.0286 0.9565 0.2902
vn -0.0464 0.8810 0.4709
vn 0.0464 0.8810 0.4709
vn 0.0847 0.9565 0.2790
vn 0.0846 0.9565 0.2790
vn 0.1373 0.8810 0.4528
vn 0.1374 0.8810 0.4528
vn 0.2231 0.8810 0.4173
vn 0.1847 0.7715 0.6088
vn 0.2999 0.7715 0.5611
vn 0.3002 0.8810 0.3658
vn 0.4036 0.7715 0.4918
vn 0.3658 0.8810 0.3002
vn 0.4173 0.8810 0.2231
vn 0.2571 0.9565 0.1374
vn 0.2572 0.9565 0.1374
vn 0.2254 0.9565 0.1850
vn 0.0761 0.9951 0.0625
vn 0.0869 0.9951 0.0464
vn 0.2790 0.9565 0.0846
vn 0.2790 0.9565 0.0847
vn 0.0942 0.9951 0.0286
vn 0.2902 0.9565 0.0286
vn 0.0980 0.9951 0.0096
vn 0.2902 0.9565 -0.0286
vn 0.0980 0.9951 -0.0096
vn 0.0942 0.9951 -0.0286
vn 0.2790 0.9565 -0.0846
vn 0.2790 0.9565 -0.0847
vn 0.4709 0.8810 -0.0464
vn 0.4528 0.8810 -0.1374
vn 0.4528 0.8810 -0.1373
vn 0.4709 0.8810 0.0464
vn 0.4528 0.8810 0.1374
vn 0.0625 0.9951 0.0761
vn 0.1850 0.9565 0.2254
vn 0.0464 0.9951 0.0869
vn 0.1374 0.9565 0.2571
vn 0.1374 0.9565 0.2572
vn 0.3651 0.6326 0.6831
vn 0.0624 0.7715 0.6332
vn 0.0759 0.6326 0.7708
vn 0.2248 0.6326 0.7412
vn -0.0624 0.7715 0.6332
vn -0.0759 0.6326 0.7708
vn -0.1847 0.7715 0.6088
vn -0.2248 0.6326 0.7412
vn -0.2999 0.7715 0.5611
vn -0.1373 0.8810 0.4528
vn -0.1374 0.8810 0.4528
vn 0.0286 0.9951 0.0942
vn 0.0096 0.9951 0.0980
vn -0.2889 0.0976 0.9524
vn -0.0975 0.0975 0.9904
vn -0.0976 0.0975 0.9904
vn -0.0975 0.0976 0.9904
vn -0.0975 -0.0975 0.9904
vn -0.0975 -0.0976 0.9904
vn 0.0975 -0.0975 0.9904
vn -0.0976 -0.0975 0.9904
vn 0.0975 0.0975 0.9904
vn 0.0976 0.0976 0.9904
vn 0.2889 -0.0976 0.9524
vn 0.0976 -0.0976 0.9904
vn 0.6088 0.7715 -0.1847
vn 0.9904 -0.0975 0.0975
vn 0.9904 -0.0976 0.0975
vn 0.9904 -0.0975 -0.0975
vn 0.9904 -0.0975 0.0976
vn 0.9904 -0.0976 -0.0976
vn 0.6825 -0.4696 -0.5601
vn 0.1847 0.7715 -0.6088
vn 0.1374 0.8810 -0.4528
vn 0.0869 0.9951 -0.0464
vn -0.0286 0.9951 -0.0942
vn -0.4162 0.4696 -0.7786
vn -0.5601 0.4696 -0.6825
vn -0.6073 0.2890 -0.7400
vn -0.6825 0.4696 -0.5601
vn -0.7400 0.2890 -0.6073
vn -0.7786 0.4696 -0.4162
vn -0.8443 0.2890 -0.4513
vn -0.8448 0.4696 -0.2563
vn -0.8449 0.4696 -0.2563
vn -0.9161 0.2890 -0.2779
vn -0.9904 0.0975 -0.0976
vn -0.9527 0.2890 -0.0938
vn -0.9904 0.0975 0.0976
vn -0.8786 0.4696 -0.0865
vn -0.9524 0.0975 0.2889
vn -0.9524 0.0976 0.2889
vn -0.8777 0.0976 0.4691
vn -0.8777 0.0975 0.4691
vn -0.3651 -0.6326 0.6831
vn -0.2248 -0.6326 0.7412
vn -0.1847 -0.7715 0.6088
vn 0.5987 -0.6326 0.4913
vn 0.4914 -0.6326 0.5987
vn 0.6831 -0.6326 0.3651
vn 0.7412 -0.6326 0.2248
vn 0.7708 -0.6326 0.0759
vn 0.3651 -0.6326 -0.6831
vn 0.3658 -0.8810 -0.3002
vn -0.0464 -0.8810 -0.4709
vn -0.0624 -0.7715 -0.6332
vn -0.1373 -0.8810 -0.4528
vn -0.1847 -0.7715 -0.6088
vn -0.2248 -0.6326 -0.7412
vn -0.1374 -0.8810 -0.4528
vn -0.2231 -0.8810 -0.4173
vn -0.2889 -0.0976 -0.9524
vn -0.6073 -0.2890 -0.7400
vn -0.6825 -0.4696 -0.5601
vn -0.7400 -0.2890 -0.6073
vn -0.3002 -0.8810 -0.3658
vn -0.3658 -0.8810 -0.3002
vn -0.4173 -0.8810 -0.2231
vn -0.7786 -0.4696 -0.4162
vn -0.4528 -0.8810 -0.1374
vn -0.2790 -0.9565 0.0846
vn -0.2790 -0.9565 0.0847
vn -0.0980 -0.9951 0.0096
vn -0.0942 -0.9951 0.0286
vn -0.2571 -0.9565 0.1374
vn -0.2572 -0.9565 0.1374
vn -0.0869 -0.9951 0.0464
vn -0.2254 -0.9565 0.1850
vn -0.0761 -0.9951 0.0625
vn -0.1850 -0.9565 0.2254
vn -0.0625 -0.9951 0.0761
vn -0.4173 -0.8810 0.2231
vn -0.4528 -0.8810 0.1373
vn -0.0464 -0.9951 0.0869
vt 0.566492 0.693122
vt 0.587147 0.611477
vt 0.612297 0.692825
vt 0.596259 0.424519
vt 0.578676 0.337821
vt 0.625134 0.340494
vt 0.624403 0.241865
vt 0.548768 0.766054
vt 0.606367 0.786824
vt 0.561252 0.261668
vt 0.581364 0.147808
vt 0.506275 0.829739
vt 0.563892 0.876435
vt 0.466598 0.789950
vt 0.448004 0.878965
vt 0.417415 0.823403
vt 0.377784 0.907245
vt 0.491676 0.947885
vt 0.362363 0.843497
vt 0.351482 0.793067
vt 0.304739 0.849813
vt 0.305391 0.797613
vt 0.305929 0.755461
vt 0.247273 0.842035
vt 0.259392 0.791930
vt 0.343761 0.752206
vt 0.306394 0.720605
vt 0.268169 0.751229
vt 0.338192 0.718210
vt 0.334069 0.689220
vt 0.306797 0.691220
vt 0.274660 0.717355
vt 0.307161 0.665164
vt 0.279590 0.688462
vt 0.283359 0.663606
vt 0.243389 0.708822
vt 0.252493 0.682014
vt 0.307471 0.642874
vt 0.286275 0.641393
vt 0.259482 0.658515
vt 0.307745 0.622724
vt 0.288555 0.621502
vt 0.264896 0.637477
vt 0.307991 0.604335
vt 0.290347 0.603348
vt 0.269115 0.618431
vt 0.308210 0.587317
vt 0.291754 0.586522
vt 0.272405 0.600942
vt 0.308409 0.571347
vt 0.292848 0.570709
vt 0.274968 0.584646
vt 0.276939 0.569268
vt 0.260264 0.566950
vt 0.257454 0.581583
vt 0.262355 0.552899
vt 0.242315 0.563388
vt 0.238743 0.576874
vt 0.222439 0.557982
vt 0.213009 0.581918
vt 0.218369 0.569772
vt 0.234068 0.590948
vt 0.225468 0.546426
vt 0.195016 0.559305
vt 0.199389 0.549975
vt 0.244966 0.550336
vt 0.227620 0.534984
vt 0.202781 0.540545
vt 0.204971 0.531055
vt 0.228894 0.523646
vt 0.206228 0.521631
vt 0.173868 0.530751
vt 0.175702 0.524608
vt 0.176948 0.518408
vt 0.206848 0.512219
vt 0.177442 0.512134
vt 0.131861 0.511622
vt 0.177189 0.505847
vt 0.175984 0.499627
vt 0.206332 0.502827
vt 0.205158 0.493439
vt 0.227950 0.489708
vt 0.229155 0.501078
vt 0.229485 0.512363
vt 0.248331 0.512545
vt 0.264894 0.499386
vt 0.265063 0.512635
vt 0.247976 0.524991
vt 0.248107 0.500078
vt 0.264183 0.485980
vt 0.247176 0.487492
vt 0.225900 0.478222
vt 0.245521 0.474690
vt 0.262877 0.472271
vt 0.222902 0.466565
vt 0.242891 0.461522
vt 0.218847 0.454703
vt 0.199890 0.474531
vt 0.239513 0.447981
vt 0.213714 0.442659
vt 0.195747 0.465151
vt 0.235030 0.433873
vt 0.206990 0.430177
vt 0.190166 0.455865
vt 0.229218 0.419035
vt 0.221802 0.403363
vt 0.198597 0.417411
vt 0.183451 0.446578
vt 0.212397 0.386772
vt 0.188148 0.404401
vt 0.175228 0.437521
vt 0.175477 0.391348
vt 0.165426 0.428992
vt 0.200182 0.368884
vt 0.159350 0.378297
vt 0.153699 0.421133
vt 0.139507 0.414186
vt 0.137548 0.460172
vt 0.128813 0.458434
vt 0.145510 0.462971
vt 0.152578 0.466675
vt 0.158600 0.471211
vt 0.163700 0.476289
vt 0.168091 0.481702
vt 0.171652 0.487433
vt 0.174214 0.493462
vt 0.203013 0.483985
vt 0.119219 0.458230
vt 0.123185 0.408942
vt 0.109030 0.459755
vt 0.103949 0.406069
vt 0.082003 0.406505
vt 0.098673 0.463362
vt 0.058292 0.411643
vt 0.088376 0.469360
vt 0.032750 0.423344
vt 0.079081 0.477986
vt 0.055604 0.612978
vt 0.028964 0.601673
vt 0.077170 0.544886
vt 0.086859 0.553801
vt 0.097170 0.560034
vt 0.080517 0.618190
vt 0.102754 0.618451
vt 0.107800 0.563770
vt 0.121796 0.615397
vt 0.118091 0.565403
vt 0.138594 0.610098
vt 0.127784 0.565260
vt 0.136687 0.563680
vt 0.152550 0.603212
vt 0.144720 0.560956
vt 0.174266 0.586828
vt 0.151866 0.557315
vt 0.164262 0.595318
vt 0.157967 0.552833
vt 0.182710 0.577851
vt 0.197838 0.606914
vt 0.206112 0.594280
vt 0.220799 0.621089
vt 0.211346 0.637584
vt 0.187581 0.619791
vt 0.228320 0.605533
vt 0.253798 0.596985
vt 0.249119 0.613338
vt 0.243118 0.630967
vt 0.235449 0.650154
vt 0.225617 0.671271
vt 0.199336 0.655237
vt 0.183984 0.674182
vt 0.174630 0.633000
vt 0.212910 0.694789
vt 0.164941 0.693990
vt 0.138936 0.658750
vt 0.158648 0.646160
vt 0.196333 0.721114
vt 0.139176 0.715520
vt 0.174192 0.751200
vt 0.114389 0.670348
vt 0.106559 0.737324
vt 0.215096 0.776408
vt 0.192714 0.820477
vt 0.144436 0.785449
vt 0.160728 0.875368
vt 0.230312 0.905411
vt 0.115482 0.943663
vt 0.044133 0.870853
vt 0.103572 0.824466
vt 0.102475 0.075199
vt 0.098202 0.199911
vt 0.034563 0.156873
vt 0.060042 0.267842
vt 0.001301 0.779041
vt 0.000115 0.252186
vt 0.141675 0.238264
vt 0.047300 0.341901
vt 0.106094 0.288438
vt 0.002201 0.345999
vt 0.084763 0.345853
vt 0.115091 0.354553
vt 0.140003 0.309553
vt 0.165260 0.330152
vt 0.139343 0.365731
vt 0.173687 0.272701
vt 0.196713 0.302669
vt 0.184950 0.350108
vt 0.213925 0.329273
vt 0.226763 0.352765
vt 0.254013 0.341808
vt 0.236611 0.374063
vt 0.261136 0.365858
vt 0.266411 0.387059
vt 0.244321 0.393548
vt 0.285371 0.360985
vt 0.288121 0.383398
vt 0.270508 0.406361
vt 0.290211 0.403646
vt 0.273643 0.424052
vt 0.250262 0.411381
vt 0.291803 0.421965
vt 0.254855 0.427924
vt 0.276031 0.440511
vt 0.309675 0.402558
vt 0.309639 0.421340
vt 0.292976 0.438961
vt 0.309577 0.438554
vt 0.293830 0.454904
vt 0.277806 0.456017
vt 0.258382 0.443451
vt 0.261060 0.458202
vt 0.279059 0.470785
vt 0.294417 0.470051
vt 0.279883 0.485048
vt 0.294779 0.484638
vt 0.280321 0.498978
vt 0.294939 0.498863
vt 0.280393 0.512734
vt 0.294910 0.512903
vt 0.280107 0.526480
vt 0.294695 0.526933
vt 0.279454 0.540374
vt 0.264713 0.525881
vt 0.294290 0.541122
vt 0.263818 0.539259
vt 0.278413 0.554578
vt 0.308913 0.527219
vt 0.308759 0.541513
vt 0.293682 0.555650
vt 0.308592 0.556156
vt 0.323518 0.555995
vt 0.323987 0.571084
vt 0.339946 0.570029
vt 0.341522 0.585472
vt 0.324686 0.586934
vt 0.356709 0.568123
vt 0.359096 0.582832
vt 0.343678 0.601879
vt 0.362409 0.598400
vt 0.346515 0.619503
vt 0.325661 0.603812
vt 0.366726 0.615002
vt 0.326969 0.622028
vt 0.350189 0.638649
vt 0.387695 0.607730
vt 0.394843 0.623574
vt 0.372122 0.632709
vt 0.410124 0.596987
vt 0.418102 0.609935
vt 0.403657 0.640315
vt 0.428190 0.623317
vt 0.415156 0.658339
vt 0.379366 0.652284
vt 0.440741 0.636958
vt 0.429776 0.677643
vt 0.388490 0.673591
vt 0.456401 0.650740
vt 0.448546 0.698269
vt 0.400442 0.697377
vt 0.475505 0.664028
vt 0.473131 0.720343
vt 0.416187 0.724110
vt 0.499374 0.676389
vt 0.437124 0.754323
vt 0.504851 0.742772
vt 0.493921 0.621121
vt 0.513124 0.624887
vt 0.528791 0.686641
vt 0.535189 0.625531
vt 0.560075 0.621482
vt 0.531685 0.560937
vt 0.541825 0.552466
vt 0.521056 0.566700
vt 0.488435 0.516283
vt 0.545288 0.482885
vt 0.535605 0.473459
vt 0.524824 0.466935
vt 0.568020 0.412311
vt 0.542532 0.407117
vt 0.513929 0.462927
vt 0.520186 0.406724
vt 0.503425 0.461164
vt 0.493433 0.461223
vt 0.482479 0.415075
vt 0.499703 0.409762
vt 0.484259 0.462771
vt 0.462364 0.377784
vt 0.468057 0.422065
vt 0.482507 0.364860
vt 0.445712 0.391329
vt 0.420074 0.368572
vt 0.435820 0.349026
vt 0.507828 0.352918
vt 0.455461 0.328558
vt 0.516144 0.283780
vt 0.539424 0.343308
vt 0.481561 0.306574
vt 0.423101 0.300627
vt 0.445434 0.269957
vt 0.477548 0.233429
vt 0.521032 0.192432
vt 0.403123 0.243329
vt 0.426508 0.196800
vt 0.511966 0.068182
vt 0.459840 0.140381
vt 0.386259 0.106516
vt 0.368608 0.174982
vt 0.356559 0.228295
vt 0.308442 0.222643
vt 0.307417 0.167881
vt 0.308933 0.267020
vt 0.269899 0.270950
vt 0.260404 0.228773
vt 0.276614 0.305699
vt 0.244498 0.314204
vt 0.232006 0.282688
vt 0.214724 0.245369
vt 0.190544 0.200554
vt 0.246815 0.176682
vt 0.156522 0.147120
vt 0.226551 0.109929
vt 0.301505 0.000115
vt 0.305626 0.096408
vt 0.196690 0.024996
vt 0.414757 0.011409
vt 0.399733 0.989534
vt 0.303938 0.915856
vt 0.302953 0.999885
vt 0.206481 0.987247
vt 0.309246 0.303325
vt 0.281631 0.335547
vt 0.309454 0.332973
vt 0.341980 0.305317
vt 0.337337 0.335331
vt 0.333960 0.360693
vt 0.309614 0.359358
vt 0.309657 0.382428
vt 0.331222 0.383394
vt 0.353121 0.386952
vt 0.358329 0.365655
vt 0.365479 0.341025
vt 0.383271 0.373712
vt 0.392968 0.352292
vt 0.407715 0.386697
vt 0.398196 0.403535
vt 0.375410 0.393532
vt 0.405777 0.328209
vt 0.374483 0.313512
vt 0.386617 0.281311
vt 0.348107 0.270331
vt 0.432312 0.404835
vt 0.421839 0.417929
vt 0.390643 0.419428
vt 0.413177 0.430903
vt 0.384713 0.434412
vt 0.369325 0.411628
vt 0.406200 0.443546
vt 0.379882 0.448724
vt 0.364551 0.428348
vt 0.400779 0.455792
vt 0.376352 0.462362
vt 0.358083 0.458767
vt 0.360986 0.443895
vt 0.356044 0.472927
vt 0.339801 0.471201
vt 0.341251 0.456373
vt 0.338755 0.485514
vt 0.324405 0.470252
vt 0.325182 0.455076
vt 0.326197 0.439100
vt 0.309498 0.454650
vt 0.343190 0.440805
vt 0.327501 0.422059
vt 0.345693 0.424300
vt 0.329203 0.403606
vt 0.348914 0.406557
vt 0.309405 0.469927
vt 0.323831 0.484865
vt 0.309299 0.484626
vt 0.338092 0.499488
vt 0.323438 0.499113
vt 0.354478 0.486713
vt 0.353584 0.500169
vt 0.337776 0.513289
vt 0.323212 0.513175
vt 0.353210 0.513488
vt 0.337781 0.527077
vt 0.353258 0.526805
vt 0.338127 0.541021
vt 0.323147 0.527226
vt 0.353844 0.540255
vt 0.338836 0.555280
vt 0.323245 0.541440
vt 0.354980 0.553980
vt 0.372518 0.551831
vt 0.374865 0.565019
vt 0.392210 0.548364
vt 0.394967 0.560101
vt 0.378134 0.578681
vt 0.418483 0.552706
vt 0.422370 0.562260
vt 0.398848 0.572142
vt 0.447250 0.540182
vt 0.450745 0.546065
vt 0.455082 0.551654
vt 0.403790 0.584385
vt 0.427690 0.571771
vt 0.382287 0.592846
vt 0.460135 0.556929
vt 0.434396 0.581273
vt 0.442597 0.590591
vt 0.466127 0.561682
vt 0.452109 0.599488
vt 0.473186 0.565620
vt 0.463637 0.607831
vt 0.481174 0.568689
vt 0.477400 0.615234
vt 0.490073 0.570640
vt 0.499816 0.571185
vt 0.510231 0.569988
vt 0.444765 0.534014
vt 0.415351 0.543116
vt 0.413450 0.533506
vt 0.443077 0.527718
vt 0.442169 0.521363
vt 0.412204 0.523918
vt 0.411857 0.514334
vt 0.441826 0.514973
vt 0.442456 0.508600
vt 0.412593 0.504763
vt 0.389080 0.513902
vt 0.443658 0.502264
vt 0.413957 0.495149
vt 0.389631 0.502522
vt 0.391092 0.491051
vt 0.416480 0.485569
vt 0.393333 0.479511
vt 0.370474 0.501145
vt 0.371729 0.488469
vt 0.396535 0.467765
vt 0.373548 0.475606
vt 0.424502 0.466506
vt 0.419956 0.476016
vt 0.430204 0.457136
vt 0.452066 0.484075
vt 0.456719 0.478637
vt 0.448445 0.489940
vt 0.462229 0.473640
vt 0.468641 0.469207
vt 0.437045 0.447844
vt 0.475990 0.465509
vt 0.445452 0.438751
vt 0.455915 0.430116
vt 0.445649 0.496025
vt 0.369891 0.513719
vt 0.370100 0.526282
vt 0.389276 0.525286
vt 0.370954 0.538949
vt 0.390283 0.536755
vt 0.309054 0.513091
vt 0.309182 0.498953
vt 0.396005 0.778625
vt 0.380795 0.741774
vt 0.369645 0.710536
vt 0.361326 0.683540
vt 0.355035 0.659887
vt 0.331001 0.664280
vt 0.328704 0.641979
vt 0.246826 0.537572
vt 0.045067 0.685083
vt 0.000115 0.682452
vt 0.084173 0.679655
vt 0.063073 0.758929
vt 0.231349 0.739817
vt 0.189706 0.568619
vt 0.163146 0.547799
vt 0.167603 0.542438
vt 0.171235 0.536746
s 1
f 4/1/1 2/2/1 1/3/1
f 2/4/2 3/5/2 1/6/2
f 6/7/3 1/6/3 3/5/3
f 5/8/4 4/1/4 1/3/4
f 5/8/4 1/3/4 6/9/4
f 6/7/3 3/5/3 7/10/3
f 8/11/5 6/7/5 7/10/5
f 9/12/6 6/9/6 8/13/6
f 9/12/6 5/8/6 6/9/6
f 10/14/7 9/12/7 11/15/7
f 10/14/8 5/8/8 9/12/8
f 11/15/9 9/12/9 8/13/9
f 10/14/7 11/15/7 14/16/7
f 12/17/10 11/15/10 13/18/10
f 15/19/11 11/15/11 12/17/11
f 11/15/9 8/13/9 13/18/9
f 15/19/11 14/16/11 11/15/11
f 17/20/12 14/16/12 15/19/12
f 16/21/13 15/19/14 12/17/13
f 18/22/15 15/19/15 16/21/16
f 18/22/15 17/20/17 15/19/15
f 21/23/18 17/20/18 18/22/18
f 18/22/19 16/21/20 20/24/19
f 21/23/21 18/22/21 19/25/21
f 18/22/19 20/24/19 19/25/22
f 21/23/18 22/26/18 17/20/18
f 24/27/23 22/26/23 21/23/23
f 24/27/24 21/23/24 23/28/24
f 21/23/21 19/25/21 23/28/21
f 24/27/23 25/29/23 22/26/23
f 26/30/25 25/29/25 24/27/25
f 26/30/25 24/27/25 28/31/25
f 28/31/26 24/27/27 27/32/26
f 24/27/24 23/28/24 27/32/24
f 29/33/28 28/31/28 30/34/28
f 29/33/29 26/30/29 28/31/29
f 28/31/26 27/32/26 30/34/26
f 29/33/28 30/34/28 33/35/28
f 30/34/30 27/32/30 32/36/30
f 33/35/31 30/34/31 31/37/31
f 30/34/30 32/36/30 31/37/30
f 34/38/32 29/33/32 33/35/32
f 34/38/32 33/35/32 36/39/32
f 36/39/33 33/35/33 35/40/33
f 33/35/31 31/37/31 35/40/31
f 37/41/34 34/38/34 36/39/34
f 37/41/34 36/39/34 39/42/34
f 39/42/35 36/39/35 38/43/35
f 36/39/33 35/40/33 38/43/33
f 40/44/36 37/41/36 39/42/36
f 40/44/36 39/42/36 42/45/37
f 42/45/38 39/42/38 41/46/38
f 39/42/35 38/43/35 41/46/35
f 43/47/39 40/44/39 42/45/39
f 43/47/39 42/45/39 45/48/40
f 45/48/41 42/45/41 44/49/41
f 42/45/38 41/46/38 44/49/38
f 46/50/42 43/47/42 45/48/42
f 46/50/42 45/48/42 47/51/42
f 47/51/43 45/48/43 48/52/43
f 45/48/41 44/49/41 48/52/41
f 47/51/43 48/52/43 49/53/43
f 51/54/44 49/53/44 48/52/44
f 50/55/45 48/52/45 44/49/45
f 51/54/44 48/52/44 50/55/44
f 52/56/46 51/54/46 53/57/46
f 52/56/47 49/53/47 51/54/47
f 51/54/48 50/55/48 54/58/48
f 51/54/48 54/58/48 53/57/48
f 58/59/49 53/57/49 54/58/49
f 54/58/50 57/60/50 55/61/50
f 58/59/49 54/58/49 55/61/49
f 54/58/50 56/62/50 57/60/50
f 50/55/51 56/62/51 54/58/51
f 61/63/52 53/57/52 58/59/52
f 58/59/53 55/61/53 60/64/53
f 61/63/54 58/59/54 59/65/54
f 58/59/53 60/64/53 59/65/53
f 61/63/52 62/66/52 53/57/52
f 64/67/55 62/66/55 61/63/55
f 61/63/54 59/65/54 63/68/54
f 65/69/56 61/63/56 63/68/56
f 65/69/56 64/67/56 61/63/56
f 66/70/57 64/67/57 65/69/57
f 66/70/57 65/69/57 69/71/58
f 65/69/59 68/72/59 67/73/60
f 70/74/61 65/69/61 67/73/62
f 65/69/59 63/68/59 68/72/59
f 70/74/61 69/71/61 65/69/61
f 71/75/63 69/71/63 70/74/63
f 71/75/63 70/74/63 73/76/63
f 72/77/64 70/74/64 67/73/64
f 72/77/65 73/76/65 70/74/65
f 72/77/66 74/78/66 73/76/66
f 74/78/67 71/75/67 73/76/67
f 72/77/68 75/79/68 74/78/68
f 74/78/67 76/80/67 71/75/67
f 75/79/69 76/80/70 74/78/69
f 75/79/69 77/81/70 76/80/70
f 79/82/71 76/80/71 77/81/71
f 76/80/72 78/83/72 80/84/72
f 79/82/71 78/83/71 76/80/71
f 76/80/72 80/84/72 71/75/72
f 81/85/73 66/70/73 80/84/73
f 78/83/74 81/85/74 80/84/74
f 80/84/75 69/71/75 71/75/75
f 80/84/75 66/70/75 69/71/75
f 83/86/76 82/87/76 81/85/76
f 82/87/77 84/88/77 81/85/77
f 83/86/76 81/85/76 85/89/76
f 81/85/73 84/88/73 66/70/73
f 78/83/74 85/89/74 81/85/74
f 86/90/78 83/86/78 85/89/78
f 79/82/79 85/89/79 78/83/79
f 86/90/78 85/89/78 87/91/78
f 79/82/79 87/91/79 85/89/79
f 88/92/80 90/93/80 87/91/80
f 88/92/80 87/91/80 79/82/80
f 89/94/81 86/90/81 87/91/81
f 89/94/81 87/91/81 90/93/81
f 92/95/82 91/96/82 90/93/82
f 91/96/83 89/94/83 90/93/83
f 92/95/82 90/93/82 88/92/82
f 94/97/84 91/96/84 92/95/84
f 93/98/85 92/95/85 88/92/85
f 94/97/86 92/95/86 93/98/86
f 94/97/84 95/99/84 91/96/84
f 97/100/87 95/99/87 94/97/87
f 97/100/88 94/97/88 96/101/88
f 94/97/86 93/98/86 96/101/86
f 97/100/87 98/102/87 95/99/87
f 100/103/89 98/102/89 97/100/89
f 100/103/90 97/100/90 99/104/90
f 97/100/88 96/101/88 99/104/88
f 100/103/89 101/105/89 98/102/89
f 102/106/91 101/105/91 100/103/91
f 102/106/91 100/103/91 104/107/92
f 104/107/93 100/103/93 103/108/93
f 100/103/90 99/104/90 103/108/94
f 105/109/95 102/106/95 104/107/95
f 105/109/95 104/107/95 107/110/95
f 107/110/96 104/107/96 106/111/96
f 104/107/93 103/108/93 106/111/93
f 109/112/97 105/109/97 107/110/97
f 109/112/98 107/110/98 108/113/98
f 107/110/96 106/111/96 108/113/96
f 109/112/97 110/114/97 105/109/97
f 111/115/99 110/114/99 109/112/99
f 111/115/100 109/112/100 112/116/100
f 109/112/98 108/113/98 112/116/101
f 113/117/102 112/116/102 114/118/103
f 111/115/100 112/116/100 113/117/100
f 114/118/104 112/116/104 108/113/104
f 113/117/102 114/118/103 115/119/103
f 72/77/105 115/119/105 114/118/105
f 72/77/106 114/118/106 116/120/106
f 114/118/104 108/113/104 116/120/107
f 72/77/108 116/120/108 117/121/108
f 116/120/109 106/111/109 117/121/109
f 116/120/109 108/113/109 106/111/109
f 117/121/110 106/111/110 103/108/110
f 72/77/111 117/121/111 118/122/111
f 117/121/110 103/108/110 118/122/110
f 103/108/112 119/123/112 118/122/113
f 72/77/114 118/122/114 119/123/114
f 103/108/112 99/104/112 119/123/112
f 99/104/115 120/124/116 119/123/116
f 72/77/117 119/123/117 120/124/117
f 99/104/115 96/101/115 120/124/116
f 96/101/118 121/125/118 120/124/118
f 72/77/119 120/124/119 121/125/119
f 96/101/118 93/98/118 121/125/118
f 93/98/120 122/126/120 121/125/120
f 72/77/121 121/125/121 122/126/121
f 93/98/120 123/127/120 122/126/120
f 123/127/122 75/79/123 122/126/123
f 72/77/124 122/126/124 75/79/124
f 123/127/125 88/92/125 79/82/125
f 93/98/85 88/92/85 123/127/85
f 123/127/122 77/81/122 75/79/123
f 123/127/125 79/82/125 77/81/125
f 124/128/126 113/117/126 115/119/126
f 72/77/127 124/128/127 115/119/127
f 124/128/126 125/129/126 113/117/126
f 126/130/128 125/129/128 124/128/128
f 72/77/129 126/130/129 124/128/129
f 126/130/128 127/131/128 125/129/128
f 128/132/130 127/131/130 126/130/130
f 128/132/130 126/130/130 129/133/131
f 72/77/132 129/133/132 126/130/132
f 130/134/133 128/132/133 129/133/134
f 130/134/133 129/133/134 131/135/134
f 72/77/135 131/135/135 129/133/135
f 132/136/136 130/134/136 131/135/136
f 132/136/136 131/135/136 133/137/136
f 72/77/137 133/137/137 131/135/137
f 134/138/138 132/139/138 133/140/138
f 134/138/138 133/140/138 135/141/138
f 72/77/139 135/141/139 133/140/139
f 136/142/140 134/138/140 135/141/140
f 72/77/141 136/142/141 135/141/141
f 136/142/140 137/143/140 134/138/140
f 138/144/142 137/143/142 136/142/143
f 138/144/142 136/142/143 139/145/143
f 72/77/144 139/145/144 136/142/144
f 140/146/145 138/144/145 139/145/145
f 140/146/145 139/145/145 141/147/145
f 72/77/146 141/147/146 139/145/146
f 142/148/147 140/146/147 141/147/147
f 142/148/147 141/147/147 143/149/147
f 72/77/148 143/149/148 141/147/148
f 72/77/149 145/150/149 143/149/149
f 144/151/150 142/148/150 143/149/151
f 144/151/150 143/149/151 145/150/151
f 72/77/152 146/152/152 145/150/152
f 146/152/153 144/151/153 145/150/154
f 149/153/155 146/152/155 147/154/155
f 72/77/156 147/154/156 146/152/156
f 146/152/153 148/155/153 144/151/153
f 149/153/155 148/155/155 146/152/155
f 151/156/157 150/157/157 149/153/157
f 150/157/158 152/158/158 149/153/158
f 151/156/157 149/153/157 147/154/157
f 152/158/159 148/155/159 149/153/159
f 150/157/158 156/159/158 152/158/158
f 152/158/160 153/160/160 155/161/160
f 156/159/161 153/160/161 152/158/162
f 152/158/159 154/162/159 148/155/159
f 152/158/160 155/161/160 154/162/160
f 57/60/163 156/159/163 150/157/163
f 57/60/164 157/163/164 156/159/164
f 156/159/161 157/163/161 153/160/161
f 57/60/164 56/62/164 157/163/164
f 159/164/165 158/165/165 157/163/165
f 158/165/166 153/160/166 157/163/166
f 159/164/165 157/163/165 56/62/165
f 159/164/167 44/49/167 41/46/167
f 50/55/45 44/49/45 159/164/45
f 159/164/167 41/46/167 158/165/167
f 50/55/51 159/164/51 56/62/51
f 158/165/168 41/46/168 38/43/168
f 158/165/166 160/166/166 153/160/166
f 158/165/168 38/43/168 160/166/168
f 160/166/169 38/43/169 35/40/169
f 160/166/170 161/167/170 155/161/170
f 160/166/169 35/40/169 161/167/169
f 160/166/170 155/161/170 153/160/170
f 161/167/171 35/40/172 31/37/171
f 161/167/173 162/168/173 163/169/173
f 161/167/171 31/37/171 162/168/171
f 161/167/173 163/169/173 155/161/173
f 162/168/174 165/170/174 163/169/174
f 164/171/175 163/169/175 165/170/175
f 154/162/176 163/169/176 164/171/176
f 154/162/176 155/161/176 163/169/176
f 162/168/174 166/172/174 165/170/174
f 166/172/177 169/173/177 165/170/177
f 165/170/178 168/174/178 167/175/178
f 164/171/175 165/170/175 167/175/175
f 165/170/178 169/173/178 168/174/178
f 166/172/177 170/176/177 169/173/177
f 170/176/179 171/177/179 169/173/179
f 168/174/180 169/173/180 171/177/180
f 170/176/179 174/178/179 171/177/179
f 172/179/181 171/177/181 173/180/181
f 168/174/180 171/177/180 172/179/180
f 174/178/182 173/180/182 171/177/182
f 170/176/183 175/181/183 174/178/183
f 174/178/184 175/181/184 177/182/184
f 174/178/182 176/183/182 173/180/182
f 174/178/184 177/182/184 176/183/184
f 19/25/185 20/24/185 177/182/185
f 20/24/186 178/184/186 177/182/186
f 19/25/185 177/182/185 175/181/185
f 176/183/187 177/182/187 178/184/187
f 20/24/186 179/185/186 178/184/186
f 179/185/188 181/186/188 178/184/188
f 178/184/189 182/187/189 180/188/189
f 176/183/187 178/184/187 180/188/187
f 178/184/189 181/186/189 182/187/189
f 181/189/190 183/190/190 182/191/190
f 182/191/191 183/190/191 185/192/191
f 180/188/192 182/187/192 184/193/192
f 182/191/191 185/192/191 184/194/191
f 185/192/193 183/190/193 187/195/193
f 184/194/194 185/192/194 188/196/194
f 188/196/195 185/192/195 186/197/195
f 185/192/193 187/195/193 186/197/193
f 184/194/194 188/196/194 189/198/194
f 189/198/196 188/196/196 130/134/196
f 130/134/197 188/196/197 190/199/197
f 188/196/195 186/197/195 190/199/195
f 186/197/198 191/200/198 190/199/198
f 128/132/199 190/199/199 191/200/199
f 130/134/197 190/199/197 128/132/200
f 191/200/201 192/201/201 194/202/201
f 186/197/198 192/201/198 191/200/198
f 127/131/202 191/200/202 193/203/202
f 128/132/199 191/200/199 127/131/199
f 191/200/201 194/202/201 193/203/201
f 196/204/203 194/202/203 192/201/203
f 196/204/203 195/205/204 194/202/203
f 195/205/205 197/206/205 194/202/205
f 193/203/206 194/202/206 197/206/206
f 193/203/206 197/206/206 111/115/206
f 197/206/207 198/207/207 199/208/207
f 195/205/205 198/207/208 197/206/205
f 111/115/99 197/206/99 110/114/99
f 197/206/207 199/208/207 110/114/207
f 200/209/209 201/210/209 199/208/209
f 198/207/210 200/209/210 199/208/210
f 110/114/211 199/208/211 201/210/211
f 201/210/212 202/211/212 204/212/212
f 200/209/209 202/211/213 201/210/209
f 105/109/214 201/210/214 203/213/214
f 110/114/211 201/210/211 105/109/211
f 201/210/212 204/212/212 203/213/212
f 206/214/215 205/215/215 204/212/215
f 205/215/216 207/216/216 204/212/216
f 206/214/215 204/212/215 202/211/215
f 203/213/217 204/212/217 207/216/217
f 205/215/216 208/217/216 207/216/216
f 208/217/218 210/218/218 207/216/218
f 209/219/219 207/216/220 210/218/219
f 203/213/217 207/216/217 209/219/217
f 208/217/218 213/220/218 210/218/218
f 211/221/221 210/218/221 212/222/221
f 209/219/219 210/218/219 211/221/219
f 213/220/222 212/222/222 210/218/222
f 215/223/223 213/220/223 208/217/223
f 215/223/223 214/224/223 213/220/223
f 214/224/224 216/225/224 213/220/224
f 213/220/222 216/225/222 212/222/222
f 214/224/224 217/226/225 216/225/224
f 217/226/226 218/227/226 216/225/226
f 216/225/227 218/227/227 219/228/227
f 216/225/227 219/228/227 212/222/227
f 220/229/228 212/222/228 219/228/228
f 220/229/228 219/228/228 221/230/228
f 218/227/229 222/231/229 219/228/229
f 221/230/230 219/228/230 222/231/230
f 218/227/229 223/232/229 222/231/229
f 223/232/231 224/233/231 222/231/231
f 89/94/232 222/231/232 224/233/232
f 221/230/230 222/231/230 89/94/230
f 223/232/231 225/234/231 224/233/231
f 225/234/233 226/235/233 224/233/233
f 86/90/234 224/233/234 226/235/234
f 89/94/232 224/233/232 86/90/232
f 225/234/233 227/236/233 226/235/233
f 227/236/235 228/237/235 226/235/235
f 83/86/236 226/235/236 228/237/236
f 86/90/234 226/235/234 83/86/234
f 227/236/235 229/238/235 228/237/235
f 229/238/237 230/239/237 228/237/237
f 82/87/238 228/237/238 230/239/238
f 83/86/236 228/237/236 82/87/236
f 229/238/237 231/240/237 230/239/237
f 231/240/239 233/241/239 230/239/239
f 232/242/240 230/239/241 233/241/240
f 82/87/238 230/239/238 232/242/238
f 231/240/239 236/243/239 233/241/239
f 234/244/242 233/241/242 235/245/242
f 232/242/240 233/241/240 234/244/240
f 236/243/243 235/245/243 233/241/243
f 238/246/244 236/243/244 231/240/244
f 238/246/244 237/247/244 236/243/244
f 237/247/245 239/248/245 236/243/245
f 236/243/243 239/248/243 235/245/243
f 237/247/245 240/249/246 239/248/245
f 240/249/247 47/51/247 239/248/247
f 239/248/248 47/51/248 49/53/248
f 239/248/248 49/53/248 235/245/248
f 240/249/249 241/250/249 242/251/249
f 237/247/250 241/250/250 240/249/251
f 240/249/247 46/50/247 47/51/247
f 240/249/249 242/251/249 46/50/249
f 242/251/252 243/252/252 245/253/252
f 241/250/253 243/252/253 242/251/253
f 46/50/254 242/251/254 244/254/254
f 242/251/252 245/253/252 244/254/252
f 246/255/255 247/256/255 245/253/255
f 246/255/255 245/253/255 243/252/255
f 247/256/256 248/257/256 245/253/256
f 244/254/257 245/253/257 248/257/257
f 247/256/256 249/258/256 248/257/256
f 249/258/258 251/259/258 248/257/258
f 250/260/259 248/257/259 251/259/259
f 244/254/257 248/257/257 250/260/257
f 249/258/258 254/261/258 251/259/258
f 252/262/260 251/259/260 253/263/260
f 250/260/259 251/259/259 252/262/259
f 254/261/261 253/263/261 251/259/261
f 249/258/262 255/264/262 254/261/262
f 254/261/263 255/264/263 257/265/263
f 254/261/261 256/266/261 253/263/261
f 254/261/263 257/265/263 256/266/263
f 259/267/264 258/268/265 257/265/264
f 258/268/266 260/269/266 257/265/266
f 256/266/267 257/265/267 260/269/267
f 259/267/264 257/265/264 255/264/264
f 258/268/266 261/270/266 260/269/266
f 261/270/268 263/271/268 260/269/268
f 262/272/269 260/269/269 263/271/269
f 256/266/267 260/269/267 262/272/267
f 261/270/268 264/273/268 263/271/268
f 264/273/270 266/274/270 263/271/270
f 265/275/271 263/271/271 266/274/271
f 262/272/269 263/271/269 265/275/269
f 264/273/270 267/276/270 266/274/270
f 267/276/272 269/277/272 266/274/272
f 268/278/273 266/274/273 269/277/273
f 265/275/271 266/274/271 268/278/271
f 267/276/272 270/279/272 269/277/272
f 270/279/274 272/280/274 269/277/274
f 271/281/275 269/277/275 272/280/275
f 268/278/273 269/277/273 271/281/273
f 270/279/274 275/282/274 272/280/274
f 273/283/276 272/280/276 274/284/276
f 271/281/275 272/280/275 273/283/275
f 275/282/277 274/284/277 272/280/277
f 277/285/278 275/282/278 270/279/278
f 277/285/278 276/286/278 275/282/278
f 276/286/279 278/287/279 275/282/279
f 275/282/277 278/287/277 274/284/277
f 278/287/280 279/288/281 280/289/280
f 276/286/279 279/288/279 278/287/279
f 278/287/282 4/1/282 5/8/282
f 278/287/280 280/289/280 4/1/280
f 278/287/282 5/8/282 274/284/282
f 280/289/283 281/290/283 283/291/283
f 282/292/284 281/290/284 280/289/284
f 4/1/1 280/289/1 2/2/1
f 282/292/284 280/289/284 279/288/284
f 280/289/283 283/291/283 2/2/283
f 281/290/285 284/293/285 283/291/285
f 283/294/286 284/293/286 285/295/286
f 2/4/287 283/294/287 285/295/287
f 285/295/288 284/293/288 287/296/288
f 2/4/287 285/295/287 286/297/287
f 286/297/289 285/295/290 287/296/290
f 286/297/289 287/296/290 288/298/289
f 287/296/291 284/293/291 289/299/291
f 288/298/292 287/296/293 289/299/293
f 290/300/294 289/299/294 291/301/294
f 288/298/292 289/299/293 290/300/292
f 289/299/295 284/293/295 291/301/295
f 291/301/296 284/293/296 293/302/296
f 291/301/297 294/303/297 292/304/297
f 290/300/294 291/301/294 292/304/294
f 291/301/297 293/302/297 294/303/297
f 294/303/298 293/302/299 296/305/299
f 297/306/300 294/303/300 295/307/300
f 294/303/298 296/305/299 295/307/298
f 292/304/301 294/303/301 297/306/301
f 292/304/301 297/306/301 301/308/301
f 297/306/302 298/309/302 300/310/302
f 297/306/300 295/307/300 298/309/300
f 301/308/303 297/306/303 299/311/303
f 297/306/302 300/310/302 299/311/302
f 290/300/304 292/304/304 301/308/304
f 290/300/304 301/308/304 303/312/304
f 303/312/305 301/308/305 302/313/305
f 301/308/303 299/311/303 302/313/303
f 305/314/306 304/315/306 303/312/306
f 288/298/307 303/312/307 304/315/307
f 305/314/306 303/312/306 306/316/306
f 288/298/307 290/300/307 303/312/307
f 303/312/305 302/313/305 306/316/305
f 306/316/308 308/317/308 307/318/309
f 309/319/310 306/316/310 307/318/310
f 306/316/308 302/313/308 308/317/308
f 309/319/310 305/314/310 306/316/310
f 7/10/311 305/314/311 309/319/311
f 7/10/311 309/319/311 312/320/311
f 309/319/312 307/318/312 311/321/312
f 312/320/313 309/319/313 310/322/313
f 309/319/312 311/321/312 310/322/312
f 13/323/314 8/11/314 312/320/314
f 8/11/5 7/10/5 312/320/5
f 13/323/314 312/320/314 313/324/314
f 312/320/313 310/322/313 313/324/315
f 13/323/316 313/324/316 314/325/316
f 313/324/317 310/322/317 315/326/317
f 313/324/317 315/326/317 314/325/317
f 315/326/318 310/322/318 311/321/318
f 315/326/319 316/327/320 318/328/319
f 315/326/318 311/321/318 316/327/318
f 314/325/321 315/326/321 317/329/321
f 315/326/319 318/328/319 317/329/322
f 316/327/323 319/330/323 318/328/323
f 318/328/324 319/330/324 321/331/324
f 317/329/325 318/328/326 320/332/325
f 318/328/324 321/331/324 320/332/324
f 319/330/327 324/333/327 321/331/327
f 321/331/328 323/334/328 322/335/328
f 325/336/329 321/331/329 322/335/329
f 321/331/328 324/333/328 323/334/328
f 325/336/329 320/332/329 321/331/329
f 187/195/330 327/337/330 325/336/330
f 187/195/330 325/336/330 196/204/330
f 326/338/331 320/332/331 325/336/331
f 326/338/331 325/336/331 327/337/331
f 325/336/332 195/205/332 196/204/332
f 325/336/332 322/335/332 195/205/332
f 183/190/333 328/339/334 327/337/333
f 328/339/335 326/338/335 327/337/335
f 183/190/333 327/337/333 187/195/333
f 181/189/190 328/339/190 183/190/190
f 181/189/336 329/340/336 328/339/336
f 328/339/335 329/340/335 326/338/335
f 330/341/337 332/342/338 329/340/337
f 330/341/337 329/340/337 331/343/339
f 181/189/336 331/343/336 329/340/336
f 332/342/340 326/338/340 329/340/340
f 333/344/341 314/325/342 332/342/341
f 333/344/341 332/342/341 330/341/341
f 314/325/321 317/329/321 332/342/321
f 332/342/340 317/329/340 326/338/340
f 12/17/10 13/18/10 333/345/10
f 13/323/316 314/325/316 333/344/316
f 334/346/343 333/345/343 330/347/343
f 334/346/343 12/17/343 333/345/343
f 16/21/13 12/17/13 334/346/13
f 16/21/344 334/346/344 179/185/344
f 334/346/345 331/348/345 179/185/345
f 334/346/345 330/347/345 331/348/345
f 179/185/188 331/348/188 181/186/188
f 317/329/325 320/332/325 326/338/325
f 319/330/327 335/349/327 324/333/327
f 335/349/346 336/350/346 324/333/347
f 324/333/348 336/350/348 200/209/348
f 324/333/348 200/209/348 323/334/348
f 335/349/346 337/351/346 336/350/346
f 337/351/349 206/214/349 336/350/349
f 336/350/350 206/214/350 202/211/350
f 336/350/350 202/211/350 200/209/350
f 338/352/351 339/353/351 337/351/351
f 338/352/351 337/351/351 335/349/352
f 337/351/353 339/353/353 341/354/353
f 337/351/349 340/355/349 206/214/349
f 337/351/353 341/354/353 340/355/353
f 341/354/354 344/356/354 340/355/355
f 341/354/354 342/357/356 344/356/354
f 341/354/357 343/358/357 342/357/357
f 341/354/357 345/359/357 343/358/357
f 339/353/358 345/359/358 341/354/358
f 339/353/358 346/360/358 345/359/358
f 346/360/359 347/361/359 345/359/360
f 347/361/361 343/358/361 345/359/361
f 346/360/359 351/362/359 347/361/359
f 347/361/362 348/363/362 350/364/362
f 300/310/363 348/363/363 347/361/363
f 300/310/363 347/361/363 351/362/363
f 347/361/361 349/365/361 343/358/361
f 347/361/362 350/364/362 349/365/362
f 299/311/364 300/310/364 351/362/364
f 299/311/364 351/362/364 352/366/364
f 352/366/365 351/362/365 346/360/365
f 308/317/366 352/366/366 353/367/366
f 308/317/367 299/311/367 352/366/368
f 352/366/365 346/360/365 353/367/365
f 308/317/366 353/367/366 354/368/366
f 338/352/369 353/367/369 346/360/369
f 355/369/370 353/367/370 338/352/370
f 355/369/370 354/368/370 353/367/370
f 311/321/371 354/368/371 355/369/371
f 311/321/371 355/369/371 316/327/371
f 319/330/372 355/369/372 338/352/372
f 316/327/323 355/369/323 319/330/323
f 307/318/373 308/317/373 354/368/373
f 307/318/373 354/368/373 311/321/373
f 357/370/374 356/371/375 350/364/374
f 356/371/376 358/372/376 350/364/376
f 357/370/374 350/364/374 348/363/374
f 349/365/377 350/364/377 358/372/377
f 356/371/376 359/373/376 358/372/376
f 359/373/378 361/374/378 358/372/378
f 360/375/379 358/372/379 361/374/379
f 349/365/377 358/372/377 360/375/377
f 359/373/378 362/376/378 361/374/378
f 362/376/380 364/377/380 361/374/380
f 363/378/381 361/374/381 364/377/381
f 360/375/379 361/374/379 363/378/379
f 362/376/380 365/379/380 364/377/380
f 365/379/382 367/380/382 364/377/382
f 364/377/383 368/381/383 366/382/383
f 363/378/381 364/377/381 366/382/381
f 364/377/383 367/380/383 368/381/383
f 367/380/384 369/383/384 368/381/385
f 368/381/386 369/383/386 371/384/386
f 366/382/387 368/381/387 370/385/387
f 368/381/386 371/384/386 370/385/386
f 369/383/388 373/386/388 371/384/388
f 372/387/389 371/384/389 373/386/389
f 374/388/390 371/384/390 372/387/390
f 374/388/390 370/385/390 371/384/390
f 376/389/391 370/385/391 374/388/391
f 375/390/392 374/388/392 372/387/392
f 217/226/393 374/388/393 375/390/393
f 217/226/393 376/389/393 374/388/393
f 376/389/391 377/391/391 370/385/391
f 378/392/394 377/391/394 376/389/394
f 214/224/395 376/389/395 217/226/396
f 214/224/395 378/392/395 376/389/395
f 378/392/394 379/393/394 377/391/394
f 380/394/397 379/393/397 378/392/397
f 215/223/398 378/392/398 214/224/398
f 215/223/398 380/394/398 378/392/398
f 344/356/399 342/357/400 380/394/399
f 344/356/399 380/394/399 215/223/401
f 380/394/397 381/395/397 379/393/397
f 342/357/402 381/395/402 380/394/402
f 349/365/403 360/375/403 381/395/403
f 360/375/404 379/393/404 381/395/405
f 349/365/403 381/395/403 343/358/403
f 342/357/402 343/358/402 381/395/402
f 360/375/404 363/378/404 379/393/404
f 363/378/406 377/391/406 379/393/406
f 363/378/406 366/382/406 377/391/406
f 366/382/387 370/385/387 377/391/387
f 375/390/407 382/396/407 223/232/407
f 375/390/392 372/387/392 382/396/392
f 217/226/226 375/390/226 218/227/226
f 375/390/407 223/232/407 218/227/407
f 382/396/408 372/387/409 384/397/408
f 382/396/410 225/234/410 223/232/411
f 382/396/410 383/398/412 225/234/410
f 382/396/408 384/397/408 383/398/413
f 384/397/414 373/386/414 386/399/414
f 372/387/389 373/386/389 384/397/389
f 383/398/415 384/397/415 385/400/415
f 384/397/414 386/399/414 385/400/414
f 388/401/416 386/399/416 373/386/416
f 388/401/416 387/402/416 386/399/416
f 387/402/417 389/403/417 386/399/417
f 385/400/418 386/399/418 389/403/418
f 385/400/418 389/403/418 391/404/418
f 387/402/417 390/405/417 389/403/417
f 390/405/419 392/406/419 389/403/419
f 391/404/420 389/403/420 392/406/420
f 390/405/419 393/407/419 392/406/419
f 393/407/421 395/408/421 392/406/422
f 394/409/423 392/406/423 395/408/423
f 391/404/420 392/406/420 394/409/420
f 393/407/421 396/410/421 395/408/421
f 396/410/424 398/411/424 395/408/424
f 397/412/425 395/408/425 398/411/425
f 394/409/423 395/408/423 397/412/423
f 396/410/424 399/413/424 398/411/424
f 399/413/426 243/252/426 398/411/426
f 241/250/253 398/411/253 243/252/253
f 397/412/425 398/411/425 241/250/425
f 399/413/427 400/414/427 401/415/427
f 396/410/428 400/414/428 399/413/428
f 399/413/426 246/255/426 243/252/426
f 399/413/427 401/415/427 246/255/427
f 402/416/429 404/417/429 401/415/429
f 402/416/429 401/415/429 400/414/429
f 246/255/430 401/415/430 403/418/430
f 404/417/431 403/418/431 401/415/431
f 402/416/432 405/419/432 404/417/432
f 404/417/433 405/419/433 407/420/433
f 404/417/431 406/421/431 403/418/431
f 404/417/433 407/420/433 406/421/433
f 408/422/434 409/423/434 407/420/434
f 408/422/434 407/420/434 405/419/434
f 407/420/435 409/423/436 411/424/436
f 407/420/437 412/425/437 406/421/437
f 407/420/437 410/426/437 412/425/437
f 407/420/435 411/424/436 410/426/435
f 410/426/438 259/267/438 412/425/438
f 412/425/439 259/267/439 255/264/439
f 406/421/440 412/425/440 413/427/440
f 412/425/439 255/264/439 413/427/439
f 247/256/441 403/418/441 413/427/441
f 406/421/440 413/427/440 403/418/440
f 247/256/441 413/427/441 249/258/441
f 249/258/262 413/427/262 255/264/262
f 411/424/442 284/293/442 414/428/442
f 409/423/443 284/293/443 411/424/443
f 411/424/444 415/429/444 410/426/444
f 411/424/444 414/428/445 415/429/444
f 414/428/446 416/430/446 415/429/446
f 259/267/447 415/429/447 416/430/447
f 410/426/438 415/429/448 259/267/438
f 414/428/446 417/431/446 416/430/446
f 417/431/449 418/432/449 416/430/449
f 416/430/450 261/270/450 258/268/450
f 259/267/447 416/430/447 258/268/447
f 416/430/450 418/432/450 261/270/450
f 417/431/449 419/433/449 418/432/449
f 419/433/451 420/434/451 418/432/451
f 418/432/452 420/434/452 264/273/452
f 418/432/452 264/273/452 261/270/452
f 419/433/451 421/435/453 420/434/451
f 421/435/454 422/436/455 420/434/455
f 264/273/456 420/434/456 422/436/456
f 421/435/454 423/437/454 422/436/455
f 267/276/457 422/436/457 277/285/457
f 264/273/456 422/436/456 267/276/456
f 423/437/458 277/285/458 422/436/458
f 421/435/459 284/293/459 423/437/459
f 423/437/460 284/293/460 424/438/460
f 423/437/458 424/438/458 277/285/458
f 424/438/461 284/293/461 425/439/461
f 277/285/462 424/438/462 425/439/462
f 425/439/463 284/293/463 282/292/463
f 276/286/464 425/439/465 282/292/465
f 277/285/462 425/439/462 276/286/462
f 419/433/466 284/293/466 421/435/466
f 417/431/467 284/293/467 419/433/467
f 414/428/468 284/293/468 417/431/468
f 408/422/469 284/293/469 409/423/469
f 426/440/470 284/293/470 408/422/470
f 427/441/471 408/422/471 405/419/471
f 427/441/471 426/440/471 408/422/471
f 428/442/472 427/441/472 402/416/472
f 429/443/473 427/441/474 428/442/474
f 429/443/473 426/440/473 427/441/474
f 402/416/432 427/441/432 405/419/432
f 430/444/475 429/443/476 428/442/475
f 430/444/477 284/293/477 429/443/477
f 429/443/478 284/293/478 426/440/478
f 430/444/475 428/442/475 431/445/475
f 433/446/479 430/444/479 431/445/479
f 433/446/479 432/447/479 430/444/479
f 432/447/480 284/293/480 430/444/480
f 434/448/481 432/447/481 433/446/481
f 434/448/481 433/446/481 436/449/481
f 435/450/482 433/446/482 431/445/482
f 436/449/483 433/446/483 435/450/483
f 437/451/484 434/448/484 436/449/485
f 437/451/484 436/449/485 439/452/485
f 436/449/483 435/450/483 438/453/483
f 440/454/486 436/449/486 438/453/486
f 440/454/486 439/452/487 436/449/486
f 441/455/488 439/452/488 440/454/488
f 441/455/488 440/454/488 444/456/488
f 440/454/489 438/453/489 443/457/489
f 444/456/490 440/454/490 442/458/490
f 440/454/489 443/457/489 442/458/489
f 446/459/491 441/455/491 444/456/491
f 446/459/492 444/456/492 445/460/492
f 444/456/490 442/458/490 445/460/490
f 365/379/382 446/459/382 367/380/382
f 448/461/493 446/459/493 365/379/493
f 446/459/491 447/462/491 441/455/491
f 448/461/493 447/462/493 446/459/493
f 446/459/492 445/460/492 367/380/492
f 362/376/494 449/463/494 448/461/494
f 449/463/495 450/464/496 448/461/495
f 362/376/494 448/461/494 365/379/494
f 450/464/497 447/462/497 448/461/497
f 449/463/495 452/465/496 450/464/496
f 450/464/498 284/293/498 451/466/498
f 452/465/499 284/293/499 450/464/499
f 450/464/497 451/466/497 447/462/497
f 453/467/500 452/465/501 449/463/500
f 453/467/502 284/293/502 452/465/502
f 455/468/503 453/467/503 454/469/503
f 453/467/500 449/463/500 454/469/500
f 455/468/504 284/293/504 453/467/504
f 457/470/505 455/468/505 456/471/505
f 455/468/503 454/469/503 456/471/503
f 457/470/506 284/293/506 455/468/506
f 296/305/507 284/293/507 457/470/507
f 296/305/508 457/470/509 458/472/508
f 457/470/505 456/471/505 458/472/505
f 357/370/510 458/472/510 456/471/510
f 298/309/511 458/472/511 357/370/511
f 296/305/508 458/472/508 295/307/508
f 298/309/511 295/307/512 458/472/511
f 456/471/513 359/373/513 356/371/513
f 357/370/510 456/471/510 356/371/510
f 456/471/513 454/469/513 359/373/513
f 454/469/514 449/463/514 362/376/514
f 454/469/514 362/376/514 359/373/514
f 451/466/515 284/293/515 459/473/515
f 451/466/516 459/473/516 441/455/516
f 451/466/516 441/455/516 447/462/516
f 459/473/517 284/293/517 437/451/517
f 441/455/518 459/473/519 437/451/519
f 367/380/384 445/460/384 369/383/384
f 369/383/520 445/460/520 442/458/520
f 438/453/521 460/474/521 443/457/521
f 443/457/522 390/405/522 387/402/522
f 388/401/523 443/457/523 387/402/523
f 443/457/522 460/474/522 390/405/522
f 388/401/523 442/458/523 443/457/523
f 438/453/521 435/450/521 460/474/521
f 435/450/524 461/475/524 460/474/524
f 390/405/525 460/474/525 461/475/525
f 435/450/524 462/476/524 461/475/524
f 462/476/526 463/477/526 461/475/526
f 393/407/527 461/475/527 463/477/527
f 390/405/525 461/475/525 393/407/525
f 462/476/526 464/478/526 463/477/526
f 464/478/528 400/414/528 463/477/528
f 396/410/428 463/477/428 400/414/428
f 393/407/527 463/477/527 396/410/527
f 428/442/472 402/416/472 464/478/472
f 462/476/529 428/442/530 464/478/529
f 464/478/528 402/416/528 400/414/528
f 462/476/529 431/445/530 428/442/530
f 435/450/482 431/445/482 462/476/482
f 369/383/520 442/458/520 388/401/520
f 441/455/518 437/451/519 439/452/518
f 437/451/531 284/293/531 434/448/531
f 434/448/532 284/293/532 432/447/532
f 246/255/430 403/418/430 247/256/430
f 237/247/250 397/412/250 241/250/250
f 238/246/533 397/412/533 237/247/533
f 238/246/533 394/409/533 397/412/533
f 465/479/534 391/404/535 394/409/534
f 465/479/534 394/409/534 238/246/536
f 465/479/537 238/246/538 231/240/537
f 466/480/539 465/479/539 229/238/539
f 465/479/537 231/240/537 229/238/540
f 466/480/541 391/404/541 465/479/541
f 466/480/541 385/400/542 391/404/541
f 383/398/415 385/400/415 466/480/415
f 383/398/543 466/480/543 227/236/543
f 466/480/539 229/238/539 227/236/544
f 369/383/388 388/401/388 373/386/388
f 383/398/543 227/236/543 225/234/543
f 298/309/545 357/370/545 348/363/545
f 298/309/545 348/363/545 300/310/545
f 338/352/369 346/360/369 339/353/369
f 344/356/546 215/223/547 208/217/546
f 340/355/548 344/356/548 205/215/548
f 344/356/546 208/217/546 205/215/549
f 340/355/548 205/215/548 206/214/550
f 319/330/372 338/352/372 335/349/372
f 198/207/210 323/334/210 200/209/210
f 195/205/551 323/334/551 198/207/551
f 195/205/551 322/335/551 323/334/551
f 308/317/367 302/313/367 299/311/367
f 3/5/552 304/315/552 305/314/552
f 3/5/552 305/314/552 7/10/552
f 286/297/553 288/298/553 304/315/553
f 286/297/553 304/315/553 3/5/553
f 293/302/554 284/293/554 296/305/554
f 2/4/2 286/297/2 3/5/2
f 282/292/555 284/293/555 281/290/555
f 276/286/464 282/292/465 279/288/464
f 267/276/457 277/285/457 270/279/457
f 273/283/276 274/284/276 10/14/276
f 10/14/8 274/284/8 5/8/8
f 273/283/556 10/14/556 14/16/556
f 271/281/557 273/283/557 467/481/557
f 273/283/556 14/16/556 467/481/556
f 271/281/557 467/481/557 468/482/557
f 17/20/12 467/481/12 14/16/12
f 22/26/558 467/481/558 17/20/558
f 22/26/558 468/482/558 467/481/558
f 268/278/559 271/281/559 468/482/559
f 268/278/559 468/482/559 469/483/559
f 25/29/560 468/482/560 22/26/560
f 25/29/560 469/483/560 468/482/560
f 265/275/561 268/278/561 469/483/561
f 265/275/561 469/483/561 470/484/561
f 26/30/562 469/483/562 25/29/562
f 26/30/562 470/484/562 469/483/562
f 262/272/563 265/275/563 470/484/563
f 262/272/563 470/484/563 471/485/564
f 472/486/565 470/484/565 26/30/565
f 472/486/565 471/485/565 470/484/565
f 34/38/566 473/487/566 472/486/566
f 473/487/567 471/485/567 472/486/567
f 34/38/566 472/486/566 29/33/566
f 29/33/29 472/486/29 26/30/29
f 37/41/568 473/487/568 34/38/568
f 473/487/567 253/263/567 471/485/567
f 37/41/568 252/262/568 473/487/568
f 252/262/260 253/263/260 473/487/260
f 256/266/569 262/272/569 471/485/569
f 256/266/569 471/485/569 253/263/569
f 40/44/570 252/262/570 37/41/570
f 40/44/570 250/260/571 252/262/570
f 43/47/572 250/260/572 40/44/572
f 43/47/572 244/254/573 250/260/572
f 46/50/254 244/254/254 43/47/254
f 234/244/242 235/245/242 52/56/242
f 52/56/47 235/245/47 49/53/47
f 234/244/574 52/56/574 62/66/574
f 232/242/575 234/244/575 474/488/575
f 234/244/574 62/66/574 474/488/574
f 232/242/575 474/488/575 84/88/575
f 64/67/55 474/488/55 62/66/55
f 66/70/576 474/488/576 64/67/576
f 66/70/576 84/88/576 474/488/576
f 82/87/77 232/242/77 84/88/77
f 220/229/577 221/230/577 91/96/577
f 91/96/83 221/230/578 89/94/83
f 211/221/579 220/229/579 95/99/579
f 220/229/577 91/96/577 95/99/577
f 211/221/221 212/222/221 220/229/221
f 209/219/580 211/221/580 98/102/580
f 211/221/579 95/99/579 98/102/579
f 203/213/581 209/219/581 101/105/581
f 209/219/580 98/102/580 101/105/580
f 203/213/581 101/105/581 102/106/581
f 105/109/214 203/213/214 102/106/214
f 187/195/582 196/204/582 192/201/582
f 125/129/583 193/203/583 111/115/583
f 127/131/202 193/203/202 125/129/202
f 187/195/582 192/201/582 186/197/582
f 475/489/584 189/490/584 132/139/584
f 189/198/196 130/134/196 132/136/196
f 475/489/585 184/193/585 189/490/585
f 476/491/586 475/489/586 134/138/586
f 476/491/587 477/492/587 475/489/587
f 475/489/585 477/492/585 184/193/585
f 475/489/584 132/139/584 134/138/584
f 476/491/587 173/180/587 477/492/587
f 176/183/588 180/188/588 477/492/588
f 180/188/192 184/193/192 477/492/192
f 176/183/588 477/492/588 173/180/588
f 476/491/586 134/138/586 137/143/589
f 138/144/590 476/491/590 137/143/590
f 138/144/590 172/179/590 476/491/590
f 172/179/181 173/180/181 476/491/181
f 16/21/344 179/185/344 20/24/591
f 170/176/183 478/493/183 175/181/183
f 23/28/592 19/25/592 175/181/592
f 23/28/592 175/181/592 478/493/592
f 166/172/593 32/36/593 478/493/593
f 27/32/594 478/493/594 32/36/594
f 166/172/593 478/493/593 170/176/593
f 27/32/594 23/28/594 478/493/594
f 140/146/595 172/179/595 138/144/595
f 140/146/595 168/174/595 172/179/595
f 167/175/596 168/174/596 140/146/596
f 164/171/597 167/175/597 142/148/597
f 167/175/596 140/146/596 142/148/596
f 162/168/598 32/36/598 166/172/598
f 164/171/597 142/148/597 144/151/597
f 148/155/599 164/171/599 144/151/599
f 148/155/599 154/162/599 164/171/599
f 162/168/598 31/37/598 32/36/598
f 479/494/600 150/157/600 151/156/600
f 479/494/600 151/156/600 480/495/601
f 72/77/602 151/156/602 147/154/602
f 72/77/603 480/495/603 151/156/603
f 60/64/604 479/494/604 480/495/605
f 60/64/604 480/495/605 481/496/605
f 72/77/606 481/496/606 480/495/606
f 482/497/607 60/64/607 481/496/607
f 72/77/608 482/497/608 481/496/608
f 482/497/607 59/65/607 60/64/607
f 68/72/609 59/65/609 482/497/609
f 72/77/610 68/72/610 482/497/610
f 55/61/611 57/60/611 479/494/611
f 57/60/163 150/157/163 479/494/612
f 55/61/611 479/494/611 60/64/611
f 125/129/583 111/115/583 113/117/583
f 72/77/613 67/73/613 68/72/613
f 68/72/609 63/68/609 59/65/609
f 52/56/46 53/57/46 62/66/46
