# Blender 4.4.0
# www.blender.org
o 平面.001
v 0.250000 -0.216506 0.125000
v 0.250000 0.216506 -0.125000
v -0.250000 -0.216506 0.125000
v -0.250000 0.216506 -0.125000
v 0.250000 -0.216506 0.125000
v 0.250000 0.216506 -0.125000
v -0.250000 -0.216506 0.125000
v -0.250000 0.216506 -0.125000
v 0.250000 -0.216506 0.125000
v 0.250000 0.216506 -0.125000
v -0.250000 -0.216506 0.125000
v -0.250000 0.216506 -0.125000
v 0.250000 -0.216506 0.125000
v 0.250000 0.216506 -0.125000
v -0.250000 -0.216506 0.125000
v -0.250000 0.216506 -0.125000
vn -0.0000 -0.5000 -0.8660
vn -0.0000 0.5000 0.8660
vt 0.000000 1.000000
vt 1.000000 0.000000
vt 0.000000 0.000000
vt 1.000000 1.000000
s 1
f 3/1/1 2/2/1 1/3/1
f 6/2/1 5/3/1 7/1/1
f 3/1/1 4/4/1 2/2/1
f 6/2/1 7/1/1 8/4/1
f 11/1/1 10/2/1 9/3/1
f 14/2/2 15/1/2 13/3/2
f 11/1/1 12/4/1 10/2/1
f 14/2/2 16/4/2 15/1/2
