# Blender 4.4.1
# www.blender.org
mtllib tumbleweed.mtl
o Cube
v 1.000000 1.000000 -1.000000
v 1.000000 -1.000000 -1.000000
v 1.000000 1.000000 1.000000
v 1.000000 -1.000000 1.000000
v -1.000000 1.000000 -1.000000
v -1.000000 -1.000000 -1.000000
v -1.000000 1.000000 1.000000
v -1.000000 -1.000000 1.000000
v -1.219136 -1.219136 -0.000000
v 0.000000 -1.219136 -1.219136
v 1.219136 0.000000 -1.219136
v -1.219136 -0.000000 1.219136
v 1.219136 0.000000 1.219136
v -1.219136 -0.000000 -1.219136
v -0.000000 1.219136 1.219136
v 1.219136 1.219136 0.000000
v -0.000000 -1.219136 1.219136
v -1.219136 1.219136 -0.000000
v 0.000000 1.219136 -1.219136
v 1.219136 -1.219136 0.000000
v -0.000000 1.679013 -0.000000
v 0.000000 0.000000 1.679013
v -1.679013 0.000000 -0.000000
v 0.000000 -1.679013 0.000000
v 1.679013 0.000000 -0.000000
v 0.000000 0.000000 -1.679013
vn 0.3397 0.9004 -0.2717
vn -0.2717 0.9004 -0.3397
vn -0.2717 0.9004 0.3397
vn 0.3397 0.9004 0.2717
vn 0.2717 -0.3397 0.9004
vn 0.3397 0.2717 0.9004
vn -0.3397 0.2717 0.9004
vn -0.2717 -0.3397 0.9004
vn -0.9004 -0.3397 0.2717
vn -0.9004 0.2717 0.3397
vn -0.9004 0.2717 -0.3397
vn -0.9004 -0.3397 -0.2717
vn -0.3397 -0.9004 -0.2717
vn 0.2717 -0.9004 -0.3397
vn 0.2717 -0.9004 0.3397
vn -0.3397 -0.9004 0.2717
vn 0.9004 -0.3397 -0.2717
vn 0.9004 0.2717 -0.3397
vn 0.9004 0.2717 0.3397
vn 0.9004 -0.3397 0.2717
vn -0.2717 -0.3397 -0.9004
vn -0.3397 0.2717 -0.9004
vn 0.3397 0.2717 -0.9004
vn 0.2717 -0.3397 -0.9004
vn 0.2717 0.9004 -0.3397
vn -0.3397 0.9004 -0.2717
vn -0.3397 0.9004 0.2717
vn 0.2717 0.9004 0.3397
vn 0.3397 -0.2717 0.9004
vn 0.2717 0.3397 0.9004
vn -0.2717 0.3397 0.9004
vn -0.3397 -0.2717 0.9004
vn -0.9004 -0.2717 0.3397
vn -0.9004 0.3397 0.2717
vn -0.9004 0.3397 -0.2717
vn -0.9004 -0.2717 -0.3397
vn -0.2717 -0.9004 -0.3397
vn 0.3397 -0.9004 -0.2717
vn 0.3397 -0.9004 0.2717
vn -0.2717 -0.9004 0.3397
vn 0.9004 -0.2717 -0.3397
vn 0.9004 0.3397 -0.2717
vn 0.9004 0.3397 0.2717
vn 0.9004 -0.2717 0.3397
vn -0.3397 -0.2717 -0.9004
vn -0.2717 0.3397 -0.9004
vn 0.2717 0.3397 -0.9004
vn 0.3397 -0.2717 -0.9004
vt 0.390825 0.593650
vt 0.392160 0.771494
vt 0.283640 0.640583
vt 0.606610 0.593650
vt 0.605275 0.771494
vt 0.498718 0.638982
vt 0.808195 0.782247
vt 0.827061 0.600740
vt 0.929906 0.663149
vt 0.189240 0.782247
vt 0.170374 0.600740
vt 0.170374 0.399260
vt 0.017798 0.500000
vt 0.067530 0.336851
vt 0.164905 0.500000
vt 0.979638 0.500000
vt 0.832530 0.500000
vt 0.827061 0.399260
vt 0.929906 0.336851
vt 0.717025 0.500000
vt 0.713796 0.359417
vt 0.606973 0.500000
vt 0.606610 0.406350
vt 0.605275 0.228506
vt 0.390825 0.406350
vt 0.392160 0.228506
vt 0.498718 0.361018
vt 0.189240 0.217753
vt 0.808195 0.217753
vt 0.280411 0.500000
vt 0.283640 0.359417
vt 0.390462 0.500000
vt 0.498718 0.500000
vt 0.713796 0.640583
vt 0.067530 0.663149
s 0
usemtl Material
f 1/1/1 21/2/1 16/3/1
f 5/4/2 21/5/2 19/6/2
f 21/7/3 7/8/3 15/9/3
f 21/10/4 3/11/4 16/3/4
f 4/12/5 22/13/5 17/14/5
f 3/11/6 22/13/6 13/15/6
f 22/16/7 7/8/7 12/17/7
f 22/16/8 8/18/8 17/19/8
f 8/18/9 23/20/9 9/21/9
f 7/8/10 23/20/10 12/17/10
f 23/20/11 5/4/11 14/22/11
f 23/20/12 6/23/12 9/21/12
f 6/23/13 24/24/13 9/21/13
f 2/25/14 24/26/14 10/27/14
f 24/28/15 4/12/15 17/14/15
f 24/29/16 8/18/16 9/21/16
f 2/25/17 25/30/17 20/31/17
f 1/1/18 25/30/18 11/32/18
f 25/30/19 3/11/19 13/15/19
f 25/30/20 4/12/20 20/31/20
f 6/23/21 26/33/21 10/27/21
f 5/4/22 26/33/22 14/22/22
f 26/33/23 1/1/23 11/32/23
f 26/33/24 2/25/24 10/27/24
f 1/1/25 19/6/25 21/2/25
f 5/4/26 18/34/26 21/5/26
f 21/7/27 18/34/27 7/8/27
f 21/10/28 15/35/28 3/11/28
f 4/12/29 13/15/29 22/13/29
f 3/11/30 15/35/30 22/13/30
f 22/16/31 15/9/31 7/8/31
f 22/16/32 12/17/32 8/18/32
f 8/18/33 12/17/33 23/20/33
f 7/8/34 18/34/34 23/20/34
f 23/20/35 18/34/35 5/4/35
f 23/20/36 14/22/36 6/23/36
f 6/23/37 10/27/37 24/24/37
f 2/25/38 20/31/38 24/26/38
f 24/28/39 20/31/39 4/12/39
f 24/29/40 17/19/40 8/18/40
f 2/25/41 11/32/41 25/30/41
f 1/1/42 16/3/42 25/30/42
f 25/30/43 16/3/43 3/11/43
f 25/30/44 13/15/44 4/12/44
f 6/23/45 14/22/45 26/33/45
f 5/4/46 19/6/46 26/33/46
f 26/33/47 19/6/47 1/1/47
f 26/33/48 11/32/48 2/25/48
